<svg width="14" height="14" viewBox="0 0 14 14" fill="none" xmlns="http://www.w3.org/2000/svg">
<path d="M7.01552 0C3.06306 0 0 2.88878 0 6.79063C0 8.83146 0.838589 10.5951 2.20359 11.8134C2.43927 12.0254 2.39073 12.1482 2.43081 13.4571C2.43396 13.5487 2.4595 13.6383 2.5052 13.7178C2.55089 13.7973 2.61535 13.8645 2.69296 13.9134C2.77057 13.9623 2.85896 13.9915 2.95043 13.9984C3.0419 14.0053 3.13368 13.9897 3.21774 13.953C4.71117 13.2953 4.73036 13.2434 4.98355 13.3123C9.31028 14.5032 14 11.7341 14 6.79063C14 2.88878 10.9683 0 7.01552 0ZM11.2279 5.22571L9.16746 8.48793C9.08965 8.6106 8.98734 8.71588 8.86695 8.79716C8.74656 8.87844 8.61068 8.93398 8.46782 8.9603C8.32497 8.98661 8.17821 8.98314 8.03676 8.95009C7.89531 8.91704 7.76221 8.85512 7.64581 8.76823L6.00645 7.54119C5.93317 7.48622 5.84403 7.45651 5.75242 7.45651C5.66081 7.45651 5.57167 7.48622 5.49839 7.54119L3.28633 9.21902C2.99109 9.44286 2.6044 9.08917 2.80339 8.7767L4.86387 5.51447C4.94165 5.39177 5.04394 5.28647 5.16433 5.20516C5.28472 5.12385 5.42061 5.0683 5.56348 5.04198C5.70635 5.01566 5.85312 5.01915 5.99458 5.05222C6.13603 5.0853 6.26913 5.14724 6.38552 5.23418L8.02431 6.46093C8.0976 6.5159 8.18674 6.54562 8.27835 6.54562C8.36996 6.54562 8.45909 6.5159 8.53238 6.46093L10.7456 4.7848C11.0402 4.55955 11.4269 4.91295 11.2279 5.22571Z" fill="url(#paint0_linear_171_12875)"/>
<defs>
<linearGradient id="paint0_linear_171_12875" x1="10.9565" y1="1.21739" x2="-4.35373e-07" y2="14" gradientUnits="userSpaceOnUse">
<stop stop-color="#E9705D"/>
<stop offset="0.5" stop-color="#BF3FC8"/>
<stop offset="1" stop-color="#098DF7"/>
</linearGradient>
</defs>
</svg>
