<svg width="113" height="84" viewBox="0 0 113 84" fill="none" xmlns="http://www.w3.org/2000/svg">
<path d="M56.5438 7.48511H108.681C110.493 7.48511 111.962 8.95454 111.962 10.7662V52.1894C111.962 54.0011 110.493 55.4705 108.681 55.4705H56.5438C54.7321 55.4705 53.2627 54.0011 53.2627 52.1894V10.7662C53.2627 8.95454 54.7321 7.48511 56.5438 7.48511Z" fill="white"/>
<path d="M108.682 55.8415H56.5447C54.5322 55.8415 52.8916 54.2046 52.8916 52.1884V10.7652C52.8916 8.75262 54.5284 7.11206 56.5447 7.11206H108.682C110.694 7.11206 112.335 8.7489 112.335 10.7652V52.1884C112.335 54.2009 110.698 55.8415 108.682 55.8415ZM56.5447 7.85608C54.9414 7.85608 53.6356 9.16183 53.6356 10.7652V52.1884C53.6356 53.7917 54.9414 55.0975 56.5447 55.0975H108.682C110.285 55.0975 111.591 53.7917 111.591 52.1884V10.7652C111.591 9.16183 110.285 7.85608 108.682 7.85608H56.5447Z" fill="#153C4A"/>
<path d="M57.2011 12.3136C56.3827 12.3136 55.7168 11.6477 55.7168 10.8293C55.7168 10.0109 56.3827 9.34497 57.2011 9.34497C58.0195 9.34497 58.6854 10.0109 58.6854 10.8293C58.6854 11.6477 58.0195 12.3136 57.2011 12.3136ZM57.2011 10.0853C56.7919 10.0853 56.4608 10.4164 56.4608 10.8256C56.4608 11.2348 56.7919 11.5659 57.2011 11.5659C57.6103 11.5659 57.9414 11.2348 57.9414 10.8256C57.9414 10.4164 57.6103 10.0853 57.2011 10.0853Z" fill="#153C4A"/>
<path d="M60.9521 12.3136C60.1337 12.3136 59.4678 11.6477 59.4678 10.8293C59.4678 10.0109 60.1337 9.34497 60.9521 9.34497C61.7705 9.34497 62.4364 10.0109 62.4364 10.8293C62.4364 11.6477 61.7705 12.3136 60.9521 12.3136ZM60.9521 10.0853C60.5429 10.0853 60.2118 10.4164 60.2118 10.8256C60.2118 11.2348 60.5429 11.5659 60.9521 11.5659C61.3613 11.5659 61.6924 11.2348 61.6924 10.8256C61.6924 10.4164 61.3613 10.0853 60.9521 10.0853Z" fill="#153C4A"/>
<path d="M64.7011 12.3136C63.8827 12.3136 63.2168 11.6477 63.2168 10.8293C63.2168 10.0109 63.8827 9.34497 64.7011 9.34497C65.5195 9.34497 66.1854 10.0109 66.1854 10.8293C66.1854 11.6477 65.5195 12.3136 64.7011 12.3136ZM64.7011 10.0853C64.2919 10.0853 63.9608 10.4164 63.9608 10.8256C63.9608 11.2348 64.2919 11.5659 64.7011 11.5659C65.1103 11.5659 65.4414 11.2348 65.4414 10.8256C65.4414 10.4164 65.1103 10.0853 64.7011 10.0853Z" fill="#153C4A"/>
<path d="M107.756 55.1729L106.215 50.6865C105.174 47.6472 102.585 45.3928 99.43 44.779L86.7891 42.3088L72.6193 44.3958C68.9997 44.9278 66.0608 47.6025 65.194 51.1589L64.2119 55.1766H107.756V55.1729Z" fill="#153C4A"/>
<path d="M81.3644 55.5032H88.9496L89.9392 48.4946L85.4044 46.0059L80.293 48.7401L81.3644 55.5032Z" fill="white"/>
<path d="M89.2741 55.8757H81.0452L79.8809 48.5397L85.4052 45.5859L90.3417 48.2942L89.2704 55.8794L89.2741 55.8757ZM81.6814 55.1317H88.6268L89.5345 48.6959L85.4015 46.4304L80.6993 48.9452L81.6814 55.1317Z" fill="#153C4A"/>
<path d="M45.9027 32.2267C50.8504 24.5559 42.5621 19.7942 37.6367 21.4571C37.1903 21.6096 36.6992 21.5092 36.2454 21.565C35.9924 22.1937 35.8659 22.8521 35.8883 23.5329C36.0036 27.3088 41.461 36.2556 45.9027 32.2267Z" fill="#153C4A"/>
<path d="M24.6025 57.6322L37.9763 54.5222L40.1823 41.8776L28.4417 39.8279L24.6025 57.6322Z" fill="white"/>
<path d="M24.6028 58.0035C24.5061 58.0035 24.4131 57.9663 24.3424 57.8956C24.2531 57.8063 24.2122 57.6761 24.2382 57.5534L28.0811 39.7528C28.122 39.5593 28.3117 39.4328 28.5089 39.4663L40.2495 41.5124C40.3462 41.531 40.4317 41.583 40.4913 41.6649C40.5471 41.7467 40.5694 41.8472 40.5545 41.9439L38.3485 54.5885C38.3225 54.7373 38.2109 54.8526 38.0658 54.8861L24.6883 57.9961C24.6586 58.0035 24.6325 58.0072 24.6028 58.0072V58.0035ZM28.7321 40.2587L25.0901 57.1367L37.6566 54.2165L39.7547 42.1782L28.7321 40.255V40.2587Z" fill="#153C4A"/>
<path d="M27.817 42.9412C26.5336 41.7284 25.4994 40.1995 24.8446 38.4138C22.6572 32.4357 25.6259 26.0036 31.3659 23.753C40.7815 20.0589 45.3423 28.0274 45.6957 29.8725C45.7776 30.304 45.8594 30.7244 45.9412 31.1262C46.157 31.7884 46.3133 32.4543 46.41 33.1239C46.8118 34.5301 47.3326 35.5754 48.1993 36.0255C49.5311 36.7175 47.128 47.4871 39.1112 45.4597L27.817 42.9412Z" fill="white"/>
<path d="M40.9808 46.0623C40.1401 46.0623 39.4444 45.9283 39.0241 45.8242C38.8232 45.7721 38.7041 45.5712 38.7562 45.374C38.8083 45.1732 39.0092 45.0541 39.2063 45.1062C43.756 46.2557 46.1071 43.0862 47.1078 41.0922C48.2834 38.7486 48.328 36.5984 48.0304 36.3603C47.1562 35.9064 46.5461 34.9429 46.0587 33.2317C46.055 33.2168 46.0513 33.1982 46.0476 33.1833C45.9546 32.5323 45.7983 31.8813 45.59 31.2489C45.5863 31.234 45.5826 31.2228 45.5789 31.2079C45.497 30.8025 45.4152 30.3821 45.3333 29.9506C45.1659 29.0838 43.6742 26.0147 40.5791 24.3109C37.9304 22.8526 34.8762 22.782 31.5058 24.1063C25.8661 26.3198 23.0984 32.5509 25.2002 38.2947C25.8178 39.9836 26.7887 41.4605 28.0796 42.6807C28.2284 42.8221 28.2358 43.0564 28.0944 43.2052C27.9531 43.354 27.7187 43.3615 27.5699 43.2201C26.2158 41.9404 25.1556 40.3259 24.5046 38.5514C22.2613 32.4244 25.2188 25.7766 31.2379 23.4144C34.8241 22.0082 38.0903 22.09 40.9436 23.6599C44.0611 25.3786 45.8207 28.5146 46.0699 29.8129C46.1517 30.237 46.2299 30.6462 46.3117 31.0443C46.5275 31.7027 46.6874 32.3798 46.7879 33.0568C47.212 34.5374 47.7067 35.3558 48.3838 35.7055C49.2729 36.1668 48.9827 38.4361 48.2573 40.337C46.4308 45.1434 43.2017 46.0697 40.9845 46.0697L40.9808 46.0623Z" fill="#153C4A"/>
<path d="M45.6921 41.3006C45.6586 41.3006 45.6288 41.2969 45.5953 41.2895C44.4384 40.9807 44.0032 39.8275 43.9846 39.7791C43.9139 39.5857 44.0143 39.3736 44.2078 39.3029C44.4012 39.236 44.6132 39.3327 44.6839 39.5224C44.6914 39.541 45.015 40.3669 45.7851 40.5715C45.9822 40.6236 46.1013 40.8282 46.0492 41.0253C46.0046 41.1927 45.8558 41.3006 45.6883 41.3006H45.6921Z" fill="#153C4A"/>
<path d="M42.1211 31.8923H42.1137C41.909 31.8923 41.7454 31.7212 41.7491 31.5129C41.7565 30.9437 42.229 30.2518 42.8912 29.8277C43.6054 29.3701 44.4052 29.2994 45.1381 29.6231C45.3241 29.7049 45.4096 29.9281 45.3278 30.1141C45.246 30.3001 45.0265 30.3857 44.8368 30.3039C44.1671 30.0063 43.5794 30.2704 43.2929 30.4527C42.8056 30.7652 42.5005 31.2488 42.4968 31.524C42.4968 31.7287 42.3257 31.8886 42.1248 31.8886L42.1211 31.8923Z" fill="#153C4A"/>
<path d="M44.2687 33.6965C44.4249 34.0053 44.73 34.1653 44.9532 34.0537C45.1764 33.9421 45.2284 33.5998 45.0722 33.2948C44.916 32.986 44.6109 32.826 44.3877 32.9376C44.1645 33.0492 44.1124 33.3915 44.2687 33.6965Z" fill="#153C4A"/>
<path d="M39.6685 45.1691L38.9617 49.2166C37.3583 48.2196 36.0637 46.7055 35.3643 44.7934C35.0853 44.0308 34.9216 43.2533 34.8584 42.4795C36.1344 43.8745 37.8307 44.812 39.6685 45.1691Z" fill="#153C4A"/>
<path d="M0.00283224 83.6018L14.6339 55.5524C16.7581 51.4789 21.2408 49.2096 25.7793 49.909L44.6067 52.8107C48.7955 53.1641 52.2701 56.2034 53.1703 60.3104L56.0199 73.2711H64.3641V83.9999H45.2912L42.9066 78.0403L40.522 83.9999C40.522 83.9999 -0.391497 83.2038 0.00283224 83.6018Z" fill="#153C4A"/>
<path d="M54.8906 73.6098L58.0043 52.0147L62.089 46.762L62.5354 48.2463C62.6247 48.5402 62.5875 48.8564 62.4312 49.1205L60.5303 52.4016L60.3368 54.5407L65.8835 47.7813L66.4229 48.3616C66.6796 48.6369 66.7763 49.0238 66.687 49.3846L67.6914 48.3988L68.7666 49.7566C68.8819 50.0728 68.8484 50.4263 68.6735 50.7164L65.9579 53.7594L65.8835 57.115L68.6549 54.7788L71.5715 53.4656C71.5715 54.6225 71.0693 55.7274 70.1951 56.4863L69.8937 56.7504L66.3931 60.7644L66.1736 69.2276L63.9862 71.415L64.0606 76.013L54.8906 73.6061V73.6098Z" fill="white"/>
<path d="M64.438 76.504L54.4756 73.8888L57.6488 51.8659L62.2394 45.9658L62.8941 48.1421C63.0095 48.5327 62.9611 48.9568 62.7565 49.3102L60.8965 52.5206L60.8183 53.3725L65.8665 47.2195L66.6961 48.1123C66.8226 48.25 66.9193 48.4062 66.9862 48.5736L67.7228 47.8482L69.1104 49.6338C69.2667 50.0579 69.222 50.5266 68.9876 50.9135L68.9467 50.9693L66.3241 53.9119L66.272 56.3077L68.504 54.4476L71.9451 52.8963V53.473C71.9451 54.7415 71.3983 55.9431 70.4422 56.7764L70.1595 57.0219L66.763 60.9131L66.5435 69.3912L64.3599 71.5749L64.438 76.504ZM55.3052 73.3345L63.6791 75.5331L63.6121 71.2699L65.807 69.075L66.0265 60.6267L69.6535 56.4788L69.9549 56.2147C70.5947 55.6566 71.0151 54.8978 71.1527 54.0719L68.8574 55.1061L65.4945 57.9371L65.5875 53.6218L68.3664 50.5043C68.4631 50.3332 68.4817 50.1323 68.4296 49.9426L67.6521 48.9605L66.0041 50.5787L66.3241 49.299C66.3836 49.0572 66.3203 48.8005 66.1492 48.6182L65.9 48.3504L59.8586 55.7199L60.171 52.2937L62.1129 48.9419C62.2134 48.767 62.2394 48.555 62.1799 48.3616L61.9418 47.5655L58.3594 52.1709L55.3089 73.3419L55.3052 73.3345Z" fill="#153C4A"/>
<path d="M62.3809 56.1731L63.8391 52.8176L66.685 49.3877L62.3809 56.1731Z" fill="white"/>
<path d="M62.7226 56.322L62.0381 56.0244L63.5522 52.5796L66.398 49.1497L66.9709 49.6258L64.1585 53.0148L62.7226 56.322Z" fill="#153C4A"/>
<path d="M22.6409 32.9182C27.5636 32.9182 31.5542 28.9276 31.5542 24.0049C31.5542 19.0822 27.5636 15.0916 22.6409 15.0916C17.7182 15.0916 13.7275 19.0822 13.7275 24.0049C13.7275 28.9276 17.7182 32.9182 22.6409 32.9182Z" fill="#153C4A"/>
<path d="M21.8947 34.1537C16.7759 34.1537 12.6094 29.9872 12.6094 24.8683C12.6094 19.7495 16.7759 15.583 21.8947 15.583C27.0136 15.583 31.18 19.7495 31.18 24.8683C31.18 29.9872 27.0136 34.1537 21.8947 34.1537ZM21.8947 16.3307C17.1851 16.3307 13.3534 20.1624 13.3534 24.8721C13.3534 29.5817 17.1851 33.4134 21.8947 33.4134C26.6043 33.4134 30.436 29.5817 30.436 24.8721C30.436 20.1624 26.6043 16.3307 21.8947 16.3307Z" fill="#153C4A"/>
<path d="M36.0119 31.7845C34.3973 28.7675 31.1013 26.7847 27.3738 27.1009C23.0213 27.4692 19.5244 31.0516 19.2529 35.4116C18.9329 40.5899 23.0362 44.8941 28.1476 44.8941C28.1625 44.8941 28.1774 44.8941 28.1922 44.8941C30.3871 44.8829 32.3067 43.3949 32.9726 41.3042L36.0119 31.7882V31.7845Z" fill="#153C4A"/>
<path d="M41.8072 28.2739C42.7438 24.3426 40.3161 20.3964 36.3848 19.4599C32.4535 18.5233 28.5074 20.951 27.5708 24.8823C26.6342 28.8136 29.0619 32.7597 32.9932 33.6963C36.9245 34.6328 40.8706 32.2052 41.8072 28.2739Z" fill="#153C4A"/>
<path d="M38.4019 36.8496C38.8025 34.9793 37.6111 33.1383 35.7407 32.7376C33.8703 32.337 32.0294 33.5285 31.6287 35.3988C31.2281 37.2692 32.4195 39.1102 34.2899 39.5108C36.1603 39.9114 38.0013 38.72 38.4019 36.8496Z" fill="white"/>
<path d="M30.4219 33.0867C30.4219 33.507 30.4516 33.9162 30.5074 34.3217C31.3147 34.5635 32.1703 34.6937 33.052 34.6937C37.9737 34.6937 41.9653 30.7021 41.9653 25.7804C41.9653 25.36 41.9355 24.9508 41.8797 24.5453C41.0725 24.3035 40.2169 24.1733 39.3352 24.1733C34.4135 24.1733 30.4219 28.165 30.4219 33.0867Z" fill="#153C4A"/>
<path d="M58.356 82.5969C58.1961 82.5969 58.0473 82.4927 57.9989 82.329L54.8666 71.7714C54.8071 71.5743 54.9187 71.3659 55.1158 71.3101C55.313 71.2506 55.5213 71.3659 55.5771 71.5594L58.7094 82.117C58.769 82.3142 58.6574 82.5225 58.4602 82.5783C58.423 82.5894 58.3895 82.5932 58.3523 82.5932L58.356 82.5969Z" fill="white"/>
<path d="M75.8253 27.1828C75.8253 27.1828 73.0762 17.0493 75.0924 14.0472C77.1534 10.9781 79.6756 11.4208 83.3399 13.2958C87.0042 15.1707 86.6098 12.1611 91.5873 13.8575C94.3364 14.795 96.1704 16.8596 95.9882 18.9242C95.8059 20.9889 95.8059 26.4314 93.9719 28.496C92.1379 30.5607 78.7567 32.4356 75.8253 27.1828Z" fill="#153C4A"/>
<path d="M85.1076 46.0059H85.1262C82.8756 46.0059 81.0527 44.1831 81.0527 41.9324V27.1265C81.0527 24.8758 82.8756 23.053 85.1262 23.053H85.1076C87.3583 23.053 89.1811 24.8758 89.1811 27.1265V41.9324C89.1811 44.1831 87.3583 46.0059 85.1076 46.0059Z" fill="white"/>
<path d="M85.1301 46.3786C85.1301 46.3786 85.1189 46.3786 85.1115 46.3786H85.104C82.6637 46.3637 80.6846 44.3735 80.6846 41.9331V27.1271C80.6846 24.683 82.6637 22.6965 85.104 22.6816H85.1375C87.5779 22.6965 89.557 24.6868 89.557 27.1271V41.9331C89.557 44.3772 87.5779 46.3637 85.1375 46.3786H85.1301ZM85.1189 23.4219C83.0803 23.4257 81.4249 25.0848 81.4249 27.1234V41.9294C81.4249 43.968 83.0803 45.6271 85.1189 45.6309C87.1575 45.6271 88.813 43.968 88.813 41.9294V27.1234C88.813 25.0848 87.1575 23.4257 85.1189 23.4219Z" fill="#153C4A"/>
<path d="M78.7411 28.2805C79.247 30.148 78.8639 31.8741 77.8855 32.142C76.9071 32.4098 75.7018 31.1115 75.1959 29.244C74.6899 27.3765 75.0731 25.6504 76.0515 25.3826C77.0299 25.1185 78.2352 26.413 78.7411 28.2805Z" fill="white"/>
<path d="M77.6311 32.5468C76.5263 32.5468 75.3545 31.2337 74.8411 29.3401C74.2719 27.2457 74.763 25.3485 75.9571 25.0248C77.155 24.7012 78.5351 26.0888 79.1043 28.1832C79.6735 30.2776 79.1824 32.1748 77.9883 32.4985C77.873 32.532 77.7539 32.5468 77.6349 32.5468H77.6311ZM76.3105 25.7205C76.2547 25.7205 76.2026 25.7279 76.1543 25.7391C75.4847 25.9214 75.0792 27.3648 75.5591 29.143C76.0427 30.9212 77.1252 31.9516 77.7911 31.7805C78.4607 31.5982 78.8662 30.1548 78.3863 28.3766C77.9399 26.7323 76.9801 25.7205 76.3105 25.7205Z" fill="#153C4A"/>
<path d="M91.0933 28.2805C90.5874 30.148 90.9706 31.8741 91.949 32.142C92.9273 32.4061 94.1326 31.1115 94.6386 29.244C95.1445 27.3765 94.7613 25.6504 93.783 25.3826C92.8046 25.1185 91.5993 26.413 91.0933 28.2805Z" fill="white"/>
<path d="M92.2051 32.5468C92.086 32.5468 91.967 32.532 91.8516 32.4985C90.6575 32.1748 90.1664 30.2776 90.7356 28.1832C91.3048 26.0888 92.6849 24.7012 93.8828 25.0248C95.077 25.3485 95.568 27.2457 94.9988 29.3401C94.4855 31.2299 93.3099 32.5468 92.2051 32.5468ZM91.4536 28.3766C90.97 30.1548 91.3792 31.5982 92.0488 31.7805C92.7221 31.9628 93.801 30.9249 94.2809 29.143C94.7645 27.3648 94.3553 25.9214 93.6856 25.7391C93.016 25.5605 91.9372 26.5947 91.4536 28.3766Z" fill="#153C4A"/>
<path d="M87.0402 16.2085H82.8402C79.7728 16.2085 77.2861 18.6951 77.2861 21.7626V35.047C77.2861 38.1145 79.7728 40.6011 82.8402 40.6011H87.0402C90.1076 40.6011 92.5943 38.1145 92.5943 35.047V21.7626C92.5943 18.6951 90.1076 16.2085 87.0402 16.2085Z" fill="white"/>
<path d="M87.0374 40.9732H82.8411C79.5712 40.9732 76.915 38.3134 76.915 35.0471V21.7664C76.915 18.4965 79.5749 15.8403 82.8411 15.8403H87.0374C90.3074 15.8403 92.9635 18.5002 92.9635 21.7664V35.0471C92.9635 38.3171 90.3036 40.9732 87.0374 40.9732ZM82.8411 16.5806C79.9841 16.5806 77.6591 18.9057 77.6591 21.7627V35.0434C77.6591 37.9004 79.9841 40.2255 82.8411 40.2255H87.0374C89.8944 40.2255 92.2195 37.9004 92.2195 35.0434V21.7627C92.2195 18.9057 89.8944 16.5806 87.0374 16.5806H82.8411Z" fill="#153C4A"/>
<path d="M79.987 28.5887C80.1879 29.1021 80.6492 29.3997 81.0174 29.2546C81.3857 29.1095 81.5234 28.5776 81.3225 28.0642C81.1216 27.5508 80.6603 27.2532 80.292 27.3983C79.9237 27.5434 79.7861 28.0754 79.987 28.5887Z" fill="#153C4A"/>
<path d="M82.514 26.9968C82.4359 26.9968 82.3541 26.9708 82.2871 26.9187C81.9449 26.6546 81.4724 26.4909 80.9553 26.4537C80.3266 26.4128 79.7314 26.5653 79.3594 26.8704C79.1994 27.0006 78.9651 26.9782 78.8349 26.822C78.7047 26.6658 78.727 26.4277 78.8832 26.2975C79.3966 25.8734 80.189 25.6502 81.0037 25.7097C81.6659 25.7543 82.2834 25.9775 82.7372 26.3272C82.9009 26.4537 82.9307 26.6881 82.8042 26.848C82.7298 26.941 82.6219 26.9931 82.5103 26.9931L82.514 26.9968Z" fill="#153C4A"/>
<path d="M87.6774 28.5887C87.8783 29.1021 88.3396 29.3997 88.7079 29.2546C89.0762 29.1095 89.2138 28.5776 89.0129 28.0642C88.812 27.5508 88.3507 27.2532 87.9825 27.3983C87.6142 27.5434 87.4765 28.0754 87.6774 28.5887Z" fill="#153C4A"/>
<path d="M90.2045 26.9971C90.1263 26.9971 90.0445 26.971 89.9775 26.919C89.6427 26.6585 89.1554 26.4911 88.6457 26.4539C88.0171 26.413 87.4218 26.5655 87.0498 26.8706C86.8899 27.0008 86.6555 26.9785 86.5253 26.8222C86.3951 26.6623 86.4174 26.4279 86.5737 26.2977C87.0945 25.8662 87.8682 25.6504 88.6941 25.7099C89.3563 25.7546 89.9738 25.9778 90.4277 26.3275C90.5914 26.4539 90.6211 26.6883 90.4946 26.8483C90.4202 26.9413 90.3123 26.9934 90.2007 26.9934L90.2045 26.9971Z" fill="#153C4A"/>
<path d="M84.5378 32.1266C84.3109 32.1266 84.0877 32.0336 83.9463 31.8662C83.6711 31.5425 83.6971 31.1147 83.7157 30.858C83.8087 29.4295 83.9389 27.9898 84.0989 26.5688C84.1212 26.3641 84.3072 26.2228 84.5118 26.2414C84.7164 26.2637 84.8615 26.4497 84.8392 26.6543C84.6792 28.0605 84.5527 29.4927 84.4597 30.9064C84.4486 31.0849 84.4411 31.2821 84.5081 31.3751C84.5788 31.2337 84.7313 31.1445 84.895 31.1705C85.0996 31.2003 85.2372 31.39 85.2074 31.5909C85.1702 31.8364 85.0028 32.0224 84.7499 32.0968C84.6792 32.1154 84.6085 32.1266 84.5341 32.1266H84.5378Z" fill="#153C4A"/>
<path d="M86.0776 34.5557C85.8172 34.5557 85.5605 34.5111 85.3187 34.4181C85.1252 34.3437 85.0322 34.1279 85.1066 33.9382C85.181 33.7447 85.3968 33.6517 85.5865 33.7261C85.966 33.8712 86.4198 33.8377 86.8328 33.6257C87.2457 33.4136 87.5396 33.0677 87.6437 32.6733C87.6958 32.4762 87.9004 32.3571 88.0976 32.4092C88.2948 32.4613 88.4138 32.6659 88.3617 32.8631C88.2018 33.462 87.7702 33.9828 87.1676 34.2879C86.8179 34.4664 86.4422 34.5594 86.0739 34.5594L86.0776 34.5557Z" fill="#153C4A"/>
<path d="M77.541 24.1806C77.541 24.1806 78.1474 19.2105 79.7061 19.8913C81.2649 20.5721 81.3244 21.9931 83.7499 22.1643C86.1754 22.3354 87.7341 21.4835 88.6009 22.3354C89.4677 23.1873 91.0264 25.0622 93.1059 23.7007C95.1854 22.3354 95.3863 19.0692 92.094 17.3654C88.8018 15.6616 83.8652 15.4049 81.09 15.2337C78.3185 15.0626 75.4578 20.0922 77.5373 24.1806H77.541Z" fill="#153C4A"/>
<path d="M85.2403 50.6902L83.875 48.3242L82.5098 45.9583H85.2403H87.9709L86.6056 48.3242L85.2403 50.6902Z" fill="#153C4A"/>
<path d="M85.2401 47.2566L83.8749 51.278L82.5059 55.2994H85.2401H87.9707L86.6054 51.278L85.2401 47.2566Z" fill="#153C4A"/>
<path d="M85.1094 46.0061L80.5411 51.4635L79.4697 43.9563L81.0545 41.9326L85.1094 46.0061Z" fill="white"/>
<path d="M80.2909 52.3419L79.0781 43.8526L81.0237 41.3713L85.6143 45.9842L80.2909 52.3382V52.3419ZM79.8593 44.061L80.7894 50.5823L84.6062 46.0252L81.087 42.4911L79.8593 44.061Z" fill="#153C4A"/>
<path d="M85.4053 46.0061L89.9735 51.4635L91.0486 43.9563L89.4602 41.9326L85.4053 46.0061Z" fill="white"/>
<path d="M90.2268 52.3413L84.9033 45.9874L89.4939 41.3745L91.4395 43.8558L90.2268 52.345V52.3413ZM85.9077 46.0283L89.7246 50.5854L90.6546 44.0641L89.4269 42.4943L85.9077 46.0283Z" fill="#153C4A"/>
<path fill-rule="evenodd" clip-rule="evenodd" d="M10.0652 0H43.6315C46.1134 0 48.1254 2.01197 48.1254 4.49386V12.3321C48.1254 14.814 46.1134 16.826 43.6315 16.826H19.6743V22.5136L13.9867 16.826H10.0652C7.58326 16.826 5.57129 14.814 5.57129 12.3321V4.49386C5.57129 2.01197 7.58326 0 10.0652 0Z" fill="url(#paint0_linear_171_13434)"/>
<path fill-rule="evenodd" clip-rule="evenodd" d="M104.536 57.8926H108.458C110.94 57.8926 112.952 59.9045 112.952 62.3864V70.2246C112.952 72.7065 110.94 74.7185 108.458 74.7185H74.8913C72.4094 74.7185 70.3975 72.7065 70.3975 70.2246V62.3864C70.3975 59.9045 72.4094 57.8926 74.8913 57.8926H98.8478V52.2041L104.536 57.8926Z" fill="url(#paint1_linear_171_13434)"/>
<path d="M19.0842 10.9143C18.8684 10.9143 18.6564 10.9031 18.4481 10.8771C16.8001 10.6799 15.7101 10.2223 15.2116 9.51922C15.1707 9.4597 15.1298 9.39646 15.0963 9.33322C14.196 9.4597 13.1097 9.52666 11.8561 9.53782L11.8486 8.7938C13.1358 8.78264 14.129 8.71196 14.8991 8.61152C14.8917 8.4404 14.9103 8.26183 14.9512 8.07583C15.126 7.29461 16.004 6.45015 16.8782 6.53943C17.7078 6.62499 18.2881 7.10861 18.2621 7.69266C18.2286 8.37715 17.4176 8.88681 15.9072 9.19557C16.2197 9.53782 16.9303 9.94703 18.5373 10.1368C19.9026 10.3004 21.4651 9.82055 22.6964 9.13977C22.1756 8.80868 21.7701 8.47016 21.5023 8.18371C21.1637 7.82658 20.788 7.29833 20.907 6.82588C21.067 6.19346 21.7292 5.63545 22.5885 5.40109C23.6078 5.1258 24.6123 5.36388 25.2707 6.03722C25.6836 6.45759 25.7432 7.02676 25.4418 7.63686C25.2037 8.12047 24.7499 8.61896 24.1621 9.07653C25.4083 9.61966 27.0638 9.96935 28.9424 9.6085C29.865 9.43366 30.609 9.12861 31.1745 8.77148C30.423 8.15395 29.9208 7.40249 29.9543 6.811C29.9766 6.38691 30.2593 6.0707 30.7244 5.94422C32.0301 5.59453 32.6402 5.9777 32.8894 6.2381C33.2131 6.57663 33.2987 7.07512 33.1312 7.6071C33.0196 7.94934 32.7927 8.33623 32.4282 8.71196C32.577 8.79008 32.7332 8.86449 32.8932 8.92773C34.4147 9.52666 35.0359 9.20673 35.0397 9.20301L35.4563 9.82055C35.3707 9.88007 34.5449 10.3748 32.6216 9.61966C32.3463 9.51178 32.0822 9.37786 31.8292 9.22533C31.1745 9.69779 30.2742 10.107 29.0875 10.3339C26.8183 10.7692 24.8615 10.2632 23.459 9.56014C22.1979 10.3376 20.5722 10.9031 19.0879 10.9031L19.0842 10.9143ZM23.4144 6.03722C23.2098 6.03722 22.9977 6.06698 22.782 6.12278C22.1942 6.27903 21.7217 6.64731 21.6287 7.01188C21.6213 7.06024 21.6957 7.35041 22.1905 7.82658C22.4769 8.09815 22.8861 8.41064 23.4032 8.70452C24.0617 8.25067 24.5564 7.75218 24.7722 7.31321C25.0066 6.83704 24.8094 6.63615 24.7387 6.56175C24.4002 6.2195 23.9315 6.03722 23.4107 6.03722H23.4144ZM16.7443 7.27973C16.2979 7.27973 15.7733 7.80054 15.6766 8.23951C15.658 8.32879 15.6468 8.41436 15.6431 8.4962C17.3841 8.16139 17.5143 7.66662 17.518 7.65918C17.5218 7.55502 17.2762 7.32809 16.8038 7.28345C16.7852 7.28345 16.7666 7.28345 16.748 7.28345L16.7443 7.27973ZM31.6879 6.55803C31.4647 6.55803 31.2042 6.59523 30.9178 6.67335C30.7058 6.72916 30.702 6.811 30.6983 6.86308C30.6797 7.18301 31.1075 7.79682 31.7883 8.31391C32.1157 8.00887 32.3277 7.68894 32.4244 7.39133C32.4728 7.23509 32.5323 6.94864 32.3538 6.76264C32.2235 6.62499 31.9929 6.55803 31.6916 6.55803H31.6879Z" fill="#153C4A"/>
<path d="M83.9125 69.8077C82.4021 69.8077 80.9401 69.298 79.5042 68.2824C79.5005 68.2824 79.4967 68.2787 79.493 68.275C78.4216 68.7214 77.2758 68.807 76.4165 68.4312C75.453 68.0109 74.9285 67.0548 74.9396 65.7453C74.9396 65.5407 75.107 65.377 75.3116 65.377C75.5162 65.377 75.6836 65.5482 75.6799 65.7528C75.6725 66.7758 76.0185 67.4454 76.7104 67.7504C77.3056 68.0109 78.1091 67.9737 78.9015 67.7021C78.3844 67.0027 78.2542 66.069 78.5593 65.0645C78.9015 63.9374 79.8427 62.7581 80.8248 62.7321C81.167 62.7209 81.792 62.8548 82.1492 63.8369C82.5658 64.9864 82.1901 66.2215 81.1224 67.2222C80.8508 67.4752 80.557 67.6984 80.2445 67.8881C82.8709 69.5993 85.5158 69.4542 88.5291 67.4417C88.7783 67.2743 89.0053 67.1106 89.2173 66.9432C89.1987 66.8427 89.1801 66.7349 89.1727 66.627C89.0164 65.0571 89.9018 63.0892 90.8653 62.8623C91.3564 62.7469 91.7805 62.9478 91.9739 63.3831C92.3459 64.2387 91.7767 65.7342 90.0729 67.2073C90.3445 67.8583 90.9397 68.2006 91.8511 68.2303C94.2952 68.3122 95.4968 67.4938 95.999 66.9953C95.9395 66.9209 95.8837 66.8502 95.8353 66.7795C95.2178 65.8755 95.2253 64.9195 95.5117 64.3763C95.6791 64.0601 95.9395 63.8741 96.226 63.8741H96.2371C96.7207 63.8741 96.9849 64.1085 97.1188 64.3019C97.647 65.072 97.1039 66.5972 96.9774 66.9283C98.0042 67.8063 100.225 68.673 105.024 68.1299C105.225 68.1076 105.411 68.2527 105.437 68.4573C105.459 68.6619 105.314 68.8442 105.11 68.8702C100.113 69.4357 97.6917 68.4833 96.5273 67.5198C95.9023 68.1411 94.511 69.0674 91.8325 68.9744C90.7165 68.9372 89.9018 68.4796 89.4852 67.6835C89.3178 67.81 89.1392 67.9327 88.9532 68.0592C87.2085 69.2273 85.5382 69.8077 83.9236 69.8077H83.9125ZM80.862 63.4761H80.8508C80.3635 63.4872 79.5972 64.235 79.2773 65.2803C79.1508 65.7007 78.961 66.6679 79.6158 67.3933C79.9766 67.1999 80.3189 66.9618 80.6202 66.6791C81.115 66.2141 81.8813 65.2654 81.4572 64.0899C81.3084 63.6844 81.1112 63.4761 80.8657 63.4761H80.862ZM91.1332 63.5728C91.1071 63.5728 91.0736 63.5765 91.0327 63.5877C90.6235 63.6844 89.8572 65.0459 89.8981 66.3554C91.1555 65.1501 91.4605 64.0824 91.2857 63.6807C91.2671 63.636 91.2373 63.5728 91.1294 63.5728H91.1332ZM96.2334 64.6144H96.2297C96.1627 64.6553 95.9544 65.0943 96.1441 65.7304C96.185 65.8718 96.2632 66.0652 96.4045 66.2847C96.5757 65.7081 96.6873 64.9901 96.5012 64.7186C96.4789 64.6851 96.4268 64.6107 96.2334 64.6107V64.6144Z" fill="#153C4A"/>
<defs>
<linearGradient id="paint0_linear_171_13434" x1="5.5713" y1="5.62839" x2="18.882" y2="28.9427" gradientUnits="userSpaceOnUse">
<stop stop-color="#F39025"/>
<stop offset="1" stop-color="#53D1FF"/>
</linearGradient>
<linearGradient id="paint1_linear_171_13434" x1="70.3975" y1="57.8327" x2="83.7089" y2="81.1474" gradientUnits="userSpaceOnUse">
<stop stop-color="#F39025"/>
<stop offset="1" stop-color="#53D1FF"/>
</linearGradient>
</defs>
</svg>
