<svg width="128" height="90" viewBox="0 0 128 90" fill="none" xmlns="http://www.w3.org/2000/svg">
<path d="M51.931 53.6189L122.973 53.6189C125.398 53.6189 127.363 51.6532 127.363 49.2283V4.81246C127.363 2.38762 125.398 0.421909 122.973 0.421909L51.931 0.421909C49.5061 0.421909 47.5404 2.38762 47.5404 4.81246V49.2283C47.5404 51.6532 49.5061 53.6189 51.931 53.6189Z" fill="white"/>
<path d="M122.973 54.0405H51.9354C49.2825 54.0405 47.123 51.8811 47.123 49.2282V4.81232C47.123 2.15943 49.2825 0 51.9354 0H122.977C125.63 0 127.789 2.15943 127.789 4.81232V49.224C127.789 51.8769 125.63 54.0363 122.977 54.0363L122.973 54.0405ZM51.9354 0.843526C49.7464 0.843526 47.9666 2.62337 47.9666 4.81232V49.224C47.9666 51.4129 49.7464 53.1928 51.9354 53.1928H122.977C125.166 53.1928 126.946 51.4129 126.946 49.224V4.81232C126.946 2.62337 125.166 0.843526 122.977 0.843526H51.9354Z" fill="#153C4A"/>
<path d="M122.095 6.80738C121.041 6.80738 120.185 5.9512 120.185 4.89679C120.185 3.84239 121.041 2.98621 122.095 2.98621C123.15 2.98621 124.006 3.84239 124.006 4.89679C124.006 5.9512 123.15 6.80738 122.095 6.80738ZM122.095 3.82551C121.505 3.82551 121.028 4.30632 121.028 4.89258C121.028 5.47883 121.509 5.95964 122.095 5.95964C122.681 5.95964 123.162 5.47883 123.162 4.89258C123.162 4.30632 122.681 3.82551 122.095 3.82551Z" fill="#153C4A"/>
<path d="M117.081 6.80738C116.026 6.80738 115.17 5.9512 115.17 4.89679C115.17 3.84239 116.026 2.98621 117.081 2.98621C118.135 2.98621 118.991 3.84239 118.991 4.89679C118.991 5.9512 118.135 6.80738 117.081 6.80738ZM117.081 3.82551C116.49 3.82551 116.013 4.30632 116.013 4.89258C116.013 5.47883 116.494 5.95964 117.081 5.95964C117.667 5.95964 118.148 5.47883 118.148 4.89258C118.148 4.30632 117.667 3.82551 117.081 3.82551Z" fill="#153C4A"/>
<path d="M112.061 6.80738C111.007 6.80738 110.15 5.9512 110.15 4.89679C110.15 3.84239 111.007 2.98621 112.061 2.98621C113.115 2.98621 113.972 3.84239 113.972 4.89679C113.972 5.9512 113.115 6.80738 112.061 6.80738ZM112.061 3.82551C111.471 3.82551 110.994 4.30632 110.994 4.89258C110.994 5.47883 111.475 5.95964 112.061 5.95964C112.647 5.95964 113.128 5.47883 113.128 4.89258C113.128 4.30632 112.647 3.82551 112.061 3.82551Z" fill="#153C4A"/>
<path d="M91.7236 23.9856C91.7236 33.0493 84.4355 40.3964 75.4477 40.3964C66.4599 40.3964 59.1719 33.0493 59.1719 23.9856C59.1719 14.9219 66.4599 7.57483 75.4477 7.57483C84.4355 7.57483 91.7236 14.9219 91.7236 23.9856Z" fill="white"/>
<path d="M75.4476 40.8142C66.2405 40.8142 58.75 33.2646 58.75 23.9816C58.75 14.6986 66.2405 7.14905 75.4476 7.14905C84.6547 7.14905 92.1452 14.6986 92.1452 23.9816C92.1452 33.2646 84.6547 40.8142 75.4476 40.8142ZM75.4476 7.99679C66.7045 7.99679 59.5935 15.1668 59.5935 23.9858C59.5935 32.8049 66.7045 39.9749 75.4476 39.9749C84.1907 39.9749 91.3017 32.8007 91.3017 23.9858C91.3017 15.171 84.1907 7.99679 75.4476 7.99679Z" fill="#153C4A"/>
<path d="M75.4472 40.8142C70.0233 40.8142 65.6074 33.2646 65.6074 23.9816C65.6074 14.6986 70.0191 7.14905 75.4472 7.14905C80.8752 7.14905 85.2785 14.6986 85.2785 23.9816C85.2785 33.2646 80.8668 40.8142 75.4472 40.8142ZM75.4472 7.99679C70.4872 7.99679 66.4509 15.1668 66.4509 23.9858C66.4509 32.8049 70.4872 39.9749 75.4472 39.9749C80.4071 39.9749 84.4349 32.8007 84.4349 23.9858C84.4349 15.171 80.4029 7.99679 75.4472 7.99679Z" fill="#153C4A"/>
<path d="M75.4472 40.8141H75.0254V7.1532H75.4472C84.6542 7.1532 92.1448 14.7028 92.1448 23.9858C92.1448 33.2688 84.6542 40.8183 75.4472 40.8183V40.8141ZM75.8689 8.00094V39.9664C84.4181 39.7386 91.3012 32.6572 91.3012 23.9815C91.3012 15.3059 84.4181 8.22448 75.8689 8.00094Z" fill="#153C4A"/>
<path d="M90.9558 30.1899H59.9352L59.8339 29.9158C59.1127 27.9883 58.75 25.9934 58.75 23.9815C58.75 21.9697 59.1169 19.9748 59.8339 18.0473L59.9352 17.7732H90.9558L91.057 18.0473C91.7783 19.9748 92.1452 21.9697 92.1452 23.9815C92.1452 25.9934 91.7783 27.9883 91.057 29.9158L90.9558 30.1899ZM60.5256 29.3464H90.3696C90.9896 27.6003 91.3059 25.7951 91.3059 23.9815C91.3059 22.168 90.9896 20.367 90.3696 18.6209H60.5256C59.9056 20.367 59.5935 22.168 59.5935 23.9815C59.5935 25.7951 59.9056 27.5961 60.5256 29.3464Z" fill="#153C4A"/>
<path d="M119.54 41.9906L100.484 39.2618C96.0979 38.6334 91.8255 40.7211 90.6066 44.0825L87.1523 53.6144H122.542C124.968 53.6144 126.933 51.649 126.933 49.2238V46.592C125.63 44.2512 122.918 42.4756 119.54 41.9906Z" fill="#153C4A"/>
<path d="M114.461 30.2656L115.317 41.7966C115.389 42.7583 115.245 43.7241 114.9 44.6225L114.786 44.9135C113.702 47.7182 110.842 49.4179 107.865 49.0257C104.271 48.5575 101.753 45.2467 102.255 41.6575L103.491 32.8595L114.461 30.2572V30.2656Z" fill="white"/>
<path d="M108.717 49.5062C108.418 49.5062 108.114 49.4851 107.806 49.4472C105.955 49.2068 104.314 48.2536 103.184 46.769C102.054 45.2844 101.573 43.4497 101.834 41.6024L103.07 32.8044C103.095 32.6315 103.222 32.4923 103.391 32.4543L114.361 29.852C114.483 29.8225 114.605 29.852 114.706 29.9237C114.808 29.9954 114.867 30.1093 114.879 30.2316L115.736 41.7626C115.811 42.7791 115.655 43.8208 115.288 44.774L115.175 45.065C114.129 47.7728 111.552 49.5062 108.713 49.5062H108.717ZM103.871 33.2093L102.674 41.7205C102.446 43.3443 102.868 44.9554 103.859 46.2586C104.85 47.5619 106.292 48.397 107.916 48.6121C110.712 48.979 113.374 47.3974 114.39 44.7656L114.504 44.4746C114.829 43.6395 114.964 42.7243 114.896 41.8301L114.078 30.7926L103.871 33.2135V33.2093Z" fill="#153C4A"/>
<path d="M116.46 11.9149C112.887 9.49399 107.767 9.82296 106.789 11.2148C106.148 10.4008 105.216 9.73861 104.081 9.39276C101.432 8.57876 98.7036 9.76391 97.9823 12.033C97.3581 13.9984 98.4463 16.1368 100.467 17.1996C99.6905 18.4944 99.0325 19.9368 98.5349 21.4974C96.5526 27.731 106.548 31.3413 108.455 31.9276C113.617 33.5134 119.252 30.2321 121.04 24.6058C122.828 18.9752 120.774 14.8377 116.46 11.9107V11.9149Z" fill="#153C4A"/>
<path d="M116.242 13.5261C114.707 13.6273 113.408 14.125 112.552 15.0487C110.126 17.6467 111.219 24.6227 116.807 26.5164C117.157 26.6345 117.566 26.5755 117.87 26.7737C119.481 21.6704 118.73 16.6683 116.242 13.5303V13.5261Z" fill="#153C4A"/>
<path d="M100.253 17.1025C102.277 18.507 105.145 19.5235 108.385 19.8229C113.834 20.329 118.617 18.6546 120.261 15.9216C119.114 12.906 117.01 10.6538 114.154 9.81447C109.274 8.38048 103.699 11.51 100.253 17.1025Z" fill="#153C4A"/>
<path d="M121.05 29.5824C120.843 31.8008 118.878 33.4288 116.663 33.2222C114.445 33.0155 112.817 31.0501 113.024 28.8358C113.23 26.6174 115.196 24.9894 117.41 25.196C119.624 25.4027 121.256 27.3681 121.05 29.5824Z" fill="white"/>
<path d="M117.404 25.1963C116.565 25.1162 115.759 25.306 115.076 25.6855C112.921 24.3106 111.736 22.0499 111.419 19.8863C110.441 19.9411 109.425 19.9243 108.383 19.8272C105.207 19.532 102.394 18.5493 100.373 17.187C99.627 18.4734 98.9901 19.8989 98.5093 21.4426C96.1432 29.0133 98.3321 36.4278 103.393 38.0095C107.185 39.1946 111.512 36.7653 114.439 32.2946C115.047 32.8049 115.81 33.1465 116.658 33.2224C118.876 33.4291 120.837 31.8011 121.044 29.5826C121.251 27.3642 119.623 25.403 117.404 25.1963Z" fill="white"/>
<path d="M105.363 38.7305C104.65 38.7305 103.95 38.6251 103.267 38.4142C100.682 37.6044 98.7246 35.3606 97.763 32.092C96.8182 28.8824 96.9405 25.057 98.1088 21.3202C98.5854 19.7892 99.2265 18.3256 100.011 16.976C100.07 16.8748 100.167 16.8031 100.281 16.7778C100.395 16.7525 100.513 16.7778 100.61 16.841C102.655 18.2202 105.431 19.1312 108.421 19.4096C109.421 19.5024 110.42 19.5234 111.394 19.4686C111.614 19.4517 111.803 19.612 111.837 19.8271C112.162 22.054 113.347 23.9983 115.102 25.2004C115.831 24.8503 116.633 24.7069 117.442 24.7786C118.628 24.8883 119.699 25.4534 120.458 26.3687C121.217 27.2839 121.576 28.4395 121.466 29.6247C121.238 32.0709 119.066 33.8676 116.62 33.6441C115.869 33.5724 115.161 33.3193 114.541 32.8975C111.985 36.6091 108.581 38.7263 105.363 38.7263V38.7305ZM100.521 17.7858C99.8676 18.9709 99.3277 20.2447 98.9144 21.569C97.7967 25.1498 97.6744 28.8022 98.5728 31.8516C99.4542 34.8419 101.209 36.8832 103.52 37.6044C107.021 38.6968 111.167 36.5205 114.089 32.0582C114.157 31.957 114.262 31.8895 114.38 31.8727C114.499 31.8558 114.621 31.8895 114.714 31.9655C115.279 32.442 115.966 32.7288 116.7 32.7963C118.682 32.9819 120.445 31.5184 120.631 29.5361C120.72 28.5745 120.429 27.6382 119.817 26.8959C119.201 26.1536 118.332 25.6981 117.375 25.6053C116.65 25.5378 115.928 25.6896 115.291 26.0439C115.156 26.1198 114.992 26.1156 114.861 26.0312C112.892 24.7744 111.529 22.7078 111.078 20.3164C110.18 20.3501 109.269 20.3248 108.353 20.2404C105.405 19.9663 102.647 19.0975 100.53 17.7773L100.521 17.7858Z" fill="#153C4A"/>
<path d="M106.865 11.4761C106.696 11.4761 106.536 11.3749 106.473 11.2061C105.882 9.69202 104.668 8.79366 102.867 8.54061C101.466 8.34238 100.222 8.62074 100.214 8.62496C99.986 8.67979 99.7625 8.53639 99.7076 8.30864C99.657 8.08088 99.7962 7.85735 100.024 7.80252C100.079 7.78987 105.574 6.57097 107.261 10.8983C107.346 11.1134 107.24 11.358 107.021 11.4423C106.97 11.4634 106.92 11.4719 106.869 11.4719L106.865 11.4761Z" fill="#153C4A"/>
<path d="M98.5305 24.6182C98.5727 25.2382 98.9312 25.719 99.3277 25.6937C99.7241 25.6642 100.007 25.1412 99.9645 24.517C99.9224 23.897 99.5639 23.4162 99.1674 23.4415C98.7709 23.471 98.4884 23.994 98.5305 24.6182Z" fill="#153C4A"/>
<path d="M97.7556 22.5855C97.5785 22.5855 97.414 22.4716 97.3549 22.2945C97.2832 22.0751 97.4013 21.8347 97.6207 21.763C98.9872 21.3117 100.358 21.666 100.417 21.6787C100.64 21.7377 100.775 21.9697 100.716 22.1932C100.657 22.4168 100.425 22.5517 100.202 22.4927C100.202 22.4927 99.0082 22.189 97.8864 22.5602C97.8442 22.5728 97.7978 22.5813 97.7556 22.5813V22.5855Z" fill="#153C4A"/>
<path d="M104.465 25.3438C104.507 25.9638 104.866 26.4446 105.262 26.4193C105.659 26.394 105.941 25.8668 105.899 25.2426C105.857 24.6184 105.498 24.1418 105.102 24.1671C104.706 24.1966 104.423 24.7196 104.465 25.3438Z" fill="#153C4A"/>
<path d="M107.793 24.3567C107.675 24.3567 107.561 24.3103 107.476 24.2133C107.451 24.1837 106.021 22.6148 104.305 22.9227C104.073 22.9648 103.858 22.813 103.815 22.581C103.773 22.3533 103.929 22.134 104.157 22.0918C106.355 21.6995 108.037 23.5722 108.109 23.6523C108.265 23.8252 108.248 24.0952 108.071 24.247C107.991 24.3187 107.89 24.3524 107.793 24.3524V24.3567Z" fill="#153C4A"/>
<path d="M101.698 28.857C101.698 28.857 101.673 28.857 101.66 28.857C101.433 28.836 100.29 28.6968 99.8933 28.0051C99.771 27.7942 99.674 27.4484 99.8933 26.9886C100.29 26.1535 101.133 23.3826 101.142 23.3573C101.209 23.1337 101.445 23.0072 101.669 23.0747C101.892 23.1422 102.019 23.3783 101.951 23.6019C101.918 23.72 101.083 26.4572 100.661 27.3513C100.589 27.5074 100.623 27.5664 100.636 27.5875C100.762 27.8111 101.361 27.9798 101.745 28.0177C101.977 28.0388 102.146 28.2455 102.124 28.4775C102.103 28.6968 101.922 28.8613 101.707 28.8613L101.698 28.857Z" fill="#153C4A"/>
<path d="M102.112 32.0412C101.442 32.0412 100.978 31.8641 100.965 31.8599C100.75 31.7755 100.64 31.5309 100.729 31.3116C100.813 31.0965 101.058 30.9868 101.273 31.0754C101.374 31.1133 103.766 31.9864 105.221 28.7262C105.318 28.5153 105.567 28.4183 105.778 28.5153C105.988 28.6123 106.085 28.8611 105.993 29.072C104.879 31.5688 103.217 32.0412 102.117 32.0412H102.112Z" fill="#153C4A"/>
<path d="M115.394 28.5788C115.297 28.5788 115.196 28.545 115.116 28.4733C114.943 28.3215 114.922 28.0558 115.078 27.8787C115.133 27.8154 116.453 26.3308 118.283 26.7947C118.511 26.8538 118.646 27.0815 118.587 27.3093C118.528 27.5328 118.3 27.672 118.077 27.6129C116.752 27.2755 115.753 28.3848 115.711 28.4312C115.626 28.524 115.512 28.5746 115.394 28.5746V28.5788Z" fill="#153C4A"/>
<path d="M70.6943 41.5777L63.9461 37.2082C63.3851 36.8455 63.2502 36.0821 63.655 35.5507C64.2877 34.7198 65.3716 34.3782 66.367 34.6945L69.0874 35.5591L70.6943 41.5819V41.5777Z" fill="white"/>
<path d="M70.6942 41.9991C70.614 41.9991 70.5339 41.978 70.4664 41.9316L63.7182 37.5622C63.3513 37.326 63.1024 36.9464 63.0265 36.5162C62.9506 36.086 63.0603 35.6432 63.3218 35.2973C64.0598 34.3273 65.3336 33.9224 66.4976 34.2935L69.218 35.1581C69.3572 35.2003 69.4584 35.3142 69.4964 35.4534L71.1033 41.4761C71.1497 41.6448 71.0864 41.822 70.943 41.9274C70.8713 41.9823 70.7827 42.0076 70.6942 42.0076V41.9991ZM65.6204 34.9979C64.9919 34.9979 64.3846 35.2889 63.9924 35.8034C63.87 35.9679 63.8194 36.1661 63.8532 36.3686C63.8869 36.571 64.0008 36.7397 64.1737 36.8536L70.0025 40.6284L68.7372 35.8878L66.2361 35.0906C66.0337 35.0274 65.8228 34.9936 65.6204 34.9936V34.9979Z" fill="#153C4A"/>
<path d="M77.072 53.1717L75.0265 44.3231L74.2293 44.1038C71.218 43.2687 68.9404 40.7971 68.3584 37.7267L66.549 28.1906C66.4478 27.6634 66.8443 27.17 67.3841 27.1573L67.9071 27.1447C68.9025 27.1194 69.8177 27.6972 70.2226 28.6082L71.315 31.0671L71.606 31.2062L71.4162 27.9544C71.374 27.2459 71.9181 26.6343 72.6266 26.6006C73.7064 26.55 74.6385 27.2923 74.8746 28.3129C74.921 27.693 75.4145 27.1911 76.0471 27.1531C77.1395 27.0898 78.0885 27.8321 78.3247 28.8655C78.3711 28.2497 78.8645 27.7436 79.4972 27.7056C80.7161 27.6339 81.762 28.566 81.8337 29.7849L82.2175 36.3728L83.2129 36.8579C84.3981 37.4357 85.2669 38.507 85.5874 39.7849L88.9447 53.1506L77.072 53.1717Z" fill="white"/>
<path d="M77.073 53.5933C76.879 53.5933 76.7061 53.4625 76.6639 53.2685L74.6732 44.6646L74.1165 44.5085C70.9237 43.627 68.5576 41.0543 67.9418 37.8025L66.1325 28.2664C66.0608 27.8952 66.1578 27.5114 66.3982 27.212C66.6386 26.9168 66.9929 26.7396 67.3725 26.7312L67.8997 26.7185C69.0722 26.6932 70.1308 27.3638 70.6074 28.4309L71.084 29.5022L70.9954 27.9754C70.9701 27.5157 71.1262 27.077 71.434 26.7312C71.7377 26.3938 72.1553 26.1955 72.6065 26.1745C73.526 26.1407 74.3695 26.5709 74.8756 27.2879C75.1624 26.9674 75.5715 26.7523 76.027 26.727C76.9634 26.6637 77.8195 27.1108 78.3299 27.8404C78.6167 27.5199 79.0258 27.309 79.4813 27.2795C80.9321 27.1825 82.1763 28.3044 82.2607 29.7552L82.6276 36.0943L83.4037 36.4697C84.7027 37.1023 85.6517 38.2706 86.0017 39.6709L89.359 53.0366C89.4138 53.2643 89.2788 53.4921 89.0511 53.5469C88.8275 53.6059 88.5956 53.4668 88.5407 53.239L85.1835 39.8733C84.8925 38.7135 84.108 37.7476 83.0325 37.2247L82.0372 36.7396C81.898 36.6721 81.8094 36.5372 81.801 36.3853L81.4172 29.7974C81.3581 28.8147 80.5104 28.0513 79.5277 28.1146C79.1143 28.1399 78.7812 28.4688 78.7474 28.8864C78.7305 29.0931 78.5661 29.2575 78.3594 29.2744C78.1527 29.2913 77.9629 29.1521 77.9165 28.9497C77.7225 28.0977 76.9465 27.5157 76.0734 27.5663C75.6601 27.5916 75.3269 27.9206 75.2932 28.3381C75.2763 28.5448 75.1118 28.7093 74.9052 28.7261C74.6985 28.7472 74.5087 28.6038 74.4623 28.4014C74.2683 27.5578 73.5091 26.9758 72.6445 27.0138C72.421 27.0222 72.2101 27.1234 72.0583 27.2921C71.9022 27.4651 71.8221 27.6886 71.8389 27.9206L72.0287 31.1724C72.0372 31.32 71.9655 31.4634 71.8431 31.5477C71.7166 31.6321 71.5606 31.6405 71.4256 31.5772L71.1346 31.4381C71.046 31.3959 70.9743 31.32 70.9321 31.2314L69.8398 28.7725C69.5024 28.0133 68.7474 27.5452 67.9208 27.5578L67.3935 27.5705C67.2586 27.5705 67.1405 27.6338 67.0561 27.735C66.9718 27.8362 66.938 27.9669 66.9634 28.1019L68.7727 37.638C69.3294 40.5735 71.4636 42.8931 74.3442 43.6903L75.1413 43.9096C75.289 43.9518 75.4028 44.0699 75.4408 44.2217L77.4863 53.0703C77.537 53.298 77.3978 53.5258 77.17 53.5764C77.1363 53.5848 77.1068 53.5891 77.073 53.5891V53.5933Z" fill="#153C4A"/>
<path d="M75.389 37.0305C75.1654 37.0305 74.9798 36.8576 74.9672 36.6341L74.5075 28.7092C74.4948 28.4772 74.672 28.279 74.9039 28.2621C75.1401 28.2621 75.3341 28.4266 75.351 28.6585L75.8107 36.5835C75.8234 36.8154 75.6462 37.0137 75.4143 37.0305C75.4058 37.0305 75.3974 37.0305 75.389 37.0305Z" fill="#153C4A"/>
<path d="M71.9009 36.7735C71.6774 36.7735 71.4918 36.6006 71.4791 36.3771L70.9899 27.9544C70.9772 27.7225 71.1544 27.5242 71.3863 27.5074C71.6268 27.4989 71.8166 27.6719 71.8334 27.9038L72.3227 36.3264C72.3353 36.5584 72.1582 36.7566 71.9262 36.7735C71.9178 36.7735 71.9093 36.7735 71.9009 36.7735Z" fill="#153C4A"/>
<path d="M78.7876 36.9888C78.5641 36.9888 78.3785 36.8159 78.3659 36.5923L77.8766 28.1697C77.864 27.9378 78.0411 27.7395 78.2731 27.7227C78.5093 27.7227 78.7033 27.8871 78.7201 28.1191L79.2094 36.5417C79.222 36.7737 79.0449 36.9719 78.8129 36.9888C78.8045 36.9888 78.7961 36.9888 78.7876 36.9888Z" fill="#153C4A"/>
<path fill-rule="evenodd" clip-rule="evenodd" d="M23.2589 18.3721H46.1817C51.7418 18.3721 56.2492 22.8785 56.2492 28.4374C56.2492 33.9964 51.7418 38.5028 46.1817 38.5028H38.8069L34.7197 42.5899L30.6326 38.5028H23.2589C17.6988 38.5028 13.1914 33.9964 13.1914 28.4374C13.1914 22.8785 17.6988 18.3721 23.2589 18.3721Z" fill="url(#paint0_linear_171_13261)"/>
<path d="M29.7971 28.9415C29.7971 30.0507 28.8945 30.9533 27.7852 30.9533C26.676 30.9533 25.7734 30.0507 25.7734 28.9415C25.7734 27.8323 26.676 26.9297 27.7852 26.9297C28.8945 26.9297 29.7971 27.8323 29.7971 28.9415Z" fill="white"/>
<path d="M36.7306 28.9415C36.7306 30.0507 35.8281 30.9533 34.7188 30.9533C33.6096 30.9533 32.707 30.0507 32.707 28.9415C32.707 27.8323 33.6096 26.9297 34.7188 26.9297C35.8281 26.9297 36.7306 27.8323 36.7306 28.9415Z" fill="white"/>
<path d="M43.6672 28.9415C43.6672 30.0507 42.7646 30.9533 41.6554 30.9533C40.5461 30.9533 39.6436 30.0507 39.6436 28.9415C39.6436 27.8323 40.5461 26.9297 41.6554 26.9297C42.7646 26.9297 43.6672 27.8323 43.6672 28.9415Z" fill="white"/>
<path d="M23.8342 55.5279C28.0868 55.447 31.4799 52.5268 31.4129 49.0055C31.3459 45.4842 27.8442 42.6952 23.5916 42.7761C19.339 42.857 15.9459 45.7772 16.0129 49.2985C16.0799 52.8198 19.5816 55.6088 23.8342 55.5279Z" fill="#153C4A"/>
<path d="M8.82205 54.6014C15.6082 44.6646 25.4311 49.4474 27.0169 51.0248C27.3881 51.396 27.7466 51.7503 28.1008 52.0961C28.7588 52.6022 29.3577 53.1547 29.9018 53.7452C31.2388 54.8587 32.4492 55.5377 33.6049 55.3985C34.4231 55.3015 36.0089 57.9797 36.5783 61.2273C34.9081 61.1893 33.2885 60.9531 31.7702 60.5145C32.9427 62.113 34.7225 63.2054 36.7849 63.7157C36.7428 66.841 35.4606 69.9789 31.5382 71.4129C31.5382 71.4129 29.3535 72.5558 26.7386 72.7667L26.6922 84.9515L13.5838 84.9008L12.8457 73.8C12.639 73.6651 12.4323 73.5301 12.2299 73.3825C6.07216 68.9709 4.68456 60.6537 8.82205 54.5972V54.6014Z" fill="white"/>
<path d="M26.6879 85.3776L13.5795 85.327C13.3601 85.327 13.1746 85.154 13.1619 84.9347L12.4407 74.0448C12.2889 73.9436 12.137 73.8381 11.9852 73.7327C5.68405 69.2156 4.14461 60.7086 8.47612 54.3653C11.0573 50.5821 14.3218 48.4817 18.1725 48.119C22.3859 47.7226 26.207 49.6247 27.3163 50.7297C27.679 51.0924 28.0333 51.4425 28.3791 51.7799C29.0329 52.286 29.6444 52.8428 30.1927 53.4417C31.6056 54.6184 32.6431 55.0908 33.5542 54.9853C34.8658 54.8419 36.4685 58.1781 36.9915 61.1599C37.0126 61.2865 36.9789 61.413 36.8945 61.5058C36.8102 61.6028 36.6921 61.6534 36.5655 61.6534C35.3298 61.6281 34.1278 61.4931 32.9721 61.2527C34.0012 62.227 35.3298 62.9271 36.8819 63.3109C37.0717 63.3573 37.2066 63.5302 37.2024 63.7243C37.1644 66.5037 36.1775 70.1561 31.7026 71.801C31.4496 71.9318 29.5263 72.8765 27.156 73.1507L27.1096 84.9558C27.1096 85.1878 26.9198 85.3776 26.6879 85.3776ZM13.9759 84.4834L26.2661 84.5298L26.3125 72.7669C26.3125 72.5475 26.4812 72.3662 26.7005 72.3493C29.1889 72.1469 31.3146 71.0503 31.3357 71.0418C31.3526 71.0334 31.3694 71.025 31.3863 71.0208C35.2581 69.6079 36.2408 66.5163 36.3462 64.0448C34.2712 63.4628 32.5714 62.3367 31.4243 60.7719C31.3188 60.6285 31.3146 60.4303 31.42 60.2827C31.5213 60.135 31.7111 60.0676 31.884 60.1182C33.2041 60.4978 34.6043 60.7255 36.0594 60.793C35.4352 57.8449 34.0729 55.8542 33.6427 55.8246C32.4871 55.9638 31.2429 55.424 29.6275 54.0743C29.6149 54.0617 29.598 54.049 29.5854 54.0364C29.0582 53.4628 28.4719 52.9229 27.8393 52.4379C27.8266 52.4294 27.814 52.4168 27.8013 52.4041C27.447 52.0625 27.0885 51.704 26.7132 51.3329C25.9666 50.5906 22.4365 48.5661 18.2442 48.9668C14.655 49.3042 11.6014 51.2865 9.16781 54.8504C5.0978 60.8099 6.54866 68.8065 12.4744 73.0579C12.6727 73.1971 12.8709 73.332 13.0733 73.4628C13.1872 73.5345 13.2589 73.6568 13.2673 73.7917L13.9801 84.5003L13.9759 84.4834Z" fill="#153C4A"/>
<path d="M31.7155 80.0717C33.1115 80.0633 34.4738 80.1181 35.7813 80.2278C35.3637 76.8031 32.4114 74.1839 28.8854 74.2514C25.1233 74.3231 22.1288 77.4315 22.2005 81.1978C22.2005 81.2189 22.2005 81.2442 22.2047 81.2653C24.9166 80.5357 28.1811 80.1013 31.7155 80.0759V80.0717Z" fill="#153C4A"/>
<path d="M10.3664 47.9375C14.622 45.5039 19.6325 45.5545 23.808 47.6127C22.5258 47.9459 21.2774 48.4352 20.0838 49.1184C12.0028 53.7409 9.67468 64.8586 14.875 73.9518C15.166 74.4579 15.4739 74.943 15.7945 75.4111C11.5473 74.7026 7.59538 72.1129 5.24616 68.005C1.1635 60.873 3.45789 51.8894 10.3622 47.9375H10.3664Z" fill="#153C4A"/>
<path d="M24.7146 46.6636C24.7146 46.6636 23.6434 50.5692 20.4337 52.5135C18.7383 53.5426 22.0196 53.1672 21.8087 55.2128C20.206 70.5397 19.0419 73.454 19.0419 73.454C18.7804 74.7742 17.6923 75.7653 16.3553 75.9087L12.3275 76.3305L10.9905 72.6527L8.63281 56.748C8.63281 56.748 16.6801 44.6518 24.7146 46.6594V46.6636Z" fill="#153C4A"/>
<path d="M24.6003 55.4619C24.4612 55.4619 24.3304 55.3944 24.2461 55.2721C23.8791 54.7111 23.8749 53.7242 24.2419 52.8723C24.6383 51.9486 25.368 51.3497 26.3001 51.181C26.532 51.1388 26.7471 51.2906 26.7893 51.5226C26.8315 51.7504 26.6796 51.9697 26.4477 52.0119C25.5788 52.1679 25.1782 52.8259 25.0137 53.2054C24.7395 53.8423 24.7648 54.534 24.9462 54.8124C25.0727 55.0064 25.0221 55.2679 24.8239 55.3986C24.7522 55.445 24.672 55.4661 24.5919 55.4661L24.6003 55.4619Z" fill="#153C4A"/>
<path d="M28.1672 55.7445C28.5257 55.9427 28.9348 55.8963 29.0782 55.639C29.2216 55.3818 29.0487 55.0106 28.686 54.8124C28.3275 54.6142 27.9183 54.6606 27.7749 54.9178C27.6315 55.1751 27.8045 55.5463 28.1672 55.7445Z" fill="#153C4A"/>
<path d="M21.2729 53.8549C21.2729 53.8549 26.8655 57.7731 26.2286 60.658C25.5918 63.5428 20.5475 64.2134 21.2181 69.1438C21.8845 74.0743 22.7533 76.4825 28.7466 76.6765C36.739 76.9338 38.3712 78.3678 38.4556 82.8469C38.5399 87.3303 19.2864 82.5137 19.2864 82.5137C19.2864 82.5137 12.1375 75.407 21.2729 53.8507V53.8549Z" fill="#153C4A"/>
<path d="M24.6023 68.4964C26.1111 66.929 26.0636 64.4353 24.4963 62.9264C22.9289 61.4176 20.4352 61.465 18.9263 63.0324C17.4175 64.5998 17.4649 67.0935 19.0323 68.6024C20.5997 70.1112 23.0934 70.0637 24.6023 68.4964Z" fill="white"/>
<path d="M23.5496 67.1108C23.3218 67.1108 23.132 66.9252 23.1278 66.6975C23.1067 65.622 21.348 64.8924 20.6732 64.7026C20.4496 64.6393 20.3189 64.4073 20.3822 64.1838C20.4454 63.9602 20.6774 63.8295 20.9009 63.8928C21.0232 63.9265 23.9376 64.7616 23.9714 66.6848C23.9756 66.9168 23.79 67.1108 23.558 67.115H23.5496V67.1108Z" fill="#153C4A"/>
<path d="M0.420898 83.8041L30.2649 78.3043C36.1695 77.1571 42.2556 79.3966 45.4989 83.9137C46.7558 85.664 48.1603 87.5831 49.6407 89.5822L0.420898 83.8041Z" fill="white"/>
<path d="M49.6401 90C49.5094 90 49.3829 89.9409 49.3027 89.8271C47.7 87.6634 46.3419 85.8077 45.1568 84.1544C42.0189 79.7891 36.0678 77.6002 30.3445 78.7136L0.496282 84.2176C0.268529 84.2598 0.0492126 84.108 0.0070363 83.8802C-0.03514 83.6525 0.116695 83.4289 0.344447 83.3868L30.1884 77.887C36.2238 76.7145 42.5165 79.0384 45.84 83.6651C47.0252 85.3142 48.3791 87.1657 49.9775 89.3252C50.1167 89.5107 50.0788 89.7765 49.889 89.9156C49.813 89.9705 49.7245 90 49.6401 90Z" fill="#153C4A"/>
<path d="M17.0926 45.6559C13.263 43.7748 0.00702691 48.0473 1.76156 61.5816C2.63039 68.3088 4.38071 78.4311 2.37734 81.9148C0.373961 85.4028 0.601713 82.944 3.29678 85.6517C5.99185 88.3594 16.3419 87.3851 18.2567 85.2763C20.1715 83.1675 25.1905 84.8166 17.4849 72.4294C9.77928 60.0464 17.3584 53.6947 18.1555 53.2181C18.9526 52.7415 22.7105 48.41 17.0926 45.6517V45.6559Z" fill="#153C4A"/>
<path d="M22.9261 80.2447C23.0146 84.8841 19.3242 88.7137 14.689 88.8023C10.0496 88.8908 6.22001 85.2004 6.13144 80.5652C6.04287 75.9258 9.7333 72.0962 14.3685 72.0077C19.0079 71.9191 22.8375 75.6095 22.9261 80.2489V80.2447Z" fill="#153C4A"/>
<defs>
<linearGradient id="paint0_linear_171_13261" x1="13.1914" y1="24.4265" x2="27.9414" y2="48.7279" gradientUnits="userSpaceOnUse">
<stop stop-color="#F39025"/>
<stop offset="1" stop-color="#53D1FF"/>
</linearGradient>
</defs>
</svg>
