<svg width="100" height="114" viewBox="0 0 100 114" fill="none" xmlns="http://www.w3.org/2000/svg">
<path d="M7.57613 61.4721L17.4423 51.5479L29.0997 51.8771L30.2131 50.7442C36.1386 44.7413 44.964 42.6306 52.9615 45.3029C58.2092 47.0553 63.3117 49.2242 68.2158 51.7851L98.1919 67.4315C100.177 68.4675 100.612 71.1156 99.0729 72.7374C95.1952 76.8088 89.1584 77.9561 84.0558 75.5985L64.7883 66.686L64.8851 71.6385C65.1465 84.6223 60.4264 97.214 51.7028 106.833L47.7766 111.495C47.7766 111.495 7.86176 81.5337 7.57129 61.4721H7.57613Z" fill="#52646D"/>
<path d="M44.3255 113.185C39.2762 114.109 34.4739 110.658 33.7429 105.575L30.0152 79.6456C29.5117 76.16 31.7774 72.8681 35.2146 72.0935C38.8212 71.2802 42.4133 73.5168 43.275 77.1137L49.8686 104.684C50.7981 108.581 48.271 112.459 44.3352 113.18L44.3255 113.185Z" fill="#52646D"/>
<path d="M35.6111 106.678L27.2747 106.01C22.4481 105.623 18.6818 101.682 18.5027 96.8461L17.4473 67.7365C17.4376 64.2122 20.1389 61.2736 23.6487 60.9832C27.3328 60.6782 30.5812 63.3941 30.9298 67.0781L35.6111 106.683V106.678Z" fill="#52646D"/>
<path d="M21.1117 91.3417L14.9006 90.722C10.6888 90.3008 7.44529 86.8201 7.31942 82.5938L6.41898 52.3999C6.4093 48.8756 8.58779 45.937 11.4247 45.6514C14.402 45.3512 17.0258 48.0671 17.3115 51.7463L21.1166 91.3417H21.1117Z" fill="#52646D"/>
<path d="M12.0302 83.4217L8.57845 82.9667C3.65989 82.3131 -0.00966309 78.1159 1.91152e-05 73.1537L0.0532712 48.3237C0.145252 45.1867 2.16883 42.6306 4.70557 42.4563C7.36333 42.2723 9.62413 44.7655 9.7742 48.0526L12.035 83.4217H12.0302Z" fill="#52646D"/>
<path d="M33.97 107.182C33.757 107.182 33.5634 107.041 33.5053 106.824C33.3988 106.436 33.3165 106.039 33.2584 105.642L29.5308 79.7134C28.9982 76.0003 31.443 72.447 35.1029 71.6191C38.9467 70.7526 42.8244 73.1634 43.7394 76.9976L50.333 104.568C50.3959 104.829 50.2361 105.09 49.9747 105.153C49.7133 105.216 49.4519 105.057 49.3938 104.795L42.8002 77.2251C42.0063 73.9041 38.6514 71.8128 35.3207 72.568C32.1498 73.2845 30.0294 76.3634 30.4941 79.5779L34.2218 105.507C34.275 105.865 34.3477 106.223 34.4445 106.567C34.5171 106.824 34.3622 107.09 34.1056 107.162C34.062 107.172 34.0185 107.182 33.9749 107.182H33.97Z" fill="#1E313B"/>
<path d="M18.2845 91.366C18.0231 91.366 17.8101 91.1626 17.8004 90.9012L16.9629 67.7559C16.9532 63.9895 19.8724 60.8089 23.6097 60.5039C27.5407 60.1796 31.0408 63.1084 31.4136 67.0346L32.2414 74.0542C32.2705 74.3204 32.0817 74.5625 31.8154 74.5915C31.554 74.6206 31.3071 74.4318 31.2781 74.1655L30.4454 67.1363C30.121 63.7233 27.0905 61.1865 23.6872 61.4673C20.4485 61.7336 17.9215 64.4882 17.9311 67.7365L18.7686 90.8625C18.7783 91.1288 18.5702 91.3563 18.3039 91.366C18.2991 91.366 18.2942 91.366 18.2845 91.366Z" fill="#1E313B"/>
<path d="M7.32013 83.0731C7.05871 83.0731 6.8457 82.865 6.83602 82.6035L5.93558 52.4096C5.92589 48.5899 8.26415 45.482 11.377 45.1673C12.7422 45.0317 14.1122 45.4723 15.2353 46.4115C16.6925 47.6314 17.6268 49.563 17.7914 51.7076L18.9969 64.2267C19.0211 64.493 18.8274 64.7302 18.5612 64.7544C18.2949 64.7786 18.0577 64.585 18.0335 64.3187L16.8281 51.7899C16.6828 49.8922 15.8744 48.2075 14.6157 47.1521C13.6765 46.3679 12.5921 46.0145 11.4738 46.1258C8.90317 46.3872 6.89411 49.137 6.9038 52.3902L7.80424 82.5697C7.81392 82.8359 7.60092 83.0586 7.33465 83.0683C7.32981 83.0683 7.32497 83.0683 7.32013 83.0683V83.0731Z" fill="#1E313B"/>
<path d="M51.4898 69.4648C43.7004 69.4648 36.7535 65.7275 32.106 58.7853L30.9199 57.0135C30.7699 56.7908 30.8328 56.4906 31.0506 56.3406C31.2733 56.1905 31.5735 56.2534 31.7236 56.4713L32.9096 58.2479C38.7093 66.9135 48.2511 70.3701 58.4416 67.5041L64.4833 65.8049C64.7399 65.7323 65.0061 65.8824 65.0787 66.1389C65.1514 66.3955 65.0013 66.6618 64.7447 66.7344L58.703 68.4336C56.2486 69.1259 53.828 69.4648 51.4898 69.4648Z" fill="#1E313B"/>
<path d="M33.9021 41.2992L28.2138 42.7322C21.4556 44.4362 13.7389 39.3628 9.91445 30.1405C5.54293 19.5965 7.91507 7.62936 15.2106 3.40792L20.9037 1.97009C13.6082 6.19153 11.2361 18.1636 15.6076 28.7027C19.4321 37.925 27.1488 43.0033 33.9021 41.2944V41.2992Z" fill="url(#paint0_linear_171_13244)"/>
<path d="M20.904 1.97015C28.1995 -2.25129 37.6542 2.8706 42.0257 13.4097C46.3924 23.9536 44.0251 35.9208 36.7295 40.1423C29.434 44.3637 19.9793 39.2467 15.6078 28.7027C11.2363 18.1588 13.6084 6.19159 20.904 1.97015ZM35.3692 36.8697C41.4109 33.3744 43.3764 23.4598 39.7552 14.7265C36.1341 5.99313 28.3012 1.75231 22.2595 5.24759C16.2178 8.74771 14.2523 18.6623 17.8734 27.3908C21.4946 36.1241 29.3275 40.3649 35.3692 36.8697Z" fill="white"/>
<path d="M31.2591 42.1126C29.923 42.1126 28.5578 41.8802 27.1878 41.4155C22.1337 39.7017 17.7525 35.1366 15.1625 28.8867C10.7087 18.1443 13.1776 5.88177 20.662 1.54898C23.6344 -0.169608 27.0135 -0.464891 30.441 0.696974C35.4951 2.40588 39.8763 6.97585 42.4711 13.2257C46.9249 23.9681 44.456 36.2306 36.9716 40.5634C35.1901 41.5946 33.2585 42.1126 31.264 42.1126H31.2591ZM21.1461 2.38651C14.0636 6.48693 11.7834 18.2072 16.0532 28.5188C18.498 34.4249 22.7775 38.9029 27.4976 40.5005C30.654 41.5704 33.762 41.3041 36.4827 39.7259C43.5604 35.6255 45.8454 23.9052 41.5755 13.5985C39.1259 7.69235 34.8464 3.21433 30.1312 1.61677C26.9748 0.546882 23.8668 0.818001 21.1461 2.39136V2.38651ZM30.8428 38.5834C29.7294 38.5834 28.5869 38.3898 27.4444 38.0025C23.2374 36.5792 19.5873 32.7789 17.4281 27.5747C13.7247 18.6429 15.7821 8.43788 22.0175 4.82642C24.501 3.38861 27.3233 3.14173 30.1844 4.11479C34.3913 5.53807 38.0415 9.33833 40.2007 14.5425C43.9041 23.4792 41.8466 33.6842 35.6113 37.2908C34.1251 38.1526 32.513 38.5882 30.8428 38.5882V38.5834ZM26.7908 4.50207C25.2852 4.50207 23.8377 4.88934 22.5016 5.66392C16.6729 9.03817 14.7946 18.701 18.3189 27.2068C20.3376 32.077 23.8619 35.7707 27.7493 37.0875C30.3393 37.9638 32.8906 37.7459 35.1223 36.4533C40.951 33.0791 42.8294 23.4163 39.3051 14.9153C37.2863 10.0451 33.762 6.35136 29.8746 5.03458C28.8338 4.68118 27.7978 4.50692 26.7908 4.50692V4.50207Z" fill="#1E313B"/>
<path d="M30.8426 38.5835C29.7292 38.5835 28.5867 38.3898 27.4442 38.0025C23.2372 36.5793 19.5871 32.779 17.4279 27.5748C13.7245 18.643 15.7819 8.43793 22.0173 4.82647C24.4959 3.38866 27.3231 3.14178 30.1842 4.11484C34.3911 5.53813 38.0413 9.33838 40.2005 14.5377C43.9039 23.4744 41.8464 33.6794 35.6111 37.286C34.1249 38.1478 32.5128 38.5835 30.8426 38.5835ZM22.5014 5.66397C16.6727 9.03822 14.7944 18.7011 18.3187 27.2021C20.3374 32.0722 23.8617 35.7659 27.7492 37.0827C30.3391 37.959 32.8904 37.7411 35.1222 36.4485C40.9508 33.0743 42.8292 23.4115 39.3049 14.9105C37.2861 10.0403 33.7618 6.34657 29.8744 5.02979C27.2844 4.15355 24.7331 4.3714 22.5014 5.66397Z" fill="#1E313B"/>
<path d="M19.4812 41.3138C19.2924 41.3138 19.1133 41.2024 19.0358 41.0185C18.9341 40.7716 19.0503 40.4859 19.2972 40.3843L22.8942 38.8835C23.1411 38.7818 23.4267 38.8981 23.5283 39.145C23.63 39.3918 23.5138 39.6775 23.2669 39.7791L19.67 41.2799C19.607 41.3041 19.5441 41.3186 19.4812 41.3186V41.3138Z" fill="white"/>
<path d="M17.4431 39.813C17.2543 39.813 17.0752 39.7017 16.9977 39.5177C16.896 39.2708 17.0122 38.9851 17.2591 38.8835L20.8561 37.3828C21.103 37.2811 21.3886 37.3973 21.4903 37.6442C21.5919 37.8911 21.4757 38.1767 21.2288 38.2783L17.6319 39.7791C17.569 39.8033 17.506 39.8178 17.4431 39.8178V39.813Z" fill="white"/>
<path d="M15.6706 38.1477C15.4818 38.1477 15.3027 38.0363 15.2253 37.8524C15.1236 37.6055 15.2398 37.3199 15.4867 37.2182L19.0836 35.7174C19.3305 35.6158 19.6161 35.732 19.7178 35.9788C19.8195 36.2257 19.7033 36.5114 19.4564 36.6131L15.8594 38.1138C15.7965 38.138 15.7336 38.1525 15.6706 38.1525V38.1477Z" fill="white"/>
<defs>
<linearGradient id="paint0_linear_171_13244" x1="7.72266" y1="12.2423" x2="32.4234" y2="26.8261" gradientUnits="userSpaceOnUse">
<stop stop-color="#FFBC74"/>
<stop offset="1" stop-color="#53D1FF"/>
</linearGradient>
</defs>
</svg>
