<svg width="100" height="100" viewBox="0 0 100 100" fill="none" xmlns="http://www.w3.org/2000/svg">
<path d="M50.5814 4.08035C41.9838 7.60117 37.8673 17.4301 41.3926 26.0277L49.0477 44.7164C50.199 47.526 52.0261 49.8554 54.2622 51.598C59.7835 52.3582 65.5848 51.4602 70.8839 48.6507C75.3827 46.2679 78.9435 42.8093 81.433 38.764C81.4908 36.5012 81.0951 34.1896 80.1838 31.9624L72.5287 13.2736C69.0079 4.67604 59.1789 0.559532 50.5814 4.08479V4.08035Z" fill="#153C4A"/>
<path d="M99.1439 79.6578L88.3014 49.2285C85.523 44.6141 80.1573 42.5469 75.2228 44.1962L66.7408 47.028L60.1393 44.3162H59.8993C55.2982 44.254 51.2306 47.4636 49.9769 52.1447L42.6419 99.0801H85.4474C95.4986 99.0801 102.518 89.1266 99.1439 79.6622V79.6578Z" fill="url(#paint0_linear_171_13497)"/>
<path d="M72.5208 30.243C68.8089 27.9505 67.6582 23.0829 69.9508 19.3709C72.2433 15.659 77.1109 14.5083 80.8229 16.8009C84.5348 19.0934 85.6855 23.961 83.3929 27.673C81.1004 31.3849 76.2328 32.5356 72.5208 30.243Z" fill="#153C4A"/>
<path d="M41.2589 25.9655L42.4281 18.0347C43.295 12.1667 48.754 8.11242 54.6176 8.97929C59.4321 9.69057 63.0196 13.4914 63.6775 18.0703C65.3846 17.4435 67.3717 17.928 68.5853 19.4173C69.9056 21.0399 69.87 23.3204 68.6253 24.8985L72.5284 40.7644C73.0708 42.9694 71.7238 45.1966 69.5188 45.7389L64.5666 46.957C62.5972 47.4415 60.6101 46.2368 60.1255 44.2719L58.1518 36.2434C55.9646 37.8215 53.1862 38.5817 50.3099 38.1549C44.4419 37.2881 40.3876 31.829 41.2545 25.9655H41.2589Z" fill="white"/>
<path d="M63.6903 47.5127C64.0192 47.5127 64.3526 47.4727 64.6816 47.3927L69.6339 46.1746C72.0744 45.5745 73.5681 43.1028 72.968 40.6622L69.1138 25.0008C70.3674 23.2537 70.3007 20.8221 68.9359 19.1417C67.749 17.6836 65.833 17.0612 64.037 17.5013C63.1524 12.8825 59.3737 9.23272 54.6837 8.53922C48.5845 7.64124 42.8899 11.8689 41.9875 17.9681L40.8183 25.8988C39.9203 31.998 44.148 37.6927 50.2472 38.5951C52.9233 38.9907 55.6084 38.4128 57.8756 36.968L59.6982 44.3787C59.9605 45.4456 60.6229 46.348 61.5653 46.917C62.2144 47.3127 62.9479 47.5127 63.6858 47.5127H63.6903ZM65.1928 18.2526C66.3576 18.2526 67.4867 18.7683 68.2469 19.7018C69.4027 21.1199 69.416 23.1915 68.2825 24.6274C68.198 24.7341 68.1669 24.8763 68.198 25.0097L72.1011 40.8756C72.5857 42.8405 71.3809 44.8276 69.416 45.3122L64.4638 46.5303C63.628 46.7348 62.7612 46.6058 62.0232 46.1568C61.2853 45.7123 60.7652 45.0055 60.5607 44.1697L58.5869 36.1412C58.5513 35.9989 58.4491 35.8789 58.3068 35.83C58.169 35.7767 58.0134 35.7989 57.8934 35.8878C55.7062 37.4615 53.0389 38.115 50.3761 37.7193C44.7614 36.8925 40.8672 31.6468 41.6941 26.0322L42.8632 18.1014C43.6901 12.4868 48.9313 8.59257 54.5504 9.41943C59.0225 10.0774 62.5922 13.6649 63.2368 18.137C63.2546 18.2704 63.3346 18.386 63.4502 18.4571C63.5658 18.5238 63.7036 18.5371 63.8325 18.4926C64.2771 18.3326 64.735 18.2526 65.1884 18.2526H65.1928Z" fill="#153C4A"/>
<path d="M54.7074 5.62758C54.8719 5.62758 55.0319 5.53422 55.1119 5.37419C56.1833 3.10255 54.494 0.893148 54.4229 0.799793C54.2717 0.604192 53.9917 0.573073 53.8005 0.724219C53.6094 0.875366 53.5738 1.15543 53.7205 1.34659C53.7427 1.3777 55.143 3.22702 54.3073 4.99632C54.2006 5.2186 54.2984 5.48532 54.5207 5.58757C54.5829 5.61424 54.6451 5.63203 54.7118 5.63203L54.7074 5.62758Z" fill="#153C4A"/>
<path d="M55.0309 5.68072C55.0709 5.68072 55.1154 5.67627 55.1599 5.66293C55.3955 5.59181 55.5288 5.3473 55.4577 5.11169C54.8976 3.23126 56.5691 1.60866 56.5868 1.59088C56.7647 1.42195 56.7691 1.14188 56.6002 0.964065C56.4313 0.786246 56.1512 0.777355 55.9734 0.946283C55.8889 1.0263 53.8884 2.95564 54.6042 5.36509C54.662 5.55624 54.8398 5.68516 55.0309 5.68516V5.68072Z" fill="#153C4A"/>
<path d="M57.7391 37.0217C57.828 37.0217 57.9214 36.995 57.9969 36.9373C60.0641 35.4436 61.6289 31.985 61.6956 31.8383C61.7978 31.616 61.6956 31.3493 61.4733 31.2515C61.251 31.1537 60.9843 31.2515 60.8865 31.4738C60.8732 31.5093 59.3528 34.8612 57.4768 36.2171C57.2768 36.3593 57.2323 36.6394 57.379 36.8395C57.4679 36.9595 57.6013 37.0217 57.7391 37.0217Z" fill="#153C4A"/>
<path d="M44.8471 26.4279C44.9715 26.4279 45.0916 26.379 45.1805 26.2768C46.154 25.1787 47.5633 22.5292 45.9584 20.3554C44.0913 17.8303 41.9131 18.0437 40.4149 18.6661C40.1882 18.7595 40.0815 19.0217 40.1749 19.2485C40.2682 19.4752 40.5305 19.5819 40.7572 19.4885C42.5132 18.7595 44.0202 19.2262 45.2472 20.8844C46.8253 23.0227 44.6115 25.5788 44.5181 25.6899C44.3581 25.8722 44.3714 26.1567 44.5581 26.3168C44.6426 26.3923 44.7493 26.4279 44.8515 26.4279H44.8471Z" fill="#153C4A"/>
<path d="M56.1914 20.8981C56.2669 20.8981 56.3425 20.8803 56.4092 20.8403C56.6226 20.7203 56.6982 20.4491 56.5737 20.2357C56.2225 19.6223 55.8179 19.111 55.369 18.7198C52.9595 16.6038 49.7232 18.2931 48.3451 19.4756C48.1584 19.6356 48.1406 19.9157 48.3006 20.1024C48.4607 20.2891 48.7407 20.3113 48.9275 20.1513C49.0653 20.0312 52.3549 17.2573 54.7822 19.3866C55.1556 19.7156 55.4979 20.1468 55.8002 20.6758C55.8802 20.8181 56.0313 20.8981 56.1869 20.8981H56.1914Z" fill="#153C4A"/>
<path d="M49.0877 31.7404C49.6212 31.7404 52.653 31.5803 53.6444 28.0017C53.711 27.7661 53.5732 27.5216 53.3332 27.4549C53.0976 27.3883 52.8531 27.5305 52.7864 27.7661C51.9017 30.9669 49.1766 30.8646 49.0566 30.8557C48.8077 30.838 48.6032 31.0291 48.5898 31.2736C48.5765 31.5181 48.7632 31.727 49.0077 31.7448C49.0077 31.7448 49.0388 31.7448 49.0877 31.7448V31.7404Z" fill="#153C4A"/>
<path d="M64.7625 23.6364C64.7981 23.6364 64.8336 23.6364 64.8692 23.623C65.1092 23.5652 65.2559 23.3252 65.1982 23.0851C65.1937 23.0629 64.6469 20.7246 65.905 20.2222C66.1317 20.1289 66.2428 19.871 66.1539 19.6443C66.0606 19.4176 65.8027 19.3065 65.576 19.3954C63.6022 20.1867 64.3091 23.1696 64.3357 23.2941C64.3846 23.4986 64.5669 23.6319 64.7669 23.6319L64.7625 23.6364Z" fill="#153C4A"/>
<path d="M44.62 22.5069C44.909 23.0582 44.7 23.7383 44.1532 24.0273C43.602 24.3162 42.9218 24.1073 42.6329 23.5605C42.3439 23.0093 42.5529 22.3291 43.0997 22.0401C43.6509 21.7512 44.3311 21.9601 44.62 22.5069Z" fill="#153C4A"/>
<path d="M65.233 41.9463C61.4339 35.3314 63.7165 26.8892 70.3314 23.0901C76.9462 19.291 85.3884 21.5736 89.1875 28.1885C92.9866 34.8034 90.704 43.2456 84.0891 47.0447C77.4743 50.8438 69.0321 48.5611 65.233 41.9463Z" fill="#153C4A"/>
<path d="M69.0884 19.4305C67.6614 17.679 65.0875 17.4123 63.336 18.8393L60.9221 20.8042L59.7574 20.6041C54.3072 19.6706 50.6442 14.496 51.5777 9.04587C51.8578 7.41438 52.5157 5.94738 53.4493 4.71154C61.171 2.22207 69.6308 6.05851 72.7604 13.6958L75.2188 19.6928C73.7517 20.9109 71.9469 21.7066 70.0042 21.9378C69.9909 21.0531 69.693 20.1685 69.0929 19.4305H69.0884Z" fill="#153C4A"/>
<path d="M49.8442 23.0448C50.0043 23.0448 50.1554 22.9603 50.2354 22.8092C50.8489 21.6578 52.1381 21.1465 53.1072 21.6622C53.3962 21.8178 53.6318 22.049 53.8007 22.3468C53.9207 22.5602 54.1919 22.6358 54.4053 22.5113C54.6187 22.3913 54.6942 22.1201 54.5698 21.9067C54.3208 21.4666 53.9563 21.111 53.5206 20.8798C52.1159 20.133 50.2888 20.8087 49.4441 22.3913C49.3286 22.6091 49.4086 22.8758 49.6264 22.9914C49.6931 23.027 49.7642 23.0448 49.8353 23.0448H49.8442Z" fill="#153C4A"/>
<path d="M26.8788 58.8179C26.8788 58.8179 25.3006 62.6543 32.0533 63.2767C38.9838 63.9124 42.0156 62.1964 42.8691 61.1562L26.8788 58.8179Z" fill="white"/>
<path d="M35.627 68.4735C35.627 68.4735 27.3006 68.3712 25.2156 66.0551C22.8862 63.4679 23.8331 60.6806 26.4382 58.3245L35.627 68.4779V68.4735Z" fill="white"/>
<path d="M37.8945 74.3234C37.8945 74.3234 32.9423 74.2078 30.315 72.9231C26.7008 71.1538 25.5406 67.1484 26.1007 67.064L37.8945 74.3234Z" fill="white"/>
<path d="M39.1348 78.5198C39.1348 78.5198 36.5119 78.4175 33.8936 77.484C31.2752 76.5504 29.9637 74.6433 30.3149 72.9185L39.1348 78.5153V78.5198Z" fill="white"/>
<path d="M34.1471 55.2659L43.5893 55.1636C48.0436 55.1147 52.3469 56.7907 55.5921 59.8447L60.1709 64.1524L82.0738 77.64C84.2965 79.0092 85.8969 81.1964 86.5281 83.7303L87.1416 86.1886C88.333 90.9675 85.8613 95.902 81.318 97.8091C77.9395 99.2317 74.0541 98.6849 71.1957 96.391L51.9334 80.9296C51.9334 80.9296 44.4295 83.0012 38.2903 81.2808C34.4894 80.2139 33.8937 77.4933 33.8937 77.4933L34.1471 55.2703V55.2659Z" fill="white"/>
<path d="M24.3307 48.7042C26.2333 48.7042 28.0916 48.3219 29.8297 47.5217C38.7296 43.4185 41.2324 29.8153 35.4133 17.1991C29.5941 4.58282 17.618 -2.33879 8.72261 1.76883C-0.177231 5.87201 -2.68003 19.4752 3.1391 32.0914C7.82018 42.2405 16.4889 48.7086 24.3351 48.7086L24.3307 48.7042ZM14.2706 2.34674C21.41 2.34674 29.4119 8.43705 33.7951 17.9415C39.2052 29.6642 37.0892 42.2093 29.0829 45.9035C21.0721 49.5977 10.1585 43.0673 4.74836 31.3401C-0.661781 19.6174 1.45426 7.07229 9.46056 3.3781C10.9765 2.68016 12.5991 2.34674 14.2661 2.34674H14.2706Z" fill="#153C4A"/>
<path d="M26.0642 48.2907C27.7757 48.2907 29.4339 47.9484 30.9809 47.2372C39.4051 43.3518 41.4856 29.8331 35.6131 17.1057C32.8036 11.0199 28.6159 5.99203 23.8192 2.95577C18.8714 -0.178294 13.8525 -0.845115 9.68708 1.07533C1.2629 4.96068 -0.817589 18.4794 5.05489 31.2068C9.84711 41.5914 18.4758 48.2907 26.0642 48.2907ZM14.6749 2.22671C17.1822 2.22671 19.9028 3.10691 22.6279 4.83176C27.0689 7.64574 30.9631 12.3313 33.5949 18.0348C38.9516 29.6464 37.3646 41.8403 30.0518 45.2145C28.7715 45.8057 27.3979 46.0858 25.9753 46.0858C19.2804 46.0858 11.4919 39.8488 7.07314 30.2688C1.71634 18.6572 3.30338 6.46325 10.6162 3.08913C11.8743 2.50677 13.239 2.22226 14.6749 2.22226V2.22671Z" fill="#153C4A"/>
<path d="M34.7193 50.8297L47.998 82.1428L40.1687 85.4629L26.89 54.1498L34.7193 50.8297Z" fill="#153C4A"/>
<path d="M39.5836 86.9176L49.457 82.73L35.3115 49.3711L25.4337 53.5587L39.5792 86.922L39.5836 86.9176ZM46.5408 81.5475L40.7572 84.0014L28.3455 54.7323L34.129 52.2829L46.5364 81.5519L46.5408 81.5475Z" fill="#153C4A"/>
<path d="M29.9382 45.7572L32.873 52.678L30.0082 53.8929L27.0733 46.9721L29.9382 45.7572Z" fill="#153C4A"/>
<path d="M25.9804 58.6976C25.9448 58.4842 23.4242 60.9337 23.4376 62.7341C23.4687 66.2949 25.807 66.5083 25.807 66.5083C25.807 66.5083 25.6114 71.0605 30.2258 72.9276C30.6348 73.0921 29.968 75.8127 33.9333 77.8887C34.7557 78.32 34.3557 80.6716 39.4502 81.8097C47.0742 83.5078 53.5557 80.5427 53.5557 80.5427L45.2471 59.3467C45.2471 59.3467 39.7036 63.561 34.9558 63.2809C28.3187 62.8897 26.3493 61.0137 25.9848 58.7021L25.9804 58.6976Z" fill="white"/>
<path d="M35.7728 63.5921C41.1163 63.5921 42.8767 61.8406 43.2101 61.4405C43.3657 61.2493 43.339 60.9692 43.1523 60.8137C42.9612 60.6581 42.6811 60.6847 42.5255 60.8714C42.321 61.1204 40.3072 63.2676 33.0255 62.5607C30.8428 62.3473 29.3802 61.7383 28.8068 60.7914C28.3044 59.969 28.6201 59.1466 28.6334 59.1155C28.7223 58.8888 28.6156 58.6309 28.3889 58.5376C28.1622 58.4442 27.9043 58.5554 27.811 58.7776C27.7887 58.8265 27.3086 60.0268 28.0377 61.236C28.7712 62.454 30.4205 63.1964 32.9411 63.4409C33.9813 63.5432 34.9237 63.5876 35.7728 63.5876V63.5921Z" fill="#153C4A"/>
<path d="M35.6277 68.9179C35.8722 68.9179 36.0678 68.7223 36.0723 68.4778C36.0723 68.2333 35.8811 68.0288 35.6322 68.0288C33.3694 68.0021 27.1502 67.5353 25.5454 65.7571C24.6474 64.7613 24.2473 63.6055 24.3807 62.423C24.5629 60.8182 25.7143 59.1912 27.6214 57.8531C27.8215 57.7108 27.8704 57.4352 27.7281 57.2352C27.5858 57.0351 27.3102 56.9862 27.1102 57.1285C24.9897 58.6177 23.7094 60.4626 23.496 62.3252C23.3315 63.77 23.8116 65.1659 24.883 66.3573C27.0746 68.789 35.2721 68.9223 35.6188 68.9268H35.6233L35.6277 68.9179Z" fill="#153C4A"/>
<path d="M37.8942 74.7681C38.1343 74.7681 38.3343 74.5769 38.3388 74.3324C38.3432 74.0879 38.1521 73.8834 37.9031 73.879C37.8542 73.879 33.0131 73.7501 30.5103 72.5231C27.5407 71.0694 26.4027 68.051 26.4071 67.3841C26.5049 67.2863 26.5627 67.1441 26.5405 66.9974C26.5049 66.7529 26.2782 66.5884 26.0337 66.624C25.9359 66.6373 25.6069 66.7218 25.5358 67.1797C25.3713 68.2332 26.7761 71.6874 30.1191 73.3233C32.7997 74.6347 37.6764 74.7636 37.8854 74.7681H37.8942Z" fill="#153C4A"/>
<path d="M39.1343 78.9644C39.3699 78.9644 39.5699 78.7777 39.5788 78.5376C39.5877 78.2931 39.3965 78.0842 39.152 78.0753C39.1254 78.0753 36.5603 77.9641 34.0397 77.0661C31.777 76.2615 30.4256 74.59 30.7501 73.0074C30.799 72.7674 30.6434 72.5318 30.4033 72.4829C30.1633 72.434 29.9277 72.5896 29.8788 72.8296C29.4653 74.8567 31.0524 76.9417 33.7419 77.9019C36.3958 78.8488 39.0053 78.9555 39.1165 78.9599C39.1209 78.9599 39.1298 78.9599 39.1343 78.9599V78.9644Z" fill="#153C4A"/>
<path d="M77.445 99.0317C78.8097 99.0317 80.1834 98.7649 81.4904 98.2137C86.2648 96.2043 88.8209 91.1009 87.5718 86.0731L86.9583 83.6147C86.2959 80.9519 84.6422 78.6936 82.3039 77.2533L60.441 63.7879L55.6621 59.2935C52.4658 56.2884 48.2826 54.6658 43.8994 54.7058L34.1371 54.8125C33.8926 54.8125 33.6926 55.017 33.697 55.2615C33.697 55.506 33.8971 55.7016 34.1416 55.7016H34.146L43.9083 55.5949C48.0604 55.5593 52.0213 57.093 55.0531 59.9426L59.8631 64.4681C59.8631 64.4681 59.9076 64.5081 59.9342 64.5214L81.8371 78.009C83.9754 79.3249 85.4868 81.392 86.0914 83.8281L86.7049 86.2865C87.8518 90.8831 85.5091 95.5553 81.1436 97.3913C77.9117 98.7516 74.2042 98.2315 71.4702 96.0354L52.208 80.574C52.0969 80.4851 51.9502 80.454 51.8124 80.494C51.7368 80.5162 44.3484 82.5123 38.4092 80.8452C34.9329 79.8716 34.3505 77.4889 34.3283 77.3866C34.275 77.1466 34.0349 76.9999 33.7993 77.0532C33.5592 77.1066 33.4081 77.3422 33.4614 77.5822C33.4881 77.7023 34.1594 80.574 38.1736 81.7032C43.8416 83.2947 50.5143 81.7476 51.8301 81.4142L70.919 96.7378C72.8039 98.2492 75.1155 99.0361 77.4494 99.0361L77.445 99.0317Z" fill="#153C4A"/>
<path d="M78.4143 75.2747C78.4365 75.2747 78.4587 75.2747 78.4854 75.2702C78.7299 75.2302 78.8944 75.0035 78.8544 74.7634L77.6719 67.2728C77.6319 67.0327 77.4051 66.8638 77.1651 66.9038C76.9206 66.9438 76.7561 67.1706 76.7961 67.4106L77.9786 74.9012C78.0142 75.1191 78.2009 75.2747 78.4187 75.2747H78.4143Z" fill="#153C4A"/>
<defs>
<linearGradient id="paint0_linear_171_13497" x1="100" y1="57.4953" x2="61.9669" y2="93.9546" gradientUnits="userSpaceOnUse">
<stop stop-color="#F39025"/>
<stop offset="1" stop-color="#53D1FF"/>
</linearGradient>
</defs>
</svg>
