<svg width="126" height="90" viewBox="0 0 126 90" fill="none" xmlns="http://www.w3.org/2000/svg">
<path d="M86.9944 67.9038C79.4222 67.9038 74.3186 66.3635 71.8084 63.3164C69.5855 60.6147 69.4898 56.7849 71.5295 51.9269C72.0457 50.6989 73.2113 49.346 74.4477 47.9139C77.0578 44.8917 80.0133 41.4657 78.3357 37.8358C75.5716 31.8663 76.375 25.8219 76.4083 25.568C76.6623 22.5499 79.2682 19.1073 83.5559 16.1475C87.5397 13.4 92.0564 11.7474 95.3159 11.8057C95.5448 11.8099 95.728 12.0013 95.7238 12.2303C95.7197 12.4593 95.5282 12.6299 95.2992 12.6383C92.2437 12.5716 87.8186 14.2201 84.0305 16.8344C80.0092 19.611 77.4699 22.9121 77.2368 25.6637C77.2243 25.747 76.4333 31.7497 79.0934 37.4903C80.9999 41.6031 77.7155 45.4079 75.0804 48.4593C73.8899 49.8413 72.7659 51.1443 72.2997 52.2474C70.3889 56.7974 70.443 60.3399 72.4537 62.7835C78.5397 70.1808 100.474 65.7474 100.694 65.6975C100.919 65.6517 101.14 65.7974 101.185 66.0222C101.231 66.247 101.086 66.4676 100.861 66.5134C100.807 66.5259 95.1702 67.679 88.8344 67.8705C88.2058 67.8913 87.5897 67.8996 86.9944 67.8996V67.9038Z" fill="#153C4A"/>
<path d="M79.5427 37.4486C76.3082 31.7747 76.6413 25.6137 76.6413 25.6137C76.6413 19.2446 87.348 11.1104 93.9294 10.6983C94.941 10.4153 96.0025 10.2612 97.1057 10.2612C103.583 10.2612 108.832 15.5105 108.832 21.9879V25.5762C109.153 27.5286 109.34 29.2645 109.507 30.48C110.277 36.054 115.468 35.8625 117.966 38.7474C120.463 41.6322 117.966 44.1299 118.349 48.3593C118.686 52.0767 121.849 52.085 124.047 56.0813C125.592 58.8329 123.373 63.0249 118.665 62.592C112.454 63.9282 103.933 63.9324 103.933 63.9324C103.933 63.9324 66.6796 74.993 73.9895 52.3972C75.2176 48.6049 82.644 42.881 79.5469 37.4486H79.5427Z" fill="#153C4A"/>
<path d="M122.432 53.0048C122.341 53.0048 122.245 52.9757 122.17 52.9091C119.918 51.0649 118.873 49.6662 118.228 45.749C117.966 44.1588 118.153 42.8018 118.315 41.6029C118.569 39.7629 118.752 38.4308 117.337 37.0404C116.479 36.1954 115.33 35.7125 114.115 35.2005C111.913 34.2722 109.419 33.219 108.666 29.6972C108.591 29.3559 108.516 28.9687 108.429 28.5441C108.237 27.5992 108 26.4252 107.7 25.1806C107.696 25.1598 107.692 25.1348 107.688 25.114L107.446 21.7671C107.03 15.9683 101.901 11.6015 96.0109 12.0136C95.0368 12.0844 94.071 12.2842 93.1469 12.6172C92.9304 12.6921 92.6931 12.5797 92.614 12.3633C92.5391 12.1468 92.6515 11.9095 92.8679 11.8304C93.8629 11.4766 94.9036 11.2601 95.9526 11.1852C102.297 10.7314 107.829 15.4521 108.279 21.7088L108.516 25.0224C108.816 26.2671 109.053 27.441 109.244 28.3818C109.328 28.8022 109.407 29.1852 109.478 29.5265C110.139 32.6237 112.225 33.5062 114.435 34.4345C115.672 34.9549 116.95 35.496 117.92 36.4493C119.631 38.1352 119.389 39.8753 119.135 41.7194C118.977 42.86 118.802 44.1505 119.044 45.6158C119.676 49.4539 120.642 50.5904 122.695 52.268C122.874 52.4137 122.898 52.6759 122.753 52.8549C122.67 52.9549 122.553 53.009 122.432 53.009V53.0048Z" fill="#153C4A"/>
<path d="M70.4355 89.5836L81.4087 61.2598C84.0729 54.3829 86.6455 51.9351 93.6557 49.8246L101.394 48.3967L112.726 50.0535C118.512 51.573 124.889 57.6049 125.164 63.6909L70.4355 89.5795V89.5836Z" fill="white"/>
<path d="M70.4343 89.9998C70.3844 89.9998 70.3344 89.9915 70.2845 89.9707C70.068 89.8874 69.9639 89.646 70.0472 89.4337L81.0204 61.1099C83.747 54.0747 86.4362 51.5645 93.5338 49.4249C93.5504 49.4207 93.5629 49.4165 93.5796 49.4124L101.318 47.9845C101.364 47.9762 101.41 47.9762 101.456 47.9845L112.787 49.6413C112.787 49.6413 112.816 49.6455 112.833 49.6496C118.631 51.1732 125.296 57.3051 125.579 63.67C125.587 63.899 125.413 64.0946 125.184 64.1029C124.959 64.1196 124.759 63.9364 124.751 63.7075C124.534 58.8911 119.51 52.2722 112.645 50.4614L101.402 48.8171L93.7503 50.2283C86.8941 52.2972 84.4339 54.5992 81.7947 61.4096L70.8215 89.7334C70.759 89.8999 70.6008 89.9998 70.4343 89.9998Z" fill="#153C4A"/>
<path d="M107.883 49.1339L103.716 34.052L89.667 37.9359L92.8141 49.3254C94.7498 57.8508 92.9931 62.5881 98.975 62.5881C105.348 62.5881 110.618 57.0932 111.488 49.954C110.356 49.6293 109.149 49.3545 107.879 49.138L107.883 49.1339Z" fill="white"/>
<path d="M98.9756 63.004C94.2966 63.004 93.9636 60.2274 93.4058 55.6234C93.1893 53.8209 92.9437 51.7811 92.4067 49.4166L89.2638 38.048C89.2013 37.8273 89.3304 37.5984 89.5552 37.5359L103.605 33.652C103.713 33.6229 103.825 33.6354 103.921 33.6895C104.017 33.7436 104.088 33.8352 104.117 33.9393L108.213 48.7672C109.395 48.9795 110.532 49.2418 111.606 49.5498C111.801 49.6039 111.93 49.7954 111.905 49.9994C111.002 57.4092 105.445 62.9999 98.9798 62.9999L98.9756 63.004ZM90.1796 38.227L93.2143 49.2126C93.7638 51.6395 94.0135 53.7043 94.2342 55.5234C94.7837 60.0859 95.0376 62.1715 98.9756 62.1715C104.92 62.1715 110.049 57.0762 111.027 50.2575C110.007 49.9786 108.925 49.7413 107.809 49.5498C107.651 49.5207 107.522 49.4041 107.48 49.2501L103.421 34.5678L90.1754 38.227H90.1796Z" fill="#153C4A"/>
<path d="M92.3728 47.7309L89.667 37.9358L98.5879 35.4714L102.364 38.0316C101.181 42.3942 97.6887 45.9243 92.3728 47.7309Z" fill="#153C4A"/>
<path d="M92.4854 43.5514C98.9628 43.5514 104.212 38.3021 104.212 31.8247V24.4857C104.212 18.0083 98.9628 12.759 92.4854 12.759C86.0081 12.759 80.7588 18.0083 80.7588 24.4857V31.8247C80.7588 38.3021 86.0081 43.5514 92.4854 43.5514Z" fill="white"/>
<path d="M93.3214 12.0222C100.348 12.0222 106.043 17.513 106.043 24.2859V26.8127C101.106 29.9473 94.4038 29.4186 90.0619 25.235L84.4338 19.8067C83.7386 19.1365 83.1433 18.4038 82.6396 17.6295C84.9042 14.2535 88.8422 12.0181 93.3214 12.0181V12.0222Z" fill="#153C4A"/>
<path d="M102.259 34.1813C104.053 34.9847 106.156 34.1813 106.959 32.3871L107.196 31.8626C108 30.0684 107.196 27.9662 105.402 27.1628C103.608 26.3593 101.506 27.1628 100.702 28.9569L100.465 29.4814C99.6616 31.2756 100.465 33.3778 102.259 34.1813Z" fill="white"/>
<path d="M82.1696 29.4892C82.3111 30.355 82.8731 30.9795 83.4226 30.8879C83.9721 30.7963 84.3009 30.022 84.1594 29.1603C84.0179 28.2944 83.4559 27.67 82.9064 27.7616C82.3569 27.8532 82.028 28.6275 82.1696 29.4892Z" fill="#153C4A"/>
<path d="M79.168 27.7243C79.0723 27.7243 78.9724 27.691 78.8975 27.6244C78.7226 27.4745 78.706 27.2123 78.8558 27.0374C80.8457 24.7396 84.255 25.2807 84.3965 25.3057C84.6213 25.3432 84.7754 25.5596 84.7379 25.7844C84.7004 26.0092 84.484 26.1632 84.2592 26.1258C84.23 26.1216 81.1662 25.6429 79.4844 27.5828C79.4012 27.6785 79.2846 27.7243 79.168 27.7243Z" fill="#153C4A"/>
<path d="M90.0035 28.7233C90.1451 29.5892 90.7071 30.2136 91.2566 30.122C91.8061 30.0304 92.1349 29.2561 91.9934 28.3944C91.8518 27.5286 91.2899 26.9041 90.7404 26.9957C90.1909 27.0873 89.862 27.8616 90.0035 28.7233Z" fill="#153C4A"/>
<path d="M87.7729 26.5173C87.6522 26.5173 87.5356 26.4673 87.4524 26.3674C87.3067 26.1884 87.3317 25.9262 87.5065 25.7805C89.8502 23.8448 93.1221 24.9396 93.2595 24.9895C93.476 25.0645 93.5925 25.3018 93.5176 25.5182C93.4427 25.7347 93.2054 25.8512 92.9889 25.7763C92.9598 25.7638 90.0167 24.7856 88.0393 26.4216C87.9602 26.484 87.8687 26.5173 87.7729 26.5173Z" fill="#153C4A"/>
<path d="M87.1072 34.8384C86.9199 34.8384 85.2714 34.8134 84.6678 33.9517C84.4971 33.7061 84.3348 33.2899 84.5513 32.6946C85.0008 31.4582 85.8251 27.4578 85.8334 27.4161C85.8792 27.1913 86.0998 27.0456 86.3246 27.0914C86.5494 27.1372 86.6951 27.3578 86.6493 27.5826C86.616 27.7491 85.8043 31.683 85.3339 32.9776C85.234 33.2566 85.2922 33.3939 85.3464 33.473C85.6253 33.8726 86.6493 34.0059 87.1031 34.0059C87.332 34.0059 87.5193 34.1932 87.5193 34.4221C87.5193 34.6511 87.332 34.8384 87.1031 34.8384H87.1072Z" fill="#153C4A"/>
<path d="M87.6816 37.7194C87.4651 37.7194 87.2819 37.5488 87.2653 37.3281C87.2528 37.0992 87.4235 36.8994 87.6566 36.8869C89.7255 36.7578 90.9327 35.0636 90.9452 35.0469C91.0784 34.8596 91.3365 34.8138 91.5239 34.9428C91.7112 35.0719 91.7611 35.3341 91.6279 35.5215C91.5696 35.6047 90.1876 37.5654 87.7065 37.7194C87.6982 37.7194 87.6899 37.7194 87.6816 37.7194Z" fill="#153C4A"/>
<path d="M102.822 32.4323C102.606 32.4323 102.423 32.2658 102.406 32.0451C102.194 29.0438 104.117 28.207 104.2 28.1696C104.412 28.0821 104.658 28.1821 104.746 28.3944C104.833 28.6067 104.733 28.8481 104.525 28.9355C104.454 28.9688 103.072 29.6141 103.239 31.9827C103.255 32.2117 103.08 32.4115 102.851 32.4281C102.843 32.4281 102.831 32.4281 102.822 32.4281V32.4323Z" fill="#153C4A"/>
<path d="M55.8071 66.734C54.9995 57.9921 54.0504 49.2835 54.0421 49.2086C53.9172 47.7349 52.7641 34.7595 50.3122 32.7072C50.0125 32.4574 49.6919 32.345 49.3589 32.3742C47.7063 32.5282 47.111 35.0342 46.9403 37.586C46.4116 36.5994 45.6832 35.1841 45.1878 33.9977C44.9838 33.5065 44.8131 33.0694 44.6716 32.6822C45.0962 33.0236 45.5874 33.3191 46.1119 33.4357C46.6531 33.5564 47.1401 33.4773 47.5564 33.2026C48.3557 32.6739 48.5638 31.5957 48.5721 31.5499C48.593 31.4334 48.5722 31.3168 48.5055 31.2169C48.1725 30.7174 45.1795 26.3131 43.1771 25.5846C42.74 25.4264 42.2905 25.4597 41.8742 25.6887C40.975 26.1799 40.3548 27.5286 39.9926 28.5694C38.8561 25.4306 37.7363 22.5249 37.3367 22.0504C36.7622 21.3635 35.9338 21.0846 35.2303 21.3427C34.864 21.4759 34.0065 21.9713 34.0065 23.6489C34.0065 24.2151 34.3686 25.5222 34.9015 27.1498C34.5934 26.8709 34.2521 26.6461 33.8857 26.5379C33.2946 26.3589 32.7493 26.438 32.3497 26.7502C32.0125 27.0166 31.6253 27.5786 31.6919 28.74C31.7377 29.5518 32.6119 31.5749 33.6401 33.7104C32.3164 32.2992 31.1841 31.6998 30.2599 31.9454C29.5106 32.141 29.1401 32.8446 29.1152 33.4107C29.0652 34.5139 29.5023 35.1424 30.5472 36.6577C31.5587 38.123 33.2572 40.5791 35.809 45.3497C37.2035 47.9556 39.389 58.1753 39.543 58.8955C39.5597 59.4866 39.7928 65.9181 41.8034 72.2414C44.5967 81.0291 49.5421 85.6707 56.1068 85.6707C56.1651 85.6707 56.2234 85.6707 56.2858 85.6707C56.4357 85.6707 56.5731 85.6041 56.673 85.4875C56.9477 85.1795 57.4556 84.605 55.803 66.734H55.8071Z" fill="white"/>
<path d="M86.3075 73.4073L92.2187 77.2996C92.2187 77.2996 91.7233 69.8689 86.3949 67.8042C81.0665 65.7394 72.4037 64.2242 70.0975 68.5035C67.7872 72.7829 68.2534 80.6673 68.2534 80.6673C68.2534 80.6673 71.3256 82.4739 71.9042 79.8639C75.1637 65.2024 73.6942 76.9915 73.6942 76.9915L72.3829 83.3606C72.3829 83.3606 74.4352 84.214 76.2543 83.8851C78.0735 83.5563 83.6142 83.9559 86.3075 73.4073Z" fill="white"/>
<path d="M70.222 81.6663C69.1314 81.6663 68.0907 81.0586 68.0366 81.0294C67.9242 80.9628 67.8492 80.8463 67.8326 80.7172C67.7993 80.3883 67.0084 72.608 69.7392 68.287C71.0338 66.2389 74.9385 63.3999 86.5278 67.417C90.0079 68.6242 91.544 72.5456 92.2225 75.6261C92.2725 75.8509 92.1309 76.0715 91.9062 76.1215C91.6814 76.1714 91.4607 76.0299 91.4108 75.8051C90.7822 72.9327 89.3752 69.2861 86.2572 68.2038C82.4399 66.88 73.2609 64.2866 70.4468 68.7325C68.1115 72.4207 68.5361 79.1228 68.6443 80.4133C69.0398 80.609 70.0056 81.0169 70.7466 80.7588C71.1171 80.6298 71.3835 80.3467 71.5625 79.8888C71.8913 79.0354 72.087 77.7699 72.2743 76.5461C72.6032 74.3981 72.9154 72.3708 73.9727 71.7047C74.1684 71.5798 74.4223 71.6381 74.5472 71.8338C74.6721 72.0294 74.6138 72.2875 74.4182 72.4082C73.6813 72.8745 73.3733 74.8934 73.0986 76.6751C72.9029 77.9448 72.7031 79.2561 72.3368 80.1927C72.0703 80.8837 71.6249 81.3375 71.0171 81.5498C70.759 81.6372 70.4885 81.6747 70.222 81.6747V81.6663Z" fill="#153C4A"/>
<path d="M74.3393 84.5385C73.4817 84.5385 72.6367 84.1222 72.1496 83.7642C72.0247 83.6684 71.9581 83.5144 71.9873 83.3562L74.5349 68.7031C74.5724 68.4783 74.7888 68.3243 75.0178 68.3659C75.2426 68.4034 75.3966 68.6199 75.355 68.8488L72.8531 83.2313C73.361 83.5394 74.6556 84.168 75.4632 83.1606C75.6047 82.9816 75.867 82.9524 76.0502 83.094C76.2292 83.2397 76.2583 83.4978 76.1168 83.6809C75.6089 84.3137 74.972 84.5385 74.3434 84.5385H74.3393Z" fill="#153C4A"/>
<path d="M76.5573 84.6383C76.1161 84.6383 75.7997 84.5967 75.7581 84.5925C75.6415 84.5759 75.5416 84.5134 75.475 84.4177C75.4084 84.322 75.3876 84.2012 75.4126 84.0888L78.7387 69.2775C78.7886 69.0528 79.0134 68.9154 79.234 68.9612C79.4588 69.0111 79.6004 69.2359 79.5504 69.4566L76.3284 83.8016C77.1818 83.8307 78.5472 83.6934 78.9551 82.8317C79.667 81.3206 82.7558 70.8636 82.7849 70.7553C82.8515 70.5347 83.0805 70.4098 83.3011 70.4723C83.5217 70.5389 83.6466 70.7678 83.5842 70.9885C83.4551 71.4214 80.4454 81.6161 79.7086 83.1814C79.1216 84.4302 77.5314 84.6342 76.5573 84.6342V84.6383Z" fill="#153C4A"/>
<path d="M79.6595 83.3063C79.5804 83.3063 79.5013 83.3063 79.4181 83.298C79.1891 83.2813 79.0184 83.0815 79.0309 82.8526C79.0476 82.6236 79.2432 82.4529 79.4763 82.4696C82.9356 82.7152 85.3875 75.4469 86.0411 72.6245C86.091 72.3997 86.3158 72.2582 86.5406 72.3123C86.7654 72.3623 86.9028 72.5871 86.8528 72.8119C86.7529 73.249 84.3593 83.3105 79.6553 83.3105L79.6595 83.3063Z" fill="#153C4A"/>
<path d="M38.3359 85.8123H86.6995C88.2855 85.8123 89.5719 87.0986 89.5719 88.6846V89.8544H38.3359V85.8123Z" fill="#7599A6"/>
<path d="M58.2166 89.8544H11.6306L1.39419 58.9122C0.403445 55.9233 2.63055 52.8428 5.77764 52.8428H42.6352C44.625 52.8428 46.3942 54.1208 47.0186 56.0107L58.2166 89.8544Z" fill="#7599A6"/>
<path d="M27.9524 75.103C29.6261 74.4097 30.4209 72.4908 29.7276 70.8171C29.0344 69.1433 27.1155 68.3485 25.4417 69.0418C23.768 69.7351 22.9732 71.654 23.6664 73.3277C24.3597 75.0015 26.2786 75.7963 27.9524 75.103Z" fill="white"/>
<path d="M26.6956 75.7674C24.6558 75.7674 22.999 74.1106 22.999 72.0708C22.999 70.0311 24.6558 68.3743 26.6956 68.3743C28.7354 68.3743 30.3922 70.0311 30.3922 72.0708C30.3922 74.1106 28.7354 75.7674 26.6956 75.7674ZM26.6956 69.2068C25.1179 69.2068 23.8316 70.4931 23.8316 72.0708C23.8316 73.6486 25.1179 74.9349 26.6956 74.9349C28.2733 74.9349 29.5596 73.6486 29.5596 72.0708C29.5596 70.4931 28.2733 69.2068 26.6956 69.2068Z" fill="#153C4A"/>
<path d="M104.711 89.4091L91.6647 75.0432C91.6647 75.0432 93.9501 84.4761 82.29 82.2324L104.711 89.4049V89.4091Z" fill="white"/>
<path d="M104.711 89.8255C104.599 89.8255 104.486 89.7797 104.403 89.6881L92.2518 76.3088C92.3268 77.6451 92.1561 79.689 90.7282 81.1835C89.0714 82.9194 86.2074 83.4106 82.2111 82.6446C81.9863 82.603 81.8365 82.3824 81.8823 82.1576C81.9239 81.9328 82.1445 81.7829 82.3693 81.8287C86.0659 82.5405 88.676 82.1326 90.1246 80.6132C92.0645 78.5817 91.2694 75.1807 91.2611 75.1474C91.2153 74.9642 91.3027 74.7727 91.4692 74.6811C91.6357 74.5937 91.8439 74.627 91.9729 74.7686L105.019 89.1303C105.173 89.301 105.161 89.5632 104.99 89.7172C104.911 89.788 104.811 89.8255 104.711 89.8255Z" fill="#153C4A"/>
<path d="M39.9923 59.2618C39.8008 59.2618 39.6259 59.1286 39.5843 58.9329C39.5593 58.8247 37.2781 48.0305 35.8378 45.3372C33.286 40.5624 31.5875 38.1064 30.576 36.6411C29.5353 35.1341 29.1023 34.5097 29.1523 33.4149C29.1773 32.8571 29.5353 32.1702 30.2721 31.9787C31.8165 31.5708 33.9645 33.5439 36.6495 37.8441C36.7702 38.0398 36.712 38.2937 36.5163 38.4186C36.3207 38.5393 36.0626 38.481 35.9418 38.2854C32.4909 32.7572 30.8924 32.6822 30.4844 32.7863C30.1389 32.8779 29.9932 33.2442 29.9849 33.4524C29.9516 34.2641 30.2804 34.7428 31.2628 36.1665C32.2869 37.6485 34.002 40.1295 36.5746 44.9417C38.069 47.7391 40.3045 58.3085 40.4002 58.7581C40.446 58.9829 40.3045 59.2035 40.0797 59.2493C40.0505 59.2535 40.0214 59.2576 39.9923 59.2576V59.2618Z" fill="#153C4A"/>
<path d="M37.4314 40.492C37.2858 40.492 37.1401 40.4129 37.0651 40.2755C36.5323 39.2972 31.8408 30.6552 31.7284 28.7445C31.6618 27.5997 32.0406 27.0461 32.3736 26.7838C32.7649 26.4758 33.2978 26.4008 33.8806 26.5757C35.3292 27.0086 36.3824 29.2565 36.499 29.5105C36.5947 29.7186 36.499 29.9642 36.2908 30.0599C36.0827 30.1557 35.8329 30.0599 35.7413 29.8518C35.4708 29.2565 34.5633 27.6497 33.6433 27.3708C33.4227 27.3042 33.1104 27.2625 32.894 27.4332C32.6442 27.6289 32.5277 28.0784 32.5651 28.6945C32.6525 30.1557 36.3741 37.2616 37.8019 39.8759C37.9102 40.0757 37.8394 40.3296 37.6354 40.442C37.573 40.4753 37.5022 40.492 37.4356 40.492H37.4314Z" fill="#153C4A"/>
<path d="M39.7002 39.0929C39.5337 39.0929 39.3797 38.993 39.3131 38.8307C38.7719 37.4902 34.043 25.6886 34.043 23.6489C34.043 21.9879 34.8839 21.505 35.2419 21.3718C35.9287 21.122 36.7446 21.3926 37.3108 22.0712C38.1642 23.0869 42.7391 36.4537 42.9014 37.1863C42.9514 37.4111 42.8099 37.6318 42.5851 37.6817C42.3603 37.7275 42.1396 37.5901 42.0897 37.3653C41.8233 36.1623 37.3149 23.3658 36.6739 22.604C36.3325 22.2002 35.8829 22.0212 35.5291 22.1503C35.1128 22.3001 34.8755 22.8454 34.8755 23.6447C34.8755 25.2349 38.6387 34.9176 40.0874 38.5143C40.1748 38.7266 40.0707 38.968 39.8584 39.0554C39.8085 39.0763 39.7544 39.0846 39.7044 39.0846L39.7002 39.0929Z" fill="#153C4A"/>
<path d="M47.2147 39.4427C47.069 39.4427 46.9275 39.3678 46.8526 39.2346C46.786 39.1222 45.2624 36.4288 44.3882 34.3349C43.5098 32.2285 43.2393 31.0463 43.2268 30.9963C43.181 30.8007 43.285 30.6009 43.4682 30.5218C43.6514 30.4427 43.8678 30.5051 43.9802 30.6716C43.9927 30.6883 45.1042 32.3284 46.3031 32.5949C46.6111 32.6615 46.8651 32.6282 47.0815 32.4866C47.4354 32.2535 47.6144 31.7914 47.6851 31.55C46.7319 30.1555 44.2966 26.9168 42.8813 26.4006C42.6773 26.3257 42.4899 26.3423 42.2901 26.4506C41.3368 26.9709 40.6458 29.2438 40.4585 30.0764C40.4085 30.3012 40.1837 30.4427 39.9631 30.3927C39.7383 30.3428 39.5968 30.118 39.6467 29.8974C39.7258 29.5519 40.4418 26.5172 41.8905 25.7221C42.2943 25.5014 42.7356 25.464 43.1643 25.6222C45.1916 26.359 48.347 31.0421 48.4802 31.242C48.5385 31.3335 48.5635 31.4418 48.5427 31.55C48.5344 31.5958 48.3304 32.6573 47.5394 33.1818C47.1315 33.4524 46.6528 33.5273 46.1199 33.4108C45.5621 33.2859 45.0376 32.957 44.5963 32.5907C44.7462 33.0028 44.9294 33.4815 45.1541 34.0186C46.0075 36.0667 47.5603 38.8016 47.5769 38.8266C47.6893 39.0264 47.6227 39.2803 47.4229 39.3927C47.3563 39.4302 47.2855 39.4469 47.2189 39.4469L47.2147 39.4427Z" fill="#153C4A"/>
<path d="M47.477 42.7811C47.477 42.7811 46.6028 33.0859 49.4002 32.8236C52.1976 32.5614 53.5921 49.2459 53.5921 49.2459C53.5921 49.2459 56.1065 84.0013 56.2813 85.221L47.477 42.7811Z" fill="white"/>
<path d="M56.2815 85.6415C56.0776 85.6415 55.8986 85.4917 55.8694 85.2835C55.6946 84.0597 53.2801 50.6989 53.1761 49.2793C52.8514 45.3829 51.5984 34.9135 49.7542 33.3732C49.5794 33.2275 49.4712 33.2359 49.4379 33.24C47.7936 33.394 47.5438 38.8931 47.8935 42.7479C47.9143 42.9768 47.7436 43.1808 47.5146 43.2016C47.2815 43.2224 47.0817 43.0518 47.0609 42.8228C46.9069 41.1327 46.3033 32.6989 49.3588 32.4116C49.6835 32.3825 49.9957 32.4907 50.2871 32.7363C52.7307 34.7803 53.8796 47.7433 54.0045 49.2169C54.0294 49.5707 56.523 83.9722 56.6936 85.1711C56.7269 85.4001 56.5688 85.6082 56.3398 85.6415C56.319 85.6415 56.2982 85.6415 56.2815 85.6415Z" fill="#153C4A"/>
<path d="M50.8528 37.0198C49.042 37.0198 47.5684 35.5462 47.5684 33.7354C47.5684 31.9246 49.042 30.4509 50.8528 30.4509C51.2774 30.4509 51.6895 30.53 52.0808 30.6882C52.2932 30.7756 52.3972 31.0171 52.3098 31.2294C52.2224 31.4417 51.9809 31.5457 51.7686 31.4583C51.4772 31.3418 51.1692 31.2793 50.8528 31.2793C49.4999 31.2793 48.4009 32.3783 48.4009 33.7312C48.4009 35.0841 49.4999 36.1831 50.8528 36.1831C51.3815 36.1831 51.881 36.0166 52.3056 35.7044C52.4888 35.567 52.7511 35.6087 52.8884 35.7918C53.0258 35.975 52.9842 36.2372 52.801 36.3746C52.2349 36.7951 51.5605 37.0157 50.8528 37.0157V37.0198Z" fill="#153C4A"/>
<path d="M66.2097 30.3467C66.4553 31.0835 66.5968 31.8703 66.5968 32.6945C66.5968 36.7741 63.2915 40.0793 59.212 40.0793C55.1324 40.0793 51.8271 36.7741 51.8271 32.6945C51.8271 31.8744 51.9687 31.0877 52.2143 30.3467H66.2097Z" fill="white"/>
<path d="M59.2122 40.4917C54.9121 40.4917 51.4111 36.9908 51.4111 32.6906C51.4111 31.858 51.5485 31.0213 51.8191 30.2137C51.8774 30.0431 52.0356 29.9307 52.2146 29.9307H66.2099C66.3889 29.9307 66.5471 30.0431 66.6054 30.2137C66.876 31.0213 67.0134 31.8539 67.0134 32.6906C67.0134 36.9908 63.5124 40.4917 59.2122 40.4917ZM52.5184 30.7632C52.3353 31.396 52.2437 32.0454 52.2437 32.6906C52.2437 36.5329 55.37 39.6592 59.2122 39.6592C63.0545 39.6592 66.1808 36.5329 66.1808 32.6906C66.1808 32.0412 66.0892 31.3918 65.9061 30.7632H52.5226H52.5184Z" fill="#153C4A"/>
<path d="M0.00416281 20.3728V4.45005C0.00416281 1.99399 1.99815 0 4.45421 0H37.4029C39.8589 0 41.8529 1.99399 41.8529 4.45005V12.0097C41.8529 14.4658 39.8589 16.4598 37.4029 16.4598H6.12766C5.04533 16.4598 4.00046 16.8552 3.18455 17.5712L0 20.377L0.00416281 20.3728Z" fill="url(#paint0_linear_171_13194)"/>
<path d="M26.5502 44.5755V28.6527C26.5502 26.1966 24.5562 24.2026 22.1001 24.2026H4.45395C1.99789 24.2026 0.00390625 26.1966 0.00390625 28.6527V36.2124C0.00390625 38.6684 1.99789 40.6624 4.45395 40.6624H20.4225C21.5048 40.6624 22.5497 41.0579 23.3656 41.7739L26.5502 44.5796V44.5755Z" fill="#7599A6"/>
<path d="M10.2281 4.83301H5.60742V5.66557H10.2281V4.83301Z" fill="white"/>
<path d="M32.7438 4.83301H11.834V5.66557H32.7438V4.83301Z" fill="white"/>
<path d="M18.6037 8.04224H5.60742V8.8748H18.6037V8.04224Z" fill="white"/>
<path d="M28.8274 8.04224H20.6475V8.8748H28.8274V8.04224Z" fill="white"/>
<path d="M8.90021 31.5332H5.60742V32.3658H8.90021V31.5332Z" fill="white"/>
<path d="M19.1243 31.5332H10.9443V32.3658H19.1243V31.5332Z" fill="white"/>
<path d="M36.6498 8.04224H30.876V8.8748H36.6498V8.04224Z" fill="white"/>
<path d="M16.1976 11.2476H5.60742V12.0801H16.1976V11.2476Z" fill="white"/>
<defs>
<linearGradient id="paint0_linear_171_13194" x1="8.14818e-06" y1="5.09424" x2="11.5205" y2="27.0213" gradientUnits="userSpaceOnUse">
<stop stop-color="#F39025"/>
<stop offset="1" stop-color="#53D1FF"/>
</linearGradient>
</defs>
</svg>
