<svg width="100" height="116" viewBox="0 0 100 116" fill="none" xmlns="http://www.w3.org/2000/svg">
<path d="M30.1025 115.349L31.6657 107.065C32.838 100.847 36.736 95.4832 42.2899 92.4498H85.173L93.946 115.354H30.1025V115.349Z" fill="white"/>
<path d="M93.9406 115.838C93.7452 115.838 93.5596 115.721 93.4863 115.525L84.8355 92.9336H42.4116C37.0238 95.9181 33.2869 101.096 32.1439 107.153L30.5808 115.438C30.5319 115.701 30.2779 115.877 30.0093 115.828C29.7455 115.779 29.5697 115.525 29.6185 115.257L31.1816 106.972C32.3833 100.583 36.3448 95.1366 42.0501 92.0152C42.1234 91.9761 42.2016 91.9566 42.2846 91.9566H85.1676C85.3679 91.9566 85.5535 92.0836 85.6219 92.2692L94.3949 115.174C94.4926 115.428 94.3656 115.706 94.1116 115.804C94.053 115.823 93.9943 115.838 93.9357 115.838H93.9406Z" fill="#153C4A"/>
<path d="M36.4375 68.5685L42.2894 92.445L85.1725 93.422L90.0425 61.256L36.4375 68.5685Z" fill="url(#paint0_linear_171_13318)"/>
<path d="M38.2794 35.3231L6.53351 50.8272C2.85043 52.6297 0.383639 56.2346 0.041708 60.3182C-0.490728 66.6439 4.13511 72.2321 10.4511 72.8866L38.719 75.8224L38.2843 35.3231H38.2794Z" fill="url(#paint1_linear_171_13318)"/>
<path d="M71.8519 38.6786L81.4797 46.1669C90.2967 53.0251 96.0362 63.0925 97.443 74.1711L99.8366 93.0115C101.365 105.038 91.9917 115.672 79.8727 115.672H77.7625C64.8912 115.672 55.3269 103.753 58.1161 91.1895L58.6436 88.8155L71.8568 38.6786H71.8519Z" fill="url(#paint2_linear_171_13318)"/>
<path d="M85.1741 17.2292C87.0649 11.4953 83.9494 5.31429 78.2155 3.42353C72.4816 1.53278 66.3006 4.64826 64.4098 10.3822C62.5191 16.116 65.6346 22.297 71.3685 24.1878C77.1024 26.0786 83.2834 22.9631 85.1741 17.2292Z" fill="#153C4A"/>
<path d="M83.053 30.8576C88.2704 30.8321 92.4792 26.5819 92.4537 21.3645C92.4282 16.1471 88.178 11.9382 82.9606 11.9637C77.7432 11.9892 73.5343 16.2394 73.5598 21.4568C73.5853 26.6743 77.8355 30.8831 83.053 30.8576Z" fill="#153C4A"/>
<path d="M78.2218 21.206C79.5114 20.0483 81.4213 19.7113 83.0821 20.5124C85.1777 21.5187 86.1351 24.0734 85.2216 26.2129C84.23 28.5282 81.5288 29.5345 79.2769 28.4647C78.7933 28.2352 78.3781 27.9274 78.0215 27.5659L71.7935 48.8194L66.1028 47.1488C61.7896 45.8837 59.3179 41.3653 60.583 37.0521L66.2542 17.6939L78.2218 21.2011V21.206Z" fill="white"/>
<path d="M71.793 49.3129C71.749 49.3129 71.7002 49.308 71.6562 49.2933L65.9655 47.6228C63.7527 46.9731 61.9258 45.5028 60.8219 43.4854C59.7179 41.4631 59.4639 39.1331 60.1136 36.9203L65.7847 17.567C65.8189 17.4449 65.9069 17.3374 66.0192 17.2739C66.1316 17.2104 66.2683 17.2007 66.3905 17.2349L78.104 20.6688C79.5743 19.4916 81.5771 19.2523 83.2916 20.0778C85.6168 21.1964 86.6816 24.0393 85.6705 26.4084C85.1429 27.6491 84.1562 28.5919 82.9008 29.0657C81.6455 29.5444 80.2826 29.4858 79.0663 28.9094C78.7879 28.7775 78.5241 28.6212 78.2799 28.4355L72.2668 48.9612C72.2326 49.0833 72.1447 49.1908 72.0323 49.2543C71.959 49.2933 71.8809 49.3129 71.7979 49.3129H71.793ZM66.5858 18.3095L61.0514 37.1939C60.475 39.1526 60.6997 41.2238 61.6816 43.0165C62.6634 44.8092 64.2802 46.1134 66.239 46.6849L71.4608 48.2138L77.5521 27.4293C77.6009 27.2632 77.7328 27.1362 77.9038 27.0922C78.0698 27.0483 78.2506 27.102 78.3727 27.2241C78.7 27.5612 79.0761 27.8298 79.4864 28.0252C80.4585 28.4844 81.5478 28.5332 82.554 28.1522C83.5603 27.7712 84.3467 27.0141 84.7717 26.0225C85.5826 24.1272 84.7277 21.8509 82.8666 20.957C81.4305 20.2634 79.7355 20.5076 78.5437 21.5725C78.4167 21.6848 78.2408 21.7239 78.0796 21.68L66.581 18.3095H66.5858Z" fill="#153C4A"/>
<path d="M78.9006 25.3971C78.8469 25.3971 78.7883 25.3873 78.7297 25.3678C78.4757 25.275 78.3487 24.9916 78.4415 24.7425C78.9055 23.4872 79.6236 22.6372 80.581 22.2171C81.9585 21.6114 83.3067 22.1536 83.3604 22.178C83.6095 22.2806 83.7267 22.5639 83.6242 22.8179C83.5216 23.0671 83.2383 23.1843 82.9891 23.0866C82.9891 23.0866 81.9536 22.6812 80.962 23.1208C80.2635 23.4334 79.7213 24.0929 79.3549 25.0845C79.2816 25.2798 79.096 25.402 78.8957 25.402L78.9006 25.3971Z" fill="#153C4A"/>
<path d="M63.1326 5.37951C61.5841 8.64251 62.9714 12.5454 66.2344 14.0939C69.4974 15.6423 73.4003 14.2551 74.9487 10.9921C76.4972 7.72906 75.1099 3.82616 71.8469 2.2777C68.5839 0.729242 64.681 2.11651 63.1326 5.37951Z" fill="#153C4A"/>
<path d="M79.291 28.9387C79.2226 28.9387 79.1493 28.924 79.0809 28.8898C78.2896 28.5137 77.6106 27.9324 77.1221 27.2046C76.8926 26.8627 76.7069 26.4963 76.5702 26.1104C76.4773 25.8564 76.6141 25.578 76.8681 25.4852C77.1221 25.3972 77.4006 25.5291 77.4934 25.7831C77.6057 26.0958 77.7523 26.3888 77.9379 26.6624C78.3287 27.2437 78.8709 27.7077 79.5059 28.0106C79.7501 28.1278 79.8527 28.416 79.7355 28.6602C79.6524 28.8361 79.4766 28.9387 79.2958 28.9387H79.291Z" fill="#153C4A"/>
<path d="M79.2377 19.3059C80.8252 14.5677 79.8873 9.70738 76.4632 7.14778C71.9008 3.73335 64.6616 5.70678 60.2849 11.5538C55.9082 17.4008 56.0645 24.9038 60.622 28.3182C64.0413 30.8778 68.97 30.4089 73.0683 27.5464L79.2328 19.3059H79.2377Z" fill="white"/>
<path d="M65.8731 30.4822C63.8411 30.4822 61.9214 29.896 60.3338 28.709C55.5663 25.1383 55.3661 17.3129 59.8942 11.2608C62.0728 8.34457 65.0134 6.26856 68.1738 5.40885C71.3782 4.53937 74.4263 5.01807 76.7514 6.75704C80.2489 9.37525 81.4066 14.3626 79.6969 19.4622C79.609 19.7162 79.3354 19.853 79.0765 19.77C78.8225 19.682 78.6809 19.4085 78.7688 19.1496C80.3417 14.4554 79.3208 9.89792 76.1652 7.53859C74.0843 5.98036 71.3342 5.55539 68.4278 6.34672C65.4774 7.14781 62.7225 9.10171 60.6709 11.842C56.4651 17.4595 56.5726 24.6742 60.9102 27.9226C64.0658 30.2819 68.7258 29.979 72.785 27.141C73.0048 26.9896 73.3126 27.0384 73.464 27.2631C73.6203 27.4829 73.5666 27.7907 73.3419 27.9421C70.9337 29.6273 68.3155 30.4773 65.8633 30.4773L65.8731 30.4822Z" fill="#153C4A"/>
<path d="M78.5438 21.8362C78.4412 21.8215 78.3337 21.8118 78.2312 21.7922C72.4428 20.786 69.126 13.5615 70.821 5.65796C70.8406 5.57003 70.865 5.48211 70.8845 5.39418C73.0191 5.23787 75.0463 5.75565 76.6925 7.03057C80.5172 9.99071 81.1229 16.1064 78.5438 21.8411V21.8362Z" fill="#153C4A"/>
<path d="M63.5823 10.914C63.6116 11.2803 62.8105 11.6418 61.7945 11.7248C60.7785 11.8079 59.9334 11.5734 59.9041 11.2071C59.8748 10.8407 60.6759 10.4743 61.6919 10.3962C62.7079 10.3131 63.553 10.5476 63.5823 10.914Z" fill="#153C4A"/>
<path d="M71.0853 16.1016C70.8069 16.4631 69.7713 16.1358 68.7651 15.364C67.7588 14.5922 67.1726 13.6788 67.4511 13.3173C67.7295 12.9559 68.7651 13.2831 69.7713 14.0549C70.7776 14.8267 71.3637 15.7401 71.0853 16.1016Z" fill="#153C4A"/>
<path d="M62.5711 17.694C62.3806 17.694 62.195 17.5817 62.1217 17.3911C61.853 16.7464 61.9507 15.999 62.3708 15.4421L64.1733 13.0584C64.3345 12.8435 64.6422 12.7995 64.8571 12.9607C65.0721 13.1219 65.116 13.4296 64.9499 13.6446L63.1475 16.0283C62.9325 16.3165 62.8837 16.6829 63.0205 17.015C63.1231 17.2641 63.0058 17.5523 62.7567 17.6549C62.6981 17.6793 62.6346 17.694 62.5711 17.694Z" fill="#153C4A"/>
<path d="M68.1005 17.909C67.8611 17.909 67.6511 17.7331 67.6169 17.4889C67.4459 16.2775 66.7425 16.3361 66.7181 16.3312C66.4445 16.3605 66.2101 16.1602 66.1857 15.8916C66.1612 15.6229 66.3566 15.3835 66.6253 15.3591C67.1968 15.3005 68.3447 15.6522 68.5841 17.3472C68.6231 17.6159 68.4375 17.8601 68.1689 17.8992C68.1444 17.8992 68.12 17.8992 68.1005 17.8992V17.909Z" fill="#153C4A"/>
<path d="M62.3947 14.0354C62.2677 14.0354 62.1407 13.9865 62.043 13.8889C61.1881 13.0145 60.6557 13.4688 60.6313 13.4883C60.431 13.669 60.1184 13.6495 59.9425 13.4492C59.7618 13.249 59.7813 12.9363 59.9816 12.7605C60.4115 12.3795 61.5398 11.9789 62.7366 13.2099C62.9271 13.4053 62.9222 13.713 62.7268 13.8986C62.634 13.9914 62.507 14.0354 62.3849 14.0354H62.3947Z" fill="#153C4A"/>
<path d="M63.4405 20.4832C62.8934 20.4832 62.2144 20.2243 61.6185 19.35C61.4671 19.1253 61.5257 18.8224 61.7455 18.671C61.9702 18.5196 62.2731 18.5782 62.4245 18.798C63.0693 19.7456 63.6408 19.4916 63.7531 19.433C63.9876 19.306 64.2807 19.3793 64.4175 19.6089C64.5493 19.8384 64.481 20.1315 64.2563 20.2683C64.0706 20.3855 63.7824 20.4832 63.4405 20.4832Z" fill="#153C4A"/>
<path d="M40.5306 26.4668C29.2078 28.6357 20.8549 38.2879 20.3274 49.8061L20.1271 54.1437C19.6386 64.7924 16.2145 75.0992 10.2307 83.9259L9.74219 84.6488L27.0244 96.3722L27.5128 95.6493C33.4966 86.8274 41.8104 79.8325 51.5262 75.4411L55.4828 73.6533C65.9899 68.9054 71.8662 57.5728 69.6974 46.2549C67.1085 32.7388 54.0467 23.8779 40.5306 26.4717V26.4668Z" fill="white"/>
<path d="M27.0298 96.851C26.937 96.851 26.8393 96.8217 26.7563 96.768L9.47408 85.0446C9.36662 84.9714 9.29335 84.859 9.26892 84.732C9.2445 84.605 9.26892 84.4731 9.3422 84.3657L9.83067 83.6427C15.7656 74.8893 19.1605 64.6802 19.6441 54.1145L19.8444 49.7769C20.3817 37.99 28.8518 28.2059 40.4433 25.9834C54.2036 23.3456 67.5438 32.397 70.1815 46.1573C72.4041 57.7488 66.4447 69.2376 55.6885 74.0931L51.7319 75.8809C42.0943 80.238 33.8587 87.1646 27.9237 95.918L27.4352 96.641C27.3424 96.7826 27.1861 96.8559 27.0298 96.8559V96.851ZM10.4266 84.5122L26.9028 95.6884L27.1177 95.3709C33.1553 86.471 41.5277 79.4223 51.3313 74.9919L55.288 73.204C65.6289 68.5342 71.3587 57.485 69.2241 46.3429C66.6889 33.1102 53.8665 24.4105 40.6289 26.9457C29.4868 29.0803 21.3391 38.4883 20.8213 49.8257L20.621 54.1634C20.1326 64.9098 16.6791 75.2947 10.6415 84.1947L10.4266 84.5122Z" fill="#153C4A"/>
<path d="M15.0381 72.6643L35.7112 86.6874L27.5041 98.7865C26.1084 100.844 23.3036 101.385 21.242 99.9867L8.03122 91.0255C5.97361 89.6298 5.43252 86.825 6.83099 84.7634L15.0381 72.6643Z" fill="#153C4A"/>
<path d="M27.5284 83.0711C27.4307 83.0711 27.333 83.0418 27.25 82.9832C27.0302 82.8269 26.9765 82.524 27.1328 82.3042C27.2256 82.1723 34.9825 71.1426 38.6754 65.4812C37.0439 64.9488 35.5003 64.1916 34.157 63.2635L23.2885 79.2855C23.1371 79.5102 22.8342 79.5688 22.6095 79.4173C22.3848 79.2659 22.3262 78.9631 22.4776 78.7384L33.3657 62.6871C32.672 62.1449 32.0468 61.5539 31.4997 60.9238C28.6715 57.6656 28.5884 53.7481 30.2883 52.1361C31.1773 51.296 32.76 51.0078 34.5478 52.737C37.547 55.6336 35.0998 61.7542 34.9923 62.0131C34.9776 62.0424 34.963 62.0766 34.9434 62.101L34.7041 62.4576C36.0523 63.3808 37.6056 64.1184 39.2322 64.6215C39.6523 63.9669 39.9894 63.415 40.2238 63.0095C42.3585 59.2923 43.7995 57.5093 46.7205 56.7717C50.8188 55.7362 52.294 57.6217 52.7336 58.4814C53.6129 60.1862 53.0756 62.4966 51.4734 63.8595C48.9529 66.0088 45.177 66.8245 41.1177 66.1065C40.6244 66.0185 40.131 65.9111 39.6426 65.7792C36.0523 71.3185 28.3051 82.3286 27.9241 82.8708C27.8313 83.0076 27.6799 83.076 27.5235 83.076L27.5284 83.0711ZM40.219 64.8804C44.029 65.8134 48.1029 65.4373 50.8481 63.1024C52.0889 62.0472 52.5382 60.2057 51.8739 58.9161C51.1607 57.5386 49.3729 57.099 46.9648 57.7096C44.6006 58.3104 43.3354 59.5512 41.0738 63.4882C40.8637 63.8546 40.5755 64.3284 40.219 64.8853V64.8804ZM31.9442 52.4341C31.5779 52.4341 31.2457 52.566 30.9624 52.8346C29.7998 53.9337 29.5849 57.2211 32.2373 60.2741C32.7307 60.8407 33.2924 61.3732 33.9177 61.8665L34.1082 61.5881C34.3182 61.0459 36.277 55.7557 33.8737 53.4306C33.1898 52.7711 32.5304 52.4341 31.9491 52.4341H31.9442Z" fill="#153C4A"/>
<path d="M73.8891 65.2224C74.3434 60.9238 74.1626 56.5324 74.0307 54.4955C74.0942 54.1145 74.0747 53.714 73.9428 53.3232C70.1181 42.0297 63.7093 38.1854 63.4406 38.0242C62.283 37.3501 60.8078 37.7409 60.119 38.8888C60.0995 38.9181 60.0946 38.9523 60.0751 38.9816C59.6745 38.6885 59.4254 38.5371 59.3765 38.5127C58.2189 37.8386 56.7437 38.2294 56.0598 39.3773C55.6642 40.0416 55.6348 40.8134 55.8888 41.4875C54.7751 40.9941 53.4514 41.3898 52.8115 42.4644C52.1276 43.6172 52.5037 45.1119 53.6516 45.8056C53.6614 45.8105 53.8568 45.9375 54.189 46.1964C53.6858 46.2696 53.1974 46.4894 52.8066 46.8753C51.8541 47.8181 51.8492 49.3617 52.787 50.3191C52.831 50.363 56.983 54.7349 57.7206 64.6606C57.7206 64.6606 57.2077 71.4944 61.052 74.6792L58.6341 88.8107C65.9758 90.6132 73.6302 87.4235 77.5184 80.9414L79.4235 77.7664L73.8842 65.2175L73.8891 65.2224Z" fill="white"/>
<path d="M62.8006 89.812C61.384 89.812 59.9479 89.641 58.5216 89.2893C58.2725 89.2307 58.1113 88.9865 58.1552 88.7325L60.5243 74.8745C56.8657 71.592 57.1881 65.2711 57.2271 64.6654C56.5042 55.0279 52.4694 50.7049 52.4303 50.6609C51.3117 49.513 51.3215 47.6568 52.4596 46.5284C52.6599 46.333 52.8797 46.1669 53.1191 46.0399C51.9614 45.146 51.6243 43.4999 52.3864 42.2152C52.9872 41.2041 54.1204 40.6765 55.239 40.8084C55.1951 40.2222 55.3319 39.6361 55.6347 39.1281C56.4553 37.7554 58.2431 37.2865 59.6206 38.0925C59.65 38.112 59.7623 38.1755 59.9382 38.2976C60.8321 37.1937 62.4245 36.8762 63.6799 37.6089C63.9583 37.7701 70.5234 41.717 74.4018 53.1716C74.5484 53.5966 74.5875 54.0509 74.5191 54.5198C74.6558 56.7082 74.817 60.9384 74.3823 65.1441L79.8678 77.5709C79.9314 77.7174 79.9216 77.8835 79.8385 78.0203L77.9335 81.1953C74.6656 86.6369 68.9065 89.8071 62.7908 89.8071L62.8006 89.812ZM59.2006 88.4443C66.2346 89.9732 73.3858 86.9007 77.108 80.6971L78.886 77.737L73.4493 65.4226C73.4151 65.3444 73.4005 65.2614 73.4102 65.1734C73.8547 60.9579 73.6887 56.6935 73.5519 54.5296C73.5519 54.4905 73.5519 54.4563 73.5568 54.4221C73.6105 54.09 73.5861 53.7774 73.4884 53.4843C69.7271 42.3715 63.4649 38.6054 63.2012 38.454C62.2828 37.9215 61.0958 38.2293 60.5487 39.1476C60.5439 39.1622 60.5243 39.2062 60.5146 39.2209C60.4462 39.343 60.3289 39.4358 60.1922 39.4651C60.0554 39.4993 59.9088 39.4651 59.7965 39.3821C59.3911 39.0841 59.1517 38.9424 59.1419 38.9375C58.2236 38.4051 57.0366 38.7128 56.4895 39.6312C56.1916 40.1343 56.1427 40.7498 56.3528 41.3164C56.4211 41.502 56.3723 41.7072 56.2306 41.844C56.089 41.9807 55.8789 42.0149 55.6982 41.9368C54.7994 41.5362 53.7443 41.8733 53.2412 42.7183C52.6941 43.6367 52.9969 44.8334 53.9153 45.3952C53.9299 45.4049 54.1449 45.5368 54.5014 45.8152C54.6578 45.9374 54.7213 46.1376 54.6724 46.3281C54.6236 46.5187 54.4624 46.6603 54.267 46.6847C53.8371 46.7433 53.4561 46.9339 53.1581 47.2269C52.401 47.9792 52.3912 49.215 53.1435 49.9868C53.1875 50.0308 57.4665 54.5394 58.2138 64.6312C58.2138 64.6556 58.2138 64.6801 58.2138 64.7045C58.2138 64.768 57.7693 71.3233 61.3743 74.3128C61.511 74.4251 61.5745 74.601 61.5452 74.7719L59.2054 88.4492L59.2006 88.4443Z" fill="#153C4A"/>
<path d="M69.0338 51.6722C69.0338 51.6722 65.0967 42.8699 60.0801 38.9866L69.0338 51.6722Z" fill="white"/>
<path d="M69.0333 52.1606C68.8477 52.1606 68.6669 52.0531 68.5888 51.8724C68.5497 51.7844 64.6419 43.1385 59.7816 39.3723C59.5667 39.2063 59.5276 38.8985 59.6937 38.6885C59.8598 38.4735 60.1675 38.4345 60.3776 38.6005C65.4332 42.5132 69.3166 51.1103 69.4778 51.4718C69.5902 51.716 69.4778 52.0091 69.2336 52.1166C69.1701 52.1459 69.1017 52.1606 69.0333 52.1606Z" fill="#153C4A"/>
<path d="M64.9742 54.2708C64.9742 54.2708 61.0371 45.4686 56.0205 41.5852L64.9742 54.2708Z" fill="white"/>
<path d="M64.9747 54.7593C64.7891 54.7593 64.6083 54.6518 64.5302 54.4711C64.4911 54.3831 60.5833 45.7372 55.723 41.9759C55.5081 41.8098 55.469 41.5021 55.6351 41.2921C55.8012 41.0771 56.1089 41.038 56.319 41.2041C61.3747 45.1168 65.258 53.7139 65.4192 54.0754C65.5316 54.3196 65.4192 54.6127 65.175 54.7202C65.1115 54.7495 65.0431 54.7641 64.9747 54.7641V54.7593Z" fill="#153C4A"/>
<path d="M61.5496 56.7914C60.1379 53.7873 57.6418 49.1859 54.6035 46.5383L61.5496 56.7914Z" fill="white"/>
<path d="M61.5502 57.2798C61.3646 57.2798 61.1936 57.1772 61.1057 57.0014C59.5963 53.7921 57.1881 49.4398 54.2817 46.9095C54.0766 46.7337 54.057 46.4259 54.2329 46.2208C54.4087 46.0156 54.7165 45.9961 54.9216 46.1719C57.9551 48.8146 60.4414 53.2938 61.9898 56.5813C62.1071 56.8255 61.9996 57.1186 61.7554 57.2309C61.687 57.2602 61.6186 57.2749 61.5453 57.2749L61.5502 57.2798Z" fill="#153C4A"/>
<path d="M21.1389 43.1287C21.1389 43.1287 20.2597 33.6426 28.0899 27.8053C34.3668 23.1258 38.807 25.6072 38.3625 28.157C38.1867 29.1779 35.4903 30.404 35.4903 30.404C35.4903 30.404 35.7492 31.9281 35.334 32.4068C34.9188 32.8855 35.373 34.2923 35.3437 35.2936C35.3144 36.3438 33.8832 37.0912 32.916 36.8128C31.9489 36.5344 28.9057 36.4073 28.9057 36.4073C28.9057 36.4073 29.9901 37.8825 30.2929 39.0939C30.503 39.9244 29.0669 41.3702 27.5428 40.9843C26.0237 40.5984 23.4543 39.4896 21.1341 43.1385L21.1389 43.1287Z" fill="white"/>
<path d="M34.2887 33.628C34.1226 33.628 33.9565 33.54 33.8686 33.3886C33.7318 33.1541 33.81 32.8562 34.0444 32.7194C34.3131 32.5582 35.0263 32.016 35.1093 31.4201C35.1533 31.1221 35.0312 30.829 34.7381 30.5164C33.1505 28.836 28.5833 29.1193 26.9567 29.3685C26.6929 29.4075 26.4389 29.2268 26.3998 28.9582C26.3608 28.6895 26.5415 28.4404 26.8102 28.4013C27.069 28.3622 33.1896 27.4537 35.4512 29.8423C36.0765 30.5066 36.14 31.1416 36.0814 31.5568C35.9153 32.7243 34.6843 33.4765 34.5427 33.5596C34.4645 33.6035 34.3815 33.628 34.2984 33.628H34.2887Z" fill="#153C4A"/>
<path d="M32.8816 37.1205C32.4957 37.1205 32.1098 37.0815 31.7777 37.0424C31.6311 37.0277 31.4944 37.0131 31.3722 37.0033C29.814 36.8861 28.2607 37.0815 28.246 37.0864C27.9774 37.1254 27.7331 36.9349 27.6989 36.6663C27.6647 36.3976 27.8552 36.1534 28.119 36.1192C28.1874 36.1094 29.7847 35.9042 31.4455 36.0313C31.5774 36.041 31.7239 36.0557 31.8803 36.0752C32.6032 36.1534 33.5899 36.2559 34.0686 35.8261C34.3177 35.6014 34.4399 35.2155 34.435 34.6782C34.435 34.3753 34.2591 34.0969 33.9074 33.8234C32.3052 32.5875 27.4938 32.1381 24.3675 32.9343C24.1038 33.0027 23.84 32.8415 23.7716 32.5826C23.7032 32.3189 23.8644 32.0551 24.1233 31.9867C27.2544 31.1905 32.4664 31.4787 34.4985 33.0516C35.2409 33.628 35.4021 34.2483 35.4021 34.6733C35.4021 35.5037 35.1726 36.1338 34.7134 36.549C34.2103 37.0082 33.5313 37.1254 32.8719 37.1254L32.8816 37.1205Z" fill="#153C4A"/>
<path d="M21.1824 44.1789C21.1384 44.1789 21.0896 44.174 21.0456 44.1593C20.8649 44.1056 20.7281 43.9542 20.6988 43.7637C20.6792 43.6367 18.8914 30.8631 31.4501 25.5045C34.2148 24.3273 36.2273 24.1954 37.429 25.1186C38.782 26.1542 38.5232 28.069 38.5134 28.1521C38.5036 28.2156 38.4841 28.2791 38.4499 28.3377C38.401 28.4207 37.2287 30.3306 35.1673 30.6677C34.9036 30.7117 34.6496 30.5309 34.6056 30.2623C34.5616 29.9936 34.7424 29.7445 35.011 29.7005C36.3983 29.4758 37.3264 28.2546 37.556 27.9176C37.5804 27.5805 37.5902 26.4717 36.8282 25.8953C35.9391 25.2163 34.2099 25.3971 31.8311 26.4082C22.1202 30.5505 21.4803 39.3527 21.578 42.4839L23.8103 39.9047C23.9178 39.7826 24.079 39.7191 24.2402 39.7386L27.7865 40.1783C27.8207 40.1831 28.7 40.3297 29.2129 39.8998C29.4864 39.6703 29.6183 39.3088 29.6232 38.7959C29.6232 38.4246 29.4864 38.112 29.208 37.8434C28.1187 36.8078 25.2269 36.7248 24.206 36.7785C23.9374 36.7834 23.7078 36.588 23.6931 36.3193C23.6785 36.0507 23.8836 35.8211 24.1523 35.8064C24.3184 35.7967 28.2603 35.5964 29.8821 37.1351C30.3657 37.5942 30.605 38.1511 30.605 38.8008C30.605 39.6116 30.3461 40.2369 29.8381 40.6521C28.9637 41.375 27.6937 41.1503 27.64 41.1406L24.3819 40.7351L21.5536 44.003C21.4608 44.1105 21.324 44.174 21.1824 44.174V44.1789Z" fill="#153C4A"/>
<path d="M88.5818 102.029C88.3864 102.029 88.2008 101.907 88.1227 101.711L79.4571 78.753C79.3643 78.499 79.4913 78.2206 79.7405 78.1229C79.9896 78.0252 80.2729 78.1522 80.3706 78.4062L89.0361 101.364C89.1289 101.618 89.0019 101.897 88.7528 101.995C88.6942 102.014 88.6355 102.024 88.5818 102.024V102.029Z" fill="white"/>
<defs>
<linearGradient id="paint0_linear_171_13318" x1="36.4375" y1="69.2975" x2="56.5884" y2="100.417" gradientUnits="userSpaceOnUse">
<stop stop-color="#F39025"/>
<stop offset="1" stop-color="#53D1FF"/>
</linearGradient>
<linearGradient id="paint1_linear_171_13318" x1="7.53804e-06" y1="45.4479" x2="27.6024" y2="69.9017" gradientUnits="userSpaceOnUse">
<stop stop-color="#F39025"/>
<stop offset="1" stop-color="#53D1FF"/>
</linearGradient>
<linearGradient id="paint2_linear_171_13318" x1="57.6299" y1="57.9269" x2="100.416" y2="79.7461" gradientUnits="userSpaceOnUse">
<stop stop-color="#F39025"/>
<stop offset="1" stop-color="#53D1FF"/>
</linearGradient>
</defs>
</svg>
