<svg width="149" height="90" viewBox="0 0 149 90" fill="none" xmlns="http://www.w3.org/2000/svg">
<path d="M81.1532 67.7906H148.019L129.598 17.1919H62.7373L81.1532 67.7906Z" fill="#153C4A"/>
<path d="M111.053 67.7906H44.1924L62.6083 17.1919H129.469L111.053 67.7906Z" fill="white"/>
<path d="M111.047 68.273H44.1868C44.026 68.273 43.8798 68.195 43.7872 68.0635C43.6946 67.9319 43.6751 67.7662 43.7287 67.6151L62.1446 17.0165C62.2128 16.8215 62.398 16.6948 62.6027 16.6948H129.468C129.629 16.6948 129.775 16.7728 129.868 16.9044C129.96 17.0359 129.98 17.2016 129.926 17.3527L111.51 67.9514C111.442 68.1463 111.257 68.273 111.052 68.273H111.047ZM44.8788 67.2984H110.706L128.766 17.6743H62.9389L44.8788 67.2984Z" fill="#153C4A"/>
<path d="M84.7948 32.9432H80.7549L82.2266 28.9033H86.2616L84.7948 32.9432Z" fill="url(#paint0_linear_171_13021)"/>
<path d="M92.8622 32.9432H88.8223L90.294 28.9033H94.3339L92.8622 32.9432Z" fill="url(#paint1_linear_171_13021)"/>
<path d="M100.948 32.9432H96.9082L98.3799 28.9033H102.415L100.948 32.9432Z" fill="url(#paint2_linear_171_13021)"/>
<path d="M109.016 32.9432H104.977L106.448 28.9033H110.488L109.016 32.9432Z" fill="url(#paint3_linear_171_13021)"/>
<path d="M65.6815 41.0243H61.6465L63.1133 36.9844H67.1532L65.6815 41.0243Z" fill="url(#paint4_linear_171_13021)"/>
<path d="M73.7723 41.0243H69.7324L71.2041 36.9844H75.2392L73.7723 41.0243Z" fill="url(#paint5_linear_171_13021)"/>
<path d="M81.8348 41.0243H77.7998L79.2666 36.9844H83.3065L81.8348 41.0243Z" fill="url(#paint6_linear_171_13021)"/>
<path d="M89.9266 41.0243H85.8867L87.3584 36.9844H91.3935L89.9266 41.0243Z" fill="url(#paint7_linear_171_13021)"/>
<path d="M97.9901 41.0243H93.9551L95.4219 36.9844H99.4618L97.9901 41.0243Z" fill="url(#paint8_linear_171_13021)"/>
<path d="M106.081 41.0243H102.041L103.513 36.9844H107.548L106.081 41.0243Z" fill="url(#paint9_linear_171_13021)"/>
<path d="M62.7508 49.0965H58.7109L60.1826 45.0566H64.2226L62.7508 49.0965Z" fill="url(#paint10_linear_171_13021)"/>
<path d="M70.8202 49.0965H66.7803L68.2471 45.0566H72.287L70.8202 49.0965Z" fill="url(#paint11_linear_171_13021)"/>
<path d="M78.9051 49.0965H74.8652L76.3369 45.0566H80.3768L78.9051 49.0965Z" fill="url(#paint12_linear_171_13021)"/>
<path d="M86.9725 49.0965H82.9326L84.3995 45.0566H88.4394L86.9725 49.0965Z" fill="url(#paint13_linear_171_13021)"/>
<path d="M84.037 57.1742H79.9971L81.4688 53.1392H85.5087L84.037 57.1742Z" fill="url(#paint14_linear_171_13021)"/>
<path d="M95.0594 49.0965H91.0195L92.4912 45.0566H96.5311L95.0594 49.0965Z" fill="url(#paint15_linear_171_13021)"/>
<path d="M103.14 49.0965H99.1055L100.572 45.0566H104.612L103.14 49.0965Z" fill="url(#paint16_linear_171_13021)"/>
<path d="M117.051 32.9432H113.011L114.482 28.9033H118.522L117.051 32.9432Z" fill="url(#paint17_linear_171_13021)"/>
<path d="M114.114 41.0243H110.074L111.546 36.9844H115.581L114.114 41.0243Z" fill="url(#paint18_linear_171_13021)"/>
<path d="M111.162 49.0965H107.122L108.589 45.0566H112.629L111.162 49.0965Z" fill="url(#paint19_linear_171_13021)"/>
<path d="M59.8153 57.1742H55.7754L57.2471 53.1392H61.287L59.8153 57.1742Z" fill="url(#paint20_linear_171_13021)"/>
<path d="M67.8837 57.1742H63.8438L65.3155 53.1392H69.3554L67.8837 57.1742Z" fill="url(#paint21_linear_171_13021)"/>
<path d="M75.9696 57.1742H71.9297L73.4014 53.1392H77.4413L75.9696 57.1742Z" fill="url(#paint22_linear_171_13021)"/>
<path d="M73.1375 21.3893C70.618 21.3893 68.5713 19.3425 68.5713 16.823C68.5713 14.3036 70.6229 12.2568 73.1375 12.2568C75.6521 12.2568 77.7037 14.3036 77.7037 16.823C77.7037 17.0667 77.5039 17.2665 77.2602 17.2665C77.0166 17.2665 76.8168 17.0667 76.8168 16.823C76.8168 14.7909 75.1648 13.1438 73.1375 13.1438C71.1102 13.1438 69.4582 14.7958 69.4582 16.823C69.4582 18.8503 71.1102 20.5023 73.1375 20.5023C73.3812 20.5023 73.581 20.7021 73.581 20.9458C73.581 21.1895 73.3812 21.3893 73.1375 21.3893Z" fill="#153C4A"/>
<path d="M84.283 21.3893C81.7635 21.3893 79.7168 19.3425 79.7168 16.823C79.7168 14.3036 81.7684 12.2568 84.283 12.2568C86.7976 12.2568 88.8492 14.3036 88.8492 16.823C88.8492 17.0667 88.6494 17.2665 88.4058 17.2665C88.1621 17.2665 87.9623 17.0667 87.9623 16.823C87.9623 14.7909 86.3103 13.1438 84.283 13.1438C82.2557 13.1438 80.6037 14.7958 80.6037 16.823C80.6037 18.8503 82.2557 20.5023 84.283 20.5023C84.5267 20.5023 84.7265 20.7021 84.7265 20.9458C84.7265 21.1895 84.5267 21.3893 84.283 21.3893Z" fill="#153C4A"/>
<path d="M95.4285 21.3893C92.9091 21.3893 90.8623 19.3425 90.8623 16.823C90.8623 14.3036 92.9139 12.2568 95.4285 12.2568C97.9431 12.2568 99.9947 14.3036 99.9947 16.823C99.9947 17.0667 99.7949 17.2665 99.5513 17.2665C99.3076 17.2665 99.1078 17.0667 99.1078 16.823C99.1078 14.7909 97.4558 13.1438 95.4285 13.1438C93.4013 13.1438 91.7492 14.7958 91.7492 16.823C91.7492 18.8503 93.4013 20.5023 95.4285 20.5023C95.6722 20.5023 95.872 20.7021 95.872 20.9458C95.872 21.1895 95.6722 21.3893 95.4285 21.3893Z" fill="#153C4A"/>
<path d="M106.591 21.3893C104.071 21.3893 102.024 19.3425 102.024 16.823C102.024 14.3036 104.076 12.2568 106.591 12.2568C109.105 12.2568 111.157 14.3036 111.157 16.823C111.157 17.0667 110.957 17.2665 110.713 17.2665C110.47 17.2665 110.27 17.0667 110.27 16.823C110.27 14.7909 108.618 13.1438 106.591 13.1438C104.563 13.1438 102.911 14.7958 102.911 16.823C102.911 18.8503 104.563 20.5023 106.591 20.5023C106.834 20.5023 107.034 20.7021 107.034 20.9458C107.034 21.1895 106.834 21.3893 106.591 21.3893Z" fill="#153C4A"/>
<path d="M117.734 21.3893C115.215 21.3893 113.168 19.3425 113.168 16.823C113.168 14.3036 115.22 12.2568 117.734 12.2568C120.249 12.2568 122.3 14.3036 122.3 16.823C122.3 17.0667 122.101 17.2665 121.857 17.2665C121.613 17.2665 121.413 17.0667 121.413 16.823C121.413 14.7909 119.761 13.1438 117.734 13.1438C115.707 13.1438 114.055 14.7958 114.055 16.823C114.055 18.8503 115.707 20.5023 117.734 20.5023C117.978 20.5023 118.178 20.7021 118.178 20.9458C118.178 21.1895 117.978 21.3893 117.734 21.3893Z" fill="#153C4A"/>
<path d="M16.2949 29.6892L24.9498 0.196444C24.9498 0.196444 28.8581 -0.719722 29.2723 1.405C29.6914 3.5346 30.5345 15.5373 30.5345 15.5373C30.5345 15.5373 16.714 31.8139 16.2949 29.6843V29.6892Z" fill="url(#paint23_linear_171_13021)"/>
<path d="M58.6461 11.3275C57.9249 8.84213 33.0519 11.8976 33.0519 11.8976C33.0519 11.8976 24.9234 16.61 22.3503 19.6899C19.7773 22.7698 17.4186 25.7132 16.288 29.6898C15.1623 33.6663 11.7949 43.1983 11.7949 43.1983L39.1191 23.6665L48.7291 18.9346C48.7291 18.9346 59.9667 15.8791 58.651 11.3275H58.6461Z" fill="url(#paint24_linear_171_13021)"/>
<path d="M20.069 22.6332C19.9618 22.6332 19.8497 22.5991 19.762 22.5211C19.5525 22.3505 19.5232 22.0435 19.6938 21.834C23.3974 17.3068 29.9373 13.0378 30.2102 12.8575C30.4344 12.7113 30.7365 12.7747 30.8827 12.9988C31.0289 13.223 30.9655 13.5251 30.7414 13.6713C30.6731 13.7152 24.0553 18.0426 20.4491 22.448C20.3517 22.565 20.2152 22.6283 20.0739 22.6283L20.069 22.6332Z" fill="#153C4A"/>
<path d="M62.4309 21.8187L40.9935 16.1366C37.8065 15.2935 34.405 16.0683 31.9099 18.2223C28.9811 20.7564 24.6975 24.6891 19.7317 29.957C17.3877 32.4472 15.5651 34.9862 14.147 37.3984C9.88777 44.64 9.27374 50.7169 9.27374 50.7169H0V90C8.72307 84.0108 33.7178 73.4798 41.5004 65.7411C50.1893 57.1009 52.8257 48.3193 54.9846 43.1098C57.1434 37.9004 63.3568 33.4755 63.0546 30.0789C62.9182 28.5389 61.3734 28.1149 59.4679 28.266C64.078 27.4376 62.4309 21.8139 62.4309 21.8139V21.8187ZM52.8306 30.4249C50.0236 32.1548 41.9292 39.8302 40.6865 41.1947C39.439 42.5592 35.3211 47.486 34.2003 41.3165C33.0794 35.147 41.3542 28.2563 41.3542 28.2563C41.3542 28.2563 55.6961 28.5389 58.7175 28.3586C56.5879 28.6754 54.2 29.5818 52.8306 30.4249Z" fill="url(#paint25_linear_171_13021)"/>
<path d="M23.1818 26.9695C23.0405 26.9695 22.904 26.911 22.8065 26.794C22.636 26.5893 22.6603 26.2823 22.865 26.1069C22.9771 26.0143 33.9224 16.8283 35.1504 15.6295C36.4662 14.3527 46.1639 16.7747 50.272 17.876C50.5303 17.9442 50.6863 18.2123 50.618 18.4706C50.5498 18.7288 50.2818 18.8848 50.0235 18.8166C43.8199 17.1548 36.6319 15.7318 35.8278 16.3312C34.5754 17.5495 23.9469 26.4724 23.4937 26.8525C23.4011 26.9305 23.289 26.9646 23.1818 26.9646V26.9695Z" fill="#153C4A"/>
<path d="M64.8635 20.963L52.6659 25.0845C50.3252 25.8754 49.0689 28.4141 49.8598 30.7548L53.9813 42.9523C54.7723 45.293 57.3109 46.5494 59.6516 45.7585L71.8492 41.637C74.1899 40.846 75.4462 38.3074 74.6553 35.9667L70.5338 23.7691C69.7429 21.4284 67.2042 20.1721 64.8635 20.963Z" fill="white"/>
<path d="M58.2133 46.4879C57.4629 46.4879 56.7124 46.3125 56.0155 45.9714C54.8265 45.3817 53.9395 44.3681 53.5156 43.1157L49.3928 30.9131C48.5156 28.3205 49.9142 25.5038 52.5019 24.6266L64.7045 20.5039C65.9618 20.0799 67.3068 20.1725 68.491 20.7573C69.68 21.347 70.567 22.3606 70.9909 23.613L75.1137 35.8156C75.9909 38.4081 74.5922 41.2248 72.0046 42.102L59.802 46.2248C59.2806 46.4002 58.7445 46.4879 58.2085 46.4879H58.2133ZM66.3029 21.2154C65.874 21.2154 65.4403 21.2836 65.0261 21.4249L52.8236 25.5477C50.7427 26.2494 49.6218 28.5155 50.3236 30.5963L54.4463 42.7989C54.7875 43.8076 55.499 44.6215 56.4541 45.0942C57.4093 45.5669 58.4862 45.64 59.4999 45.2989L71.7024 41.1761C73.7833 40.4744 74.9041 38.2083 74.2024 36.1274L70.0796 23.9249C69.7385 22.9161 69.027 22.1023 68.0719 21.6296C67.5163 21.3518 66.912 21.2154 66.3078 21.2154H66.3029Z" fill="#153C4A"/>
<path d="M68.6914 37.0397C68.6183 37.0397 68.5452 37.0251 68.477 36.9909L55.6068 30.6216C55.368 30.4998 55.2657 30.2123 55.3875 29.9686C55.5045 29.7298 55.7969 29.6275 56.0405 29.7493L68.9107 36.1186C69.1495 36.2405 69.2518 36.5329 69.13 36.7716C69.0472 36.9422 68.8717 37.0445 68.6914 37.0445V37.0397Z" fill="#153C4A"/>
<path d="M59.0722 40.2891C58.9991 40.2891 58.926 40.2745 58.8578 40.2404C58.619 40.1185 58.5167 39.8261 58.6385 39.5873L65.0078 26.7172C65.1247 26.4784 65.4171 26.376 65.6608 26.4979C65.8996 26.6197 66.0019 26.9121 65.8801 27.1509L59.5108 40.0211C59.428 40.1916 59.2525 40.294 59.0722 40.294V40.2891Z" fill="#153C4A"/>
<path d="M58.7142 28.3524C56.5846 28.6691 54.1967 29.5756 52.8274 30.4186C51.2289 31.403 47.92 34.3123 45.1374 36.8854C44.2895 41.1592 45.0594 45.9155 47.6471 50.1113C48.4561 51.4222 49.3917 52.5967 50.4249 53.6347C52.5983 49.507 53.8605 45.818 54.9813 43.1036C57.1402 37.8941 63.3535 33.4693 63.0514 30.0726C62.9149 28.5327 61.3701 28.1087 59.4647 28.2598C61.6917 27.8602 57.3205 28.4304 58.7093 28.3475L58.7142 28.3524Z" fill="url(#paint26_linear_171_13021)"/>
<defs>
<linearGradient id="paint0_linear_171_13021" x1="80.7549" y1="29.9133" x2="83.4545" y2="33.3233" gradientUnits="userSpaceOnUse">
<stop stop-color="#F39025"/>
<stop offset="1" stop-color="#53D1FF"/>
</linearGradient>
<linearGradient id="paint1_linear_171_13021" x1="88.8223" y1="29.9133" x2="91.5214" y2="33.3256" gradientUnits="userSpaceOnUse">
<stop stop-color="#F39025"/>
<stop offset="1" stop-color="#53D1FF"/>
</linearGradient>
<linearGradient id="paint2_linear_171_13021" x1="96.9082" y1="29.9133" x2="99.6078" y2="33.3233" gradientUnits="userSpaceOnUse">
<stop stop-color="#F39025"/>
<stop offset="1" stop-color="#53D1FF"/>
</linearGradient>
<linearGradient id="paint3_linear_171_13021" x1="104.977" y1="29.9133" x2="107.676" y2="33.3256" gradientUnits="userSpaceOnUse">
<stop stop-color="#F39025"/>
<stop offset="1" stop-color="#53D1FF"/>
</linearGradient>
<linearGradient id="paint4_linear_171_13021" x1="61.6465" y1="37.9943" x2="64.3461" y2="41.4043" gradientUnits="userSpaceOnUse">
<stop stop-color="#F39025"/>
<stop offset="1" stop-color="#53D1FF"/>
</linearGradient>
<linearGradient id="paint5_linear_171_13021" x1="69.7324" y1="37.9943" x2="72.4321" y2="41.4043" gradientUnits="userSpaceOnUse">
<stop stop-color="#F39025"/>
<stop offset="1" stop-color="#53D1FF"/>
</linearGradient>
<linearGradient id="paint6_linear_171_13021" x1="77.7998" y1="37.9943" x2="80.4994" y2="41.4043" gradientUnits="userSpaceOnUse">
<stop stop-color="#F39025"/>
<stop offset="1" stop-color="#53D1FF"/>
</linearGradient>
<linearGradient id="paint7_linear_171_13021" x1="85.8867" y1="37.9943" x2="88.5864" y2="41.4043" gradientUnits="userSpaceOnUse">
<stop stop-color="#F39025"/>
<stop offset="1" stop-color="#53D1FF"/>
</linearGradient>
<linearGradient id="paint8_linear_171_13021" x1="93.9551" y1="37.9943" x2="96.6547" y2="41.4043" gradientUnits="userSpaceOnUse">
<stop stop-color="#F39025"/>
<stop offset="1" stop-color="#53D1FF"/>
</linearGradient>
<linearGradient id="paint9_linear_171_13021" x1="102.041" y1="37.9943" x2="104.741" y2="41.4043" gradientUnits="userSpaceOnUse">
<stop stop-color="#F39025"/>
<stop offset="1" stop-color="#53D1FF"/>
</linearGradient>
<linearGradient id="paint10_linear_171_13021" x1="58.7109" y1="46.0666" x2="61.41" y2="49.4789" gradientUnits="userSpaceOnUse">
<stop stop-color="#F39025"/>
<stop offset="1" stop-color="#53D1FF"/>
</linearGradient>
<linearGradient id="paint11_linear_171_13021" x1="66.7803" y1="46.0666" x2="69.4799" y2="49.4766" gradientUnits="userSpaceOnUse">
<stop stop-color="#F39025"/>
<stop offset="1" stop-color="#53D1FF"/>
</linearGradient>
<linearGradient id="paint12_linear_171_13021" x1="74.8652" y1="46.0666" x2="77.5643" y2="49.4789" gradientUnits="userSpaceOnUse">
<stop stop-color="#F39025"/>
<stop offset="1" stop-color="#53D1FF"/>
</linearGradient>
<linearGradient id="paint13_linear_171_13021" x1="82.9326" y1="46.0666" x2="85.6323" y2="49.4766" gradientUnits="userSpaceOnUse">
<stop stop-color="#F39025"/>
<stop offset="1" stop-color="#53D1FF"/>
</linearGradient>
<linearGradient id="paint14_linear_171_13021" x1="79.9971" y1="54.1479" x2="82.6922" y2="57.5593" gradientUnits="userSpaceOnUse">
<stop stop-color="#F39025"/>
<stop offset="1" stop-color="#53D1FF"/>
</linearGradient>
<linearGradient id="paint15_linear_171_13021" x1="91.0195" y1="46.0666" x2="93.7186" y2="49.4789" gradientUnits="userSpaceOnUse">
<stop stop-color="#F39025"/>
<stop offset="1" stop-color="#53D1FF"/>
</linearGradient>
<linearGradient id="paint16_linear_171_13021" x1="99.1055" y1="46.0666" x2="101.805" y2="49.4766" gradientUnits="userSpaceOnUse">
<stop stop-color="#F39025"/>
<stop offset="1" stop-color="#53D1FF"/>
</linearGradient>
<linearGradient id="paint17_linear_171_13021" x1="113.011" y1="29.9133" x2="115.71" y2="33.3256" gradientUnits="userSpaceOnUse">
<stop stop-color="#F39025"/>
<stop offset="1" stop-color="#53D1FF"/>
</linearGradient>
<linearGradient id="paint18_linear_171_13021" x1="110.074" y1="37.9943" x2="112.774" y2="41.4043" gradientUnits="userSpaceOnUse">
<stop stop-color="#F39025"/>
<stop offset="1" stop-color="#53D1FF"/>
</linearGradient>
<linearGradient id="paint19_linear_171_13021" x1="107.122" y1="46.0666" x2="109.822" y2="49.4766" gradientUnits="userSpaceOnUse">
<stop stop-color="#F39025"/>
<stop offset="1" stop-color="#53D1FF"/>
</linearGradient>
<linearGradient id="paint20_linear_171_13021" x1="55.7754" y1="54.1479" x2="58.4705" y2="57.5593" gradientUnits="userSpaceOnUse">
<stop stop-color="#F39025"/>
<stop offset="1" stop-color="#53D1FF"/>
</linearGradient>
<linearGradient id="paint21_linear_171_13021" x1="63.8438" y1="54.1479" x2="66.5388" y2="57.5593" gradientUnits="userSpaceOnUse">
<stop stop-color="#F39025"/>
<stop offset="1" stop-color="#53D1FF"/>
</linearGradient>
<linearGradient id="paint22_linear_171_13021" x1="71.9297" y1="54.1479" x2="74.6248" y2="57.5593" gradientUnits="userSpaceOnUse">
<stop stop-color="#F39025"/>
<stop offset="1" stop-color="#53D1FF"/>
</linearGradient>
<linearGradient id="paint23_linear_171_13021" x1="16.2949" y1="7.4691" x2="31.4562" y2="14.1653" gradientUnits="userSpaceOnUse">
<stop stop-color="#F39025"/>
<stop offset="1" stop-color="#53D1FF"/>
</linearGradient>
<linearGradient id="paint24_linear_171_13021" x1="11.7949" y1="18.5647" x2="33.4805" y2="47.2979" gradientUnits="userSpaceOnUse">
<stop stop-color="#F39025"/>
<stop offset="1" stop-color="#53D1FF"/>
</linearGradient>
<linearGradient id="paint25_linear_171_13021" x1="1.22779e-05" y1="34.352" x2="49.5229" y2="73.3581" gradientUnits="userSpaceOnUse">
<stop stop-color="#F39025"/>
<stop offset="1" stop-color="#53D1FF"/>
</linearGradient>
<linearGradient id="paint26_linear_171_13021" x1="44.8076" y1="34.4958" x2="60.9442" y2="45.1925" gradientUnits="userSpaceOnUse">
<stop stop-color="#F39025"/>
<stop offset="1" stop-color="#53D1FF"/>
</linearGradient>
</defs>
</svg>
