<svg width="65" height="65" viewBox="0 0 65 65" fill="none" xmlns="http://www.w3.org/2000/svg">
<rect x="0.5" y="0.5" width="64" height="64" rx="32" fill="#7599A6" stroke="#DCE7EC"/>
<mask id="mask0_859_2216" style="mask-type:alpha" maskUnits="userSpaceOnUse" x="20" y="20" width="24" height="24">
<rect x="20" y="20" width="24" height="24" fill="white"/>
</mask>
<g mask="url(#mask0_859_2216)">
<path d="M32 32C30.9 32 29.9583 31.6083 29.175 30.825C28.3917 30.0417 28 29.1 28 28C28 26.9 28.3917 25.9583 29.175 25.175C29.9583 24.3917 30.9 24 32 24C33.1 24 34.0417 24.3917 34.825 25.175C35.6083 25.9583 36 26.9 36 28C36 29.1 35.6083 30.0417 34.825 30.825C34.0417 31.6083 33.1 32 32 32ZM24 40V37.2C24 36.6333 24.1458 36.1125 24.4375 35.6375C24.7292 35.1625 25.1167 34.8 25.6 34.55C26.6333 34.0333 27.6833 33.6458 28.75 33.3875C29.8167 33.1292 30.9 33 32 33C33.1 33 34.1833 33.1292 35.25 33.3875C36.3167 33.6458 37.3667 34.0333 38.4 34.55C38.8833 34.8 39.2708 35.1625 39.5625 35.6375C39.8542 36.1125 40 36.6333 40 37.2V40H24ZM26 38H38V37.2C38 37.0167 37.9542 36.85 37.8625 36.7C37.7708 36.55 37.65 36.4333 37.5 36.35C36.6 35.9 35.6917 35.5625 34.775 35.3375C33.8583 35.1125 32.9333 35 32 35C31.0667 35 30.1417 35.1125 29.225 35.3375C28.3083 35.5625 27.4 35.9 26.5 36.35C26.35 36.4333 26.2292 36.55 26.1375 36.7C26.0458 36.85 26 37.0167 26 37.2V38ZM32 30C32.55 30 33.0208 29.8042 33.4125 29.4125C33.8042 29.0208 34 28.55 34 28C34 27.45 33.8042 26.9792 33.4125 26.5875C33.0208 26.1958 32.55 26 32 26C31.45 26 30.9792 26.1958 30.5875 26.5875C30.1958 26.9792 30 27.45 30 28C30 28.55 30.1958 29.0208 30.5875 29.4125C30.9792 29.8042 31.45 30 32 30Z" fill="white"/>
</g>
</svg>
