<svg width="28" height="28" viewBox="0 0 28 28" fill="none" xmlns="http://www.w3.org/2000/svg">
<mask id="mask0_758_4683" style="mask-type:luminance" maskUnits="userSpaceOnUse" x="0" y="0" width="28" height="28">
<path d="M27.8033 14.3874C27.804 16.1724 27.453 17.9401 26.7704 19.5894C26.0878 21.2387 25.0869 22.7374 23.825 23.9998C22.563 25.2623 21.0648 26.2637 19.4157 26.947C17.7666 27.6302 15.9991 27.9819 14.2141 27.9819C12.4291 27.9819 10.6616 27.6302 9.01257 26.947C7.36351 26.2637 5.86522 25.2623 4.60328 23.9998C3.34134 22.7374 2.34049 21.2387 1.65788 19.5894C0.975279 17.9401 0.624301 16.1724 0.625001 14.3874C0.624301 12.6024 0.975279 10.8348 1.65788 9.18546C2.34049 7.53613 3.34134 6.03745 4.60328 4.77502C5.86522 3.51259 7.36351 2.51114 9.01257 1.82789C10.6616 1.14464 12.4291 0.792969 14.2141 0.792969C15.9991 0.792969 17.7666 1.14464 19.4157 1.82789C21.0648 2.51114 22.563 3.51259 23.825 4.77502C25.0869 6.03745 26.0878 7.53613 26.7704 9.18546C27.453 10.8348 27.804 12.6024 27.8033 14.3874Z" fill="white"/>
</mask>
<g mask="url(#mask0_758_4683)">
<path d="M26.2446 28.2617C27.2542 28.2617 28.0663 27.4478 28.0663 26.4382V2.40654C28.0663 1.39696 27.2542 0.584843 26.2446 0.584843H2.21291C1.20333 0.584843 0.389408 1.39696 0.389408 2.40654V26.4382C0.389408 27.4478 1.20333 28.2617 2.21291 28.2617H26.2446Z" fill="white"/>
<path d="M26.2535 28.2617C27.2631 28.2617 28.0752 27.7414 28.0752 27.0961V22.4957H0.398319V27.0961C0.398319 27.7414 1.21224 28.2617 2.22182 28.2617H26.2535Z" fill="#E74C3C"/>
<path d="M2.15859 0.510351C1.14696 0.510351 0.333191 1.03064 0.333191 1.67599V6.27637H28.0663V1.67599C28.0663 1.03064 27.2507 0.510351 26.2391 0.510351H2.15859Z" fill="#E74C3C"/>
<path d="M0.321411 10.1392H28.0753V18.6353H0.321411V10.1392Z" fill="#356BA0"/>
</g>
</svg>
