<svg width="109" height="40" viewBox="0 0 109 40" fill="none" xmlns="http://www.w3.org/2000/svg">
<path d="M99.3223 0H9.53468C9.16798 0 8.80568 0 8.43995 0.002C8.1338 0.004 7.83009 0.00981 7.521 0.0147C6.84951 0.0226018 6.17961 0.0816763 5.5171 0.19141C4.85552 0.303533 4.21467 0.514916 3.61622 0.81841C3.0185 1.12447 2.47235 1.52217 1.99757 1.99707C1.5203 2.47064 1.12246 3.01802 0.81935 3.61816C0.5154 4.21711 0.304641 4.85894 0.19435 5.52148C0.0830109 6.18319 0.0230984 6.85252 0.01515 7.52348C0.00587 7.83008 0.00489 8.1377 0 8.44434V31.5586C0.00489 31.8691 0.00587 32.1699 0.01515 32.4805C0.0231008 33.1514 0.0830134 33.8207 0.19435 34.4824C0.304336 35.1453 0.515108 35.7875 0.81935 36.3867C1.12233 36.9849 1.52022 37.5301 1.99757 38.001C2.47054 38.478 3.01705 38.876 3.61622 39.1797C4.21467 39.484 4.85545 39.6966 5.5171 39.8105C6.17972 39.9194 6.84956 39.9785 7.521 39.9873C7.83009 39.9941 8.1338 39.998 8.43995 39.998C8.80567 40 9.168 40 9.53468 40H99.3223C99.6817 40 100.047 40 100.406 39.998C100.711 39.998 101.023 39.9941 101.328 39.9873C101.998 39.9789 102.667 39.9198 103.328 39.8105C103.992 39.6958 104.635 39.4833 105.236 39.1797C105.835 38.8758 106.381 38.4778 106.854 38.001C107.33 37.5282 107.728 36.9835 108.035 36.3867C108.337 35.7871 108.546 35.1449 108.654 34.4824C108.766 33.8206 108.828 33.1515 108.84 32.4805C108.844 32.1699 108.844 31.8691 108.844 31.5586C108.852 31.1953 108.852 30.834 108.852 30.4648V9.53613C108.852 9.16992 108.852 8.80664 108.844 8.44434C108.844 8.1377 108.844 7.83008 108.84 7.52344C108.828 6.85242 108.766 6.18324 108.654 5.52144C108.546 4.85928 108.337 4.2175 108.035 3.61812C107.418 2.4152 106.439 1.43603 105.236 0.81832C104.635 0.515567 103.992 0.30424 103.328 0.19132C102.667 0.0811028 101.998 0.0220078 101.328 0.01456C101.023 0.00968 100.711 0.00382 100.406 0.00187C100.047 0 99.6817 0 99.3223 0Z" fill="#A6A6A6"/>
<path d="M8.44487 39.125C8.14019 39.125 7.84287 39.1211 7.54058 39.1143C6.91436 39.1061 6.2896 39.0516 5.67144 38.9512C5.09503 38.8519 4.53664 38.6673 4.0147 38.4033C3.49754 38.1415 3.02585 37.7983 2.6177 37.3867C2.20364 36.98 1.85891 36.5082 1.59719 35.9902C1.33258 35.4688 1.14945 34.9099 1.05419 34.333C0.951311 33.7131 0.895651 33.0863 0.887687 32.458C0.881347 32.2471 0.873047 31.5449 0.873047 31.5449V8.44434C0.873047 8.44434 0.881887 7.75293 0.887737 7.5498C0.895363 6.92248 0.950699 6.29665 1.05327 5.67773C1.14871 5.09925 1.33197 4.53875 1.59673 4.01563C1.85749 3.49794 2.2003 3.02586 2.61187 2.61768C3.02297 2.20562 3.49617 1.8606 4.01421 1.59521C4.53495 1.33209 5.09228 1.14873 5.66753 1.05127C6.28772 0.949836 6.91465 0.894996 7.54304 0.88721L8.44536 0.875H100.401L101.314 0.8877C101.937 0.895099 102.558 0.94945 103.173 1.05029C103.754 1.14898 104.317 1.33362 104.844 1.59814C105.882 2.13299 106.726 2.97916 107.259 4.01807C107.519 4.53758 107.7 5.09351 107.794 5.667C107.898 6.291 107.956 6.92175 107.968 7.55421C107.971 7.83741 107.971 8.14161 107.971 8.44435C107.979 8.81935 107.979 9.17628 107.979 9.53614V30.4648C107.979 30.8281 107.979 31.1826 107.971 31.54C107.971 31.8652 107.971 32.1631 107.967 32.4697C107.955 33.0909 107.898 33.7104 107.796 34.3232C107.703 34.9043 107.52 35.4675 107.256 35.9932C106.992 36.5056 106.65 36.9733 106.24 37.3789C105.832 37.7927 105.359 38.1379 104.841 38.4014C104.316 38.6674 103.753 38.8527 103.173 38.9512C102.555 39.0522 101.93 39.1067 101.304 39.1143C101.011 39.1211 100.704 39.125 100.406 39.125L99.3223 39.127L8.44487 39.125Z" fill="black"/>
<path d="M41.1684 16.5546H37.1168L36.1438 19.4276H34.4277L38.2653 8.79834H40.0483L43.8859 19.4276H42.1405L41.1684 16.5546ZM37.5364 15.2289H40.748L39.1648 10.5662H39.1205L37.5364 15.2289Z" fill="white"/>
<path d="M52.1729 15.5532C52.1729 17.9614 50.884 19.5087 48.9388 19.5087C48.4461 19.5345 47.9561 19.421 47.5248 19.1812C47.0936 18.9414 46.7386 18.585 46.5005 18.1529H46.4638V21.9913H44.873V11.678H46.4128V12.967H46.442C46.6911 12.5369 47.0521 12.1824 47.4866 11.9412C47.9211 11.6999 48.4129 11.581 48.9096 11.597C50.8764 11.597 52.1729 13.1517 52.1729 15.5532ZM50.5379 15.5532C50.5379 13.9842 49.7271 12.9528 48.49 12.9528C47.2746 12.9528 46.4571 14.006 46.4571 15.5532C46.4571 17.1147 47.2746 18.1604 48.49 18.1604C49.7271 18.1604 50.5379 17.1364 50.5379 15.5532Z" fill="white"/>
<path d="M60.7046 15.5532C60.7046 17.9614 59.4152 19.5087 57.4701 19.5087C56.9773 19.5345 56.4873 19.421 56.0561 19.1812C55.6249 18.9414 55.2699 18.585 55.0318 18.1529H54.995V21.9913H53.4043V11.678H54.944V12.967H54.9733C55.2223 12.5369 55.5833 12.1824 56.0178 11.9412C56.4523 11.6999 56.9441 11.581 57.4408 11.597C59.4077 11.597 60.7046 13.1517 60.7046 15.5532ZM59.0691 15.5532C59.0691 13.9842 58.2583 12.9528 57.0212 12.9528C55.8058 12.9528 54.9883 14.006 54.9883 15.5532C54.9883 17.1147 55.8058 18.1604 57.0212 18.1604C58.2583 18.1604 59.0691 17.1364 59.0691 15.5532Z" fill="white"/>
<path d="M66.3393 16.466C66.4571 17.52 67.4811 18.2121 68.8804 18.2121C70.2211 18.2121 71.1858 17.52 71.1858 16.5696C71.1858 15.7446 70.604 15.2506 69.2264 14.912L67.8489 14.5802C65.8971 14.1087 64.991 13.1959 64.991 11.7147C64.991 9.88073 66.5892 8.62109 68.8578 8.62109C71.1047 8.62109 72.6444 9.88078 72.6962 11.7147H71.0905C70.9943 10.654 70.1175 10.0137 68.8361 10.0137C67.5547 10.0137 66.6778 10.6616 66.6778 11.6044C66.6778 12.3559 67.2378 12.7981 68.6079 13.1366L69.779 13.4242C71.9598 13.9399 72.8651 14.8159 72.8651 16.3707C72.8651 18.3593 71.2819 19.6048 68.7625 19.6048C66.4053 19.6048 64.8138 18.3885 64.7109 16.466L66.3393 16.466Z" fill="white"/>
<path d="M76.3012 9.84406V11.6781H77.7749V12.9378H76.3012V17.21C76.3012 17.8737 76.5963 18.183 77.2441 18.183C77.419 18.18 77.5937 18.1677 77.7673 18.1462V19.3984C77.4761 19.4528 77.1801 19.4775 76.8838 19.4719C75.3148 19.4719 74.7029 18.8826 74.7029 17.3797V12.9377H73.5762V11.678H74.7029V9.84399L76.3012 9.84406Z" fill="white"/>
<path d="M78.6268 15.5532C78.6268 13.1149 80.0629 11.5827 82.3023 11.5827C84.5491 11.5827 85.9785 13.1149 85.9785 15.5532C85.9785 17.9982 84.5567 19.5237 82.3023 19.5237C80.0487 19.5237 78.6268 17.9982 78.6268 15.5532ZM84.3577 15.5532C84.3577 13.8806 83.5912 12.8934 82.3023 12.8934C81.0133 12.8934 80.2468 13.8881 80.2468 15.5532C80.2468 17.2325 81.0133 18.2122 82.3023 18.2122C83.5912 18.2122 84.3577 17.2325 84.3577 15.5532Z" fill="white"/>
<path d="M87.291 11.6779H88.8082V12.9969H88.8449C88.9476 12.585 89.1889 12.2209 89.5283 11.9659C89.8678 11.711 90.2847 11.5806 90.7089 11.5968C90.8922 11.5962 91.075 11.6161 91.2539 11.6562V13.144C91.0225 13.0733 90.7811 13.0409 90.5392 13.0479C90.3081 13.0385 90.0778 13.0793 89.8639 13.1674C89.65 13.2554 89.4578 13.3887 89.3003 13.5581C89.1428 13.7275 89.0239 13.929 88.9516 14.1487C88.8793 14.3684 88.8555 14.6011 88.8816 14.8309V19.4275H87.291V11.6779Z" fill="white"/>
<path d="M98.5863 17.1514C98.4115 17.8837 97.9769 18.5278 97.3632 18.964C96.7496 19.4003 95.9985 19.5991 95.2494 19.5236C92.995 19.5236 91.5957 18.0132 91.5957 15.5899C91.5957 13.1591 93.0025 11.5826 95.1825 11.5826C97.3266 11.5826 98.6749 13.0555 98.6749 15.4052V15.9502H93.2015V16.0463C93.1762 16.3315 93.2119 16.6188 93.3062 16.8892C93.4005 17.1595 93.5513 17.4067 93.7485 17.6143C93.9456 17.8219 94.1847 17.9852 94.4498 18.0933C94.715 18.2014 95.0001 18.2519 95.2862 18.2414C95.6621 18.2766 96.0393 18.1895 96.3618 17.9931C96.6842 17.7968 96.9347 17.5015 97.0758 17.1514L98.5863 17.1514ZM93.209 14.8384H97.0834C97.0976 14.582 97.0588 14.3254 96.9692 14.0847C96.8796 13.844 96.7412 13.6244 96.5627 13.4397C96.3842 13.255 96.1695 13.1092 95.932 13.0114C95.6945 12.9137 95.4393 12.8661 95.1825 12.8716C94.9235 12.87 94.6667 12.9198 94.427 13.018C94.1873 13.1162 93.9694 13.261 93.786 13.4438C93.6025 13.6267 93.457 13.8441 93.358 14.0834C93.259 14.3228 93.2083 14.5794 93.209 14.8384Z" fill="white"/>
<path d="M36.437 30.8116L36.5029 29.9922C36.8101 30.0914 37.1308 30.1424 37.4536 30.1436C37.7456 30.1436 37.8584 30.1153 38 29.917C38.3443 29.1964 38.4934 28.398 38.4326 27.6016C38.4326 26.754 38.1694 26.5088 37.501 26.5088C37.3501 26.5088 37.1807 26.5186 36.9922 26.5284C36.6325 27.9905 36.0346 29.3834 35.2227 30.6514L34.4409 30.2275C35.2036 29.1317 35.7617 27.9069 36.0884 26.6123C35.5726 26.6681 35.0603 26.7532 34.5542 26.8672L34.3848 26.0381C34.959 25.9346 35.646 25.8408 36.2861 25.7842C36.4177 25.1591 36.5152 24.5273 36.5781 23.8916L37.501 23.9951C37.416 24.5693 37.3125 25.1445 37.1807 25.709H37.5479C38.7437 25.709 39.3179 26.3018 39.3179 27.5635C39.3697 28.5262 39.1822 29.4868 38.772 30.3594C38.6639 30.5599 38.499 30.7241 38.298 30.8313C38.097 30.9385 37.8688 30.9839 37.6421 30.9619C37.2359 30.9592 36.8314 30.9088 36.437 30.8116ZM39.4683 25.7374L40.1558 25.2754C41.109 26.1949 41.6833 27.438 41.7656 28.7598L40.8618 28.9005C40.8552 28.3064 40.7283 27.7199 40.4888 27.1763C40.2492 26.6326 39.9021 26.1432 39.4683 25.7374Z" fill="white"/>
<path d="M44.8865 30.9434L44.6985 30.0957C44.9338 30.1153 45.2444 30.124 45.4329 30.124C47.2966 30.124 48.0027 29.5977 48.0027 28.8155C48.0027 28.1944 47.5979 27.8369 46.6941 27.8369C45.7087 27.9273 44.7908 28.3763 44.1145 29.0987L43.3894 28.7783C43.2521 27.5451 43.534 26.3015 44.1897 25.248L45.0276 25.5205C44.5056 26.2255 44.2519 27.0935 44.3123 27.9687C45.0673 27.4363 45.9596 27.1322 46.8826 27.0927C48.1443 27.0927 48.9256 27.7421 48.9256 28.7968C48.9256 30.1337 47.8709 30.9531 45.3387 30.9531C45.2161 30.9532 45.0374 30.9434 44.8865 30.9434ZM44.011 24.6924L44.2463 23.8633C45.4988 24.0549 46.7356 24.3382 47.9465 24.7109L47.7205 25.5303C46.5117 25.1401 45.2701 24.8597 44.011 24.6924Z" fill="white"/>
<path d="M51.6533 30.294C52.6242 29.9744 53.4963 29.41 54.1856 28.6553C53.6396 28.2027 53.0499 27.8056 52.4253 27.4697L52.9429 26.8203C53.5726 27.1406 54.1714 27.5185 54.7315 27.9492C55.1813 27.2932 55.495 26.5537 55.6543 25.7744H53.2534C52.7018 26.6681 52.0087 27.4662 51.2012 28.1377L50.5137 27.5449C51.6759 26.5862 52.5764 25.3489 53.1314 23.9483L54.0352 24.1651C53.9316 24.4287 53.8282 24.7012 53.7056 24.9561H56.0406L56.709 25.2666C56.5469 26.5444 56.0421 27.7546 55.2481 28.7689C54.4542 29.7833 53.4007 30.564 52.1993 31.0283L51.6533 30.294ZM55.626 23.7227L56.1533 23.4678C56.421 23.8262 56.6453 24.2149 56.8218 24.626L56.2285 24.8994C56.0792 24.4828 55.8767 24.0873 55.626 23.7227ZM56.8027 23.6279L57.3393 23.374C57.6106 23.7436 57.8411 24.1414 58.0268 24.5605L57.4336 24.8145C57.2758 24.3932 57.0637 23.9943 56.8027 23.6279Z" fill="white"/>
<path d="M60.9228 30.9902L60.4428 30.2275C61.4131 30.0727 62.2906 29.5613 62.9036 28.7935C63.5165 28.0256 63.8208 27.0566 63.7568 26.0762H59.8027V27.9687H58.8516V25.2754H61.2148V23.8916H62.1655V25.2754H63.9262L64.7925 25.5205C64.6792 28.1943 63.7851 30.2373 60.9228 30.9902Z" fill="white"/>
<path d="M66.623 25.3418L67.1504 24.5693C67.974 24.9458 68.751 25.4167 69.4658 25.9727L68.8633 26.7822C68.1773 26.2135 67.4251 25.7299 66.623 25.3418ZM66.8018 29.9834C67.9537 29.8101 69.0476 29.3642 69.9925 28.6829C70.9374 28.0016 71.706 27.1046 72.2344 26.0664L72.8555 26.7637C72.2817 27.8357 71.4702 28.7621 70.4829 29.4719C69.4957 30.1817 68.3591 30.6559 67.1602 30.8584L66.8018 29.9834Z" fill="white"/>
<path d="M80.5703 30.4356H74.6484V24.833H80.5703L80.5703 30.4356ZM75.581 25.6992V29.5693H79.6289V25.6992H75.581Z" fill="white"/>
<path d="M89.0508 27.9209H82.3945V26.9609H89.0508V27.9209Z" fill="white"/>
<path d="M91.3145 23.9199H92.2461V26.3301C93.4851 26.8458 94.6869 27.4468 95.8428 28.1289L95.3155 28.957C94.336 28.3301 93.3099 27.7793 92.2461 27.3095V30.9433H91.3145V23.9199ZM93.5264 24.4287L94.082 24.165C94.3542 24.5642 94.5787 24.9939 94.751 25.4453L94.1387 25.7187C93.9913 25.264 93.7855 24.8304 93.5264 24.4287ZM94.5996 24.0234L95.165 23.7598C95.4508 24.1567 95.6879 24.5865 95.8711 25.04L95.2588 25.3134C95.0908 24.8589 94.8696 24.4259 94.5996 24.0234Z" fill="white"/>
<path d="M24.768 20.3006C24.7788 19.466 25.0005 18.6476 25.4125 17.9216C25.8245 17.1957 26.4135 16.5857 27.1246 16.1486C26.6728 15.5034 26.0769 14.9725 25.3841 14.5979C24.6912 14.2234 23.9206 14.0155 23.1334 13.9909C21.4542 13.8146 19.8262 14.9957 18.9705 14.9957C18.0982 14.9957 16.7807 14.0084 15.362 14.0376C14.4443 14.0672 13.55 14.3341 12.7661 14.8121C11.9822 15.2902 11.3356 15.9632 10.8891 16.7655C8.9551 20.1139 10.3977 25.0349 12.2503 27.7415C13.1772 29.0669 14.2605 30.5473 15.6779 30.4948C17.065 30.4373 17.583 29.6104 19.2573 29.6104C20.9161 29.6104 21.4021 30.4948 22.8483 30.4615C24.3367 30.4373 25.2745 29.1302 26.1688 27.7923C26.8348 26.848 27.3473 25.8042 27.6873 24.6998C26.8225 24.3341 26.0846 23.7219 25.5655 22.9396C25.0464 22.1573 24.769 21.2395 24.768 20.3006Z" fill="white"/>
<path d="M22.0356 12.2108C22.8471 11.2366 23.247 9.98445 23.1501 8.72021C21.9103 8.85044 20.765 9.44299 19.9426 10.3798C19.5404 10.8375 19.2324 11.3699 19.0362 11.9467C18.8399 12.5235 18.7593 13.1333 18.7988 13.7412C19.419 13.7476 20.0325 13.6132 20.5932 13.3481C21.1538 13.083 21.647 12.6942 22.0356 12.2108Z" fill="white"/>
</svg>
