<svg width="154" height="118" viewBox="0 0 154 118" fill="none" xmlns="http://www.w3.org/2000/svg">
<g clip-path="url(#clip0_1_2164)">
<path d="M85.1858 48.4897H74.6749C73.3141 48.4897 72.2109 49.5944 72.2109 50.9571V58.2836C72.2109 59.6462 73.3141 60.7509 74.6749 60.7509H85.1858C86.5466 60.7509 87.6497 59.6462 87.6497 58.2836V50.9571C87.6497 49.5944 86.5466 48.4897 85.1858 48.4897Z" fill="url(#paint0_linear_1_2164)"/>
<path d="M30.4485 37.1267C30.4182 37.1267 30.393 37.1267 30.3628 37.1216C28.8764 36.8643 27.3698 36.2588 25.7574 35.2698C25.5407 35.1386 25.3391 35.0075 25.1426 34.8712C24.6236 35.729 23.6461 36.2184 22.3159 36.2487C19.1213 36.3194 17.4283 35.3001 16.6523 34.6088C15.2213 35.6685 12.2988 36.6625 6.34296 35.9914C6.06583 35.9611 5.86932 35.7088 5.89955 35.4363C5.92979 35.1588 6.18172 34.957 6.45382 34.9923C11.548 35.5625 14.5612 34.8965 16.0275 33.8268C15.8259 33.3323 15.2767 31.8085 15.8411 30.9608C16.0124 30.7085 16.3349 30.4108 16.9899 30.4158C17.3728 30.4209 17.7104 30.6631 17.9271 31.0718C18.2143 31.6268 18.3 32.636 17.5996 33.6602C17.5391 33.746 17.4736 33.8368 17.398 33.9277C18.038 34.4777 19.479 35.3102 22.3008 35.2497C23.3287 35.2244 24.0089 34.9015 24.3364 34.2758C22.3411 32.6612 21.6306 31.0062 22.0236 30.0424C22.2453 29.4925 22.7996 29.2301 23.4345 29.3714C24.6186 29.6337 25.7271 31.8589 25.5558 33.6199C25.5457 33.7157 25.5356 33.8116 25.5155 33.9024C25.7574 34.074 26.0143 34.2455 26.2965 34.4171C27.7779 35.3253 29.2089 35.9056 30.5442 36.1377C30.8163 36.1831 31.0027 36.4455 30.9574 36.718C30.9171 36.9652 30.7004 37.1368 30.4636 37.1368L30.4485 37.1267ZM23.0818 30.325C22.981 30.325 22.9608 30.3755 22.9457 30.4057C22.8147 30.7236 23.0667 31.8084 24.548 33.1355C24.5178 31.7984 23.6612 30.4411 23.1977 30.3401C23.1473 30.33 23.107 30.325 23.0767 30.325H23.0818ZM16.9294 31.4098C16.738 31.4098 16.6876 31.4855 16.6724 31.5108C16.5062 31.763 16.617 32.4291 16.8035 33.0144C16.9093 32.8479 16.9899 32.6763 17.0453 32.5048C17.2418 31.8841 17.0252 31.4603 16.9345 31.4098H16.9294Z" fill="#153C4A"/>
<path d="M130.499 47.8338H90.0425C87.3367 47.8338 85.1348 45.6288 85.1348 42.9192V39.478C85.1348 36.7685 87.3367 34.5635 90.0425 34.5635H130.499C133.205 34.5635 135.407 36.7685 135.407 39.478V42.9192C135.407 45.6288 133.205 47.8338 130.499 47.8338ZM90.0425 35.5726C87.891 35.5726 86.1425 37.3235 86.1425 39.478V42.9192C86.1425 45.0738 87.891 46.8247 90.0425 46.8247H130.499C132.65 46.8247 134.399 45.0738 134.399 42.9192V39.478C134.399 37.3235 132.65 35.5726 130.499 35.5726H90.0425Z" fill="url(#paint1_linear_1_2164)"/>
<path d="M43.9069 40.4114H6.33781C3.71261 40.4114 1.57617 38.272 1.57617 35.6432V31.9144C1.57617 29.2855 3.71261 27.1461 6.33781 27.1461H43.9069C46.5321 27.1461 48.6685 29.2855 48.6685 31.9144V35.6432C48.6685 38.272 46.5321 40.4114 43.9069 40.4114ZM6.33781 28.1502C4.26688 28.1502 2.58393 29.8355 2.58393 31.9093V35.6381C2.58393 37.7119 4.26688 39.3972 6.33781 39.3972H43.9069C45.9778 39.3972 47.6608 37.7119 47.6608 35.6381V31.9093C47.6608 29.8355 45.9778 28.1502 43.9069 28.1502H6.33781Z" fill="#153C4A"/>
<path d="M154.001 94.3102L134.319 73.7387L127.346 50.6745C127.255 50.3718 126.963 50.17 126.645 50.1952L108.702 51.4919L98.7757 41.5518C97.0474 39.8211 94.2307 39.8211 92.4974 41.5518C90.7691 43.2825 90.7691 46.1031 92.4974 47.8388L102.318 57.673C102.212 57.7638 102.106 57.8546 102.006 57.9555C101.169 58.7931 100.706 59.9133 100.706 61.0991C100.706 62.5724 101.426 63.8742 102.53 64.6815C101.668 65.4939 101.129 66.6393 101.129 67.9108C101.129 69.0966 101.587 70.2167 102.429 71.0543C102.605 71.2309 102.797 71.3873 102.993 71.5286C102.368 72.2804 101.985 73.2341 101.98 74.2685C101.97 75.6106 102.555 76.862 103.578 77.7147L105.921 81.2518C109.201 86.2067 114.391 89.7388 120.19 90.9851L134.43 115.538L153.991 94.3052L154.001 94.3102Z" fill="white"/>
<path d="M113.938 57.6881L108.622 63.0114L92.9864 47.3544C91.5201 45.8861 91.5201 43.4995 92.9864 42.0312C94.4527 40.5629 96.8361 40.5629 98.3023 42.0312L113.938 57.6881Z" fill="white"/>
<path d="M108.615 63.516C108.484 63.516 108.358 63.4655 108.257 63.3696L92.6221 47.7127C90.9593 46.0476 90.9593 43.338 92.6221 41.6729C94.2849 40.0078 96.9907 40.0078 98.6535 41.6729L114.289 57.3299C114.485 57.5267 114.485 57.8445 114.289 58.0413L108.973 63.3646C108.872 63.4655 108.746 63.5109 108.615 63.5109V63.516ZM95.6403 41.4357C94.8039 41.4357 93.9725 41.7536 93.3376 42.3894C92.0678 43.6609 92.0678 45.7297 93.3376 47.0012L108.615 62.2999L113.221 57.6881L97.943 42.3894C97.3082 41.7536 96.4768 41.4357 95.6403 41.4357Z" fill="#153C4A"/>
<path d="M101.391 61.094V61.099C101.391 63.1779 103.074 64.8632 105.15 64.8632H117.187C119.263 64.8632 120.946 63.1779 120.946 61.099V61.094C120.946 59.0151 119.263 57.3298 117.187 57.3298H105.15C103.074 57.3298 101.391 59.0151 101.391 61.094Z" fill="white"/>
<path d="M117.191 65.3677H105.153C102.8 65.3677 100.891 63.4504 100.891 61.099C100.891 58.7477 102.805 56.8303 105.153 56.8303H117.191C119.544 56.8303 121.454 58.7477 121.454 61.099C121.454 63.4504 119.539 65.3677 117.191 65.3677ZM105.153 57.8395C103.36 57.8395 101.898 59.3027 101.898 61.099C101.898 62.8953 103.36 64.3586 105.153 64.3586H117.191C118.985 64.3586 120.446 62.8953 120.446 61.099C120.446 59.3027 118.985 57.8395 117.191 57.8395H105.153Z" fill="#153C4A"/>
<path d="M104.116 71.3823C102.766 70.8121 101.818 69.4699 101.818 67.9108C101.818 65.8319 103.501 64.1467 105.577 64.1467H117.615C119.691 64.1467 121.374 65.8319 121.374 67.9108C121.374 69.9896 119.691 71.6749 117.615 71.6749H113.12L104.116 71.3772V71.3823Z" fill="white"/>
<path d="M117.615 72.1846H113.12C112.843 72.1846 112.617 71.9575 112.617 71.68C112.617 71.4025 112.843 71.1754 113.12 71.1754H117.615C119.409 71.1754 120.87 69.7122 120.87 67.9159C120.87 66.1196 119.409 64.6563 117.615 64.6563H105.577C103.784 64.6563 102.322 66.1196 102.322 67.9159C102.322 69.2278 103.103 70.4085 104.313 70.9231C104.57 71.0341 104.691 71.3268 104.58 71.5841C104.469 71.8415 104.177 71.9626 103.92 71.8515C102.337 71.1805 101.315 69.6365 101.315 67.9159C101.315 65.5595 103.229 63.6472 105.577 63.6472H117.615C119.968 63.6472 121.878 65.5645 121.878 67.9159C121.878 70.2672 119.963 72.1846 117.615 72.1846Z" fill="#153C4A"/>
<path d="M135.008 115.669C134.837 115.669 134.665 115.578 134.57 115.417L120.31 90.8336C114.525 89.6126 109.346 86.0957 106.075 81.1609L103.717 77.6037C102.72 76.7812 102.15 75.5702 102.16 74.2735C102.175 71.9373 104.166 70.035 106.589 70.035H110.313C111.537 70.035 112.701 70.5749 113.518 71.5134C113.629 71.6043 113.739 71.7001 113.845 71.8061L116.48 74.445C118.083 76.0496 118.254 78.6179 116.874 80.288C116.092 81.2316 114.994 81.7866 113.78 81.8421C112.58 81.8976 111.406 81.4435 110.56 80.5958L108.393 78.4261C108.197 78.2293 108.197 77.9115 108.393 77.7147C108.59 77.5179 108.907 77.5179 109.104 77.7147L111.27 79.8843C111.915 80.5302 112.812 80.8784 113.729 80.838C114.656 80.7926 115.498 80.3687 116.092 79.6472C117.146 78.3706 116.999 76.3977 115.76 75.1615L113.125 72.5226C113.034 72.4318 112.943 72.351 112.848 72.2754C112.822 72.2552 112.797 72.2299 112.777 72.2047C112.152 71.468 111.25 71.0442 110.308 71.0442H106.584C104.71 71.0442 103.173 72.4974 103.163 74.2836C103.158 75.2978 103.606 76.2363 104.403 76.867C104.443 76.9023 104.478 76.9376 104.508 76.983L106.907 80.6059C110.071 85.3842 115.11 88.7699 120.723 89.8951C120.864 89.9254 120.985 90.0112 121.061 90.1373L135.431 114.917C135.572 115.159 135.492 115.467 135.25 115.608C135.169 115.654 135.084 115.679 134.998 115.679L135.008 115.669Z" fill="#153C4A"/>
<path d="M124.145 73.0272C117.978 65.5696 121.807 58.7578 121.807 58.7578L111.311 57.4005C109.618 57.1835 108.132 56.1643 107.316 54.6657C106.731 53.591 107.452 52.269 108.671 52.1781L126.7 50.8763L133.719 74.0919L152.287 93.5029L124.145 73.0272Z" fill="white"/>
<path d="M152.287 94.0024C152.156 94.0024 152.02 93.9519 151.924 93.8459L133.356 74.4349C133.301 74.3794 133.261 74.3088 133.241 74.2331L126.337 51.4011L108.712 52.6726C108.304 52.7029 107.961 52.9249 107.765 53.2831C107.568 53.6414 107.568 54.0551 107.765 54.4134C108.5 55.7656 109.856 56.694 111.382 56.8908L121.878 58.2481C122.044 58.2683 122.191 58.3743 122.261 58.5206C122.332 58.6669 122.332 58.8486 122.251 58.9949C122.241 59.01 121.334 60.6651 121.168 63.1728C120.946 66.5181 122.08 69.7272 124.539 72.6992C124.715 72.9161 124.685 73.234 124.473 73.4106C124.256 73.5872 123.939 73.557 123.763 73.345C118.558 67.058 120.281 61.104 121.067 59.1665L111.251 57.9C109.407 57.6628 107.77 56.5427 106.878 54.9028C106.52 54.2469 106.52 53.4648 106.878 52.8038C107.235 52.1428 107.896 51.724 108.641 51.6685L126.67 50.3667C126.907 50.3515 127.118 50.4979 127.189 50.7249L134.173 73.8294L152.66 93.1496C152.851 93.3515 152.846 93.6693 152.645 93.8611C152.549 93.9569 152.423 94.0024 152.297 94.0024H152.287Z" fill="#153C4A"/>
<path d="M0 116.88L25.471 91.8226L29.4919 49.3172L36.5311 34.851C37.3071 33.2515 39.2924 32.6814 40.804 33.6148C41.9982 34.3565 42.5172 35.8249 42.0486 37.1519L37.0904 51.3254L36.642 62.9609L41.5195 55.5386C41.9427 54.8978 42.7338 54.6102 43.4645 54.8322L45.9284 55.584C46.7548 55.8363 47.2687 56.6588 47.1327 57.5115L46.4776 61.6137L47.8734 60.216C48.3773 59.7115 49.1432 59.5702 49.7982 59.8578L51.5063 60.6197C52.2269 60.9426 52.6401 61.7146 52.5091 62.4917L51.6222 67.6535L52.7509 66.5232C53.2749 65.9985 54.0812 65.8673 54.7463 66.2003L56.399 67.0278C56.8978 67.275 57.2102 67.7796 57.2203 68.3397V68.5415C57.3563 82.6595 51.6172 96.2579 41.3734 106.031C34.8582 112.248 28.8369 117.995 28.8369 117.995L0.0151163 116.875L0 116.88Z" fill="url(#paint2_linear_1_2164)"/>
<path d="M27.9249 95.6271L17.5349 67.27L19.3338 51.5676C19.7419 50.1296 21.5105 49.6048 22.6341 50.5887C24.3876 52.1176 25.34 54.363 25.219 56.6891L24.9066 62.744L28.2574 72.9818L27.9198 95.6322L27.9249 95.6271Z" fill="url(#paint3_linear_1_2164)"/>
<path d="M40.5067 80.7876C40.1288 80.7876 39.7458 80.722 39.378 80.5857C38.5567 80.283 37.9067 79.6775 37.5439 78.8803L37.3524 78.4615C37.0904 77.8862 37.0048 77.2505 37.1005 76.6248L39.3226 61.9972C39.3629 61.7197 39.6249 61.533 39.897 61.5733C40.1741 61.6137 40.3606 61.871 40.3203 62.1485L38.0982 76.7762C38.0327 77.2051 38.0982 77.644 38.2745 78.0427L38.466 78.4615C38.7179 79.0114 39.1664 79.4302 39.7307 79.6371C40.2245 79.8188 40.7536 79.8238 41.2424 79.6523L45.9838 61.4926C46.0544 61.2252 46.3265 61.0587 46.5986 61.1343C46.8656 61.205 47.0269 61.4825 46.9563 61.7499L42.1544 80.1518C42.1141 80.2981 42.0183 80.4192 41.8823 80.4798C41.4439 80.6816 40.9803 80.7876 40.5117 80.7876H40.5067Z" fill="#153C4A"/>
<path d="M44.2851 83.3709C43.7057 83.3709 43.1363 83.2095 42.6324 82.8866C41.8111 82.3668 41.2921 81.5091 41.2065 80.5403L41.1661 80.066C41.1409 79.7885 41.3475 79.5412 41.6247 79.521C41.9068 79.4958 42.1487 79.7027 42.1689 79.9802L42.2092 80.4545C42.2646 81.1104 42.6173 81.6857 43.1716 82.0389C43.6654 82.3517 44.2549 82.4425 44.8142 82.2962L51.148 67.4617C51.2588 67.2043 51.5511 67.0883 51.808 67.1943C52.065 67.3053 52.1809 67.5979 52.0751 67.8552L45.6507 82.9017C45.5952 83.0278 45.4894 83.1287 45.3634 83.1792C45.0107 83.3104 44.6479 83.3709 44.2902 83.3709H44.2851Z" fill="#153C4A"/>
<path d="M46.4974 83.4214C46.0036 83.4214 45.5098 83.3457 45.0261 83.1843C44.764 83.0985 44.6179 82.8109 44.7086 82.5485C44.7993 82.2861 45.0815 82.1398 45.3435 82.2306C46.9055 82.7503 48.6389 82.16 49.5559 80.7926L54.3175 73.7033C54.4738 73.4712 54.7862 73.4106 55.0179 73.5671C55.2497 73.7235 55.3102 74.0363 55.154 74.2684L50.3923 81.3577C49.5055 82.6746 48.0292 83.4315 46.4974 83.4315V83.4214Z" fill="#153C4A"/>
<path d="M37.1399 86.3984C37.1399 86.3984 37.0945 86.3984 37.0744 86.3984C36.7972 86.3631 36.6058 86.1057 36.641 85.8333C36.7015 85.3892 37.9511 74.9143 27.0623 70.4286C26.8053 70.3226 26.6844 70.03 26.7902 69.7676C26.896 69.5103 27.1933 69.3892 27.4503 69.4951C39.0697 74.2886 37.6589 85.8535 37.6437 85.9695C37.6085 86.2218 37.3918 86.4085 37.1449 86.4085L37.1399 86.3984Z" fill="#153C4A"/>
<path d="M73.1016 26.1572L76.6892 37.4093C77.4248 37.4093 78.1756 36.2639 78.4275 35.6029L78.3671 35.9006C82.2923 35.507 82.0504 32.4644 82.0504 32.4644L81.3097 20.9702L73.1016 26.1572Z" fill="#153C4A"/>
<path d="M82.0569 32.4644C85.3774 31.1172 87.1662 27.4944 86.2139 24.033L82.6112 10.9544C81.7798 7.93701 79.7592 5.38891 77.0131 3.89536L75.7181 3.18896L76.0859 -0.00500488H52.3483L57.377 11.9282L52.313 34.3717C51.9754 35.8602 53.2956 37.1923 54.7871 36.8694L55.039 36.8139C57.0999 36.3648 58.7828 34.8713 59.4731 32.8782L61.7607 26.2884C62.2696 24.8151 64.3103 24.7091 64.9704 26.1219L70.0293 36.9753L77.4111 52.1126C77.8344 52.9855 78.691 53.5708 79.6534 53.6516C81.6991 53.8231 83.2057 51.7695 82.4298 49.8622L77.0887 36.7785L76.4991 35.0125L82.0468 32.4594L82.0569 32.4644Z" fill="#153C4A"/>
<path d="M76.9277 37.9239C76.706 37.9239 76.5044 37.7776 76.444 37.5556L73.0831 25.3348C73.0075 25.0673 73.1688 24.7898 73.4358 24.7141C73.7029 24.6384 73.98 24.7999 74.0556 25.0673L77.4165 37.2881C77.492 37.5556 77.3308 37.8331 77.0638 37.9088C77.0184 37.9189 76.9731 37.929 76.9277 37.929V37.9239Z" fill="white"/>
<path d="M76.9975 37.7826C76.806 37.7826 76.6195 37.6716 76.5389 37.4849C76.4281 37.2326 76.5389 36.9299 76.7959 36.8189C78.2269 36.1831 78.1665 33.8823 78.1665 33.8621L77.8742 22.5596C77.8692 22.2821 78.0858 22.05 78.363 22.0399C78.63 22.0146 78.8719 22.2518 78.882 22.5293L79.1742 33.8268C79.1742 33.9428 79.2599 36.8239 77.2091 37.7372C77.1436 37.7675 77.073 37.7826 77.0025 37.7826H76.9975Z" fill="white"/>
<path d="M78.368 36.4051C78.1111 36.4051 77.8944 36.2134 77.8692 35.951C77.844 35.6735 78.0456 35.4262 78.3227 35.401C81.6281 35.068 81.5727 32.7671 81.5576 32.5048L80.8169 21.0055C80.7967 20.728 81.0084 20.4858 81.2855 20.4706C81.5727 20.4504 81.8045 20.6624 81.8196 20.9399L82.5603 32.4341C82.5603 32.4644 82.787 35.9661 78.4235 36.4051C78.4083 36.4051 78.3882 36.4051 78.3731 36.4051H78.368Z" fill="white"/>
<path d="M125.853 42.9545C125.722 42.9545 125.596 42.904 125.496 42.8082L123.148 40.4568C122.951 40.2601 122.951 39.9422 123.148 39.7454C123.344 39.5486 123.662 39.5486 123.858 39.7454L125.848 41.7385L134.878 32.6965C135.074 32.4997 135.392 32.4997 135.588 32.6965C135.785 32.8933 135.785 33.2111 135.588 33.4079L126.206 42.8031C126.105 42.904 125.979 42.9494 125.848 42.9494L125.853 42.9545Z" fill="#153C4A"/>
</g>
<defs>
<linearGradient id="paint0_linear_1_2164" x1="72.2109" y1="51.555" x2="80.5297" y2="61.2616" gradientUnits="userSpaceOnUse">
<stop stop-color="#F39025"/>
<stop offset="1" stop-color="#53D1FF"/>
</linearGradient>
<linearGradient id="paint1_linear_1_2164" x1="85.1348" y1="37.8811" x2="89.9358" y2="54.7351" gradientUnits="userSpaceOnUse">
<stop stop-color="#F39025"/>
<stop offset="1" stop-color="#53D1FF"/>
</linearGradient>
<linearGradient id="paint2_linear_1_2164" x1="1.11404e-05" y1="54.3724" x2="52.3545" y2="87.0986" gradientUnits="userSpaceOnUse">
<stop stop-color="#F39025"/>
<stop offset="1" stop-color="#53D1FF"/>
</linearGradient>
<linearGradient id="paint3_linear_1_2164" x1="17.5349" y1="61.4714" x2="30.5587" y2="64.3126" gradientUnits="userSpaceOnUse">
<stop stop-color="#F39025"/>
<stop offset="1" stop-color="#53D1FF"/>
</linearGradient>
<clipPath id="clip0_1_2164">
<rect width="154" height="118" fill="white"/>
</clipPath>
</defs>
</svg>
