<svg width="95" height="86" viewBox="0 0 95 86" fill="none" xmlns="http://www.w3.org/2000/svg">
<g clip-path="url(#clip0_1_2198)">
<path d="M63.3783 43.4526C65.2282 43.508 66.8898 42.7099 68.0086 41.4241C68.245 41.1543 68.5847 40.9991 68.9428 40.9991H68.9687C69.6924 40.9991 70.2795 41.5829 70.2795 42.3072V49.9298H89.569C92.5673 49.9298 95.0006 47.4949 95.0006 44.4946V25.1921H70.2795V32.8148C70.2795 33.5353 69.6961 34.1228 68.9724 34.1228C68.5921 34.1228 68.2339 33.9529 67.9828 33.6684C66.9046 32.4416 65.3279 31.6657 63.5666 31.6657C60.2175 31.6657 57.5183 34.4628 57.6808 37.851C57.8248 40.8883 60.3468 43.3639 63.382 43.46L63.3783 43.4526Z" fill="url(#paint0_linear_1_2198)"/>
<path d="M88.5312 32.0093C88.5866 30.1655 87.7964 28.5101 86.5225 27.3943C86.2419 27.1467 86.0757 26.792 86.0757 26.4151C86.0757 25.6909 86.6591 25.1071 87.3828 25.1071H95.0004V5.80466C95.0004 2.80436 92.5671 0.369385 89.5688 0.369385H70.2793V25.1071H77.8969C78.6169 25.1071 79.204 25.6909 79.204 26.4151C79.204 26.7957 79.0342 27.1541 78.7498 27.4053C77.5239 28.4843 76.7485 30.062 76.7485 31.8245C76.7485 35.1758 79.5437 37.8768 82.9297 37.7143C85.9649 37.5702 88.4389 35.0465 88.5349 32.0093H88.5312Z" fill="#153C4A"/>
<path d="M77.177 6.84294C75.3271 6.78752 73.6655 7.58563 72.5467 8.87147C72.3104 9.1412 71.9707 9.29639 71.6125 9.29639H71.5866C70.8629 9.29639 70.2758 8.71259 70.2758 7.98838V0.369385H50.9863C47.988 0.369385 45.5547 2.80436 45.5547 5.80466V25.1071H53.6117C54.1138 24.926 54.4757 24.4494 54.4757 23.8804C54.4757 23.5035 54.3132 23.1488 54.0289 22.9012C52.755 21.7816 51.9648 20.1263 52.0202 18.2862C52.1125 15.249 54.5902 12.7253 57.6217 12.5812C61.0077 12.4186 63.8029 15.1196 63.8029 18.471C63.8029 20.2113 63.0459 21.7742 61.8459 22.8532C61.5985 23.0786 61.4028 23.3668 61.3585 23.6993C61.2699 24.3422 61.6539 24.9076 62.2114 25.1071H70.2684V17.5509C70.2684 16.9819 70.6044 16.4387 71.1435 16.254C71.6753 16.0692 72.218 16.2429 72.5614 16.6346C73.6397 17.8613 75.2163 18.6372 76.9777 18.6372C80.3267 18.6372 83.0259 15.8401 82.8635 12.4519C82.7195 9.41463 80.1975 6.93901 77.1623 6.84294H77.177Z" fill="white"/>
<path d="M70.2781 25.4767H62.2211C62.1768 25.4767 62.1362 25.4693 62.0956 25.4545C61.346 25.1848 60.8955 24.4421 61.0026 23.6477C61.0543 23.256 61.2648 22.8865 61.6082 22.5762C62.775 21.5268 63.4433 20.0303 63.4433 18.4711C63.4433 16.9118 62.834 15.5225 61.73 14.4694C60.6259 13.4164 59.1785 12.8769 57.6461 12.9471C54.7881 13.0838 52.484 15.4301 52.3954 18.2937C52.3437 19.949 53.0305 21.5268 54.2786 22.6205C54.6404 22.9383 54.8509 23.3964 54.8509 23.8768C54.8509 24.5788 54.4041 25.2107 53.7432 25.4508C53.7026 25.4656 53.6619 25.473 53.6176 25.473H45.5607C45.3576 25.473 45.1914 25.3067 45.1914 25.1035V5.80477C45.1914 2.60494 47.7946 0 50.9923 0H70.2818C70.4849 0 70.651 0.166273 70.651 0.369495V7.99218C70.651 8.50947 71.072 8.9307 71.5926 8.9307C71.8695 8.9307 72.1059 8.82355 72.272 8.63141C73.5127 7.20146 75.3035 6.41444 77.1904 6.47725C80.4324 6.57701 83.0947 9.19673 83.2497 12.4372C83.331 14.1701 82.7217 15.8144 81.5254 17.067C80.3327 18.3196 78.7228 19.0105 76.991 19.0105C75.2592 19.0105 73.4868 18.2346 72.2979 16.8822C72.0357 16.5829 71.6443 16.4758 71.275 16.6051C70.9058 16.7344 70.6473 17.1224 70.6473 17.5547V25.1109C70.6473 25.3141 70.4812 25.4804 70.2781 25.4804V25.4767ZM62.2876 24.7377H69.9051V17.551C69.9051 16.8009 70.3556 16.1359 71.0277 15.9031C71.6738 15.6777 72.3865 15.8698 72.8444 16.3908C73.893 17.5843 75.4032 18.2678 76.9836 18.2678C78.564 18.2678 79.9302 17.6582 80.9826 16.5534C82.0349 15.4486 82.574 14.0002 82.5039 12.4705C82.3672 9.61057 80.0225 7.30492 77.1609 7.21624C75.4992 7.16451 73.9152 7.85916 72.8222 9.11914C72.5157 9.47016 72.0763 9.67338 71.6074 9.67338C70.6584 9.67338 69.9051 8.91961 69.9051 7.99588V0.73899H50.9849C48.1934 0.73899 45.9225 3.01139 45.9225 5.80477V24.7377H53.5401C53.8798 24.5899 54.105 24.2537 54.105 23.8805C54.105 23.6107 53.9869 23.3558 53.7875 23.1784C52.3733 21.9369 51.5979 20.1486 51.6532 18.2752C51.7529 15.0311 54.3672 12.367 57.6092 12.2118C59.341 12.1268 60.9841 12.7402 62.2359 13.9374C63.4876 15.1308 64.1781 16.7418 64.1781 18.4748C64.1781 20.2077 63.4212 21.9443 62.0992 23.1304C61.9515 23.2634 61.7669 23.4777 61.73 23.7512C61.6709 24.1761 61.8999 24.5714 62.2876 24.7414V24.7377Z" fill="#153C4A"/>
<path d="M52.0276 18.2864C51.9722 20.1376 52.7698 21.8003 54.0548 22.9199C54.3243 23.1564 54.4794 23.4963 54.4794 23.8547V23.8806C54.4794 24.6048 53.896 25.1923 53.1723 25.1923H45.5547V44.4947C45.5547 47.495 47.988 49.93 50.9863 49.93H70.2758V25.1923H62.6582C61.9382 25.1923 61.3511 24.6085 61.3511 23.8843C61.3511 23.5037 61.521 23.1453 61.8053 22.894C63.0312 21.8151 63.8066 20.2373 63.8066 18.4749C63.8066 15.1235 61.0114 12.4225 57.6254 12.5851C54.5902 12.7292 52.1162 15.2529 52.0202 18.2901L52.0276 18.2864Z" fill="#153C4A"/>
<path d="M0.369496 85.6305L2.27851 68.2015C2.9173 62.356 6.69471 57.3272 12.1263 55.0807L31.0392 49.1096C34.2627 48.0935 37.7853 48.9101 40.2298 51.2453L43.3056 54.1791L66.3097 75.68C66.3097 80.9823 62.0338 85.2869 56.7351 85.3165H53.6593C53.6593 85.3165 -0.900716 85.6342 0.369496 85.6342V85.6305Z" fill="white"/>
<path d="M0.369495 85.9999C0.369495 85.9999 0.343647 85.9999 0.328877 85.9999C0.125791 85.9778 -0.0219078 85.7967 0.000247044 85.5935L1.90926 68.1644C2.56282 62.1823 6.42515 57.0389 11.9823 54.7444L30.9284 48.7622C34.2812 47.7055 37.9441 48.5553 40.4845 50.9829L43.5604 53.9167L66.5608 75.4176C66.6347 75.4878 66.679 75.5839 66.679 75.6873C66.679 81.1743 62.2184 85.6637 56.7351 85.6933H53.6593C53.4562 85.6933 53.2901 85.527 53.2901 85.3238C53.2901 85.1205 53.4562 84.9543 53.6593 84.9543H56.7351C61.7569 84.9284 65.8555 80.8566 65.9405 75.8462L43.0582 54.4562L39.9824 51.5224C37.634 49.2795 34.2516 48.4962 31.1574 49.4717L12.2445 55.4427C6.96795 57.6264 3.27917 62.537 2.65514 68.2494L0.746127 85.6785C0.723972 85.8669 0.565196 86.0073 0.380572 86.0073L0.369495 85.9999Z" fill="#153C4A"/>
<path d="M76.1717 53.5362L84.9782 48.0492C85.7093 47.5948 85.9013 46.6119 85.3918 45.9136C84.5979 44.8272 83.2058 44.358 81.9135 44.7459L78.3835 45.8027L76.168 53.5399L76.1717 53.5362Z" fill="white"/>
<path d="M76.1728 53.9057C76.0953 53.9057 76.0177 53.8798 75.9513 53.8318C75.8294 53.7394 75.7777 53.5805 75.8183 53.4364L78.0338 45.6992C78.0671 45.5772 78.1631 45.4812 78.2849 45.4479L81.8149 44.3912C83.2513 43.9625 84.8095 44.4872 85.6957 45.6955C85.9985 46.1093 86.1167 46.6377 86.0206 47.1402C85.9246 47.6427 85.6182 48.0898 85.1825 48.3595L76.3759 53.8465C76.3168 53.8835 76.2467 53.902 76.1802 53.902L76.1728 53.9057ZM78.6874 46.0945L76.7932 52.7122L84.7874 47.7314C85.0532 47.5651 85.2305 47.3065 85.2932 46.9961C85.3523 46.6894 85.2822 46.379 85.0975 46.1278C84.396 45.1708 83.1627 44.7533 82.0254 45.0932L78.6911 46.0908L78.6874 46.0945Z" fill="#153C4A"/>
<path d="M79.273 48.6146L81.8245 36.3436C81.9648 35.6637 81.4663 35.0208 80.7721 34.9913L80.0964 34.9617C78.8114 34.9063 77.6224 35.6305 77.0796 36.7981L75.6137 39.9462L75.2371 40.1199L75.5546 35.9298C75.6248 35.0171 74.938 34.2116 74.026 34.1562C72.6339 34.0675 71.4117 35.0023 71.0867 36.3178C71.0424 35.5196 70.4184 34.8546 69.5987 34.7954C68.1918 34.6883 66.9512 35.6268 66.6225 36.9533C66.5782 36.1552 65.9542 35.4901 65.1345 35.431C63.5615 35.3127 62.1916 36.4877 62.0734 38.0618L61.4272 46.5565L60.1312 47.1587C58.5877 47.8756 57.443 49.239 56.9999 50.8833L50.623 74.494L53.2373 77.9229C56.8633 82.6783 64.4292 81.2077 65.9099 75.4103C65.921 75.3697 65.932 75.3254 65.9431 75.2847L70.5181 56.9836L71.5557 56.7176C75.4623 55.7089 78.4569 52.5682 79.2803 48.6182L79.273 48.6146Z" fill="white"/>
<path d="M58.9494 81.13C56.6121 81.13 54.4003 80.0585 52.9417 78.1445L50.3275 74.7156C50.2573 74.6232 50.2352 74.505 50.2647 74.3941L56.6416 50.7834C57.1142 49.032 58.3291 47.5873 59.9722 46.8224L61.0726 46.3088L61.7003 38.0321C61.8369 36.2585 63.3841 34.9247 65.1565 35.0614C65.7768 35.1094 66.3196 35.4457 66.6482 35.9371C67.2649 34.9395 68.3984 34.3372 69.6207 34.4295C70.241 34.4776 70.7838 34.8138 71.1161 35.3053C71.7291 34.3224 72.8405 33.7164 74.0479 33.794C74.5833 33.8273 75.0744 34.0711 75.4289 34.4776C75.7871 34.8914 75.9643 35.4198 75.92 35.963L75.6985 38.8894L76.7434 36.6465C77.3527 35.3422 78.6746 34.5367 80.111 34.5958L80.7867 34.6254C81.2261 34.6439 81.6323 34.8545 81.9018 35.1981C82.1714 35.5454 82.2748 35.9888 82.1861 36.4211L79.6346 48.6921C78.778 52.8119 75.7132 56.0228 71.6404 57.0759L70.817 57.2865L66.2642 75.5026C65.5479 78.2997 63.3361 80.3984 60.4929 80.9785C59.9759 81.082 59.459 81.1337 58.9457 81.1337L58.9494 81.13ZM51.0253 74.4089L53.5325 77.6937C55.1388 79.7999 57.7493 80.7753 60.3525 80.2469C62.9557 79.7186 64.9017 77.8748 65.5552 75.3142L65.5848 75.1923L70.1598 56.8912C70.193 56.7581 70.2964 56.6584 70.4256 56.6214L71.4632 56.3554C75.2628 55.3762 78.117 52.3796 78.9183 48.5369L81.4698 36.2659C81.5141 36.0479 81.4624 35.8225 81.3258 35.6489C81.1892 35.4752 80.9861 35.3681 80.7645 35.3607L80.0888 35.3311C78.9405 35.2831 77.9029 35.9186 77.4192 36.9532L75.9532 40.1013C75.9163 40.1789 75.8536 40.2417 75.776 40.2787L75.3994 40.4523C75.2812 40.5077 75.1409 40.4967 75.0338 40.4228C74.9267 40.3489 74.8677 40.2232 74.875 40.0902L75.1926 35.9001C75.2184 35.5528 75.1077 35.2166 74.8787 34.9542C74.6535 34.6956 74.347 34.5441 74.0073 34.5219C72.8146 34.448 71.7364 35.2387 71.4484 36.4027C71.4041 36.58 71.238 36.6982 71.057 36.6798C70.8761 36.6613 70.7321 36.5172 70.721 36.3324C70.6841 35.708 70.193 35.2018 69.5727 35.1575C68.3615 35.0651 67.2759 35.8558 66.9805 37.0345C66.9362 37.2118 66.7738 37.3301 66.5891 37.3116C66.4082 37.2931 66.2642 37.149 66.2531 36.9643C66.2162 36.3398 65.7251 35.8336 65.1048 35.7893C63.7349 35.6821 62.5422 36.713 62.4388 38.0802L61.7926 46.5749C61.7815 46.7079 61.7003 46.8261 61.5784 46.8815L60.2824 47.4838C58.8349 48.1563 57.7678 49.4274 57.3506 50.9682L51.0217 74.4015L51.0253 74.4089Z" fill="#153C4A"/>
<path d="M70.2277 47.3804C70.2277 47.3804 70.2092 47.3804 70.1981 47.3804C69.995 47.3656 69.8436 47.1882 69.8584 46.985L70.6338 36.7648C70.6486 36.5615 70.8222 36.41 71.0289 36.4248C71.232 36.4396 71.3834 36.617 71.3686 36.8202L70.5932 47.0404C70.5784 47.2326 70.416 47.3804 70.224 47.3804H70.2277Z" fill="#153C4A"/>
<path d="M74.7357 47.1328C74.7357 47.1328 74.7173 47.1328 74.7062 47.1328C74.5031 47.118 74.3517 46.9406 74.3665 46.7374L75.1899 35.8743C75.2047 35.671 75.3819 35.5195 75.585 35.5343C75.7881 35.5491 75.9395 35.7265 75.9247 35.9297L75.1013 46.7928C75.0865 46.985 74.924 47.1328 74.732 47.1328H74.7357Z" fill="#153C4A"/>
<path d="M65.8449 47.2474C65.8449 47.2474 65.8264 47.2474 65.8153 47.2474C65.6122 47.2326 65.4608 47.0553 65.4756 46.852L66.299 35.9889C66.3138 35.7857 66.491 35.6342 66.6941 35.6489C66.8972 35.6637 67.0486 35.8411 67.0338 36.0443L66.2104 46.9075C66.1956 47.0996 66.0332 47.2474 65.8412 47.2474H65.8449Z" fill="#153C4A"/>
<path d="M53.415 85.6305C53.3042 85.6305 53.1934 85.5788 53.1196 85.4864L38.7522 66.6865C38.6266 66.5239 38.6599 66.2911 38.8223 66.1692C38.9848 66.0436 39.2174 66.0768 39.3393 66.2394L53.7067 85.0393C53.8322 85.2019 53.799 85.4347 53.6365 85.5566C53.5701 85.6083 53.4888 85.6342 53.4113 85.6342L53.415 85.6305Z" fill="#153C4A"/>
<path d="M15.84 85.6304C15.6369 85.6304 15.4707 85.4642 15.4707 85.261V75.3068C15.4707 75.1035 15.6369 74.9373 15.84 74.9373C16.043 74.9373 16.2092 75.1035 16.2092 75.3068V85.261C16.2092 85.4642 16.043 85.6304 15.84 85.6304Z" fill="#153C4A"/>
<path d="M24.374 40.8735L20.3123 41.8416C15.6413 42.9538 10.9149 40.0422 9.79981 35.3681L9.41579 33.7571C8.02373 27.908 11.6682 21.9813 17.5134 20.5883L18.3405 22.0921C22.0071 21.2201 25.7181 23.5036 26.5895 27.1727L28.3213 34.448C29.0007 37.3042 27.2209 40.1937 24.3703 40.8735H24.374Z" fill="#153C4A"/>
<path d="M29.9038 32.6657C30.1396 27.5859 25.948 23.2641 20.5415 23.0127C15.1351 22.7614 10.5611 26.6757 10.3252 31.7555C10.0894 36.8354 14.281 41.1572 19.6875 41.4085C25.0939 41.6599 29.6679 37.7456 29.9038 32.6657Z" fill="#153C4A"/>
<path d="M28.2283 48.319C25.3556 47.5209 22.9518 45.2965 22.0619 42.2223L21.2422 39.392L28.7416 37.2083L28.2247 48.319H28.2283Z" fill="#153C4A"/>
<path d="M17.591 33.4245C17.1184 30.3171 18.5547 27.1025 21.2465 25.7169C22.9229 24.8559 24.7544 24.8781 26.32 25.6097C25.4597 25.6541 23.0522 25.9164 22.5094 27.4757C21.8447 29.3823 21.6047 33.0698 17.591 33.4245Z" fill="#153C4A"/>
<path d="M31.2529 26.3585C31.4053 23.9411 29.5705 21.8577 27.1546 21.7052C24.7388 21.5526 22.6568 23.3887 22.5044 25.8062C22.352 28.2237 24.1868 30.3071 26.6027 30.4596C29.0185 30.6121 31.1005 28.776 31.2529 26.3585Z" fill="#153C4A"/>
<path d="M16.1324 22.3138C11.6608 23.9987 8.99114 28.7098 9.94749 33.4837C11.1512 33.9271 12.5138 34.0305 13.8763 33.7054C17.4211 32.8592 19.6439 29.4414 18.839 26.0642C18.455 24.4569 17.4543 23.1489 16.1287 22.3138H16.1324Z" fill="#153C4A"/>
<path d="M21.5148 28.2131C23.3981 26.6913 23.692 23.93 22.1713 22.0454C20.6506 20.1608 17.891 19.8667 16.0077 21.3884C14.1244 22.9102 13.8305 25.6716 15.3512 27.5561C16.8719 29.4407 19.6315 29.7349 21.5148 28.2131Z" fill="#153C4A"/>
<path d="M28.0434 22.8126C28.6194 25.2365 27.124 27.6678 24.7017 28.2442C22.2795 28.8206 19.8498 27.3242 19.2738 24.9003C18.6978 22.4764 20.1932 20.0451 22.6155 19.4687C25.0377 18.8923 27.4674 20.3887 28.0434 22.8126Z" fill="#153C4A"/>
<path d="M12.2377 26.8697C12.1084 26.8697 11.9829 26.7995 11.9127 26.6776C11.3404 25.6393 9.91878 25.6726 9.90401 25.6726C9.70092 25.6726 9.53107 25.5174 9.52369 25.3142C9.5163 25.1109 9.67508 24.941 9.87816 24.9336C9.9557 24.9336 11.765 24.8819 12.5589 26.3192C12.6586 26.4965 12.5921 26.7219 12.4149 26.8217C12.3595 26.855 12.2967 26.8697 12.2377 26.8697Z" fill="#153C4A"/>
<path d="M12.385 26.7256C12.3444 26.7256 12.3037 26.7182 12.2631 26.7035C10.7123 26.1603 10.4575 24.3682 10.4464 24.2943C10.4206 24.0911 10.5609 23.9064 10.764 23.8805C10.9671 23.8546 11.1517 23.9951 11.1775 24.1983C11.1775 24.2204 11.3917 25.6208 12.5068 26.0088C12.6988 26.0753 12.8022 26.2859 12.7321 26.4781C12.6804 26.6296 12.5364 26.7256 12.385 26.7256Z" fill="#153C4A"/>
<path d="M29.3926 49.5233L28.1704 49.5714L28.3956 44.7384C28.979 44.6423 29.5587 44.4797 30.12 44.2211C33.5429 42.6655 35.0568 38.6269 33.5023 35.198L32.4167 32.8074C33.0555 32.4268 33.3288 31.625 33.0186 30.9303C32.7047 30.2283 31.9145 29.8958 31.2019 30.1285L30.8917 29.445C29.3372 26.0198 25.3013 24.5048 21.8747 26.0604C18.9872 27.3721 17.4585 30.4537 17.9828 33.4392C16.7311 33.7459 15.8338 34.9061 15.9003 36.24C15.9594 37.4039 16.7348 38.3609 17.7761 38.7082L17.1483 52.2096L14.5488 54.1753C15.2762 56.6583 17.3883 59.0822 20.4125 60.5417C25.2201 62.8621 30.504 61.8645 32.2136 58.3173C33.5503 55.5424 32.2986 52.0322 29.3926 49.5233Z" fill="white"/>
<path d="M25.6548 62.1602C23.9156 62.1602 22.0509 61.7464 20.2527 60.8781C17.2433 59.4259 14.9762 56.9614 14.1934 54.2826C14.149 54.1348 14.2007 53.9759 14.3263 53.8835L16.7892 52.0213L17.3984 38.9596C16.3165 38.4903 15.5965 37.4594 15.5337 36.2623C15.4636 34.8915 16.3055 33.6463 17.572 33.1807C17.1695 30.0695 18.8422 27.036 21.7223 25.7243C23.4689 24.9299 25.4185 24.8634 27.213 25.5395C29.0076 26.212 30.4329 27.5459 31.2267 29.2936L31.4114 29.7037C32.2163 29.5892 33.0139 30.0141 33.3573 30.779C33.6933 31.5327 33.4828 32.4011 32.8773 32.9294L33.8373 35.043C34.6312 36.7907 34.6977 38.7416 34.0219 40.5373C33.3499 42.3331 32.0169 43.7593 30.2704 44.5538C29.7941 44.7718 29.2845 44.9343 28.7491 45.0452L28.5571 49.1835L29.3768 49.154C29.4691 49.154 29.5614 49.1835 29.6316 49.2427C32.7407 51.9289 33.9112 55.6386 32.545 58.48C31.3966 60.8596 28.7306 62.1602 25.6548 62.1602ZM14.9762 54.3158C15.7664 56.7028 17.8378 58.8939 20.5703 60.213C25.1859 62.441 30.2593 61.5173 31.8766 58.1586C33.0804 55.6571 32.028 52.3538 29.255 49.8967L28.1805 49.9373C28.0808 49.9373 27.9774 49.9004 27.9035 49.8265C27.8297 49.7526 27.7927 49.6528 27.7964 49.5493L28.0217 44.7163C28.0291 44.5427 28.1583 44.3986 28.3318 44.369C28.9116 44.2729 29.458 44.1104 29.9639 43.8813C31.5295 43.1681 32.7259 41.8897 33.3278 40.2787C33.9333 38.6677 33.8742 36.9163 33.1616 35.3496L32.076 32.959C31.9985 32.789 32.0612 32.5858 32.2237 32.4897C32.7111 32.2015 32.9068 31.5956 32.6779 31.082C32.4453 30.561 31.8582 30.3023 31.3117 30.4834C31.1307 30.5425 30.9387 30.4575 30.8612 30.2839L30.551 29.6003C29.8384 28.0336 28.5608 26.8365 26.9509 26.2342C25.3409 25.6282 23.5907 25.6873 22.0251 26.4005C19.3481 27.6161 17.8378 30.4871 18.3437 33.3802C18.3769 33.5724 18.2588 33.7571 18.0668 33.8014C16.9664 34.0712 16.2094 35.091 16.2648 36.2253C16.3128 37.2119 16.9516 38.0469 17.8895 38.361C18.0483 38.4127 18.148 38.5642 18.1406 38.7305L17.5129 52.2319C17.5092 52.3427 17.4538 52.4425 17.3652 52.509L14.9725 54.3195L14.9762 54.3158Z" fill="#153C4A"/>
<path d="M19.1017 37.2045C18.9245 37.2045 18.7694 37.0788 18.7399 36.8978C18.5885 36.0258 17.7724 35.8373 17.7392 35.83C17.5398 35.7856 17.4143 35.5898 17.4549 35.3939C17.4955 35.1944 17.6912 35.0688 17.8869 35.1094C17.9423 35.1205 19.2236 35.3976 19.4673 36.7722C19.5042 36.9717 19.3676 37.1638 19.1682 37.2008C19.146 37.2045 19.1239 37.2082 19.1054 37.2082L19.1017 37.2045Z" fill="#153C4A"/>
<path d="M30.2556 34.8841C29.794 34.8841 29.2438 34.703 28.6604 34.1747C28.509 34.038 28.498 33.8052 28.6346 33.6537C28.7712 33.5022 29.0038 33.4911 29.1552 33.6278C30.1891 34.57 30.8575 33.9419 30.887 33.9123C31.0347 33.7682 31.2673 33.7719 31.4076 33.9197C31.5516 34.0675 31.5479 34.3003 31.4003 34.4407C31.1824 34.6513 30.7725 34.8804 30.2482 34.8804L30.2556 34.8841Z" fill="#153C4A"/>
<path d="M29.5652 30.7088C29.6649 31.0783 29.5024 31.4441 29.1997 31.5254C28.8969 31.6104 28.5682 31.3776 28.4649 31.0118C28.3652 30.6423 28.5276 30.2765 28.8341 30.1953C29.1369 30.1103 29.4655 30.343 29.5689 30.7088H29.5652Z" fill="#153C4A"/>
<path d="M28.2654 28.6286C28.4279 28.8059 28.162 29.3085 27.6709 29.7555C27.1798 30.2026 26.6555 30.4206 26.493 30.2433C26.3306 30.0659 26.5964 29.5634 27.0875 29.1163C27.5749 28.6692 28.1029 28.4512 28.2654 28.6286Z" fill="#153C4A"/>
<path d="M19.7954 27.0544C16.93 27.8414 15.0099 30.6016 15.3275 33.6093C16.0475 33.9529 16.882 34.097 17.7461 33.9714C19.9874 33.6536 21.5604 31.662 21.2576 29.5263C21.1136 28.5102 20.5671 27.6419 19.7954 27.0507V27.0544Z" fill="#153C4A"/>
<path d="M27.4507 45.1044C24.6739 45.1044 22.0707 43.4675 20.9002 40.8921C20.8153 40.7074 20.9002 40.4857 21.0848 40.4044C21.2695 40.3194 21.4873 40.4044 21.5723 40.5891C22.7428 43.1682 25.5195 44.6979 28.3184 44.3063C28.5178 44.2767 28.7061 44.4208 28.7357 44.6203C28.7652 44.8236 28.6212 45.0083 28.4218 45.0379C28.0969 45.0822 27.7719 45.1044 27.4507 45.1044Z" fill="#153C4A"/>
</g>
<defs>
<linearGradient id="paint0_linear_1_2198" x1="57.6738" y1="31.3766" x2="73.7461" y2="53.8497" gradientUnits="userSpaceOnUse">
<stop stop-color="#F39025"/>
<stop offset="1" stop-color="#53D1FF"/>
</linearGradient>
<clipPath id="clip0_1_2198">
<rect width="95" height="86" fill="white"/>
</clipPath>
</defs>
</svg>
