<svg width="168" height="114" viewBox="0 0 168 114" fill="none" xmlns="http://www.w3.org/2000/svg">
<g clip-path="url(#clip0_1_1963)">
<path d="M129.172 29.3072L108.471 0C108.471 0 103.78 0.442586 104.118 2.9449C104.455 5.44722 108.025 19.0085 108.025 19.0085C108.025 19.0085 129.509 31.8151 129.172 29.3072Z" fill="url(#paint0_linear_1_1963)"/>
<path d="M75.1672 24.836C75.0356 21.823 103.842 15.9275 103.842 15.9275C103.842 15.9275 114.653 18.1007 118.669 20.5349C122.69 22.9691 126.419 25.341 129.165 29.3072C131.911 33.2735 139.238 42.5337 139.238 42.5337L101.52 31.1683L89.0556 29.5285C89.0556 29.5285 75.4074 30.3456 75.1672 24.8303V24.836Z" fill="url(#paint1_linear_1_1963)"/>
<path d="M122.142 22.9577C122.331 22.9577 122.52 22.8613 122.629 22.691C122.794 22.4243 122.714 22.0725 122.446 21.908C116.622 18.2992 107.751 16.0182 107.379 15.9217C107.07 15.8423 106.761 16.0295 106.681 16.3303C106.601 16.631 106.79 16.9431 107.093 17.0225C107.184 17.0452 116.171 19.3546 121.839 22.8669C121.936 22.9237 122.039 22.952 122.142 22.952V22.9577Z" fill="#153C4A"/>
<path d="M74.905 37.8184L96.6129 23.5592C99.839 21.437 103.912 21.0285 107.498 22.4754C111.708 24.1777 117.949 26.9183 125.448 30.8846C128.989 32.757 131.975 34.8792 134.457 37.0127C141.911 43.4132 144.879 49.8931 144.879 49.8931L168 55.8793V97.9591C156.051 94.6056 126.243 84.1027 114.677 78.4683C101.767 72.1756 95.5375 63.4714 91.1845 58.5292C86.8315 53.587 78.2513 51.0166 77.3132 47.1638C76.8899 45.4161 78.44 44.3664 80.6194 43.8274C75.1796 44.6331 74.8993 37.8127 74.8993 37.8127L74.905 37.8184ZM88.8163 43.7309C92.5916 44.5934 104.472 50.0463 106.371 51.0847C108.27 52.123 114.7 56.0269 113.63 48.8036C112.561 41.5804 100.766 37.0637 100.766 37.0637C100.766 37.0637 84.9209 42.7209 81.4946 43.6458C83.9771 43.2032 86.9802 43.311 88.8163 43.7309Z" fill="url(#paint2_linear_1_1963)"/>
<path d="M87.2548 29.9881C87.3634 29.9881 87.4721 29.9597 87.5694 29.8916C93.8386 25.7494 101.303 21.4995 102.425 21.857C104.272 22.7308 119.448 28.6149 120.094 28.8646C120.386 28.9781 120.717 28.8362 120.838 28.5411C120.952 28.2518 120.809 27.9227 120.512 27.8035C120.351 27.7411 104.73 21.6867 102.911 20.8243C100.966 19.905 91.093 26.192 86.9344 28.9383C86.6713 29.1142 86.6027 29.466 86.7743 29.727C86.883 29.8916 87.066 29.9824 87.2491 29.9824L87.2548 29.9881Z" fill="#153C4A"/>
<path d="M91.5268 83.246L34.5315 83.246C31.7451 83.246 29.4863 81.0053 29.4863 78.2413L29.4863 43.0274C29.4863 40.2634 31.7451 38.0227 34.5315 38.0227L91.5268 38.0227C94.3131 38.0227 96.5719 40.2634 96.5719 43.0274V78.2413C96.5719 81.0053 94.3131 83.246 91.5268 83.246Z" fill="white"/>
<path d="M34.5325 83.8077H91.5335C94.6281 83.8077 97.1506 81.311 97.1506 78.2356V43.016C97.1506 39.9463 94.6338 37.4439 91.5335 37.4439H34.5325C31.4379 37.4439 28.9153 39.9406 28.9153 43.016V78.2356C28.9153 81.3054 31.4321 83.8077 34.5325 83.8077ZM91.5335 38.5845C93.9989 38.5845 96.0066 40.5761 96.0066 43.0217V78.2413C96.0066 80.6869 93.9989 82.6785 91.5335 82.6785H34.5325C32.0671 82.6785 30.0593 80.6869 30.0593 78.2413V43.0217C30.0593 40.5761 32.0671 38.5845 34.5325 38.5845H91.5335Z" fill="#153C4A"/>
<path d="M35.9333 45.8191C37.2547 45.8191 38.3301 44.7523 38.3301 43.4416C38.3301 42.1308 37.2547 41.0641 35.9333 41.0641C34.612 41.0641 33.5366 42.1308 33.5366 43.4416C33.5366 44.7523 34.612 45.8191 35.9333 45.8191ZM35.9333 42.2046C36.6255 42.2046 37.1861 42.7607 37.1861 43.4472C37.1861 44.1338 36.6255 44.6899 35.9333 44.6899C35.2412 44.6899 34.6806 44.1338 34.6806 43.4472C34.6806 42.7607 35.2412 42.2046 35.9333 42.2046Z" fill="#153C4A"/>
<path d="M42.072 45.8191C43.3934 45.8191 44.4688 44.7523 44.4688 43.4416C44.4688 42.1308 43.3934 41.0641 42.072 41.0641C40.7507 41.0641 39.6753 42.1308 39.6753 43.4416C39.6753 44.7523 40.7507 45.8191 42.072 45.8191ZM42.072 42.2046C42.7642 42.2046 43.3247 42.7607 43.3247 43.4472C43.3247 44.1338 42.7642 44.6899 42.072 44.6899C41.3799 44.6899 40.8193 44.1338 40.8193 43.4472C40.8193 42.7607 41.3799 42.2046 42.072 42.2046Z" fill="#153C4A"/>
<path d="M48.2087 45.8191C49.5301 45.8191 50.6055 44.7523 50.6055 43.4416C50.6055 42.1308 49.5301 41.0641 48.2087 41.0641C46.8874 41.0641 45.812 42.1308 45.812 43.4416C45.812 44.7523 46.8874 45.8191 48.2087 45.8191ZM48.2087 42.2046C48.9009 42.2046 49.4614 42.7607 49.4614 43.4472C49.4614 44.1338 48.9009 44.6899 48.2087 44.6899C47.5166 44.6899 46.956 44.1338 46.956 43.4472C46.956 42.7607 47.5166 42.2046 48.2087 42.2046Z" fill="#153C4A"/>
<path d="M20.0725 98.3336L77.0735 98.3336C79.8592 98.3336 82.1187 96.0923 82.1187 93.329V58.1093C82.1187 55.346 79.8592 53.1047 77.0735 53.1047L20.0725 53.1047C17.2868 53.1047 15.0273 55.346 15.0273 58.1093L15.0273 93.329C15.0273 96.0923 17.2868 98.3336 20.0725 98.3336Z" fill="white"/>
<path d="M20.0771 98.9067H77.0782C80.1727 98.9067 82.6953 96.4101 82.6953 93.3347V58.115C82.6953 55.0453 80.1785 52.543 77.0782 52.543H20.0771C16.9825 52.543 14.46 55.0396 14.46 58.115V93.3347C14.46 96.4044 16.9768 98.9067 20.0771 98.9067ZM77.0782 53.6835C79.5435 53.6835 81.5513 55.6751 81.5513 58.1207V93.3403C81.5513 95.7859 79.5435 97.7776 77.0782 97.7776H20.0771C17.6118 97.7776 15.604 95.7859 15.604 93.3403V58.1207C15.604 55.6751 17.6118 53.6835 20.0771 53.6835H77.0782Z" fill="#153C4A"/>
<path d="M21.4783 60.918C22.7996 60.918 23.875 59.8513 23.875 58.5406C23.875 57.2298 22.7996 56.1631 21.4783 56.1631C20.1569 56.1631 19.0815 57.2298 19.0815 58.5406C19.0815 59.8513 20.1569 60.918 21.4783 60.918ZM21.4783 57.2979C22.1704 57.2979 22.731 57.854 22.731 58.5406C22.731 59.2271 22.1704 59.7832 21.4783 59.7832C20.7861 59.7832 20.2256 59.2271 20.2256 58.5406C20.2256 57.854 20.7861 57.2979 21.4783 57.2979Z" fill="#153C4A"/>
<path d="M27.6167 60.918C28.938 60.918 30.0134 59.8513 30.0134 58.5405C30.0134 57.2298 28.938 56.1631 27.6167 56.1631C26.2953 56.1631 25.22 57.2298 25.22 58.5405C25.22 59.8513 26.2953 60.918 27.6167 60.918ZM27.6167 57.2979C28.3088 57.2979 28.8694 57.854 28.8694 58.5405C28.8694 59.2271 28.3088 59.7832 27.6167 59.7832C26.9246 59.7832 26.364 59.2271 26.364 58.5405C26.364 57.854 26.9246 57.2979 27.6167 57.2979Z" fill="#153C4A"/>
<path d="M33.7478 60.918C35.0691 60.918 36.1445 59.8513 36.1445 58.5406C36.1445 57.2298 35.0691 56.1631 33.7478 56.1631C32.4265 56.1631 31.3511 57.2298 31.3511 58.5406C31.3511 59.8513 32.4265 60.918 33.7478 60.918ZM33.7478 57.2979C34.4399 57.2979 35.0005 57.854 35.0005 58.5406C35.0005 59.2271 34.4399 59.7832 33.7478 59.7832C33.0557 59.7832 32.4951 59.2271 32.4951 58.5406C32.4951 57.854 33.0557 57.2979 33.7478 57.2979Z" fill="#153C4A"/>
<path d="M5.61741 113.433L62.6184 113.433C65.4041 113.433 67.6636 111.191 67.6636 108.428V73.2083C67.6636 70.445 65.4041 68.2037 62.6184 68.2037H5.61741C2.83171 68.2037 0.572266 70.445 0.572266 73.2083L0.572266 108.428C0.572266 111.191 2.83171 113.433 5.61741 113.433Z" fill="white"/>
<path d="M5.61619 114H62.6172C65.7118 114 68.2344 111.503 68.2344 108.428V73.2083C68.2344 70.1385 65.7175 67.6362 62.6172 67.6362H5.61619C2.52161 67.6362 -0.000968933 70.1329 -0.000968933 73.2083V108.428C-0.000968933 111.498 2.51588 114 5.61619 114ZM62.6172 68.7767C65.0826 68.7767 67.0904 70.7684 67.0904 73.214V108.434C67.0904 110.879 65.0826 112.871 62.6172 112.871H5.61619C3.15082 112.871 1.14305 110.879 1.14305 108.434V73.214C1.14305 70.7684 3.15082 68.7767 5.61619 68.7767H62.6172Z" fill="#153C4A"/>
<path d="M7.01928 76.0113C8.34063 76.0113 9.41602 74.9446 9.41602 73.6338C9.41602 72.3231 8.34063 71.2563 7.01928 71.2563C5.69793 71.2563 4.62255 72.3231 4.62255 73.6338C4.62255 74.9446 5.69793 76.0113 7.01928 76.0113ZM7.01928 72.3912C7.71142 72.3912 8.27199 72.9473 8.27199 73.6338C8.27199 74.3204 7.71142 74.8765 7.01928 74.8765C6.32715 74.8765 5.76657 74.3204 5.76657 73.6338C5.76657 72.9473 6.32715 72.3912 7.01928 72.3912Z" fill="#153C4A"/>
<path d="M13.156 76.0113C14.4773 76.0113 15.5527 74.9446 15.5527 73.6338C15.5527 72.3231 14.4773 71.2563 13.156 71.2563C11.8347 71.2563 10.7593 72.3231 10.7593 73.6338C10.7593 74.9446 11.8347 76.0113 13.156 76.0113ZM13.156 72.3912C13.8481 72.3912 14.4087 72.9473 14.4087 73.6338C14.4087 74.3204 13.8481 74.8765 13.156 74.8765C12.4639 74.8765 11.9033 74.3204 11.9033 73.6338C11.9033 72.9473 12.4639 72.3912 13.156 72.3912Z" fill="#153C4A"/>
<path d="M19.2947 76.0113C20.616 76.0113 21.6914 74.9446 21.6914 73.6338C21.6914 72.3231 20.616 71.2563 19.2947 71.2563C17.9733 71.2563 16.8979 72.3231 16.8979 73.6338C16.8979 74.9446 17.9733 76.0113 19.2947 76.0113ZM19.2947 72.3912C19.9868 72.3912 20.5474 72.9473 20.5474 73.6338C20.5474 74.3204 19.9868 74.8765 19.2947 74.8765C18.6025 74.8765 18.042 74.3204 18.042 73.6338C18.042 72.9473 18.6025 72.3912 19.2947 72.3912Z" fill="#153C4A"/>
<path d="M81.4937 43.6458C83.9763 43.2033 86.9793 43.3111 88.8155 43.731C90.9605 44.2246 95.7311 46.1992 99.7981 48.0036C102.344 52.4011 103.276 57.9334 101.977 63.5282C101.571 65.2758 100.971 66.9213 100.21 68.4477C96.2459 64.7027 93.4545 61.1053 91.1836 58.5292C86.8306 53.587 78.2504 51.0166 77.3123 47.1638C76.889 45.4162 78.4392 44.3665 80.6186 43.8274C77.993 44.2133 83.0668 43.2203 81.4937 43.6402V43.6458Z" fill="url(#paint3_linear_1_1963)"/>
<path d="M38.6505 93.5049C38.6505 99.7465 43.7528 104.808 50.045 104.808C56.3371 104.808 61.4395 99.7465 61.4395 93.5049C61.4395 87.2633 56.3371 82.2019 50.045 82.2019C43.7528 82.2019 38.6505 87.2633 38.6505 93.5049Z" fill="#153C4A"/>
<path d="M44.8694 98.9804V97.6129C44.8694 96.0979 46.1049 94.8723 47.6322 94.8723H52.4657C53.993 94.8723 55.2285 96.0979 55.2285 97.6129V98.9804H44.8694Z" fill="white"/>
<path d="M47.6315 90.4181C47.6315 89.096 48.7126 88.0236 50.0511 88.0236C51.3896 88.0236 52.465 89.096 52.465 90.4181C52.465 91.7402 51.3839 92.8126 50.0511 92.8126C48.7183 92.8126 47.6315 91.7402 47.6315 90.4181Z" fill="white"/>
<path d="M12.5278 89.7996H30.0256C30.3403 89.7996 30.5977 89.5443 30.5977 89.2322C30.5977 88.9201 30.3403 88.6648 30.0256 88.6648H12.5278C12.2132 88.6648 11.9558 88.9201 11.9558 89.2322C11.9558 89.5443 12.2132 89.7996 12.5278 89.7996Z" fill="#153C4A"/>
<path d="M12.5278 94.0722H30.0256C30.3403 94.0722 30.5977 93.8169 30.5977 93.5048C30.5977 93.1927 30.3403 92.9374 30.0256 92.9374H12.5278C12.2132 92.9374 11.9558 93.1927 11.9558 93.5048C11.9558 93.8169 12.2132 94.0722 12.5278 94.0722Z" fill="#153C4A"/>
<path d="M12.5278 98.3507H30.0256C30.3403 98.3507 30.5977 98.0953 30.5977 97.7832C30.5977 97.4712 30.3403 97.2158 30.0256 97.2158H12.5278C12.2132 97.2158 11.9558 97.4712 11.9558 97.7832C11.9558 98.0953 12.2132 98.3507 12.5278 98.3507Z" fill="#153C4A"/>
</g>
<defs>
<linearGradient id="paint0_linear_1_1963" x1="129.176" y1="7.40817" x2="109.418" y2="22.9012" gradientUnits="userSpaceOnUse">
<stop stop-color="#F39025"/>
<stop offset="1" stop-color="#53D1FF"/>
</linearGradient>
<linearGradient id="paint1_linear_1_1963" x1="139.238" y1="22.579" x2="125.605" y2="53.003" gradientUnits="userSpaceOnUse">
<stop stop-color="#F39025"/>
<stop offset="1" stop-color="#53D1FF"/>
</linearGradient>
<linearGradient id="paint2_linear_1_1963" x1="168" y1="40.7052" x2="115.979" y2="99.4963" gradientUnits="userSpaceOnUse">
<stop stop-color="#F39025"/>
<stop offset="1" stop-color="#53D1FF"/>
</linearGradient>
<linearGradient id="paint3_linear_1_1963" x1="102.561" y1="49.6326" x2="85.3756" y2="65.7042" gradientUnits="userSpaceOnUse">
<stop stop-color="#F39025"/>
<stop offset="1" stop-color="#53D1FF"/>
</linearGradient>
<clipPath id="clip0_1_1963">
<rect width="168" height="114" fill="white" transform="matrix(-1 0 0 1 168 0)"/>
</clipPath>
</defs>
</svg>
