<svg width="103" height="81" viewBox="0 0 103 81" fill="none" xmlns="http://www.w3.org/2000/svg">
<path d="M38.5028 11.5696C43.0024 4.17707 50.173 1.46035 55.4549 1.51321C65.4374 1.61539 70.152 6.19963 79.2923 6.97483C83.3092 7.31662 86.6743 6.98187 89.317 6.43219C96.2304 17.9791 94.9654 33.1483 85.2683 43.4126C81.3536 47.5529 76.5615 50.3648 71.4557 51.8412C70.751 51.9222 70.0322 51.9927 69.2922 52.0455C69.2922 52.0455 62.0336 37.2639 47.8439 29.8009C46.0786 28.8742 43.7741 28.2223 42.0088 27.8171C40.0778 27.3731 38.5098 25.9566 37.8861 24.075C36.8326 20.8861 35.3562 16.7353 38.5028 11.5661V11.5696Z" fill="#153C4A"/>
<path d="M46.1114 4.69862C52.7253 -0.960329 60.5689 -0.7771 65.738 1.44278C75.5055 5.6359 78.7755 12.2216 87.5176 16.7494C91.3618 18.7403 94.7621 19.7833 97.5176 20.3083C100.876 34.8538 95.1286 49.727 82.5634 56.1647C77.4929 58.7616 71.9537 59.6496 66.5027 59.0576C65.7874 58.8532 65.0615 58.6277 64.318 58.3811C64.318 58.3811 61.5837 40.4106 49.8676 27.0243C48.4124 25.3612 46.3405 23.7544 44.7267 22.6198C42.9613 21.3795 41.8443 19.3005 41.7915 17.137C41.7034 13.4724 41.4884 8.65212 46.1079 4.69862H46.1114Z" fill="#153C4A"/>
<path d="M30.2715 79.2409L46.1419 58.8744C49.5034 54.5579 54.3343 51.6262 59.7149 50.6361L77.3577 47.3803C83.5522 46.2386 89.8349 48.8954 93.3268 54.1351C96.491 58.8814 98.7813 64.1598 100.089 69.713L102.33 79.2374H30.2715V79.2409Z" fill="white"/>
<path d="M102.334 79.5932C102.176 79.5932 102.031 79.484 101.993 79.3219L99.7515 69.7976C98.4513 64.2655 96.1926 59.0611 93.039 54.3324C89.6176 49.202 83.49 46.6086 77.4258 47.7291L59.783 50.9849C54.4835 51.9645 49.7372 54.8433 46.425 59.0963L30.5545 79.4629C30.4347 79.6179 30.2127 79.6426 30.0612 79.5228C29.9062 79.403 29.8815 79.181 30.0013 79.0294L45.8717 58.6629C49.2897 54.276 54.1875 51.302 59.6597 50.2943L77.3025 47.0384C83.6415 45.8686 90.0545 48.5783 93.631 53.9448C96.8304 58.7439 99.1208 64.0223 100.442 69.639L102.683 79.1633C102.729 79.3536 102.609 79.5439 102.422 79.5862C102.394 79.5932 102.37 79.5968 102.341 79.5968L102.334 79.5932Z" fill="#153C4A"/>
<path d="M77.3581 47.3803L73.9296 48.0146L66.9211 15.4246L54.0106 18.2012L60.938 50.4106L59.7188 50.6362C54.3383 51.6298 49.5109 54.5615 46.1458 58.8744L42.9922 62.923C47.1994 66.4819 57.1959 65.7384 67.1326 60.7631C74.5392 57.0562 80.0854 51.9117 82.2947 47.257C80.6809 47.0421 79.0213 47.0738 77.3652 47.3803H77.3581Z" fill="white"/>
<path d="M50.7788 65.4672C47.3926 65.4672 44.5701 64.7237 42.759 63.1909C42.6145 63.0676 42.5934 62.8526 42.7097 62.7046L45.8668 58.656C49.2883 54.2691 54.1826 51.2951 59.6548 50.2874L60.5181 50.1288L53.6681 18.2752C53.647 18.1836 53.6681 18.0885 53.7175 18.011C53.7668 17.9334 53.8478 17.8771 53.9395 17.8559L66.85 15.0793C67.0403 15.0405 67.2271 15.1603 67.2693 15.3506L74.2038 47.6059L77.2976 47.0351C78.9607 46.7285 80.6556 46.6862 82.3364 46.9082C82.4491 46.9223 82.5443 46.9893 82.6006 47.0879C82.6535 47.1866 82.657 47.3064 82.6077 47.4086C80.2715 52.3381 74.5421 57.4474 67.287 61.0802C61.5188 63.9661 55.5815 65.4672 50.7788 65.4672ZM43.4778 62.8667C47.7943 66.1402 57.5688 65.1536 66.9698 60.4495C73.8726 56.9964 79.3519 52.2042 81.7514 47.5495C80.3032 47.405 78.8515 47.4649 77.4244 47.7257L73.9959 48.3599C73.8092 48.3952 73.626 48.2754 73.5872 48.0886L66.6527 15.8439L54.4292 18.4725L61.2827 50.3367C61.3038 50.4283 61.2827 50.527 61.2298 50.608C61.177 50.6855 61.0959 50.7419 61.0008 50.7595L59.7816 50.9851C54.4821 51.9646 49.7358 54.8434 46.4236 59.0964L43.4813 62.8702L43.4778 62.8667Z" fill="#153C4A"/>
<path d="M37.6208 79.9456L29.4601 64.7024L30.4115 57.0068H17.2578L21.8174 79.9456H37.6208Z" fill="white"/>
<path d="M37.6252 80.2981C37.4983 80.2981 37.3785 80.2311 37.3151 80.1113L29.1544 64.8681C29.1191 64.8047 29.105 64.7307 29.1156 64.6602L30.0176 57.3628H17.692L22.167 79.8788C22.2058 80.0691 22.0824 80.2558 21.8886 80.2946C21.6984 80.3333 21.5116 80.21 21.4728 80.0162L16.9133 57.0809C16.8921 56.9787 16.9203 56.8695 16.9873 56.7885C17.0542 56.7074 17.1529 56.6581 17.2586 56.6581H30.4123C30.5145 56.6581 30.6096 56.7004 30.6766 56.7779C30.7435 56.8519 30.7752 56.9541 30.7611 57.0527L29.8238 64.6356L37.9317 79.7801C38.0233 79.9528 37.9599 80.1642 37.7872 80.2558C37.7344 80.284 37.678 80.2981 37.6216 80.2981H37.6252Z" fill="#153C4A"/>
<path d="M12.4865 26.4499C16.1511 26.3689 24.4668 26.2949 27.3879 26.2455C28.1067 26.235 28.7445 26.693 28.963 27.3801L37.7967 57.6587C38.1315 58.7087 37.3492 59.7834 36.2463 59.7834H20.9714C20.242 59.7834 19.6007 59.2972 19.4034 58.596L10.9608 28.5218C10.6718 27.4964 11.4224 26.4781 12.4865 26.4534V26.4499Z" fill="url(#paint0_linear_1_2120)"/>
<path d="M20.2371 62.2042L21.4704 60.0125L21.5866 55.6291L29.7509 50.3225C30.4168 49.8891 30.8432 49.1668 30.8961 48.3704L30.9031 48.24C30.963 47.338 30.0151 46.7178 29.2188 47.1442C27.1434 48.2541 23.8594 50.0159 22.4675 50.8229C23.8558 49.7975 27.1187 47.1442 29.0955 45.5304C30.0927 44.7129 30.5754 43.4373 30.3781 42.1618V42.1371C30.2583 41.3831 29.3985 41.006 28.7643 41.4289L19.3985 47.6727L27.8305 39.653C28.4401 39.0751 28.5986 38.166 28.2216 37.4155L28.0243 37.0173C27.7354 36.4359 26.9954 36.2527 26.4633 36.6262L16.34 43.8003L16.4562 39.4873L19.92 36.5064C20.8185 35.7312 21.1462 34.4803 20.7374 33.3668C20.5295 32.7925 19.8319 32.581 19.3421 32.9369L14.2046 36.6896C13.3378 37.3238 12.8269 38.3316 12.8269 39.4028V46.2879L12.7529 51.4148C12.7282 53.1907 13.1863 54.942 14.0813 56.4748L18.8629 64.6601L20.2441 62.2006L20.2371 62.2042Z" fill="white"/>
<path d="M18.8561 65.0126C18.7363 65.0126 18.6165 64.9492 18.5531 64.8364L13.7715 56.651C12.8448 55.0619 12.3656 53.2472 12.3938 51.4079L12.4678 46.281V39.4029C12.4678 38.2225 13.0386 37.1019 13.99 36.4043L19.1274 32.6516C19.4516 32.4155 19.8568 32.345 20.2409 32.4613C20.6249 32.5776 20.9245 32.8595 21.0619 33.2365C21.5199 34.4874 21.15 35.9039 20.1457 36.7707L16.8018 39.6495L16.7067 43.1027L26.2522 36.3373C26.5904 36.0977 27.0098 36.0202 27.4115 36.1189C27.8131 36.2175 28.1479 36.4888 28.3311 36.8588L28.5284 37.257C28.9759 38.152 28.7892 39.2196 28.0633 39.9103L22.5876 45.1182L28.5602 41.1365C28.9583 40.8722 29.4587 40.8264 29.8956 41.0202C30.3325 41.214 30.6391 41.6087 30.7131 42.0844C30.9351 43.5008 30.396 44.9173 29.3107 45.8053C28.4403 46.5171 27.2458 47.4896 26.0795 48.4304C27.1613 47.8455 28.2395 47.2676 29.0499 46.8377C29.5362 46.577 30.1035 46.6016 30.5651 46.9012C31.0302 47.2042 31.2874 47.7151 31.2522 48.2718L31.2452 48.4022C31.1853 49.3043 30.699 50.1323 29.9414 50.6256L21.9322 55.83L21.823 60.0267C21.823 60.083 21.8054 60.1394 21.7772 60.1887L20.5439 62.3804C20.4488 62.5496 20.2338 62.6095 20.0647 62.5143C19.8956 62.4192 19.8357 62.2043 19.9308 62.0351L21.1218 59.9174L21.2345 55.6221C21.2345 55.5058 21.298 55.4001 21.3931 55.3367L29.5573 50.0301C30.1282 49.6601 30.4981 49.0294 30.5404 48.3494L30.5475 48.219C30.5686 47.923 30.4312 47.6482 30.181 47.4896C29.9379 47.331 29.6349 47.3205 29.3776 47.4579C27.4678 48.4762 24.0499 50.312 22.6369 51.1295C22.4748 51.2211 22.267 51.1753 22.1648 51.0167C22.0626 50.8617 22.1013 50.6503 22.2493 50.5411C23.6517 49.5051 26.9957 46.7884 28.8632 45.2591C29.7547 44.5297 30.1986 43.3634 30.0189 42.2182C29.9767 41.954 29.8287 41.7637 29.6102 41.665C29.3917 41.5699 29.1486 41.591 28.9478 41.7214L19.582 47.9653C19.4304 48.0675 19.2261 48.0358 19.1098 47.8913C18.997 47.7468 19.0111 47.5424 19.1415 47.4156L27.5735 39.3958C28.0739 38.9201 28.2007 38.1872 27.8942 37.5706L27.6969 37.1724C27.6052 36.9892 27.4361 36.8518 27.2353 36.8024C27.0344 36.7531 26.823 36.7919 26.6539 36.9117L16.5305 44.0858C16.4213 44.1633 16.2768 44.1703 16.1605 44.1104C16.0442 44.047 15.9702 43.9237 15.9738 43.7898L16.09 39.4769C16.09 39.3782 16.1358 39.2831 16.2134 39.2196L19.6771 36.2387C20.4593 35.5656 20.7483 34.4592 20.3959 33.4867C20.3325 33.314 20.2021 33.1907 20.0295 33.1379C19.8603 33.085 19.6771 33.1167 19.5361 33.2224L14.3987 36.9751C13.627 37.5389 13.1654 38.448 13.1654 39.4029V46.288L13.0914 51.4184C13.0668 53.1309 13.5107 54.8187 14.374 56.2987L19.1556 64.484C19.2543 64.6532 19.1979 64.8681 19.0287 64.9668C18.9724 64.9985 18.9125 65.0161 18.8526 65.0161L18.8561 65.0126Z" fill="#153C4A"/>
<path d="M16.7658 49.9244C16.6566 49.9244 16.5509 49.8751 16.4839 49.7835C16.3676 49.6285 16.3994 49.4065 16.5579 49.2902L23.7673 43.9519C23.9223 43.8356 24.1443 43.8709 24.2606 44.0259C24.3768 44.1809 24.3451 44.4029 24.1866 44.5192L16.9772 49.8575C16.9138 49.9033 16.8398 49.928 16.7693 49.928L16.7658 49.9244Z" fill="#153C4A"/>
<path d="M19.7828 52.8454C19.663 52.8454 19.5467 52.7855 19.4797 52.6763C19.3775 52.5107 19.4304 52.2922 19.5995 52.1936L27.0767 47.6551C27.2423 47.553 27.4607 47.6058 27.5594 47.7749C27.6616 47.9406 27.6087 48.159 27.4396 48.2577L19.9625 52.7961C19.9061 52.8313 19.8427 52.849 19.7792 52.849L19.7828 52.8454Z" fill="#153C4A"/>
<path d="M12.8965 47.0314C12.819 47.0314 12.7415 47.0067 12.6745 46.9539C12.523 46.8305 12.4983 46.6085 12.6216 46.457L13.4744 45.407C13.8479 44.9489 14.2918 44.5613 14.8028 44.2618L16.3602 43.3457C16.5294 43.247 16.7443 43.3034 16.843 43.4725C16.9416 43.6417 16.8852 43.8566 16.7196 43.9553L15.1622 44.8714C14.7253 45.1286 14.3412 45.4598 14.0241 45.851L13.1713 46.901C13.1009 46.9856 12.9987 47.0314 12.8965 47.0314Z" fill="#153C4A"/>
<path d="M51.9239 7.28845C56.7513 6.76343 61.3461 10.3646 63.8584 15.9883C64.9437 15.0475 66.4095 14.6669 67.7979 15.1109C69.986 15.8156 71.1382 18.3139 70.3736 20.6923C69.6936 22.7995 67.7379 24.0997 65.7753 23.8777C66.3567 32.7502 61.9275 40.3154 55.5814 41.0025C48.9887 41.7178 42.8294 34.7481 41.8182 25.4387C40.8104 16.1292 45.3347 8.00022 51.9274 7.28845H51.9239Z" fill="white"/>
<path d="M54.6376 41.4077C51.6672 41.4077 48.7531 39.9454 46.3395 37.2146C43.6932 34.2195 41.9596 30.051 41.4663 25.4774C40.4374 15.9882 45.1132 7.67247 51.8856 6.93603C56.5932 6.42511 61.3043 9.74789 63.9893 15.4315C65.1556 14.5964 66.5862 14.3497 67.9005 14.7726C70.2719 15.5372 71.5263 18.2398 70.7018 20.798C70.0288 22.884 68.1648 24.2793 66.1422 24.2511C66.5827 33.1835 62.0055 40.6571 55.6101 41.3513C55.2824 41.3865 54.9583 41.4041 54.6341 41.4041L54.6376 41.4077ZM51.9632 7.63724C45.5748 8.33139 41.1809 16.2983 42.1675 25.3998C42.6467 29.8326 44.3169 33.8601 46.868 36.7459C49.3909 39.5965 52.4706 40.9848 55.5396 40.6536C61.6531 39.9912 65.9942 32.6338 65.4199 23.9023C65.4128 23.7966 65.4516 23.6979 65.5291 23.6239C65.6031 23.5535 65.7088 23.5147 65.811 23.5288C67.6398 23.7332 69.4157 22.4964 70.0323 20.583C70.737 18.3949 69.6835 16.0904 67.6856 15.4456C66.4664 15.0545 65.1204 15.354 64.088 16.2525C64.0034 16.3265 63.8906 16.3547 63.7814 16.33C63.6722 16.3054 63.5806 16.2314 63.5348 16.1292C61.0118 10.4808 56.4699 7.14745 51.9596 7.63724H51.9632Z" fill="#153C4A"/>
<path d="M64.9522 19.9171C64.8923 19.9171 64.8324 19.903 64.7761 19.8713C64.6069 19.7727 64.5506 19.5577 64.6457 19.3886C64.6915 19.3075 65.8155 17.4013 67.8522 17.3202C68.053 17.3096 68.2116 17.4647 68.2186 17.6585C68.2257 17.8523 68.0742 18.0179 67.8804 18.0249C66.2278 18.0884 65.2658 19.7233 65.2553 19.7409C65.1883 19.8537 65.0721 19.9171 64.9487 19.9171H64.9522Z" fill="#153C4A"/>
<path d="M47.8995 28.1201C47.5753 28.1201 47.2547 28.0355 46.9728 27.8699C46.5253 27.6091 46.2046 27.1652 46.0989 26.6577L45.4858 23.7367C45.447 23.5464 45.5668 23.3596 45.7571 23.3209C45.9474 23.2821 46.1341 23.4019 46.1729 23.5922L46.786 26.5133C46.853 26.8304 47.0432 27.0982 47.3251 27.2603C47.607 27.4224 47.9312 27.4611 48.2413 27.3625C48.428 27.3026 48.6253 27.4048 48.6852 27.5915C48.7451 27.7783 48.643 27.9756 48.4562 28.0355C48.273 28.0919 48.0862 28.1236 47.8995 28.1236V28.1201Z" fill="#153C4A"/>
<path d="M49.4896 24.0397C49.4685 24.0397 49.4438 24.0397 49.4191 24.0327C49.2289 23.9939 49.1055 23.8142 49.1408 23.6275C49.1831 23.402 49.3804 22.958 49.8631 22.7395C50.5256 22.44 51.4769 22.6549 52.6855 23.3808C52.8511 23.4795 52.9075 23.6979 52.8053 23.8635C52.7067 24.0292 52.4882 24.0855 52.3226 23.9833C51.0224 23.2046 50.4093 23.2681 50.1626 23.3738C49.8913 23.49 49.8349 23.7437 49.8314 23.7578C49.7962 23.9234 49.6482 24.0362 49.4861 24.0362L49.4896 24.0397Z" fill="#153C4A"/>
<path d="M42.6257 25.4527C42.5904 25.4527 42.5552 25.4457 42.5164 25.4351C42.3297 25.3752 42.231 25.1779 42.2909 24.9911C42.4565 24.4767 42.7455 24.1419 43.1507 23.9869C43.8484 23.7226 44.5813 24.1384 44.6623 24.1877C44.8315 24.2864 44.8843 24.5049 44.7856 24.6705C44.687 24.8396 44.472 24.8925 44.3029 24.7938C44.1584 24.7092 43.7215 24.5225 43.3973 24.6493C43.2 24.7233 43.0591 24.9066 42.9639 25.2096C42.9146 25.3576 42.7772 25.4527 42.6292 25.4527H42.6257Z" fill="#153C4A"/>
<path d="M48.666 29.8889C48.518 29.8889 48.3771 29.7938 48.3313 29.6423C48.2714 29.4555 48.3771 29.2582 48.5603 29.2018C49.2333 28.9904 49.6984 28.631 49.9451 28.1412C50.3714 27.292 50.0261 26.2913 50.0261 26.2807C49.9627 26.0975 50.0578 25.8967 50.2411 25.8332C50.4243 25.7698 50.6251 25.8649 50.6886 26.0482C50.7062 26.101 51.1361 27.3343 50.5793 28.4548C50.2446 29.1278 49.635 29.607 48.7717 29.8784C48.7365 29.8889 48.7012 29.896 48.666 29.896V29.8889Z" fill="#153C4A"/>
<path d="M63.8224 16.4534C63.8224 16.4534 57.7053 17.655 52.8956 15.3329C46.8173 12.3977 47.6454 10.6641 46.1091 11.0129C43.1704 11.6824 48.41 5.53018 52.9097 5.91425C57.4094 6.29833 63.4735 9.73034 63.8259 16.4534H63.8224Z" fill="#153C4A"/>
<path d="M57.8342 18.5675C56.5375 18.5675 55.0224 18.3456 53.2641 17.7782C49.7545 16.6472 48.3768 14.1489 47.4677 12.4928C46.7031 11.1045 46.4388 10.7874 45.9138 11.0376C45.7376 11.1221 45.5262 11.0481 45.4451 10.8719C45.3606 10.6958 45.4346 10.4843 45.6107 10.4033C46.8053 9.82895 47.4007 10.9037 48.0879 12.151C48.997 13.8001 50.2408 16.0587 53.4825 17.1052C61.157 19.5788 63.7398 15.3188 63.8455 15.1355C63.9442 14.9664 64.1591 14.91 64.3282 15.0052C64.4974 15.1038 64.5538 15.3152 64.4586 15.4844C64.4375 15.5231 62.6263 18.5605 57.8413 18.5605L57.8342 18.5675Z" fill="#153C4A"/>
<path d="M47.904 18.5465C47.7631 18.9799 48.6229 19.6458 49.8244 20.0334C51.026 20.421 52.1113 20.3823 52.2522 19.9489C52.3931 19.5155 51.5334 18.8495 50.3318 18.4619C49.1303 18.0743 48.045 18.1131 47.904 18.5465Z" fill="#153C4A"/>
<path d="M40.4853 20.2978C40.5805 20.7418 41.479 20.9285 42.4938 20.7101C43.5086 20.4916 44.2521 19.956 44.1534 19.5085C44.0583 19.0645 43.1598 18.8778 42.145 19.0962C41.1302 19.3147 40.3867 19.8503 40.4853 20.2978Z" fill="#153C4A"/>
<path d="M84.6371 79.5968C84.482 79.5968 84.3376 79.4911 84.2953 79.3325L82.537 72.6552C82.4877 72.4685 82.6004 72.2747 82.7872 72.2253C82.9739 72.176 83.1677 72.2888 83.217 72.4755L84.9753 79.1528C85.0247 79.3395 84.9119 79.5333 84.7252 79.5827C84.697 79.5897 84.6652 79.5932 84.6371 79.5932V79.5968Z" fill="#153C4A"/>
<path d="M8.11491 30.3047C7.99511 30.3047 7.87883 30.2448 7.8154 30.1391L5.0564 25.6852L0.440453 26.8974C0.299508 26.9326 0.147992 26.8797 0.0634253 26.7599C-0.0211418 26.6401 -0.0211418 26.478 0.0634253 26.3582L2.53701 22.7677L0.221988 18.0777C0.158563 17.9473 0.179705 17.7923 0.278366 17.6831C0.377028 17.5774 0.528544 17.5386 0.665965 17.5915L5.36648 19.3991L8.52717 15.2165C8.61527 15.1003 8.76678 15.0509 8.90773 15.0897C9.04867 15.132 9.14733 15.2553 9.16143 15.3998L9.58779 20.8825L15.3031 21.6753C15.4652 21.6965 15.592 21.8304 15.6061 21.9925C15.6202 22.1546 15.5216 22.3096 15.363 22.3589L9.03458 24.4202L8.46727 29.9841C8.45318 30.1356 8.34395 30.2589 8.19595 30.2906C8.17129 30.2977 8.1431 30.3012 8.11843 30.3012L8.11491 30.3047ZM5.21849 24.9241C5.33829 24.9241 5.45105 24.984 5.518 25.0897L7.86826 28.8847L8.35452 24.1243C8.36861 23.9868 8.46375 23.867 8.59412 23.8248L13.6858 22.1651L9.20723 21.545C9.04162 21.5238 8.9183 21.3899 8.9042 21.2243L8.52717 16.3829L5.76818 20.0333C5.67304 20.1602 5.50743 20.206 5.35944 20.1496L1.25089 18.571L3.25583 22.6373C3.31221 22.7536 3.30164 22.8875 3.23117 22.9932L1.18041 25.9706L5.12688 24.9347C5.15507 24.9277 5.18678 24.9241 5.21497 24.9241H5.21849Z" fill="url(#paint1_linear_1_2120)"/>
<path d="M21.3472 20.5267L22.1893 22.063L23.7256 22.9052L22.1893 23.7438L21.3472 25.2801L20.505 23.7438L18.9688 22.9052L20.505 22.063L21.3472 20.5267Z" fill="url(#paint2_linear_1_2120)"/>
<defs>
<linearGradient id="paint0_linear_1_2120" x1="10.8984" y1="34.6299" x2="32.9645" y2="51.0772" gradientUnits="userSpaceOnUse">
<stop stop-color="#F39025"/>
<stop offset="1" stop-color="#53D1FF"/>
</linearGradient>
<linearGradient id="paint1_linear_1_2120" x1="3.03856e-06" y1="18.8837" x2="10.4411" y2="28.8001" gradientUnits="userSpaceOnUse">
<stop stop-color="#F39025"/>
<stop offset="1" stop-color="#53D1FF"/>
</linearGradient>
<linearGradient id="paint2_linear_1_2120" x1="18.9688" y1="21.7151" x2="22.223" y2="24.7329" gradientUnits="userSpaceOnUse">
<stop stop-color="#F39025"/>
<stop offset="1" stop-color="#53D1FF"/>
</linearGradient>
</defs>
</svg>
