<svg width="164" height="138" viewBox="0 0 164 138" fill="none" xmlns="http://www.w3.org/2000/svg">
<path d="M58.319 52.7932C72.8092 52.7932 84.5559 41.0465 84.5559 26.5563C84.5559 12.066 72.8092 0.319336 58.319 0.319336C43.8287 0.319336 32.082 12.066 32.082 26.5563C32.082 41.0465 43.8287 52.7932 58.319 52.7932Z" fill="white"/>
<path d="M58.3194 37.9636C64.6195 37.9636 69.7268 32.8563 69.7268 26.5563C69.7268 20.2562 64.6195 15.1489 58.3194 15.1489C52.0193 15.1489 46.9121 20.2562 46.9121 26.5563C46.9121 32.8563 52.0193 37.9636 58.3194 37.9636Z" fill="#D80027"/>
<path d="M4.96198 87.9554L11.0679 81.8135L18.2823 82.0173L18.9714 81.3162C22.6385 77.6011 28.1003 76.2949 33.0497 77.9487C36.2974 79.0332 39.4552 80.3755 42.4902 81.9603L61.0415 91.6435C62.2699 92.2846 62.5395 93.9235 61.5868 94.9271C59.187 97.4468 55.4509 98.1568 52.2931 96.6978L40.369 91.1821L40.4289 94.247C40.5907 102.282 37.6696 110.075 32.2707 116.028L29.8409 118.913C29.8409 118.913 5.13875 100.371 4.95898 87.9554H4.96198Z" fill="white"/>
<path d="M27.7061 119.959C24.5813 120.532 21.6092 118.395 21.1568 115.25L18.8499 99.2029C18.5383 97.0457 19.9405 95.0084 22.0676 94.5291C24.2997 94.0257 26.5227 95.4099 27.056 97.6359L31.1366 114.698C31.7118 117.11 30.1479 119.51 27.7121 119.956L27.7061 119.959Z" fill="white"/>
<path d="M22.3134 115.932L17.1542 115.519C14.1672 115.279 11.8363 112.84 11.7254 109.847L11.0723 91.8321C11.0663 89.651 12.7381 87.8324 14.9102 87.6526C17.1902 87.4639 19.2005 89.1447 19.4162 91.4246L22.3134 115.935V115.932Z" fill="white"/>
<path d="M13.339 106.441L9.49514 106.057C6.88861 105.797 4.88127 103.643 4.80337 101.027L4.24611 82.3409C4.24012 80.1598 5.58833 78.3412 7.344 78.1644C9.18655 77.9787 10.8104 79.6594 10.9872 81.9364L13.342 106.441H13.339Z" fill="white"/>
<path d="M7.71856 101.539L5.5824 101.258C2.53844 100.853 0.267457 98.2558 0.273449 95.1849L0.306406 79.8182C0.36333 77.8768 1.61567 76.2949 3.18558 76.1871C4.8304 76.0732 6.22954 77.6162 6.32242 79.6505L7.72156 101.539H7.71856Z" fill="white"/>
<path d="M21.2982 116.244C21.1664 116.244 21.0466 116.157 21.0106 116.022C20.9447 115.783 20.8938 115.537 20.8578 115.291L18.5509 99.2445C18.2213 96.9465 19.7343 94.7475 21.9993 94.2351C24.3781 93.6988 26.778 95.1909 27.3442 97.5637L31.4248 114.626C31.4637 114.788 31.3649 114.95 31.2031 114.989C31.0413 115.028 30.8795 114.929 30.8436 114.767L26.763 97.7045C26.2716 95.6492 24.1954 94.355 22.1341 94.8223C20.1717 95.2658 18.8595 97.1712 19.1471 99.1606L21.454 115.207C21.487 115.429 21.5319 115.651 21.5918 115.863C21.6368 116.022 21.5409 116.187 21.3821 116.232C21.3552 116.238 21.3282 116.244 21.3012 116.244H21.2982Z" fill="#153C4A"/>
<path d="M11.5914 106.456C11.4296 106.456 11.2978 106.33 11.2918 106.169L10.7735 91.8445C10.7675 89.5136 12.5741 87.5452 14.887 87.3565C17.3198 87.1558 19.4859 88.9684 19.7166 91.3981L20.2289 95.7424C20.2469 95.9071 20.13 96.0569 19.9652 96.0749C19.8035 96.0929 19.6507 95.976 19.6327 95.8113L19.1174 91.4611C18.9166 89.3489 17.0411 87.7789 14.9349 87.9527C12.9306 88.1175 11.3667 89.8222 11.3727 91.8326L11.891 106.145C11.897 106.309 11.7681 106.45 11.6034 106.456C11.6004 106.456 11.5974 106.456 11.5914 106.456Z" fill="#153C4A"/>
<path d="M4.80415 101.324C4.64236 101.324 4.51054 101.195 4.50454 101.033L3.94728 82.347C3.94129 79.9832 5.38837 78.0597 7.31481 77.865C8.15969 77.7811 9.00756 78.0537 9.70264 78.635C10.6044 79.39 11.1827 80.5854 11.2845 81.9126L12.0306 89.6603C12.0455 89.8251 11.9257 89.9719 11.7609 89.9869C11.5961 90.0019 11.4493 89.882 11.4343 89.7172L10.6883 81.9635C10.5985 80.7891 10.0981 79.7465 9.31915 79.0933C8.73792 78.608 8.06681 78.3893 7.37473 78.4582C5.78385 78.62 4.5405 80.3217 4.54649 82.335L5.10375 101.012C5.10974 101.177 4.97792 101.315 4.81313 101.321C4.81014 101.321 4.80714 101.321 4.80415 101.321V101.324Z" fill="#153C4A"/>
<path d="M32.1402 92.902C27.3196 92.902 23.0204 90.5891 20.1442 86.2928L19.4101 85.1962C19.3173 85.0584 19.3562 84.8727 19.491 84.7798C19.6289 84.6869 19.8146 84.7258 19.9075 84.8607L20.6415 85.9602C24.2308 91.3231 30.1359 93.4623 36.4425 91.6886L40.1816 90.637C40.3404 90.5921 40.5051 90.6849 40.5501 90.8437C40.595 91.0025 40.5021 91.1673 40.3434 91.2122L36.6043 92.2638C35.0853 92.6923 33.5873 92.902 32.1402 92.902Z" fill="#153C4A"/>
<path d="M21.2545 75.471L17.7341 76.3579C13.5517 77.4125 8.77603 74.2726 6.40917 68.5652C3.70376 62.0399 5.17182 54.6337 9.68682 52.0212L13.2101 51.1313C8.69514 53.7439 7.22709 61.1531 9.93249 67.6754C12.2994 73.3828 17.075 76.5256 21.2545 75.468V75.471Z" fill="url(#paint0_linear_1_1425)"/>
<path d="M13.2103 51.1313C17.7253 48.5188 23.5765 51.6886 26.2819 58.2109C28.9843 64.7363 27.5193 72.1424 23.0043 74.755C18.4893 77.3675 12.638 74.2007 9.93261 67.6754C7.2272 61.15 8.69525 53.7439 13.2103 51.1313ZM22.1624 72.7297C25.9014 70.5665 27.1178 64.4307 24.8768 59.0259C22.6357 53.621 17.7882 50.9965 14.0491 53.1596C10.3101 55.3258 9.09372 61.4616 11.3347 66.8634C13.5758 72.2683 18.4233 74.8928 22.1624 72.7297Z" fill="white"/>
<path d="M19.6191 75.9744C18.7922 75.9744 17.9473 75.8306 17.0994 75.543C13.9716 74.4824 11.2602 71.6571 9.6573 67.7893C6.90096 61.1411 8.42893 53.5522 13.0608 50.8707C14.9003 49.8071 16.9916 49.6244 19.1127 50.3434C22.2406 51.401 24.952 54.2293 26.5579 58.0971C29.3142 64.7453 27.7862 72.3342 23.1544 75.0157C22.0518 75.6538 20.8564 75.9744 19.6221 75.9744H19.6191ZM13.3604 51.3891C8.9772 53.9267 7.56608 61.1801 10.2086 67.5616C11.7216 71.2167 14.37 73.988 17.2912 74.9767C19.2446 75.6389 21.168 75.4741 22.8518 74.4974C27.232 71.9597 28.6461 64.7064 26.0036 58.3278C24.4876 54.6727 21.8391 51.9014 18.921 50.9127C16.9676 50.2506 15.0441 50.4183 13.3604 51.3921V51.3891ZM19.3614 73.7903C18.6723 73.7903 17.9653 73.6705 17.2582 73.4308C14.6547 72.55 12.3957 70.1981 11.0594 66.9774C8.76748 61.4497 10.0408 55.1341 13.8997 52.899C15.4366 52.0092 17.1833 51.8564 18.954 52.4586C21.5575 53.3395 23.8165 55.6913 25.1527 58.9121C27.4447 64.4427 26.1714 70.7583 22.3125 72.9904C21.3927 73.5237 20.395 73.7933 19.3614 73.7933V73.7903ZM16.8537 52.6983C15.922 52.6983 15.0262 52.938 14.1993 53.4174C10.5921 55.5056 9.4296 61.4856 11.6107 66.7497C12.86 69.7636 15.0412 72.0496 17.447 72.8645C19.0498 73.4068 20.6287 73.272 22.0099 72.4721C25.6171 70.3838 26.7796 64.4038 24.5985 59.1428C23.3491 56.1288 21.168 53.8428 18.7622 53.0279C18.1181 52.8092 17.4769 52.7013 16.8537 52.7013V52.6983Z" fill="#153C4A"/>
<path d="M19.3619 73.7907C18.6728 73.7907 17.9657 73.6709 17.2586 73.4312C14.6551 72.5504 12.3961 70.1985 11.0599 66.9778C8.76792 61.4501 10.0412 55.1345 13.9001 52.8995C15.4341 52.0096 17.1837 51.8569 18.9544 52.4591C21.5579 53.3399 23.8169 55.6918 25.1532 58.9095C27.4451 64.4401 26.1718 70.7557 22.3129 72.9878C21.3932 73.5211 20.3955 73.7907 19.3619 73.7907ZM14.1997 53.4178C10.5925 55.506 9.43004 61.4861 11.6111 66.7471C12.8605 69.7611 15.0416 72.047 17.4474 72.862C19.0503 73.4042 20.6292 73.2694 22.0103 72.4695C25.6175 70.3813 26.78 64.4012 24.5989 59.1402C23.3496 56.1262 21.1685 53.8402 18.7626 53.0253C17.1598 52.483 15.5809 52.6178 14.1997 53.4178Z" fill="#153C4A"/>
<path d="M12.3296 75.4799C12.2128 75.4799 12.1019 75.411 12.054 75.2971C11.9911 75.1443 12.063 74.9676 12.2158 74.9047L14.4418 73.9759C14.5946 73.913 14.7714 73.9849 14.8343 74.1377C14.8972 74.2905 14.8253 74.4672 14.6725 74.5302L12.4465 75.4589C12.4075 75.4739 12.3686 75.4829 12.3296 75.4829V75.4799Z" fill="white"/>
<path d="M11.0679 74.5512C10.9511 74.5512 10.8402 74.4823 10.7923 74.3684C10.7294 74.2156 10.8013 74.0388 10.9541 73.9759L13.1801 73.0472C13.3329 72.9843 13.5097 73.0562 13.5726 73.209C13.6355 73.3617 13.5636 73.5385 13.4108 73.6014L11.1848 74.5302C11.1458 74.5452 11.1069 74.5542 11.0679 74.5542V74.5512Z" fill="white"/>
<path d="M9.97234 73.5209C9.8555 73.5209 9.74465 73.452 9.69671 73.3382C9.63379 73.1854 9.7057 73.0086 9.85849 72.9457L12.0845 72.0169C12.2373 71.954 12.4141 72.0259 12.477 72.1787C12.5399 72.3315 12.468 72.5083 12.3152 72.5712L10.0892 73.4999C10.0502 73.5149 10.0113 73.5239 9.97234 73.5239V73.5209Z" fill="white"/>
<path d="M61.9373 99.9111L70.3504 86.2398C73.4798 81.1561 79.3852 78.4951 85.265 79.5169L87.1256 79.8405C92.0688 80.7005 96.2243 84.0428 98.1232 88.6837L102.717 99.9111H61.9415H61.9373Z" fill="#153C4A"/>
<path d="M93.3654 100.337L127.184 49.2705L143.316 31.4692L151.623 35.05L150.716 38.3667L149.286 42.6967C148.144 46.1539 145.824 49.096 142.733 51.0162L139.685 52.9109L117.583 100.333H93.3739L93.3654 100.337Z" fill="white"/>
<path d="M117.58 100.763C117.52 100.763 117.456 100.75 117.401 100.725C117.188 100.627 117.094 100.371 117.197 100.158L139.298 52.7363C139.332 52.6597 139.388 52.6001 139.46 52.5533L142.508 50.6586C145.51 48.7937 147.771 45.9198 148.882 42.5648L150.313 38.2347L151.117 35.2927L143.432 31.9759L127.526 49.5261L93.7283 100.567C93.5963 100.763 93.3323 100.818 93.1365 100.686C92.9406 100.554 92.8853 100.29 93.0173 100.094L126.836 49.0279C126.836 49.0279 126.861 48.9938 126.874 48.9768L143.007 31.1755C143.13 31.0393 143.322 30.9967 143.492 31.0691L151.799 34.6498C151.994 34.7349 152.097 34.9478 152.041 35.1522L151.134 38.4689L149.695 42.8202C148.524 46.3626 146.132 49.3983 142.964 51.3696L140.022 53.1962L117.971 100.503C117.899 100.656 117.746 100.75 117.584 100.75L117.58 100.763Z" fill="#153C4A"/>
<path d="M155.698 25.12L141.146 11.7721C139.925 10.6521 138.028 10.7339 136.908 11.9549L105.537 46.1538C104.417 47.3748 104.499 49.2725 105.72 50.3925L120.271 63.7404C121.492 64.8604 123.39 64.7785 124.51 63.5575L155.881 29.3587C157.001 28.1377 156.919 26.24 155.698 25.12Z" fill="url(#paint1_linear_1_1425)"/>
<path d="M108.244 62.4823C108.141 62.4823 108.039 62.444 107.954 62.3716C107.779 62.2141 107.771 61.9416 107.928 61.7713L116.406 52.5322C116.563 52.3576 116.836 52.3491 117.006 52.5066C117.18 52.6642 117.189 52.9366 117.031 53.1069L108.554 62.3461C108.469 62.4355 108.354 62.4823 108.239 62.4823H108.244Z" fill="#153C4A"/>
<path d="M96.7768 66.3056C96.6746 66.3056 96.5724 66.2673 96.4872 66.1949C96.3127 66.0373 96.3042 65.7649 96.4617 65.5946L104.939 56.3554C105.096 56.1808 105.369 56.1723 105.539 56.3299C105.714 56.4874 105.722 56.7599 105.565 56.9302L97.0876 66.1693C97.0024 66.2587 96.8875 66.3056 96.7725 66.3056H96.7768Z" fill="#153C4A"/>
<path d="M106.346 2.60214L108.662 3.49201L110.216 1.43555L110.424 4.13492L113.23 4.52236L110.169 5.5229L109.892 8.23079L108.534 6.04235L106.256 6.64267L107.47 4.88425L106.346 2.60214Z" fill="#153C4A"/>
<path d="M155.124 57.5942C154.966 57.5942 154.826 57.5091 154.749 57.3728L153.791 55.6272L152.046 54.6734C151.909 54.5968 151.824 54.4563 151.824 54.2988C151.824 54.1412 151.909 54.0007 152.046 53.9241L153.791 52.9661L154.749 51.2205C154.898 50.948 155.345 50.948 155.494 51.2205L156.452 52.9661L158.198 53.9241C158.334 54.0007 158.419 54.1412 158.419 54.2988C158.419 54.4563 158.334 54.5968 158.198 54.6734L156.452 55.6272L155.494 57.3728C155.418 57.5091 155.277 57.5942 155.12 57.5942H155.124ZM153.14 54.2988L154.315 54.9417C154.387 54.98 154.447 55.0396 154.485 55.112L155.128 56.2871L155.771 55.112C155.809 55.0396 155.869 54.98 155.941 54.9417L157.116 54.2988L155.941 53.6559C155.869 53.6176 155.809 53.5579 155.771 53.4856L155.128 52.3104L154.485 53.4856C154.447 53.5579 154.387 53.6176 154.315 53.6559L153.14 54.2988Z" fill="#153C4A"/>
<path d="M146.537 46.8692C148.181 44.7616 150.233 38.588 150.322 38.3283L151.336 35.2883C151.4 35.0967 151.31 34.8966 151.131 34.82L143.57 31.7843C143.429 31.7289 143.263 31.763 143.144 31.8779C142.642 32.3676 141.914 33.432 142.092 34.4836L140.347 33.7598C140.189 33.696 140.002 33.7471 139.887 33.8833C139.819 33.9642 138.282 35.8801 139.278 37.4086C138.989 37.8089 138.503 38.6008 138.537 39.4438C138.558 39.942 138.754 40.372 139.108 40.7339C138.703 41.1767 138.324 41.8749 138.55 42.7052C138.771 43.5141 140.892 44.8468 141.875 45.3918C141.381 45.5663 140.138 46.1198 139.734 46.8223C139.614 47.0267 144.728 49.1811 146.533 46.8692H146.537Z" fill="white"/>
<path d="M150.322 38.575C150.267 38.575 150.207 38.5622 150.152 38.5409L139.981 34.0789C139.653 34.5898 139.052 35.7479 139.665 36.6505C139.797 36.8464 139.746 37.1103 139.55 37.2423C139.355 37.3743 139.091 37.3232 138.959 37.1274C137.796 35.4158 139.431 33.3636 139.504 33.2784C139.623 33.1294 139.832 33.0783 140.006 33.155L150.497 37.7575C150.714 37.8512 150.812 38.1024 150.714 38.3195C150.646 38.4813 150.488 38.575 150.322 38.575Z" fill="#153C4A"/>
<path d="M150.712 38.797C150.67 38.797 150.627 38.7927 150.589 38.7799C150.363 38.7118 150.24 38.4734 150.308 38.2477L151.206 35.3269L143.419 32.0145C143.066 32.4403 142.38 33.4451 142.993 34.3434C143.125 34.5393 143.074 34.8033 142.878 34.9352C142.683 35.0672 142.419 35.0161 142.287 34.8203C141.337 33.4238 142.346 31.8399 143.01 31.197C143.134 31.0778 143.317 31.0437 143.474 31.1119L151.892 34.6926C152.092 34.7777 152.198 34.9991 152.13 35.2077L151.121 38.4989C151.066 38.682 150.896 38.8012 150.712 38.8012V38.797Z" fill="#153C4A"/>
<path d="M149.402 42.0198C149.342 42.0198 149.283 42.007 149.227 41.9815L139.626 37.6344C139.388 37.9707 139.013 38.6137 139.056 39.2566C139.086 39.6525 139.269 39.9889 139.622 40.2826C139.801 40.4359 139.826 40.7042 139.673 40.883C139.52 41.0618 139.252 41.0874 139.073 40.9341C138.541 40.487 138.251 39.942 138.209 39.3119C138.119 38.0218 139.137 36.868 139.179 36.8212C139.303 36.6807 139.503 36.6423 139.673 36.719L149.581 41.2066C149.794 41.3045 149.892 41.5557 149.794 41.7686C149.721 41.9261 149.568 42.0198 149.406 42.0198H149.402Z" fill="#153C4A"/>
<path d="M139.812 47.2356C139.726 47.2356 139.641 47.2101 139.565 47.1547C139.373 47.0185 139.33 46.7545 139.467 46.5629C139.956 45.8732 140.544 45.5198 141.08 45.341C139.978 44.7108 138.611 43.7742 138.338 42.8801C137.959 41.6283 138.837 40.6746 139.352 40.3425C139.479 40.2616 139.641 40.2531 139.773 40.3212L147.484 44.251C147.692 44.3575 147.778 44.6129 147.671 44.8215C147.565 45.0302 147.309 45.1153 147.096 45.0089L139.628 41.2025C139.369 41.4367 138.943 41.9434 139.152 42.6288C139.394 43.425 141.515 44.6725 142.796 45.2686C142.996 45.3623 143.09 45.5879 143.018 45.7965C142.945 46.0052 142.728 46.1201 142.515 46.069C142.46 46.0563 141.085 45.7497 140.161 47.0483C140.076 47.1633 139.948 47.2271 139.812 47.2271V47.2356Z" fill="#153C4A"/>
<path d="M79.0951 73.4199L72.4489 74.3651C64.8064 75.4508 57.6663 70.0862 56.5806 62.4437L56.2059 59.8082C54.8477 50.2412 61.562 41.3001 71.129 39.9419L72.2317 42.471C78.2308 41.6194 83.8339 45.8302 84.6854 51.825L86.3757 63.721C87.0399 68.3874 83.7615 72.7515 79.0951 73.4157V73.4199Z" fill="#153C4A"/>
<path d="M79.7763 91.4172L87.9425 63.3251L71.1971 57.9902L63.0352 82.7613L79.7763 91.4172Z" fill="white"/>
<path d="M79.7741 91.8429C79.7059 91.8429 79.6378 91.8258 79.5782 91.796L62.8371 83.1402C62.6497 83.0423 62.5646 82.8294 62.6284 82.6293L70.7904 57.8582C70.8628 57.6368 71.1012 57.5133 71.3226 57.5857L88.068 62.9205C88.2894 62.9886 88.4129 63.2228 88.349 63.4442L80.1828 91.5363C80.1487 91.6598 80.0593 91.7577 79.9401 91.8088C79.8848 91.8301 79.8294 91.8429 79.7741 91.8429ZM63.5523 82.5484L79.5101 90.7997L87.4166 63.6018L71.4674 58.5224L63.5523 82.5484Z" fill="#153C4A"/>
<path d="M68.7295 52.3994C72.3954 52.3994 75.3672 49.4276 75.3672 45.7617C75.3672 42.0958 72.3954 39.124 68.7295 39.124C65.0636 39.124 62.0918 42.0958 62.0918 45.7617C62.0918 49.4276 65.0636 52.3994 68.7295 52.3994Z" fill="#153C4A"/>
<path d="M69.4712 42.2583C62.4886 44.17 57.8009 50.9014 58.5758 58.2288C60.33 59.0676 62.3694 59.4167 64.4727 59.1144C69.9395 58.3395 73.7714 53.49 73.0348 48.2914C72.6815 45.8134 71.3573 43.7059 69.4754 42.2583H69.4712Z" fill="#153C4A"/>
<path d="M60.2552 51.4629C57.3685 58.1006 59.6719 65.9731 65.8668 69.9625C67.6209 69.1195 69.1707 67.7528 70.2564 65.9262C73.0793 61.1789 71.7083 55.1586 67.1909 52.472C65.0408 51.1947 62.5671 50.9052 60.2552 51.4629Z" fill="#153C4A"/>
<path d="M76.3538 52.1641C79.5435 50.3572 80.6645 46.3067 78.8576 43.117C77.0508 39.9273 73.0003 38.8063 69.8106 40.6132C66.6209 42.42 65.4999 46.4705 67.3067 49.6602C69.1136 52.8499 73.1641 53.9709 76.3538 52.1641Z" fill="#153C4A"/>
<path d="M87.4052 46.3064C87.7831 42.5537 85.0472 39.2051 81.2945 38.8272C77.5417 38.4494 74.1932 41.1852 73.8153 44.938C73.4374 48.6907 76.1733 52.0392 79.9261 52.4171C83.6788 52.795 87.0273 50.0591 87.4052 46.3064Z" fill="#153C4A"/>
<path d="M78.7096 48.071C80.9752 45.0556 80.3675 40.7745 77.3521 38.5088C74.3367 36.2432 70.0555 36.8509 67.7898 39.8663C65.5242 42.8817 66.132 47.1629 69.1474 49.4285C72.1628 51.6942 76.4439 51.0864 78.7096 48.071Z" fill="#153C4A"/>
<path d="M59.9132 51.493C59.8238 51.493 59.7343 51.4675 59.6577 51.4078C58.1505 50.2838 56.1409 51.2503 56.1196 51.2631C55.911 51.3653 55.6555 51.2801 55.5491 51.0715C55.4469 50.8629 55.532 50.6074 55.7407 50.501C55.8428 50.4499 58.2356 49.2875 60.1644 50.7266C60.3517 50.8671 60.39 51.1353 60.2495 51.3227C60.1644 51.4334 60.0366 51.493 59.9089 51.493H59.9132Z" fill="#153C4A"/>
<path d="M59.7493 51.2162C57.5438 51.2162 56.241 49.164 56.1814 49.0746C56.0579 48.8745 56.1175 48.6105 56.3176 48.487C56.5177 48.3636 56.7774 48.4232 56.9052 48.6233C56.9265 48.6531 58.1314 50.518 59.992 50.3562C60.2262 50.3349 60.4348 50.5094 60.4518 50.7436C60.4731 50.9778 60.2985 51.1864 60.0644 51.2034C59.9579 51.212 59.8515 51.2162 59.745 51.2162H59.7493Z" fill="#153C4A"/>
<path d="M89.4676 52.3916C85.0949 43.689 75.5918 39.6271 68.2431 43.3185C62.0312 46.4394 59.3446 54.1032 61.3074 61.6606C61.1413 61.6819 60.9753 61.7074 60.8092 61.7457C58.2844 62.3418 56.5601 64.807 56.8623 67.3829C57.203 70.2738 59.8555 72.3047 62.7252 71.896C63.9897 71.7172 65.0711 71.0871 65.8546 70.2015C70.7636 75.7279 78.1251 77.8227 84.0774 74.8338C91.4261 71.1424 93.8402 61.09 89.4676 52.3874V52.3916Z" fill="white"/>
<path d="M78.2221 76.6343C73.8538 76.6343 69.3534 74.6033 65.8451 70.8268C65.0021 71.6315 63.9334 72.1552 62.7838 72.317C61.2766 72.5299 59.7864 72.1382 58.5815 71.21C57.3766 70.2818 56.6145 68.9407 56.4356 67.4292C56.1078 64.6532 57.9812 61.9708 60.7061 61.3279C60.7316 61.3237 60.7529 61.3152 60.7785 61.3109C58.9434 53.5364 61.894 46.0259 68.0463 42.9348C71.7164 41.0912 76.0081 41.0487 80.1338 42.8113C84.2339 44.5655 87.6827 47.895 89.8456 52.1952C92.0042 56.4955 92.6216 61.2513 91.5784 65.5856C90.531 69.9497 87.9339 73.3686 84.2638 75.2122C82.3606 76.1702 80.3041 76.63 78.2179 76.63L78.2221 76.6343ZM65.8536 69.7794C65.9771 69.7794 66.092 69.8305 66.1729 69.9242C71.1076 75.4804 78.2264 77.3027 83.8848 74.4586C87.325 72.73 89.7647 69.5112 90.7524 65.394C91.7487 61.2513 91.1527 56.7041 89.0834 52.5827C87.0142 48.4613 83.7188 45.2723 79.8017 43.599C75.9102 41.9343 71.8739 41.9726 68.4295 43.7012C62.5198 46.6731 59.7566 54.0133 61.7152 61.5536C61.745 61.6728 61.7237 61.7963 61.6555 61.8985C61.5874 62.0007 61.481 62.0688 61.3575 62.0816C61.2042 62.1028 61.0552 62.1241 60.9019 62.1582C58.5943 62.7032 57.0019 64.9768 57.2829 67.3313C57.4362 68.6128 58.0791 69.7496 59.1009 70.5373C60.1228 71.3249 61.3873 71.657 62.6646 71.474C63.7673 71.3164 64.7892 70.7672 65.5385 69.9199C65.6194 69.8305 65.7344 69.7752 65.8579 69.7752L65.8536 69.7794Z" fill="#153C4A"/>
<path d="M72.5179 55.0185C72.9564 55.555 73.5865 55.7679 73.9271 55.4869C74.2678 55.2102 74.1911 54.5502 73.7568 54.0095C73.3183 53.473 72.6882 53.2601 72.3475 53.5411C72.0069 53.8179 72.0836 54.4778 72.5179 55.0185Z" fill="#153C4A"/>
<path d="M80.9612 50.6113C81.3998 51.1478 82.0299 51.3607 82.3705 51.0797C82.7111 50.8029 82.6345 50.143 82.2002 49.6023C81.7617 49.0658 81.1315 48.8529 80.7909 49.1339C80.4503 49.4107 80.5269 50.0706 80.9612 50.6113Z" fill="#153C4A"/>
<path d="M69.321 55.0142C69.2827 55.0142 69.2443 55.01 69.2103 54.9972C68.9846 54.9333 68.8484 54.6992 68.9123 54.4735C69.4658 52.4426 71.6457 51.7571 71.7393 51.7273C71.965 51.6592 72.2034 51.7869 72.2715 52.0126C72.3397 52.2382 72.2119 52.4767 71.9905 52.5448C71.9905 52.5448 70.164 53.1281 69.734 54.6992C69.6829 54.8865 69.5126 55.0142 69.3252 55.0142H69.321Z" fill="#153C4A"/>
<path d="M78.9514 60.8854C78.7342 60.8854 78.5512 60.7236 78.5299 60.5022C78.5043 60.2681 78.6746 60.0594 78.9088 60.0339C80.1733 59.9062 83.703 59.3143 84.8397 58.1392C85.0015 57.9689 85.274 57.9647 85.4401 58.1307C85.6061 58.2968 85.6146 58.565 85.4486 58.7311C83.8605 60.3703 79.1898 60.8641 78.9897 60.8812C78.9769 60.8812 78.9599 60.8812 78.9471 60.8812L78.9514 60.8854Z" fill="#153C4A"/>
<path d="M81.6802 54.6013C81.5695 54.6013 81.4589 54.5587 81.378 54.4735L76.9244 49.9561C76.7839 49.8114 76.7626 49.5857 76.8733 49.4197C77.8271 48.0061 80.3859 45.8177 83.2769 47.6613C83.477 47.789 83.5323 48.053 83.4089 48.2488C83.2811 48.4489 83.0172 48.5043 82.8213 48.3808C81.6036 47.6059 80.3646 47.6144 79.1299 48.4106C78.5083 48.8108 78.0399 49.3175 77.7887 49.624L81.9825 53.8774C82.1486 54.0435 82.1443 54.316 81.9825 54.4778C81.9016 54.5587 81.7909 54.6013 81.6845 54.6013H81.6802Z" fill="#153C4A"/>
<path d="M63.0984 54.9077L67.6669 64.0659C67.8116 64.3555 67.8074 64.6918 67.6626 64.9813C67.3773 65.5434 66.6535 65.7094 66.1511 65.3305L61.2676 61.6604L63.0984 54.9077Z" fill="#153C4A"/>
<path d="M63.9716 66.7826C63.7971 66.7826 63.6353 66.6762 63.5714 66.5059C63.5586 66.4718 62.8987 64.773 61.3659 64.4451C61.136 64.3983 60.9913 64.1684 61.0381 63.9385C61.0849 63.7086 61.3106 63.5595 61.5447 63.6106C63.5544 64.0364 64.342 66.1184 64.3718 66.2078C64.4527 66.4292 64.342 66.6719 64.1206 66.7528C64.0738 66.7698 64.0227 66.7783 63.9716 66.7783V66.7826Z" fill="#153C4A"/>
<path d="M58.556 48.3086C56.5421 51.6509 55.6182 55.6701 56.2058 59.8085L56.4868 61.7884C57.1936 61.9203 57.9344 61.9459 58.688 61.8394C62.422 61.3072 65.0191 57.8543 64.4869 54.1203C64.0441 50.9952 61.5491 48.6748 58.556 48.3086Z" fill="#153C4A"/>
<path d="M159.445 2.96122C161.367 2.6423 163.079 4.21213 162.927 6.15484L161.002 30.7413C160.807 33.2345 157.827 34.4085 155.984 32.7181L133.579 12.1678C131.736 10.4774 132.649 7.40664 135.116 6.99736L159.445 2.96122Z" fill="url(#paint2_linear_1_1425)"/>
<path d="M100.167 37.051C100.065 37.051 99.9625 37.0127 99.8773 36.9403L93.627 31.2095C93.5419 31.1329 93.4951 31.0264 93.4908 30.9115C93.4865 30.7965 93.5249 30.6858 93.6058 30.6049L104.356 19.0241L100.593 15.5711C100.473 15.4604 100.427 15.2901 100.473 15.1368C100.52 14.9835 100.652 14.8643 100.81 14.8388L116.452 12.2416C116.58 12.2203 116.712 12.2586 116.81 12.348C116.908 12.4374 116.959 12.5652 116.946 12.6972L115.707 28.5059C115.695 28.6677 115.592 28.8082 115.439 28.8678C115.286 28.9274 115.115 28.8976 114.996 28.7869L111.228 25.3297L100.473 36.9148C100.388 37.0042 100.278 37.051 100.163 37.051H100.167ZM94.5212 30.8689L100.141 36.0249L110.896 24.4398C111.054 24.2695 111.322 24.2567 111.496 24.4143L114.932 27.5649L116.061 13.1698L101.815 15.5328L105.25 18.6834C105.336 18.7601 105.382 18.8665 105.387 18.9815C105.391 19.0964 105.353 19.2071 105.272 19.288L94.5212 30.8689Z" fill="#153C4A"/>
<path d="M43.2461 99.9111L51.6592 86.2398C54.7886 81.1561 60.694 78.4951 66.5739 79.5169L68.4345 79.8405C73.3776 80.7005 77.5331 84.0428 79.432 88.6837L84.026 99.9111H43.2503H43.2461Z" fill="#153C4A"/>
<path d="M94.1979 106.727L95.187 105.174C97.1977 102.011 100.453 99.8453 104.148 99.2127L117.311 96.9495L126.845 96.4208C130.356 96.2248 133.311 99.0197 133.311 102.536V136.356H87.6816L94.2009 106.727H94.1979Z" fill="#153C4A"/>
<path d="M99.5152 96.1152H46.2055C44.7588 96.1152 43.5859 97.2881 43.5859 98.7348V134.275C43.5859 135.721 44.7588 136.894 46.2055 136.894H99.5152C100.962 136.894 102.135 135.721 102.135 134.275V98.7348C102.135 97.2881 100.962 96.1152 99.5152 96.1152Z" fill="white"/>
<path d="M99.5153 137.191H46.2057C44.5989 137.191 43.2891 135.884 43.2891 134.274V98.7315C43.2891 97.1247 44.5959 95.8149 46.2057 95.8149H99.5153C101.122 95.8149 102.432 97.1218 102.432 98.7315V134.274C102.432 135.881 101.125 137.191 99.5153 137.191ZM46.2057 96.4119C44.9256 96.4119 43.8831 97.4544 43.8831 98.7345V134.277C43.8831 135.557 44.9256 136.6 46.2057 136.6H99.5153C100.795 136.6 101.838 135.557 101.838 134.277V98.7345C101.838 97.4544 100.795 96.4119 99.5153 96.4119H46.2057Z" fill="#153C4A"/>
<path d="M46.9339 100.199C46.2478 100.199 45.6895 99.6405 45.6895 98.9544C45.6895 98.2683 46.2478 97.71 46.9339 97.71C47.62 97.71 48.1784 98.2683 48.1784 98.9544C48.1784 99.6405 47.62 100.199 46.9339 100.199ZM46.9339 98.304C46.5745 98.304 46.2835 98.595 46.2835 98.9544C46.2835 99.3138 46.5745 99.6049 46.9339 99.6049C47.2933 99.6049 47.5843 99.3138 47.5843 98.9544C47.5843 98.595 47.2933 98.304 46.9339 98.304Z" fill="#153C4A"/>
<path d="M50.1194 100.199C49.4334 100.199 48.875 99.6405 48.875 98.9544C48.875 98.2683 49.4334 97.71 50.1194 97.71C50.8055 97.71 51.3639 98.2683 51.3639 98.9544C51.3639 99.6405 50.8055 100.199 50.1194 100.199ZM50.1194 98.304C49.7601 98.304 49.469 98.595 49.469 98.9544C49.469 99.3138 49.7601 99.6049 50.1194 99.6049C50.4788 99.6049 50.7699 99.3138 50.7699 98.9544C50.7699 98.595 50.4788 98.304 50.1194 98.304Z" fill="#153C4A"/>
<path d="M53.307 100.199C52.6209 100.199 52.0625 99.6405 52.0625 98.9544C52.0625 98.2683 52.6209 97.71 53.307 97.71C53.9931 97.71 54.5514 98.2683 54.5514 98.9544C54.5514 99.6405 53.9931 100.199 53.307 100.199ZM53.307 98.304C52.9476 98.304 52.6565 98.595 52.6565 98.9544C52.6565 99.3138 52.9476 99.6049 53.307 99.6049C53.6664 99.6049 53.9574 99.3138 53.9574 98.9544C53.9574 98.595 53.6664 98.304 53.307 98.304Z" fill="#153C4A"/>
<path d="M109.13 98.3636L107.387 92.8363L116.591 89.9375L118.819 97.0062C119.736 96.9855 120.645 96.9944 121.545 97.027C121.328 101.993 118.747 105.964 115.201 106.335C111.747 106.698 108.489 103.534 107.17 98.9279C107.811 98.7229 108.468 98.5388 109.13 98.3636Z" fill="white"/>
<path d="M114.664 106.658C111.341 106.658 108.196 103.605 106.883 99.0076C106.838 98.8531 106.924 98.6927 107.079 98.6422C107.581 98.4819 108.13 98.3215 108.754 98.1552L107.106 92.9219C107.055 92.7645 107.144 92.5982 107.299 92.5506L116.503 89.6519C116.66 89.6014 116.827 89.6905 116.874 89.8449L119.033 96.6998C119.868 96.685 120.714 96.6939 121.555 96.7266C121.635 96.7295 121.709 96.7652 121.763 96.8216C121.816 96.881 121.843 96.9582 121.84 97.0354C121.614 102.215 118.834 106.249 115.229 106.626C115.042 106.647 114.852 106.655 114.664 106.655V106.658ZM107.533 99.1234C108.888 103.54 111.997 106.37 115.163 106.038C118.404 105.699 120.925 102.049 121.228 97.3117C120.423 97.2849 119.615 97.282 118.822 97.2998C118.68 97.3027 118.573 97.2166 118.531 97.0919L116.393 90.3053L107.756 93.0259L109.407 98.271C109.431 98.3482 109.422 98.4314 109.384 98.5027C109.345 98.5739 109.277 98.6244 109.199 98.6452C108.579 98.8086 108.029 98.963 107.53 99.1175L107.533 99.1234Z" fill="#153C4A"/>
<path d="M109.409 99.2544L107.387 92.8361L113.232 90.9946L115.789 92.6014C115.109 95.518 112.881 97.9357 109.406 99.2544H109.409Z" fill="#153C4A"/>
<path d="M108.863 93.3527C103.41 93.5458 98.8305 89.2837 98.6374 83.8307L98.6196 83.305C98.4265 77.852 102.689 73.2721 108.142 73.0791C113.595 72.886 118.174 77.148 118.368 82.6011L118.385 83.1268C118.578 88.5798 114.316 93.1597 108.863 93.3527Z" fill="#153C4A"/>
<path d="M111.177 90.2788C106.627 90.4421 102.804 86.884 102.641 82.3309L102.582 80.6439C102.418 76.0938 105.976 72.2713 110.529 72.1079C115.08 71.9446 118.902 75.5027 119.065 80.0558L119.125 81.7428C119.288 86.293 115.73 90.1154 111.177 90.2788Z" fill="#153C4A"/>
<path d="M119.759 79.1466C119.625 79.1466 119.503 79.0575 119.471 78.9209C118.88 76.5567 117.674 74.8162 115.883 73.753C113.994 72.6303 111.446 72.3273 109.07 72.9451C108.912 72.9867 108.749 72.8916 108.707 72.7313C108.666 72.5738 108.761 72.4105 108.921 72.3689C111.446 71.7125 114.163 72.0392 116.186 73.2421C118.116 74.3886 119.417 76.2508 120.047 78.7753C120.085 78.9357 119.99 79.0961 119.83 79.1347C119.806 79.1407 119.783 79.1436 119.759 79.1436V79.1466Z" fill="#153C4A"/>
<path d="M117.759 84.3595L119.523 83.7655C120.601 83.4032 121.18 82.2359 120.818 81.1578C120.455 80.0797 119.288 79.5005 118.21 79.8629L116.446 80.4569C115.368 80.8192 114.789 81.9865 115.151 83.0646C115.513 84.1427 116.681 84.7219 117.759 84.3595Z" fill="white"/>
<path d="M117.098 84.7635C116.738 84.7635 116.382 84.6803 116.052 84.5169C115.488 84.2378 115.069 83.7536 114.867 83.1596C114.665 82.5626 114.71 81.9241 114.989 81.3627C115.268 80.7984 115.752 80.3796 116.346 80.1777L118.11 79.5837C119.34 79.1708 120.68 79.8332 121.092 81.0657C121.505 82.2953 120.843 83.6348 119.61 84.0477L117.846 84.6417C117.6 84.7248 117.344 84.7664 117.092 84.7664L117.098 84.7635ZM118.862 80.0529C118.675 80.0529 118.488 80.0826 118.301 80.145L116.536 80.739C116.091 80.8905 115.728 81.2024 115.521 81.6241C115.313 82.0458 115.28 82.524 115.428 82.9695C115.577 83.415 115.892 83.7774 116.314 83.9853C116.735 84.1932 117.213 84.2259 117.659 84.0774L119.423 83.4834C120.344 83.1745 120.84 82.1736 120.531 81.2528C120.285 80.5192 119.595 80.0529 118.862 80.0529Z" fill="#153C4A"/>
<path d="M102.544 88.8561L100.682 88.8888C99.5446 88.9096 98.609 88.0037 98.5882 86.8662C98.5675 85.7286 99.4733 84.7931 100.611 84.7723L102.473 84.7396C103.611 84.7188 104.546 85.6247 104.567 86.7622C104.588 87.8998 103.682 88.8353 102.544 88.8561Z" fill="white"/>
<path d="M100.647 89.186C99.3667 89.186 98.3153 88.1554 98.2915 86.8723C98.2678 85.5744 99.3073 84.4993 100.605 84.4785L102.467 84.4458C102.467 84.4458 102.494 84.4458 102.509 84.4458C103.789 84.4458 104.841 85.4764 104.864 86.7595C104.888 88.0574 103.849 89.1326 102.551 89.1534L100.688 89.186C100.688 89.186 100.662 89.186 100.647 89.186ZM102.509 85.0368C102.509 85.0368 102.488 85.0368 102.479 85.0368L100.617 85.0695C99.6459 85.0873 98.8707 85.8893 98.8855 86.8605C98.8945 87.3297 99.0845 87.7693 99.4231 88.096C99.7617 88.4227 100.207 88.5979 100.677 88.589L102.539 88.5564C103.51 88.5385 104.285 87.7366 104.27 86.7654C104.252 85.8061 103.468 85.0339 102.509 85.0339V85.0368Z" fill="#153C4A"/>
<path d="M110.745 95.9012C106.016 96.0705 102.048 92.3758 101.879 87.6474L101.781 84.9298C101.612 80.2015 105.306 76.2335 110.035 76.0642C114.763 75.8949 118.731 79.5897 118.9 84.318L118.998 87.0356C119.168 91.7639 115.473 95.7319 110.745 95.9012Z" fill="white"/>
<path d="M110.435 96.204C105.692 96.204 101.754 92.435 101.584 87.6591L101.486 84.9415C101.311 80.0587 105.142 75.9452 110.025 75.7699C114.914 75.5947 119.022 79.4261 119.197 84.3089L119.295 87.0265C119.47 91.9093 115.639 96.0228 110.756 96.198C110.649 96.201 110.542 96.204 110.435 96.204ZM110.732 95.604C115.288 95.4407 118.861 91.6033 118.701 87.0473L118.603 84.3297C118.439 79.7736 114.602 76.2006 110.046 76.361C105.49 76.5243 101.917 80.3617 102.077 84.9177L102.175 87.6353C102.339 92.1914 106.176 95.7644 110.732 95.604Z" fill="#153C4A"/>
<path d="M101.351 84.6773V84.6921C102.788 83.6437 103.754 80.1331 103.605 75.9987V75.9839C102.168 77.0323 101.202 80.5429 101.351 84.6773Z" fill="#153C4A"/>
<path d="M118.653 82.8776C118.513 82.8776 118.391 82.7796 118.362 82.64C118.085 81.2886 119.166 80.5699 119.211 80.5402C119.348 80.4511 119.532 80.4897 119.621 80.6263C119.71 80.7629 119.671 80.9471 119.535 81.0362C119.499 81.0599 118.751 81.5737 118.944 82.5182C118.976 82.6786 118.872 82.836 118.712 82.8687C118.691 82.8717 118.673 82.8746 118.653 82.8746V82.8776Z" fill="#153C4A"/>
<path d="M101.589 87.7244C101.444 87.7244 101.316 87.6175 101.295 87.469C101.159 86.5097 100.276 86.281 100.241 86.2691C100.083 86.2305 99.9854 86.0701 100.024 85.9097C100.063 85.7523 100.223 85.6543 100.38 85.6899C100.434 85.7018 101.69 86.0166 101.886 87.3829C101.91 87.5462 101.797 87.6947 101.634 87.7185C101.619 87.7185 101.604 87.7215 101.592 87.7215L101.589 87.7244Z" fill="#153C4A"/>
<path d="M107.694 82.6904C107.828 83.0052 107.231 83.5636 106.358 83.9348C105.485 84.3061 104.668 84.3536 104.534 84.0388C104.401 83.7239 104.998 83.1656 105.871 82.7943C106.744 82.4231 107.561 82.3755 107.694 82.6904Z" fill="#153C4A"/>
<path d="M114.037 82.0072C114.025 82.3487 113.247 82.6012 112.3 82.5715C111.352 82.5388 110.592 82.2359 110.604 81.8943C110.616 81.5528 111.394 81.3003 112.341 81.33C113.289 81.3627 114.049 81.6656 114.037 82.0072Z" fill="#153C4A"/>
<path d="M110.42 87.9324C110.42 87.9324 110.405 87.9324 110.399 87.9324C110.001 87.9057 109.63 87.7097 109.38 87.3948C109.134 87.08 109.03 86.6761 109.095 86.2811L109.47 84.0684C109.496 83.908 109.651 83.7981 109.811 83.8248C109.971 83.8515 110.081 84.006 110.055 84.1664L109.68 86.3791C109.642 86.6107 109.701 86.8424 109.847 87.0265C109.992 87.2107 110.203 87.3235 110.438 87.3384C110.601 87.3503 110.726 87.4899 110.714 87.6562C110.702 87.8136 110.571 87.9324 110.417 87.9324H110.42Z" fill="#153C4A"/>
<path d="M111.821 91.8588C111.601 91.8588 111.369 91.8173 111.129 91.7341C110.974 91.6806 110.891 91.5113 110.947 91.3569C111.001 91.2025 111.17 91.1193 111.325 91.1757C111.717 91.3123 112.049 91.2975 112.34 91.1312C113.059 90.7183 113.297 89.5362 113.3 89.5244C113.332 89.364 113.487 89.26 113.647 89.2897C113.808 89.3194 113.915 89.4768 113.882 89.6372C113.87 89.6966 113.591 91.0955 112.637 91.645C112.385 91.7905 112.112 91.8648 111.821 91.8648V91.8588Z" fill="#153C4A"/>
<path d="M112.738 74.2199C114.437 74.7249 115.931 75.4169 117.039 76.1624C117.012 76.4713 116.955 76.7772 116.866 77.0801C116.439 78.5206 115.358 79.6255 113.923 80.2759C113.038 80.1601 112.09 79.9611 111.119 79.673C107.196 78.5087 104.38 76.3435 104.826 74.8377C105.271 73.3319 108.814 73.0557 112.738 74.217V74.2199Z" fill="#153C4A"/>
<path d="M100.872 79.1797C99.8745 80.6469 99.6547 82.2329 100.023 83.5189C100.323 83.5872 100.635 83.6288 100.95 83.6347C102.45 83.6704 103.834 82.9784 104.894 81.8141C104.466 80.8637 104.971 78.9361 106.254 77.457C108.936 74.3681 103.866 74.7721 100.869 79.1767L100.872 79.1797Z" fill="#153C4A"/>
<path d="M112.613 84.5496C112.657 85.1288 112.399 85.6188 112.031 85.6485C111.663 85.6782 111.327 85.2327 111.282 84.6535C111.238 84.0744 111.496 83.5843 111.864 83.5546C112.233 83.5249 112.568 83.9704 112.613 84.5496Z" fill="#153C4A"/>
<path d="M107.246 86.0432C107.29 86.6224 107.032 87.1125 106.664 87.1422C106.295 87.1719 105.96 86.7264 105.915 86.1472C105.871 85.568 106.129 85.078 106.497 85.0483C106.866 85.0186 107.201 85.4641 107.246 86.0432Z" fill="#153C4A"/>
<path d="M106.296 74.4038C106.144 74.4038 106.017 74.288 106.002 74.1365C105.85 72.601 107.52 71.7337 107.591 71.6981C107.736 71.6238 107.915 71.6832 107.989 71.8287C108.063 71.9743 108.007 72.1525 107.861 72.2297C107.846 72.2356 106.48 72.9514 106.593 74.08C106.608 74.2434 106.489 74.3889 106.326 74.4038C106.317 74.4038 106.305 74.4038 106.296 74.4038Z" fill="#153C4A"/>
<path d="M106.165 73.7415C106.025 73.7415 105.903 73.6435 105.874 73.5039C105.77 72.9871 105.39 72.9515 105.312 72.9485C105.149 72.9426 105.018 72.8089 105.021 72.6485C105.021 72.4852 105.152 72.3545 105.315 72.3545C105.639 72.3545 106.289 72.5713 106.453 73.3881C106.486 73.5485 106.382 73.7059 106.221 73.7385C106.2 73.7415 106.183 73.7445 106.162 73.7445L106.165 73.7415Z" fill="#153C4A"/>
<path d="M111.663 80.7863C111.645 80.7863 111.627 80.7863 111.61 80.7803C109.145 80.3229 107.256 79.2032 105.987 77.4598C105.892 77.3261 105.922 77.142 106.053 77.044C106.186 76.9489 106.37 76.9786 106.468 77.1093C107.642 78.728 109.409 79.7675 111.717 80.1952C111.877 80.2249 111.984 80.3794 111.954 80.5427C111.927 80.6853 111.803 80.7863 111.663 80.7863Z" fill="#153C4A"/>
<path d="M117.603 77.849L118.025 83.3912L117.134 83.6644L114.66 77.353L117.603 77.849Z" fill="#153C4A"/>
<path d="M74.1838 96.0886H71.3652L73.1829 94.2145C73.8838 93.4898 74.8254 93.0443 75.8292 92.9582C76.7232 92.881 77.1836 93.2017 77.834 94.2828L81.009 99.9943L79.6695 100.241C78.7132 100.416 77.736 100.08 77.0915 99.3557L74.1838 96.0886Z" fill="white"/>
<path d="M79.1739 100.582C78.3036 100.582 77.4572 100.211 76.8691 99.5512L74.0505 96.3851H71.3656C71.2468 96.3851 71.1399 96.3139 71.0923 96.204C71.0448 96.0941 71.0686 95.9664 71.1517 95.8802L72.9694 94.0061C73.7208 93.2309 74.7277 92.7528 75.8029 92.6607C76.9285 92.5627 77.4542 93.0795 78.0868 94.1279L81.2648 99.8482C81.3123 99.9314 81.3153 100.032 81.2737 100.119C81.2321 100.205 81.1519 100.267 81.0599 100.285L79.7204 100.531C79.5392 100.564 79.355 100.582 79.1709 100.582H79.1739ZM72.0665 95.7911H74.1841C74.2703 95.7911 74.3505 95.8268 74.4069 95.8921L77.3146 99.1592C77.8878 99.8037 78.7699 100.107 79.6164 99.9492L80.549 99.777L77.576 94.4279C76.9255 93.3497 76.5335 93.1983 75.8563 93.2547C74.9237 93.3349 74.0505 93.7477 73.3971 94.4219L72.0665 95.7911Z" fill="#153C4A"/>
<path d="M70.4748 96.0879H67.6562L69.4739 94.2137C70.1749 93.489 71.1164 93.0435 72.1203 92.9574C73.0143 92.8802 73.8429 93.4296 74.1251 94.2821L76.6318 101.55L74.7755 101.645C73.8162 101.695 72.9133 101.176 72.4767 100.317L70.4748 96.0879Z" fill="white"/>
<path d="M74.6524 101.945C73.6277 101.945 72.6832 101.372 72.2139 100.451L70.2863 96.3823H67.6549C67.5361 96.3823 67.4292 96.311 67.3816 96.2011C67.3341 96.0912 67.3579 95.9635 67.441 95.8774L69.2587 94.0033C70.0101 93.2281 71.017 92.7499 72.0922 92.6578C73.1287 92.5687 74.0791 93.1954 74.4028 94.1844L76.9096 101.446C76.9393 101.535 76.9274 101.63 76.874 101.711C76.8205 101.791 76.7373 101.835 76.6423 101.841L74.786 101.936C74.7385 101.936 74.6939 101.939 74.6464 101.939L74.6524 101.945ZM68.3588 95.7912H70.4764C70.5923 95.7912 70.6962 95.8566 70.7437 95.9605L72.7456 100.19C73.1257 100.932 73.9128 101.393 74.7593 101.348L76.2205 101.274L73.8415 94.3805C73.601 93.6528 72.903 93.1895 72.1426 93.2548C71.21 93.335 70.3369 93.7478 69.6834 94.422L68.3558 95.7912H68.3588Z" fill="#153C4A"/>
<path d="M66.7639 96.0879H63.9453L65.763 94.2137C66.4639 93.489 67.4054 93.0435 68.4093 92.9574C69.3033 92.8802 70.132 93.4296 70.4141 94.2821L72.6803 100.932L70.824 101.027C69.8647 101.078 68.9618 100.558 68.5252 99.6995L66.7639 96.0879Z" fill="white"/>
<path d="M70.6989 101.327C69.6772 101.327 68.7298 100.754 68.2605 99.8364L66.5764 96.3852H63.942C63.8232 96.3852 63.7163 96.3139 63.6687 96.204C63.6212 96.0941 63.645 95.9664 63.7282 95.8803L65.5458 94.0062C66.2973 93.231 67.3041 92.7528 68.3793 92.6607C69.4158 92.5716 70.3662 93.1983 70.69 94.1874L72.9561 100.834C72.9858 100.923 72.974 101.019 72.9205 101.096C72.867 101.173 72.7839 101.22 72.6888 101.226L70.8325 101.321C70.785 101.321 70.7405 101.324 70.693 101.324L70.6989 101.327ZM64.6459 95.7912H66.7636C66.8764 95.7912 66.9804 95.8565 67.0309 95.9575L68.7921 99.5691C69.1723 100.315 69.9623 100.772 70.8088 100.73L72.273 100.656L70.1346 94.3804C69.894 93.6528 69.196 93.1894 68.4357 93.2577C67.5031 93.3379 66.6299 93.7508 65.9765 94.425L64.6459 95.7942V95.7912Z" fill="#153C4A"/>
<path d="M63.2423 96.0883H60.4237L62.2414 94.2142C62.9423 93.4895 63.8838 93.044 64.8877 92.9579C65.7817 92.8807 66.6104 93.4301 66.8925 94.2825L68.7933 100.053L66.937 100.148C65.9777 100.199 65.0748 99.6792 64.6382 98.8208L63.2423 96.0883Z" fill="white"/>
<path d="M66.8089 100.448C65.7872 100.448 64.8397 99.875 64.3705 98.9543L63.0577 96.3852H60.4203C60.3015 96.3852 60.1945 96.3139 60.147 96.204C60.0995 96.0941 60.1233 95.9664 60.2064 95.8803L62.0241 94.0062C62.7755 93.231 63.7824 92.7528 64.8575 92.6607C65.8971 92.5716 66.8445 93.1983 67.1683 94.1874L69.0691 99.9582C69.0988 100.047 69.084 100.142 69.0335 100.22C68.98 100.297 68.8968 100.344 68.8048 100.347L66.9485 100.442C66.9009 100.442 66.8564 100.445 66.8089 100.445V100.448ZM61.1242 95.7912H63.2418C63.3547 95.7912 63.4557 95.8536 63.5062 95.9545L64.9021 98.687C65.2852 99.4384 66.0723 99.8958 66.9217 99.8542L68.3889 99.78L66.6099 94.3804C66.3723 93.6557 65.6713 93.1924 64.914 93.2607C63.9814 93.3409 63.1082 93.7537 62.4548 94.4279L61.1242 95.7971V95.7912Z" fill="#153C4A"/>
<path d="M125.6 118.877H112.57V119.471H125.6V118.877Z" fill="white"/>
<path d="M125.482 130.764H115.039V130.17H125.482C129.471 130.17 132.714 126.926 132.714 122.938H133.308C133.308 127.253 129.797 130.764 125.482 130.764Z" fill="white"/>
<path d="M55.3771 124.191H50.0428V129.837H55.3771V124.191Z" fill="url(#paint3_linear_1_1425)"/>
<path d="M65.4514 109.691H60.1172V129.84H65.4514V109.691Z" fill="url(#paint4_linear_1_1425)"/>
<path d="M75.5256 119.029H70.1914V129.84H75.5256V119.029Z" fill="url(#paint5_linear_1_1425)"/>
<path d="M85.6018 104.324H80.2676V129.837H85.6018V104.324Z" fill="url(#paint6_linear_1_1425)"/>
<path d="M79.3833 113.671L79.7397 117.719L79.3239 120.9C79.1873 121.943 79.4932 122.994 80.1644 123.802L80.2001 123.844L80.206 124.06C80.2357 125.343 80.9129 126.523 82.0059 127.194L84.2126 128.548L81.403 129.368L78.8725 127.039C78.3349 126.621 77.6072 126.534 76.9865 126.817L76.4697 127.051C76.0301 127.25 75.9321 127.832 76.2826 128.165L80.1793 131.854C80.7793 132.421 81.6317 132.635 82.4276 132.415L86.7758 131.221C89.0687 131.904 91.519 131.824 93.7644 130.995L97.5304 129.605L115.039 130.464L112.871 119.475L94.8633 120.137L94.7356 118.578C94.6168 117.128 93.7525 115.848 92.4516 115.195L87.3877 112.649C86.8917 112.4 86.2887 112.658 86.1313 113.193L86.0006 113.63C85.7244 114.562 86.0838 115.563 86.8916 116.104L89.0865 117.571C89.7726 118.031 90.1647 118.818 90.1171 119.644V119.656L83.1998 118.958L81.994 114.708C81.795 114.01 81.3079 113.428 80.6545 113.11L80.3813 112.976C79.8942 112.738 79.3358 113.125 79.3833 113.662V113.671Z" fill="white"/>
<path d="M81.8073 132.798C81.1331 132.798 80.4707 132.543 79.9747 132.071L76.078 128.382C75.8404 128.159 75.7335 127.832 75.7869 127.512C75.8404 127.191 76.0483 126.918 76.3453 126.784L76.8621 126.549C77.5868 126.22 78.4273 126.318 79.054 126.808L81.4806 129.038L83.4854 128.453L81.8489 127.449C80.6638 126.722 79.9391 125.459 79.9064 124.069V123.956C79.2025 123.092 78.8847 121.969 79.0273 120.865L79.4401 117.716L79.0867 113.701C79.054 113.338 79.2144 113.003 79.5114 112.798C79.8084 112.593 80.1826 112.563 80.5094 112.724L80.7826 112.857C81.5102 113.211 82.0567 113.864 82.2765 114.642L83.4259 118.699L89.8086 119.341C89.7522 118.729 89.4255 118.171 88.9146 117.829L86.7198 116.362C85.799 115.744 85.3921 114.618 85.7099 113.555L85.8406 113.119C85.9416 112.78 86.1851 112.507 86.5089 112.364C86.8326 112.225 87.2009 112.234 87.5157 112.394L92.5797 114.939C93.9608 115.634 94.8993 117.021 95.0241 118.563L95.128 119.84L112.853 119.186C112.996 119.183 113.127 119.281 113.156 119.427L115.324 130.416C115.342 130.505 115.318 130.597 115.259 130.669C115.2 130.737 115.111 130.776 115.019 130.77L97.5694 129.914L93.8598 131.284C91.5966 132.118 89.0809 132.207 86.7673 131.539L82.4993 132.712C82.2706 132.774 82.036 132.807 81.8013 132.807L81.8073 132.798ZM77.7502 126.947C77.5333 126.947 77.3135 126.992 77.1086 127.087L76.5918 127.321C76.473 127.375 76.3928 127.479 76.372 127.607C76.3512 127.734 76.3928 127.859 76.4879 127.948L80.3846 131.637C80.9044 132.13 81.6588 132.317 82.3508 132.127L86.699 130.933C86.7524 130.918 86.8089 130.918 86.8623 130.933C89.078 131.592 91.4927 131.515 93.6638 130.713L97.4298 129.323C97.4684 129.308 97.507 129.302 97.5486 129.305L114.677 130.146L112.631 119.777L94.8755 120.431C94.7181 120.44 94.5815 120.318 94.5696 120.158L94.4419 118.598C94.332 117.262 93.5182 116.059 92.3213 115.456L87.2573 112.911C87.0999 112.831 86.9158 112.825 86.7524 112.896C86.5891 112.967 86.4673 113.104 86.4168 113.273L86.2861 113.71C86.0455 114.52 86.3544 115.382 87.0583 115.854L89.2532 117.321C90.0254 117.838 90.468 118.732 90.4145 119.659C90.4086 119.739 90.3729 119.822 90.3106 119.873C90.2482 119.926 90.168 119.959 90.0878 119.95L83.1705 119.252C83.0487 119.24 82.9478 119.154 82.9151 119.038L81.7093 114.788C81.534 114.17 81.1033 113.656 80.5272 113.374L80.2539 113.24C80.1232 113.178 79.9748 113.187 79.853 113.27C79.7342 113.353 79.6688 113.487 79.6807 113.632L80.0371 117.681C80.0371 117.701 80.0371 117.725 80.0371 117.746L79.6213 120.927C79.4966 121.883 79.7787 122.857 80.3965 123.6L80.4321 123.642C80.4737 123.692 80.5004 123.757 80.5004 123.826L80.5064 124.043C80.5331 125.231 81.1538 126.309 82.1637 126.929L84.3734 128.284C84.4744 128.346 84.5278 128.459 84.513 128.578C84.4981 128.694 84.415 128.792 84.3021 128.824L81.4924 129.644C81.3914 129.674 81.2845 129.647 81.2073 129.579L78.6768 127.25C78.4154 127.045 78.0887 126.938 77.7561 126.938L77.7502 126.947Z" fill="#153C4A"/>
<path d="M85.2776 123.864C85.242 123.864 85.2034 123.858 85.1707 123.843L81.3482 122.343C80.5819 122.043 80.0236 121.351 79.8929 120.538L79.4474 117.766C79.4206 117.603 79.5305 117.452 79.6939 117.425C79.8543 117.398 80.0087 117.508 80.0355 117.671L80.481 120.442C80.579 121.048 80.9948 121.565 81.565 121.791L85.3875 123.291C85.539 123.35 85.6162 123.522 85.5568 123.677C85.5123 123.793 85.3994 123.864 85.2806 123.864H85.2776Z" fill="#153C4A"/>
<path d="M85.0308 126.243C84.9952 126.243 84.9595 126.237 84.9239 126.223L80.0975 124.34C79.9461 124.28 79.8689 124.108 79.9283 123.954C79.9877 123.802 80.1599 123.725 80.3144 123.784L85.1407 125.667C85.2922 125.727 85.3694 125.899 85.31 126.053C85.2655 126.172 85.1526 126.243 85.0338 126.243H85.0308Z" fill="#153C4A"/>
<path d="M85.1158 129.082C85.092 129.082 85.0653 129.079 85.0415 129.074L84.1386 128.836C83.9812 128.794 83.8862 128.631 83.9277 128.474C83.9693 128.316 84.1327 128.221 84.2901 128.263L85.193 128.5C85.3504 128.542 85.4454 128.705 85.4039 128.863C85.3682 128.996 85.2494 129.085 85.1158 129.085V129.082Z" fill="#153C4A"/>
<path d="M96.4257 134.325L80.7497 112.789L79.4043 108.602L82.9743 111.168L98.6503 132.704C98.3622 133.687 97.4474 134.352 96.4227 134.325H96.4257Z" fill="white"/>
<path d="M96.426 134.325L80.75 112.789L82.9775 111.167L98.6536 132.703C98.3655 133.686 97.4507 134.352 96.426 134.325Z" fill="#153C4A"/>
<path d="M96.4933 134.622C96.4696 134.622 96.4458 134.622 96.422 134.622C96.33 134.622 96.2439 134.574 96.1904 134.5L80.5144 112.964C80.4966 112.937 80.4817 112.911 80.4728 112.881L79.1274 108.693C79.0888 108.571 79.1303 108.438 79.2343 108.363C79.3382 108.289 79.4778 108.286 79.5818 108.363L83.1518 110.93C83.1785 110.947 83.1993 110.971 83.2201 110.995L98.8961 132.531C98.9496 132.605 98.9674 132.7 98.9406 132.789C98.6228 133.879 97.6219 134.625 96.4933 134.625V134.622ZM81.0223 112.652L96.5795 134.028C97.3636 133.992 98.0526 133.493 98.3259 132.757L82.7687 111.381L79.9679 109.367L81.0223 112.652Z" fill="#153C4A"/>
<defs>
<linearGradient id="paint0_linear_1_1425" x1="5.05274" y1="57.4885" x2="20.3393" y2="66.514" gradientUnits="userSpaceOnUse">
<stop stop-color="#FFBC74"/>
<stop offset="1" stop-color="#53D1FF"/>
</linearGradient>
<linearGradient id="paint1_linear_1_1425" x1="130.079" y1="19.3992" x2="141.726" y2="46.8462" gradientUnits="userSpaceOnUse">
<stop stop-color="#F39025"/>
<stop offset="1" stop-color="#53D1FF"/>
</linearGradient>
<linearGradient id="paint2_linear_1_1425" x1="129.041" y1="10.9707" x2="152.67" y2="32.6379" gradientUnits="userSpaceOnUse">
<stop stop-color="#FFBC74"/>
<stop offset="1" stop-color="#53D1FF"/>
</linearGradient>
<linearGradient id="paint3_linear_1_1425" x1="50.0428" y1="125.602" x2="53.8852" y2="128.966" gradientUnits="userSpaceOnUse">
<stop stop-color="#FFBC74"/>
<stop offset="1" stop-color="#53D1FF"/>
</linearGradient>
<linearGradient id="paint4_linear_1_1425" x1="60.1172" y1="114.729" x2="66.5193" y2="116.299" gradientUnits="userSpaceOnUse">
<stop stop-color="#FFBC74"/>
<stop offset="1" stop-color="#53D1FF"/>
</linearGradient>
<linearGradient id="paint5_linear_1_1425" x1="70.1914" y1="121.732" x2="75.8052" y2="124.299" gradientUnits="userSpaceOnUse">
<stop stop-color="#FFBC74"/>
<stop offset="1" stop-color="#53D1FF"/>
</linearGradient>
<linearGradient id="paint6_linear_1_1425" x1="80.2676" y1="110.702" x2="86.8094" y2="111.97" gradientUnits="userSpaceOnUse">
<stop stop-color="#FFBC74"/>
<stop offset="1" stop-color="#53D1FF"/>
</linearGradient>
</defs>
</svg>
