<svg width="16" height="15" viewBox="0 0 16 15" fill="none" xmlns="http://www.w3.org/2000/svg">
<mask id="mask0_171_3817" style="mask-type:alpha" maskUnits="userSpaceOnUse" x="0" y="0" width="16" height="15">
<rect x="0.5" width="15" height="15" fill="#7599A6"/>
</mask>
<g mask="url(#mask0_171_3817)">
<path d="M7.375 13.125V11.875H12.375V7.4375C12.375 6.21875 11.9505 5.1849 11.1016 4.33594C10.2526 3.48698 9.21875 3.0625 8 3.0625C6.78125 3.0625 5.7474 3.48698 4.89844 4.33594C4.04948 5.1849 3.625 6.21875 3.625 7.4375V11.25H3C2.65625 11.25 2.36198 11.1276 2.11719 10.8828C1.8724 10.638 1.75 10.3438 1.75 10V8.75C1.75 8.53125 1.80469 8.32552 1.91406 8.13281C2.02344 7.9401 2.17708 7.78646 2.375 7.67188L2.42188 6.84375C2.50521 6.13542 2.71094 5.47917 3.03906 4.875C3.36719 4.27083 3.77865 3.74479 4.27344 3.29688C4.76823 2.84896 5.33594 2.5 5.97656 2.25C6.61719 2 7.29167 1.875 8 1.875C8.70833 1.875 9.38021 2 10.0156 2.25C10.651 2.5 11.2188 2.84635 11.7188 3.28906C12.2188 3.73177 12.6302 4.25521 12.9531 4.85938C13.276 5.46354 13.4844 6.11979 13.5781 6.82812L13.625 7.64062C13.8229 7.73438 13.9766 7.875 14.0859 8.0625C14.1953 8.25 14.25 8.44792 14.25 8.65625V10.0938C14.25 10.3021 14.1953 10.5 14.0859 10.6875C13.9766 10.875 13.8229 11.0156 13.625 11.1094V11.875C13.625 12.2188 13.5026 12.513 13.2578 12.7578C13.013 13.0026 12.7188 13.125 12.375 13.125H7.375ZM6.125 8.75C5.94792 8.75 5.79948 8.6901 5.67969 8.57031C5.5599 8.45052 5.5 8.30208 5.5 8.125C5.5 7.94792 5.5599 7.79948 5.67969 7.67969C5.79948 7.5599 5.94792 7.5 6.125 7.5C6.30208 7.5 6.45052 7.5599 6.57031 7.67969C6.6901 7.79948 6.75 7.94792 6.75 8.125C6.75 8.30208 6.6901 8.45052 6.57031 8.57031C6.45052 8.6901 6.30208 8.75 6.125 8.75ZM9.875 8.75C9.69792 8.75 9.54948 8.6901 9.42969 8.57031C9.3099 8.45052 9.25 8.30208 9.25 8.125C9.25 7.94792 9.3099 7.79948 9.42969 7.67969C9.54948 7.5599 9.69792 7.5 9.875 7.5C10.0521 7.5 10.2005 7.5599 10.3203 7.67969C10.4401 7.79948 10.5 7.94792 10.5 8.125C10.5 8.30208 10.4401 8.45052 10.3203 8.57031C10.2005 8.6901 10.0521 8.75 9.875 8.75ZM4.26562 7.78125C4.19271 6.67708 4.52604 5.72917 5.26562 4.9375C6.00521 4.14583 6.92708 3.75 8.03125 3.75C8.95833 3.75 9.77344 4.04427 10.4766 4.63281C11.1797 5.22135 11.6042 5.97396 11.75 6.89063C10.8021 6.88021 9.92969 6.625 9.13281 6.125C8.33594 5.625 7.72396 4.94792 7.29688 4.09375C7.13021 4.92708 6.77865 5.66927 6.24219 6.32031C5.70573 6.97135 5.04688 7.45833 4.26562 7.78125Z" fill="#7599A6"/>
</g>
</svg>
