<svg width="172" height="173" viewBox="0 0 172 173" fill="none" xmlns="http://www.w3.org/2000/svg">
<path d="M82.994 58.4558V42.833C82.994 36.7366 79.8603 31.2694 75.1017 29.0642L69.0114 26.2451H52.5702C37.7599 26.2451 33.7343 29.3055 30.8541 34.4093L21.6454 66.4672H82.991V58.4558H82.994Z" fill="#153C4A"/>
<path d="M60.6405 4.79492H48.5974V29.2843C48.5974 31.4192 50.3322 33.1541 52.4672 33.1541H60.6405V4.79797V4.79492Z" fill="white"/>
<path d="M63.6239 1.10498H55.8935C50.185 1.10498 45.5486 5.74141 45.5486 11.4499V16.2024C45.5486 20.0722 48.6884 23.212 52.5582 23.212H62.5946C67.6678 23.212 71.785 19.0948 71.785 14.0216V9.26607C71.785 4.76098 68.129 1.10498 63.6239 1.10498Z" fill="#153C4A"/>
<path d="M50.7722 13.7678L54.7865 14.5002C56.4177 14.7978 57.4988 16.3614 57.2012 17.9927L57.0324 18.9181C56.7347 20.5494 55.1711 21.6305 53.5398 21.3328L49.5256 20.6004C47.8943 20.3028 46.8132 18.7392 47.1109 17.1079L47.2797 16.1825C47.5773 14.5512 49.141 13.4701 50.7722 13.7678Z" fill="white"/>
<path d="M54.0812 21.6727C55.648 21.6727 57.0408 20.5517 57.334 18.9604L57.502 18.035C57.6608 17.1645 57.4715 16.2879 56.9675 15.561C56.4666 14.8341 55.7092 14.3484 54.8417 14.1896L50.8253 13.4566C49.9549 13.2978 49.0783 13.4871 48.3514 13.9911C47.6244 14.492 47.1388 15.2495 46.9799 16.1169L46.812 17.0423C46.4852 18.8352 47.6763 20.5609 49.4723 20.8877L53.4887 21.6207C53.6872 21.6574 53.8888 21.6757 54.0842 21.6757L54.0812 21.6727ZM50.2267 14.0094C50.3885 14.0094 50.5535 14.0247 50.7154 14.0552L54.7318 14.7883C55.4403 14.9166 56.0573 15.3136 56.4666 15.9061C56.8759 16.4987 57.0317 17.2134 56.9003 17.922L56.7323 18.8474C56.4666 20.3104 55.0586 21.2817 53.5956 21.016L49.5792 20.283C48.1161 20.0172 47.1449 18.6092 47.4106 17.1462L47.5786 16.2207C47.7069 15.5121 48.104 14.8952 48.6965 14.4859C49.1516 14.1713 49.68 14.0064 50.2236 14.0064L50.2267 14.0094Z" fill="#153C4A"/>
<path d="M50.3871 18.0563C50.549 18.0563 50.6834 17.9311 50.6926 17.7692C50.7872 16.1168 49.3823 15.4479 49.3212 15.4204C49.1685 15.3502 48.9852 15.4174 48.915 15.5701C48.8447 15.7228 48.9119 15.903 49.0646 15.9763C49.1135 15.9977 50.152 16.5078 50.0817 17.7356C50.0725 17.9036 50.2008 18.0471 50.3688 18.0563C50.3749 18.0563 50.381 18.0563 50.3871 18.0563Z" fill="#153C4A"/>
<path d="M56.0669 4.23828H65.1443C67.9479 4.23828 70.2206 6.51099 70.2206 9.31453V25.1175C70.2206 27.921 67.9479 30.1937 65.1443 30.1937H56.0669C53.2634 30.1937 50.9907 27.921 50.9907 25.1175V9.31453C50.9907 6.51099 53.2634 4.23828 56.0669 4.23828Z" fill="white"/>
<path d="M58.1026 9.29658C55.5675 9.29658 53.3929 7.6442 52.4369 5.28017C53.5548 4.08289 55.088 3.34375 56.7832 3.34375H64.6632C67.8458 3.34375 70.4633 5.94906 70.8085 9.29658H58.1026Z" fill="#153C4A"/>
<path d="M54.2866 2.71789H54.5371C55.3373 3.99153 55.8046 5.53091 55.8046 7.19245C55.8046 11.557 52.5792 15.0939 48.5964 15.0939C48.5353 15.0939 48.4712 15.0909 48.4101 15.0878V7.91326C48.4101 5.04222 51.0399 2.71484 54.2835 2.71484L54.2866 2.71789Z" fill="#153C4A"/>
<path d="M51.1065 4.27527C51.1615 4.27527 51.2134 4.26 51.2623 4.23251C51.4058 4.14699 51.4517 3.96067 51.3692 3.81712C51.36 3.7988 51.2042 3.50559 51.3417 3.04744C51.4883 2.55265 52.0014 1.78907 53.5957 0.952188C53.7454 0.872776 53.8035 0.689526 53.724 0.539865C53.6446 0.390204 53.4614 0.332169 53.3117 0.41158C51.8609 1.1721 50.9966 2.01204 50.7461 2.90695C50.5476 3.61249 50.8102 4.07979 50.8408 4.13171C50.8988 4.2264 50.9996 4.28138 51.1034 4.28138L51.1065 4.27527Z" fill="#153C4A"/>
<path d="M52.7296 5.17937C52.8945 5.17937 53.0289 5.05109 53.035 4.88921C53.035 4.83118 53.0411 4.29362 52.5311 3.77134C51.8805 3.10856 50.7229 2.78786 49.0827 2.8184C48.9148 2.82145 48.7804 2.96195 48.7834 3.12993C48.7865 3.29792 48.9239 3.43842 49.095 3.42926C50.9001 3.39261 51.7125 3.82021 52.079 4.18061C52.4242 4.5227 52.4272 4.85562 52.4272 4.87089C52.4272 5.03887 52.5586 5.17631 52.7265 5.17937H52.7327H52.7296Z" fill="#153C4A"/>
<path d="M58.4662 13.515C58.5059 13.515 58.5487 13.5058 58.5884 13.4875C59.6971 12.9988 60.9891 12.953 62.1314 13.3684C62.2902 13.4264 62.4643 13.344 62.5223 13.1851C62.5803 13.0263 62.4979 12.8522 62.3391 12.7942C61.0501 12.3299 59.5963 12.3788 58.341 12.9286C58.1852 12.9958 58.118 13.176 58.1852 13.3317C58.2341 13.4448 58.3471 13.515 58.4662 13.515Z" fill="#153C4A"/>
<path d="M70.2998 13.5395C70.3914 13.5395 70.4799 13.4998 70.541 13.4203C70.6449 13.286 70.6205 13.0966 70.4861 12.9927C69.3835 12.1345 68.119 11.9604 66.7354 12.4796C66.5765 12.5377 66.4971 12.7148 66.5552 12.8736C66.6132 13.0324 66.7903 13.1119 66.9492 13.0538C68.1373 12.6079 69.1697 12.7453 70.1104 13.4753C70.1654 13.5181 70.2326 13.5395 70.2967 13.5395H70.2998Z" fill="#153C4A"/>
<path d="M64.548 20.9397C64.548 20.9397 64.5633 20.9397 64.5725 20.9397C65.9469 20.8266 66.9884 19.7027 67.0312 19.6569C67.1075 19.5744 67.132 19.4553 67.0923 19.3484L65.223 14.1652C65.165 14.0064 64.9909 13.9239 64.8321 13.982C64.6733 14.04 64.5908 14.2141 64.6488 14.3729L66.4508 19.3728C66.1607 19.6446 65.4063 20.2616 64.5205 20.3349C64.3526 20.3471 64.2273 20.4968 64.2395 20.6648C64.2517 20.8236 64.3861 20.9458 64.545 20.9458L64.548 20.9397Z" fill="#153C4A"/>
<path d="M60.2303 16.0037C60.1814 16.7093 60.5632 17.3079 61.0824 17.3446C61.6047 17.3812 62.0659 16.8406 62.1148 16.1351C62.1637 15.4295 61.7819 14.8309 61.2626 14.7942C60.7404 14.7576 60.2792 15.2982 60.2303 16.0037Z" fill="#153C4A"/>
<path d="M67.5506 16.0037C67.5018 16.7093 67.8835 17.3079 68.4028 17.3446C68.925 17.3812 69.3862 16.8406 69.4351 16.1351C69.484 15.4295 69.1022 14.8309 68.583 14.7942C68.0607 14.7576 67.5995 15.2982 67.5506 16.0037Z" fill="#153C4A"/>
<path d="M73.9792 1.11133H59.676V9.25714H70.3874C72.3696 9.25714 73.9823 7.64753 73.9823 5.66223V1.11133H73.9792Z" fill="#153C4A"/>
<path d="M55.5844 16.8647V18.7248C55.5844 20.3283 56.8855 21.6294 58.489 21.6294H70.2206V31.843C70.2206 35.0867 67.5908 37.7164 64.3472 37.7164H56.8641C53.6205 37.7164 50.9907 35.0867 50.9907 31.843V13.6699H52.3896C54.155 13.6699 55.5844 15.0993 55.5844 16.8647Z" fill="#153C4A"/>
<path d="M59.9614 23.9727L64.7811 24.5591C64.7811 24.5591 60.4959 28.8351 59.9614 23.9727Z" fill="white"/>
<path d="M65.4576 66.6902C72.2504 61.4582 87.0851 50.3558 87.0851 50.3558L87.5463 47.9032C104.183 23.9636 99.3573 46.8953 99.3573 46.8953C99.3573 46.8953 92.3202 60.3953 88.4412 66.6902H65.4576Z" fill="white"/>
<path d="M88.4412 66.9951C88.5451 66.9951 88.6428 66.9432 88.7009 66.8485C92.5401 60.6147 99.5559 47.1696 99.6261 47.0322C99.6383 47.0077 99.6475 46.9803 99.6536 46.9528C99.846 46.0365 101.462 37.9609 98.8198 36.8186C96.7764 35.9359 93.0074 39.5033 87.2959 47.7255C87.2714 47.7622 87.2531 47.8019 87.247 47.8446L86.8072 50.1812C85.5213 51.1433 71.7037 61.4943 65.2713 66.4453C65.1369 66.5492 65.1125 66.7385 65.2164 66.8729C65.3202 67.0073 65.5126 67.0317 65.644 66.9279C72.3573 61.757 87.1218 50.7065 87.2684 50.5966C87.3295 50.5507 87.3722 50.4835 87.3845 50.4072L87.8334 48.0187C94.9438 37.799 97.6164 36.9652 98.5785 37.3806C99.4551 37.7593 99.8399 39.5339 99.6566 42.3805C99.5223 44.4757 99.1282 46.4824 99.0641 46.7878C98.6487 47.585 91.9079 60.4772 88.1786 66.5278C88.09 66.6713 88.1358 66.8607 88.2794 66.9493C88.3282 66.9798 88.3832 66.9951 88.4382 66.9951H88.4412Z" fill="#153C4A"/>
<path d="M83.9 47.8142C84.2146 48.535 84.4589 48.9412 85.9708 48.8832C87.1559 48.8374 88.3471 48.7274 89.523 48.5869C91.6701 48.3334 93.8051 47.8753 95.7354 46.8826C96.0866 46.7574 96.4165 46.5863 96.7159 46.3481C97.2504 45.9175 97.6413 45.3463 98.0231 44.7843C98.4996 44.0818 98.9699 43.3763 99.4403 42.6707C100.387 41.2535 101.328 39.8302 102.265 38.4039C106.038 32.6618 109.724 26.8678 113.334 21.0219C113.359 20.9822 113.374 20.9424 113.383 20.9088C113.466 20.8386 113.524 20.7409 113.533 20.6126C113.597 19.8857 113.16 19.2412 112.568 18.8594C111.914 18.4349 111.114 18.4257 110.369 18.5601C109.513 18.7128 108.676 19.0335 107.852 19.3023C106.994 19.5833 106.141 19.8704 105.289 20.1728C103.872 20.6767 102.397 21.1501 101.062 21.8557C100.421 22.1947 99.8129 22.6193 99.309 23.1385C98.7958 23.673 98.3866 24.3022 97.9712 24.913C93.9853 30.7498 89.917 37.7197 85.6623 43.3793C84.5719 44.8301 83.5549 47.0231 83.9 47.8111V47.8142Z" fill="url(#paint0_linear_1_1293)"/>
<path d="M89.6334 51.858C90.4031 49.1427 92.3914 46.2167 95.3327 43.8527C96.5392 42.8814 97.8067 42.0903 99.0742 41.4795L97.5196 38.2022C94.3951 36.559 92.6694 35.6549 92.0952 34.421C91.1819 32.4662 91.9608 31.6416 91.9883 31.5744C92.0341 31.4705 92.1196 31.3911 92.2265 31.3514C92.3334 31.3148 92.4495 31.3178 92.5533 31.3667L93.2008 31.6782C92.4189 29.5707 93.6071 28.4498 93.6651 28.3979C93.7873 28.2879 93.9614 28.2574 94.111 28.3215L103.033 32.1791C102.868 31.6813 102.553 30.3343 102.468 30.1694C101.649 29.7632 98.0633 28.5628 96.8324 26.4554C96.3223 25.5818 96.1971 24.8732 96.4598 24.351C96.753 23.7676 97.3821 23.6851 97.4524 23.679C97.5318 23.6698 97.5929 23.679 97.6601 23.7095L106.047 27.2312C106.16 27.28 106.246 27.3747 106.285 27.4908C106.285 27.4999 106.35 27.7015 106.453 28.0283L108.234 26.3118C108.057 25.6002 107.577 23.4805 107.712 21.9167C107.889 19.8489 109.963 18.9112 110.1 18.8685C110.216 18.8288 110.345 18.8441 110.448 18.9082C110.552 18.9723 110.623 19.0762 110.644 19.1984L112.028 27.8145C112.049 27.9428 112.009 28.0741 111.918 28.1688L108.335 32.9702C108.259 33.0496 108.158 33.0954 108.054 33.0985C108.036 33.0985 108.017 33.0924 107.999 33.0893C108.213 33.8071 108.408 34.4821 108.558 35.0257C108.802 35.9084 108.732 36.5987 108.353 37.0752C108.146 37.3378 107.88 37.4783 107.642 37.5608C107.645 37.5669 107.651 37.573 107.654 37.5791C108.555 38.9597 108.472 39.937 107.379 40.8472C106.924 41.2229 106.912 41.3848 106.875 41.8124C106.851 42.1086 106.82 42.4813 106.64 43.0036C106.175 44.3566 95.0792 54.7199 95.0059 54.7718L89.6517 51.8488L89.6334 51.858Z" fill="white"/>
<path d="M94.9857 55.0867C95.0468 55.0867 95.1079 55.0684 95.1598 55.0317C95.2606 54.9584 106.403 44.583 106.907 43.1139C107.099 42.5549 107.133 42.1487 107.157 41.8494C107.191 41.4493 107.197 41.3882 107.551 41.0919C108.681 40.1512 108.849 39.07 108.061 37.7047C108.26 37.5917 108.431 37.4482 108.568 37.2741C109.011 36.7182 109.1 35.9363 108.831 34.9528C108.703 34.4885 108.541 33.9235 108.364 33.3187C108.428 33.2821 108.486 33.2393 108.535 33.1843C108.544 33.1752 108.55 33.166 108.559 33.1569L112.133 28.3677C112.276 28.2058 112.343 27.9859 112.31 27.7691L110.926 19.1529C110.893 18.9452 110.77 18.7619 110.59 18.652C110.41 18.542 110.19 18.5145 109.985 18.5817C109.598 18.707 107.573 19.7912 107.389 21.8957C107.261 23.377 107.658 25.3043 107.878 26.2175L106.58 27.4667L106.562 27.4026C106.497 27.1979 106.348 27.033 106.152 26.9505L97.7651 23.4259C97.6399 23.3739 97.5269 23.3587 97.4017 23.3739C97.3223 23.3831 96.5434 23.487 96.1769 24.2108C95.8623 24.8308 95.9906 25.6372 96.5587 26.6084C97.6399 28.4563 100.404 29.623 101.733 30.182C101.928 30.2644 102.093 30.3347 102.215 30.3897C102.267 30.5576 102.362 30.9211 102.435 31.2021C102.475 31.3487 102.512 31.4984 102.551 31.6389L94.2222 28.0379C93.9595 27.9279 93.6602 27.9798 93.4494 28.1692C93.3975 28.215 92.3132 29.229 92.7072 31.1013L92.6797 31.086C92.5056 31.0005 92.3041 30.9914 92.1178 31.0555C91.9406 31.1227 91.794 31.254 91.7146 31.419C91.1893 32.1825 91.2259 33.2851 91.8123 34.5405C92.4262 35.8538 94.1519 36.767 97.2826 38.4164L98.6662 41.3302C97.4353 41.9471 96.2472 42.7138 95.1385 43.6056C92.2674 45.9147 90.1538 48.8896 89.3383 51.7637C89.2925 51.9255 89.3872 52.0935 89.5491 52.1393C89.711 52.1851 89.879 52.0905 89.9248 51.9286C90.7067 49.1706 92.7469 46.3117 95.5202 44.079C96.6748 43.1505 97.9148 42.3625 99.2037 41.7425C99.3565 41.6692 99.4206 41.489 99.3473 41.3363L97.7927 38.059C97.7652 37.9979 97.7163 37.9491 97.6583 37.9185L97.6155 37.8971C94.5734 36.2967 92.8966 35.414 92.3682 34.2808C91.8765 33.224 91.8215 32.3353 92.2155 31.7702C92.243 31.7305 92.2613 31.7 92.2674 31.6847C92.2796 31.6572 92.3041 31.6358 92.3316 31.6236C92.3591 31.6144 92.3896 31.6144 92.4171 31.6297L93.0646 31.9413C93.1776 31.9962 93.312 31.9748 93.4036 31.8924C93.4952 31.8099 93.5288 31.6786 93.483 31.5595C92.7714 29.6383 93.819 28.6548 93.8648 28.6121C93.8984 28.5815 93.9442 28.5754 93.987 28.5907L102.906 32.4452C103.016 32.4941 103.144 32.4727 103.232 32.3902C103.321 32.3078 103.355 32.1825 103.315 32.0695C103.242 31.8435 103.132 31.4342 103.028 31.0372C102.857 30.3805 102.786 30.1239 102.728 30.017C102.698 29.959 102.652 29.9132 102.594 29.8857C102.45 29.8155 102.24 29.7238 101.971 29.6108C100.703 29.0763 98.0645 27.9646 97.0871 26.2908C96.632 25.512 96.5099 24.9041 96.7237 24.4796C96.9436 24.0428 97.4231 23.9787 97.475 23.9726C97.4964 23.9726 97.5055 23.9695 97.533 23.9817L105.917 27.5034C105.948 27.5156 105.972 27.5431 105.981 27.5736L106.149 28.1112C106.18 28.2119 106.262 28.2914 106.366 28.3158C106.47 28.3433 106.577 28.3158 106.653 28.2394L108.434 26.5229C108.513 26.4466 108.544 26.3366 108.519 26.2297C108.367 25.6097 107.872 23.4686 108.006 21.9354C108.174 19.9989 110.166 19.156 110.187 19.1498C110.214 19.1407 110.248 19.1437 110.276 19.1621C110.303 19.1804 110.321 19.2079 110.327 19.2384L111.711 27.8546C111.717 27.8882 111.705 27.9248 111.681 27.9493C111.671 27.9584 111.665 27.9676 111.656 27.9768L108.086 32.7567C108.07 32.772 108.052 32.7781 108.037 32.7812C108.021 32.7812 108.009 32.7781 108.003 32.7751C107.902 32.769 107.805 32.8087 107.744 32.8881C107.679 32.9675 107.661 33.0713 107.689 33.166C107.899 33.8838 108.095 34.5557 108.244 35.0963C108.461 35.8813 108.409 36.4769 108.095 36.8739C107.954 37.0511 107.765 37.1763 107.524 37.2588C107.435 37.2893 107.365 37.3596 107.334 37.4482C107.304 37.5367 107.316 37.6345 107.365 37.7139C108.199 38.9906 108.138 39.7938 107.163 40.6032C106.635 41.0431 106.592 41.2813 106.549 41.7761C106.525 42.0601 106.497 42.4083 106.329 42.894C105.917 44.0943 95.2637 54.1124 94.7872 54.5278C94.665 54.6347 94.6436 54.821 94.7444 54.9493C94.8055 55.0256 94.8941 55.0684 94.9857 55.0684V55.0867Z" fill="#153C4A"/>
<path d="M104.422 39.6502C104.492 39.6502 104.559 39.6258 104.617 39.58C104.745 39.4731 104.764 39.2806 104.657 39.1493L101.511 35.365C101.483 35.3314 101.447 35.3039 101.41 35.2856L93.081 31.2662C92.9282 31.1929 92.7481 31.257 92.6717 31.4097C92.5984 31.5624 92.6625 31.7457 92.8152 31.819L101.083 35.8079L104.186 39.5403C104.247 39.6136 104.333 39.6502 104.422 39.6502Z" fill="#153C4A"/>
<path d="M106.337 36.0095C106.395 36.0095 106.453 35.9942 106.505 35.9606C106.645 35.869 106.685 35.6796 106.593 35.5391C104.699 32.6345 103.524 32.0877 103.475 32.0664L101.312 31.147C101.156 31.0798 100.976 31.1531 100.912 31.3089C100.845 31.4647 100.918 31.6449 101.074 31.709L103.23 32.6284C103.23 32.6284 104.312 33.1629 106.083 35.8751C106.141 35.9637 106.239 36.0125 106.34 36.0125L106.337 36.0095Z" fill="#153C4A"/>
<path d="M108.39 34.7788C108.417 34.7788 108.445 34.7758 108.472 34.7666C108.634 34.7208 108.732 34.5528 108.686 34.3909C108.151 32.4454 107.052 28.8871 106.603 27.4455C106.554 27.2836 106.38 27.195 106.221 27.2439C106.059 27.2928 105.971 27.4638 106.019 27.6257C106.465 29.0612 107.565 32.6133 108.096 34.5498C108.133 34.6842 108.255 34.7727 108.39 34.7727V34.7788Z" fill="#153C4A"/>
<path d="M76.0415 44.3689C74.1724 44.3689 72.6573 42.8538 72.6573 40.9847C72.6573 39.1157 74.1724 37.6006 76.0415 37.6006C77.9105 37.6006 79.4257 39.1157 79.4257 40.9847C79.4257 42.8538 77.9105 44.3689 76.0415 44.3689Z" fill="white"/>
<path d="M71.6198 37.3289L82.6794 29.629C83.4979 29.0762 84.6158 29.4885 84.8785 30.4384C85.2511 31.7762 84.8143 33.2056 83.7637 34.1127L76.2226 40.597L71.6198 37.3289Z" fill="white"/>
<path d="M60.0101 53.7917C62.2764 54.7416 64.8206 55.0837 67.3893 54.6652L67.7833 54.6011C70.6238 54.1399 73.2444 52.7807 75.2602 50.7252L76.8332 49.1217C78.1068 47.8236 78.4856 45.8933 77.7983 44.2104L75.8986 39.5495C75.1136 37.6192 72.8809 36.7273 70.9812 37.5825L52.521 45.9025L30.1757 66.69H56.177L61.7297 54.5675L60.0101 53.7917Z" fill="white"/>
<path d="M76.4271 40.6673C76.4974 40.6673 76.5677 40.6429 76.6257 40.594L83.9621 34.3418C85.0983 33.3645 85.5748 31.7976 85.1747 30.3529C85.0219 29.8031 84.6279 29.3755 84.0934 29.1801C83.5589 28.9846 82.9817 29.0548 82.5083 29.3725L71.4456 37.0724C71.3082 37.1701 71.2746 37.3595 71.3692 37.4969C71.467 37.6344 71.6564 37.668 71.7938 37.5733L82.8534 29.8734C83.1558 29.6688 83.5315 29.6229 83.8827 29.7512C84.2309 29.8795 84.4875 30.1574 84.5852 30.5148C84.9242 31.7335 84.5241 33.0499 83.565 33.8745L76.2286 40.1236C76.1003 40.2336 76.0851 40.426 76.195 40.5543C76.2561 40.6245 76.3416 40.6612 76.4271 40.6612V40.6673Z" fill="#153C4A"/>
<path d="M75.2443 50.539C75.2718 50.539 75.3024 50.5359 75.3329 50.5267C75.4948 50.4779 75.5864 50.3099 75.5375 50.148L73.4026 42.9735C72.9291 41.3791 71.3868 40.3559 69.7313 40.5361L68.0362 40.7225C67.8682 40.7408 67.7491 40.8904 67.7674 41.0584C67.7857 41.2264 67.9384 41.3486 68.1034 41.3272L69.7985 41.1409C71.1577 40.9912 72.4283 41.8342 72.8192 43.1445L74.9542 50.3191C74.9939 50.4504 75.116 50.5359 75.2474 50.5359L75.2443 50.539Z" fill="#153C4A"/>
<path d="M71.5881 53.2481C71.6156 53.2481 71.6461 53.245 71.6766 53.2359C71.8385 53.187 71.9301 53.019 71.8813 52.8571L69.7463 45.6826C69.2729 44.0882 67.7274 43.062 66.075 43.2452L64.3799 43.4316C64.2119 43.4499 64.0928 43.5995 64.1111 43.7675C64.1295 43.9355 64.2822 44.0577 64.4471 44.0363L66.1423 43.85C67.5014 43.7003 68.772 44.5433 69.1629 45.8536L71.2979 53.0282C71.3376 53.1595 71.4598 53.245 71.5911 53.245L71.5881 53.2481Z" fill="#153C4A"/>
<path d="M59.9377 54.0483C60.0874 54.0483 60.2187 53.9383 60.2401 53.7826L60.3379 53.0557C60.4814 51.9928 61.3611 51.1864 62.4301 51.1376L65.3683 50.8566C65.4599 50.8474 65.5454 50.7955 65.5943 50.7191C65.6462 50.6397 65.6584 50.545 65.6279 50.4565L65.0842 48.8377C65.0293 48.6788 64.8582 48.5903 64.6963 48.6453C64.5375 48.7002 64.449 48.8713 64.5039 49.0331L64.9254 50.2885L62.3842 50.5298C61.0342 50.5908 59.9103 51.6201 59.7301 52.9762L59.6323 53.7032C59.6109 53.8712 59.727 54.0239 59.895 54.0453C59.9072 54.0453 59.9225 54.0453 59.9347 54.0453L59.9377 54.0483Z" fill="#153C4A"/>
<path d="M56.179 66.995C56.295 66.995 56.4049 66.9278 56.4569 66.8178L62.0096 54.6953C62.0799 54.5426 62.0096 54.3594 61.8599 54.2891C61.7072 54.2189 61.5239 54.2891 61.4537 54.4388L55.901 66.5613C55.8308 66.714 55.901 66.8973 56.0507 66.9675C56.0904 66.9858 56.1362 66.995 56.179 66.995Z" fill="#153C4A"/>
<path d="M30.1792 66.9952C30.2525 66.9952 30.3288 66.9677 30.3868 66.9127L52.6954 46.1587L71.1098 37.8602C71.9528 37.4815 72.8904 37.4601 73.7487 37.8022C74.607 38.1443 75.2728 38.807 75.621 39.6622L77.5208 44.3231C78.1622 45.8961 77.8079 47.695 76.6198 48.9076L75.0468 50.5111C73.0645 52.5331 70.5356 53.8433 67.7409 54.2984L67.3469 54.3626C64.9065 54.7596 62.4112 54.4634 60.1327 53.5104C59.9769 53.4463 59.7967 53.5196 59.7325 53.6754C59.6684 53.8311 59.7417 54.0113 59.8975 54.0755C62.2798 55.0742 64.8882 55.3827 67.4446 54.9673L67.8386 54.9032C70.7647 54.4267 73.4097 53.0584 75.4836 50.9418L77.0565 49.3383C78.4157 47.9516 78.8219 45.8961 78.0889 44.0971L76.1891 39.4362C75.7768 38.4252 74.9918 37.6464 73.9778 37.2402C72.9638 36.834 71.8581 36.8584 70.8624 37.3074L52.4022 45.6273C52.3717 45.6395 52.3442 45.6609 52.3198 45.6823L29.9745 66.4698C29.8523 66.5859 29.8432 66.7783 29.9592 66.9005C30.0203 66.9646 30.0997 66.9982 30.1822 66.9982L30.1792 66.9952Z" fill="#153C4A"/>
<path d="M77.8009 44.5159C77.8865 44.5159 77.972 44.4793 78.0331 44.409L78.708 43.6179C79.8717 42.2527 80.0703 40.2796 79.1968 38.7127C79.1143 38.5661 78.928 38.5112 78.7814 38.5936C78.6348 38.6761 78.5798 38.8624 78.6623 39.009C79.4106 40.356 79.2426 42.048 78.2408 43.2209L77.5657 44.012C77.4558 44.1402 77.4711 44.3327 77.5993 44.4426C77.6574 44.4915 77.7276 44.5159 77.7979 44.5159H77.8009Z" fill="#153C4A"/>
<path d="M43.315 54.0419C43.4555 54.0419 43.5839 53.9442 43.6144 53.8006L45.1049 46.7574C45.1385 46.5925 45.0346 46.4306 44.8697 46.3939C44.7048 46.3573 44.5429 46.4642 44.5062 46.6291L43.0157 53.6723C42.9821 53.8373 43.086 53.9991 43.2509 54.0358C43.2723 54.0388 43.2937 54.0419 43.315 54.0419Z" fill="#153C4A"/>
<path d="M86.7372 23.172C88.2216 23.172 89.7152 22.7872 91.0683 22.0022L94.8464 23.0132C94.9503 23.0407 95.0633 23.0132 95.1427 22.9338C95.219 22.8574 95.2496 22.7444 95.2221 22.6375L94.2111 18.8594C96.1781 15.4752 95.6253 11.2022 92.8458 8.42282C89.48 5.05698 84.0006 5.05698 80.6348 8.42282C77.2689 11.7887 77.2689 17.2681 80.6348 20.6339C82.3024 22.3015 84.5107 23.169 86.7403 23.169L86.7372 23.172ZM91.0224 21.3669C90.9675 21.3669 90.9125 21.3822 90.8636 21.4097C87.7024 23.3095 83.6738 22.8147 81.0624 20.2032C77.9348 17.0756 77.9348 11.9841 81.0624 8.85652C84.19 5.72892 89.2815 5.72892 92.4091 8.85652C95.0205 11.4679 95.5153 15.4966 93.6155 18.6578C93.5728 18.728 93.5606 18.8135 93.5819 18.893L94.4891 22.2832L91.0988 21.3761C91.0744 21.37 91.0469 21.3669 91.0194 21.3669H91.0224Z" fill="url(#paint1_linear_1_1293)"/>
<path d="M91.2876 16.3919C91.4128 16.3919 91.5288 16.3156 91.5747 16.1934C91.6327 16.0346 91.5533 15.8605 91.3945 15.7994C91.086 15.6834 90.5515 15.4451 90.02 15.1214C90.3285 14.7793 90.5454 14.3883 90.5759 13.976C90.6187 13.4171 90.2919 12.8978 89.6963 12.5832C89.2107 12.3267 88.5295 12.2167 88.105 12.5588C87.937 12.6932 87.6774 13.0078 87.8423 13.6278C88.0042 14.2326 88.4776 14.7579 89.0213 15.1824C88.8044 15.3321 88.5601 15.4665 88.3035 15.5673C87.6194 15.8391 87.0268 15.8361 86.7153 15.5551C86.6786 15.5245 86.645 15.4909 86.6114 15.4573C86.9199 15.1489 86.9902 14.8098 86.9841 14.5533C86.9658 13.8599 86.364 13.2399 85.8998 13.2399C85.631 13.2399 85.4111 13.3926 85.3133 13.6492C85.1515 14.0737 85.3256 14.7274 85.7165 15.3199C85.2828 15.5093 84.6475 15.6345 83.8534 15.6772C82.1705 15.7658 81.5321 14.483 81.5046 14.4311C81.4313 14.2784 81.2512 14.2142 81.0984 14.2845C80.9457 14.3547 80.8816 14.538 80.9518 14.6876C80.9854 14.7579 81.7734 16.3981 83.884 16.285C84.9346 16.2301 85.6371 16.0468 86.1044 15.8086C86.1686 15.8758 86.2357 15.9399 86.3029 16.004C86.7977 16.45 87.6071 16.4958 88.5265 16.1293C88.8686 15.9918 89.2259 15.7933 89.5436 15.549C90.3377 16.056 91.1135 16.3461 91.1746 16.3706C91.2082 16.3828 91.2448 16.3889 91.2815 16.3889L91.2876 16.3919ZM85.8998 13.8508C86.0189 13.8691 86.3915 14.2112 86.3763 14.6082C86.3732 14.7426 86.3182 14.8679 86.2236 14.9809C85.9945 14.6327 85.8784 14.2906 85.8693 14.0524C85.8631 13.921 85.8906 13.8599 85.8998 13.8508ZM88.7953 12.9559C88.9724 12.9559 89.1923 13.0078 89.4122 13.1238C89.5527 13.1971 90.0017 13.4751 89.9681 13.9302C89.9467 14.1959 89.7727 14.4952 89.5039 14.7762C88.9969 14.4005 88.5632 13.9516 88.4349 13.469C88.3952 13.3224 88.3738 13.1269 88.4868 13.0353C88.5509 12.9833 88.6609 12.9559 88.7953 12.9559Z" fill="url(#paint2_linear_1_1293)"/>
<path d="M90.1853 55.2114H18.0071C15.8501 55.2114 14.1016 56.96 14.1016 59.1169V117.057C14.1016 119.214 15.8501 120.962 18.0071 120.962H90.1853C92.3423 120.962 94.0909 119.214 94.0909 117.057V59.1169C94.0909 56.96 92.3423 55.2114 90.1853 55.2114Z" fill="white"/>
<path d="M90.1861 121.275H18.0078C15.6815 121.275 13.7871 119.38 13.7871 117.054V59.1138C13.7871 56.7875 15.6815 54.8931 18.0078 54.8931H90.1861C92.5124 54.8931 94.4069 56.7875 94.4069 59.1138V117.054C94.4069 119.38 92.5124 121.275 90.1861 121.275ZM18.0047 55.5267C16.0251 55.5267 14.4144 57.1374 14.4144 59.117V117.057C14.4144 119.036 16.0251 120.647 18.0047 120.647H90.1829C92.1625 120.647 93.7733 119.036 93.7733 117.057V59.117C93.7733 57.1374 92.1625 55.5267 90.1829 55.5267H18.0047Z" fill="#153C4A"/>
<path d="M19.2352 61.3361C18.2612 61.3361 17.4668 60.5417 17.4668 59.5677C17.4668 58.5937 18.2612 57.7993 19.2352 57.7993C20.2092 57.7993 21.0035 58.5937 21.0035 59.5677C21.0035 60.5417 20.2092 61.3361 19.2352 61.3361ZM19.2352 58.4297C18.6079 58.4297 18.0972 58.9404 18.0972 59.5677C18.0972 60.195 18.6079 60.7056 19.2352 60.7056C19.8625 60.7056 20.3731 60.195 20.3731 59.5677C20.3731 58.9404 19.8625 58.4297 19.2352 58.4297Z" fill="#153C4A"/>
<path d="M24.12 61.3361C23.1459 61.3361 22.3516 60.5417 22.3516 59.5677C22.3516 58.5937 23.1459 57.7993 24.12 57.7993C25.094 57.7993 25.8883 58.5937 25.8883 59.5677C25.8883 60.5417 25.094 61.3361 24.12 61.3361ZM24.12 58.4297C23.4927 58.4297 22.982 58.9404 22.982 59.5677C22.982 60.195 23.4927 60.7056 24.12 60.7056C24.7472 60.7056 25.2578 60.195 25.2578 59.5677C25.2578 58.9404 24.7472 58.4297 24.12 58.4297Z" fill="#153C4A"/>
<path d="M29.0105 61.3361C28.0365 61.3361 27.2422 60.5417 27.2422 59.5677C27.2422 58.5937 28.0365 57.7993 29.0105 57.7993C29.9845 57.7993 30.7789 58.5937 30.7789 59.5677C30.7789 60.5417 29.9845 61.3361 29.0105 61.3361ZM29.0105 58.4297C28.3832 58.4297 27.8726 58.9404 27.8726 59.5677C27.8726 60.195 28.3832 60.7056 29.0105 60.7056C29.6378 60.7056 30.1485 60.195 30.1485 59.5677C30.1485 58.9404 29.6378 58.4297 29.0105 58.4297Z" fill="#153C4A"/>
<path d="M90.8999 62.8271H15.828V63.4576H90.8999V62.8271Z" fill="#153C4A"/>
<path d="M78.4701 100.303C74.7158 100.303 71.6582 97.2487 71.6582 93.4913C71.6582 89.7339 74.7127 86.6794 78.4701 86.6794C82.2274 86.6794 85.2818 89.7339 85.2818 93.4913C85.2818 97.2487 82.2274 100.303 78.4701 100.303ZM78.4701 87.3099C75.0626 87.3099 72.2886 90.0838 72.2886 93.4913C72.2886 96.8988 75.0626 99.6727 78.4701 99.6727C81.8776 99.6727 84.6514 96.8988 84.6514 93.4913C84.6514 90.0838 81.8776 87.3099 78.4701 87.3099Z" fill="#153C4A"/>
<path d="M72.7469 99.0927C76.1538 99.0927 78.9157 96.3308 78.9157 92.9239C78.9157 89.517 76.1538 86.7551 72.7469 86.7551C69.3399 86.7551 66.5781 89.517 66.5781 92.9239C66.5781 96.3308 69.3399 99.0927 72.7469 99.0927Z" fill="#153C4A"/>
<path d="M54.4518 99.0487C58.0572 99.0487 60.9799 96.126 60.9799 92.5206C60.9799 88.9152 58.0572 85.9924 54.4518 85.9924C50.8464 85.9924 47.9236 88.9152 47.9236 92.5206C47.9236 96.126 50.8464 99.0487 54.4518 99.0487Z" fill="#153C4A"/>
<path d="M78.3602 101.059C81.9655 101.059 84.8883 98.1367 84.8883 94.5313C84.8883 90.9259 81.9655 88.0032 78.3602 88.0032C74.7548 88.0032 71.832 90.9259 71.832 94.5313C71.832 98.1367 74.7548 101.059 78.3602 101.059Z" fill="#153C4A"/>
<path d="M41.248 119.954L47.606 98.3331C48.4603 95.4331 51.2183 93.5166 54.235 93.7309L74.1724 95.1494C78.3396 95.1494 81.9867 97.9548 83.0584 101.983L87.9474 120.398L41.248 119.951V119.954Z" fill="white"/>
<path d="M87.9488 120.716C87.8101 120.716 87.6808 120.622 87.643 120.483L82.754 102.068C81.7232 98.1816 78.1959 95.4676 74.1738 95.4676L54.2112 94.046C51.3711 93.8442 48.7138 95.6819 47.9068 98.4212L41.5489 120.042C41.4984 120.209 41.3251 120.304 41.158 120.256C40.9909 120.206 40.8964 120.032 40.9437 119.865L47.3016 98.2446C48.1905 95.2249 51.1094 93.1949 54.2553 93.4187L74.1927 94.8372C78.4765 94.8372 82.2528 97.7435 83.3592 101.904L88.2482 120.319C88.2924 120.486 88.1915 120.66 88.0244 120.704C87.9961 120.71 87.9709 120.713 87.9425 120.713L87.9488 120.716Z" fill="#153C4A"/>
<path d="M19.3295 117.013C28.0287 117.013 35.0808 109.96 35.0808 101.261C35.0808 92.5619 28.0287 85.5098 19.3295 85.5098C10.6302 85.5098 3.57812 92.5619 3.57812 101.261C3.57812 109.96 10.6302 117.013 19.3295 117.013Z" fill="url(#paint3_linear_1_1293)"/>
<path d="M35.1611 85.4314L33.024 93.4032L30.89 101.372L25.0554 95.5372L19.2207 89.7026L27.1894 87.5686L35.1611 85.4314Z" fill="url(#paint4_linear_1_1293)"/>
<path d="M66.5759 120.78H69.7658L67.7106 118.661C66.9163 117.842 65.854 117.337 64.716 117.24C63.7042 117.155 63.1841 117.514 62.4497 118.737L58.8594 125.196L60.3755 125.473C61.4567 125.672 62.56 125.29 63.2913 124.471L66.579 120.776L66.5759 120.78Z" fill="white"/>
<path d="M60.929 125.842C60.7241 125.842 60.516 125.823 60.3112 125.785L58.795 125.508C58.6942 125.489 58.609 125.423 58.568 125.331C58.5239 125.24 58.527 125.133 58.5775 125.044L62.1678 118.586C62.8834 117.397 63.4759 116.82 64.7368 116.928C65.9472 117.032 67.0821 117.571 67.93 118.444L69.9852 120.562C70.0735 120.654 70.0987 120.789 70.0482 120.906C69.9978 121.022 69.8843 121.098 69.7582 121.098H66.7101L63.517 124.685C62.8582 125.426 61.903 125.842 60.9258 125.842H60.929ZM59.3435 124.966L60.4278 125.164C61.3924 125.341 62.3979 124.997 63.0504 124.263L66.3381 120.568C66.398 120.502 66.4831 120.461 66.5745 120.461H69.0175L67.4792 118.876C66.7384 118.113 65.7455 117.64 64.6832 117.549C63.8195 117.473 63.394 117.763 62.7131 118.895L59.3403 124.963L59.3435 124.966Z" fill="#153C4A"/>
<path d="M70.7698 120.78H73.9598L71.9045 118.661C71.1102 117.842 70.0479 117.337 68.91 117.24C67.8981 117.155 66.9588 117.772 66.6436 118.737L63.8066 126.958L65.906 127.065C66.9935 127.122 68.0116 126.532 68.5065 125.565L70.773 120.78H70.7698Z" fill="white"/>
<path d="M66.044 127.383C65.9904 127.383 65.94 127.383 65.8864 127.38L63.787 127.273C63.6893 127.267 63.5979 127.216 63.5411 127.134C63.4844 127.053 63.4718 126.948 63.5033 126.854L66.3403 118.633C66.7028 117.53 67.7745 116.824 68.9314 116.925C70.1418 117.029 71.2765 117.568 72.1245 118.441L74.1797 120.559C74.268 120.65 74.2932 120.786 74.2427 120.903C74.1923 121.019 74.0788 121.095 73.9527 121.095H70.9645L68.7832 125.7C68.2537 126.74 67.1882 127.387 66.0409 127.387L66.044 127.383ZM64.2378 126.665L65.9179 126.75C66.8793 126.8 67.784 126.277 68.2221 125.42L70.4822 120.644C70.5358 120.534 70.6462 120.464 70.7659 120.464H73.2089L71.6706 118.879C70.9298 118.116 69.9369 117.643 68.8747 117.552C68.0015 117.476 67.2071 118.006 66.9329 118.835L64.2315 126.665H64.2378Z" fill="#153C4A"/>
<path d="M74.9643 120.78H78.1543L76.0991 118.661C75.3047 117.842 74.2425 117.337 73.1045 117.24C72.0927 117.155 71.1534 117.772 70.8381 118.737L68.2754 126.258L70.3748 126.365C71.4623 126.422 72.4804 125.833 72.9753 124.865L74.9674 120.78H74.9643Z" fill="white"/>
<path d="M70.5126 126.687C70.459 126.687 70.4086 126.687 70.355 126.684L68.2556 126.577C68.1579 126.57 68.0666 126.52 68.0098 126.438C67.9531 126.356 67.9404 126.252 67.972 126.161L70.5347 118.639C70.8972 117.533 71.9689 116.83 73.1258 116.931C74.3362 117.035 75.4709 117.574 76.3189 118.447L78.3741 120.565C78.4624 120.657 78.4876 120.792 78.4371 120.909C78.3867 121.026 78.2732 121.101 78.1472 121.101H75.1557L73.2487 125.01C72.7191 126.047 71.6568 126.693 70.5063 126.693L70.5126 126.687ZM68.7064 125.965L70.3896 126.05C71.3542 126.101 72.2557 125.577 72.6939 124.72L74.6829 120.641C74.7365 120.534 74.8468 120.465 74.9666 120.465H77.4095L75.8713 118.879C75.1305 118.116 74.1376 117.643 73.0753 117.552C72.2053 117.476 71.4078 118.003 71.1336 118.835L68.7033 125.965H68.7064Z" fill="#153C4A"/>
<path d="M78.95 120.78H82.1399L80.0847 118.661C79.2903 117.842 78.2281 117.337 77.0901 117.24C76.0783 117.155 75.139 117.772 74.8237 118.737L72.674 125.262L74.7733 125.369C75.8608 125.426 76.879 124.836 77.3739 123.869L78.9531 120.78H78.95Z" fill="white"/>
<path d="M74.9118 125.691C74.8582 125.691 74.8078 125.691 74.7542 125.688L72.6549 125.58C72.5572 125.574 72.4657 125.524 72.4122 125.445C72.3554 125.363 72.3428 125.262 72.3743 125.168L74.5241 118.643C74.8897 117.536 75.9489 116.83 77.1183 116.931C78.3288 117.035 79.4635 117.574 80.3114 118.447L82.3666 120.565C82.4549 120.657 82.4802 120.792 82.4297 120.909C82.3793 121.026 82.2658 121.101 82.1397 121.101H79.1451L77.6542 124.02C77.1278 125.051 76.0655 125.697 74.915 125.697L74.9118 125.691ZM73.0993 124.969L74.7857 125.054C75.7472 125.105 76.6518 124.581 77.0899 123.724L78.6692 120.635C78.7227 120.531 78.83 120.461 78.9497 120.461H81.3927L79.8544 118.876C79.1136 118.113 78.1207 117.64 77.0584 117.549C76.1916 117.476 75.3909 118 75.1167 118.832L73.0962 124.966L73.0993 124.969Z" fill="#153C4A"/>
<path d="M24.9777 83.2717V67.8828H12.7567H0.53894V83.2717H12.7567H24.9777Z" fill="white"/>
<path d="M24.9786 83.5872H0.539826C0.366457 83.5872 0.224609 83.4453 0.224609 83.272V67.8831C0.224609 67.7097 0.366457 67.5679 0.539826 67.5679H24.9786C25.1519 67.5679 25.2938 67.7097 25.2938 67.8831V83.272C25.2938 83.4453 25.1519 83.5872 24.9786 83.5872ZM0.855042 82.9567H24.6634V68.1983H0.855042V82.9567Z" fill="#153C4A"/>
<path d="M24.9777 83.2717V67.8828L12.7567 76.3811L0.53894 67.8828V83.2717H12.7567H24.9777Z" fill="white"/>
<path d="M24.9786 83.5872H0.539826C0.366457 83.5872 0.224609 83.4453 0.224609 83.272V67.8831C0.224609 67.7665 0.290817 67.6593 0.394839 67.6026C0.49886 67.549 0.624879 67.5553 0.719444 67.6246L12.7608 75.9968L24.802 67.6246C24.8997 67.5584 25.0258 67.549 25.1267 67.6026C25.2307 67.6562 25.2969 67.7633 25.2969 67.8831V83.272C25.2969 83.4453 25.1551 83.5872 24.9817 83.5872H24.9786ZM0.855042 82.9568H24.6634V68.4852L12.9372 76.6398C12.8301 76.7155 12.6851 76.7155 12.5779 76.6398L0.851887 68.4852V82.9568H0.855042Z" fill="#153C4A"/>
<path d="M24.9788 70.2848V67.8828L12.7578 76.3811L24.9788 70.2848Z" fill="#153C4A"/>
<path d="M27.0427 103.48C26.7464 103.187 26.2925 103.19 25.8102 103.194H25.6368H22.8094C22.3271 103.194 21.8732 103.187 21.5769 103.48C21.4067 103.647 21.3215 103.887 21.3215 104.19V104.505C18.4783 104.338 16.1961 102.059 16.0322 99.2155H16.3474C16.65 99.2155 16.8896 99.1304 17.0567 98.9602C17.3498 98.6639 17.3467 98.21 17.3436 97.7277V97.5543V94.7268C17.3467 94.2446 17.3498 93.7906 17.0567 93.4943C16.8896 93.3241 16.65 93.239 16.3474 93.239H13.6933C12.7792 93.239 12.0353 93.9829 12.0353 94.8971V97.5512C12.0353 103.588 16.9463 108.499 22.9827 108.499H25.6368C26.551 108.499 27.2949 107.755 27.2949 106.841V104.186C27.2949 103.884 27.2098 103.644 27.0395 103.477L27.0427 103.48Z" fill="white"/>
<path d="M63.5614 94.6355C71.2248 94.6355 77.4372 88.423 77.4372 80.7596C77.4372 73.0962 71.2248 66.8838 63.5614 66.8838C55.898 66.8838 49.6855 73.0962 49.6855 80.7596C49.6855 88.423 55.898 94.6355 63.5614 94.6355Z" fill="#153C4A"/>
<path d="M73.0811 93.0595C76.488 93.0595 79.2499 90.2976 79.2499 86.8907C79.2499 83.4838 76.488 80.7219 73.0811 80.7219C69.6742 80.7219 66.9124 83.4838 66.9124 86.8907C66.9124 90.2976 69.6742 93.0595 73.0811 93.0595Z" fill="#153C4A"/>
<path d="M57.328 75.7504L56.9813 74.3604C54.3682 75.99 52.625 78.8805 52.625 82.1872V86.5466C52.625 89.9478 55.38 92.7028 58.7812 92.7028H59.7142V99.2372H67.7775V82.5528C63.0902 83.3661 58.4975 80.4409 57.328 75.7504Z" fill="white"/>
<path d="M58.8859 81.7746C59.0908 82.301 59.5668 82.6068 59.945 82.4586C60.3233 82.3105 60.462 81.7651 60.2571 81.2387C60.0522 80.7123 59.5762 80.4065 59.1979 80.5547C58.8197 80.7028 58.681 81.2482 58.8859 81.7746Z" fill="#153C4A"/>
<path d="M59.1475 89.7372C58.1671 89.7372 57.6565 88.7883 57.1837 87.2879C57.1585 87.2028 57.1679 87.1114 57.2121 87.0357C57.2562 86.9601 57.3287 86.9034 57.4138 86.8845C58.3311 86.6733 60.5186 86.2099 61.023 86.4211C61.1522 86.4747 61.3634 86.6354 61.3287 87.0799C61.2688 87.8301 60.443 89.4692 59.5856 89.6773C59.428 89.7151 59.283 89.734 59.1475 89.734V89.7372ZM57.8929 87.4266C58.4824 89.1477 58.9268 89.1918 59.4374 89.0689C59.6234 89.0216 59.9576 88.7222 60.2823 88.1516C60.5786 87.6284 60.7015 87.1745 60.7046 86.9916C60.3264 86.9601 59.0561 87.1713 57.8929 87.4266Z" fill="#153C4A"/>
<path d="M56.5382 85.7023C56.5382 85.7023 56.5256 85.7023 56.5193 85.7023C56.3743 85.6928 55.0914 85.6014 54.6911 84.8575C54.5618 84.6148 54.4735 84.2113 54.7982 83.647C55.5957 82.2632 55.8857 80.4224 55.8888 80.4035C55.914 80.2301 56.0717 80.1135 56.2482 80.1387C56.4216 80.1639 56.5382 80.3247 56.513 80.498C56.5003 80.5768 56.2041 82.4713 55.3467 83.9591C55.2017 84.2081 55.1702 84.4099 55.2459 84.5549C55.4255 84.8858 56.1442 85.0466 56.5571 85.0718C56.7305 85.0813 56.8629 85.2326 56.8534 85.406C56.844 85.573 56.7053 85.7023 56.5382 85.7023Z" fill="#153C4A"/>
<path d="M61.4762 80.0755C61.41 80.0755 61.3407 80.0534 61.284 80.0093C60.9246 79.7319 60.4266 79.5554 59.8813 79.5176C59.2193 79.4703 58.5889 79.6374 58.198 79.962C58.0625 80.0723 57.8639 80.0534 57.7536 79.921C57.6432 79.7855 57.6621 79.5869 57.7945 79.4766C58.3083 79.0511 59.1058 78.8304 59.9254 78.8903C60.5936 78.9376 61.2115 79.1582 61.6685 79.5113C61.8072 79.6184 61.8324 79.817 61.7252 79.9526C61.6622 80.0314 61.5708 80.0755 61.4762 80.0755Z" fill="#153C4A"/>
<path d="M53.0555 82.8053C53.2604 83.3317 53.7364 83.6375 54.1147 83.4893C54.493 83.3412 54.6317 82.7959 54.4268 82.2695C54.2219 81.743 53.7459 81.4373 53.3676 81.5854C52.9893 81.7336 52.8506 82.2789 53.0555 82.8053Z" fill="#153C4A"/>
<path d="M55.6423 81.1065C55.5761 81.1065 55.5067 81.0845 55.45 81.0403C55.0906 80.7629 54.5926 80.5864 54.0473 80.5486C53.3853 80.5013 52.7549 80.6684 52.364 80.993C52.2285 81.1034 52.0299 81.0845 51.9196 80.9521C51.8093 80.8165 51.8281 80.6179 51.9605 80.5076C52.4743 80.0821 53.2718 79.8614 54.0914 79.9213C54.7596 79.9686 55.3775 80.1892 55.8345 80.5423C55.9732 80.6495 55.9984 80.848 55.8913 80.9836C55.8282 81.0624 55.7369 81.1065 55.6423 81.1065Z" fill="#153C4A"/>
<path d="M59.6707 93.3873C59.5005 93.3873 59.3587 93.2518 59.3555 93.0784C59.3524 92.905 59.4879 92.76 59.6644 92.7569C62.9679 92.6812 64.6354 89.5196 64.6512 89.4881C64.73 89.3336 64.9191 89.2737 65.0767 89.3525C65.2312 89.4313 65.2911 89.6205 65.2123 89.7749C65.1398 89.9199 63.3651 93.3022 59.6802 93.3873H59.6739H59.6707Z" fill="#153C4A"/>
<path d="M72.0609 85.6456C72.4264 84.097 71.4673 82.5452 69.9187 82.1797C68.37 81.8142 66.8183 82.7733 66.4528 84.322C66.0873 85.8706 67.0464 87.4223 68.595 87.7878C70.1437 88.1533 71.6954 87.1942 72.0609 85.6456Z" fill="white"/>
<path d="M68.1453 85.3209C67.9719 85.3209 67.8301 85.1791 67.8301 85.0057C67.8301 83.9749 68.6685 83.1333 69.7024 83.1333C69.8758 83.1333 70.0177 83.2751 70.0177 83.4485C70.0177 83.6219 69.8758 83.7637 69.7024 83.7637C69.0184 83.7637 68.4605 84.3217 68.4605 85.0057C68.4605 85.1791 68.3187 85.3209 68.1453 85.3209Z" fill="#153C4A"/>
<path d="M51.5262 121.164C51.4347 121.164 51.3433 121.123 51.2803 121.044C49.5718 118.907 49.3259 115.982 50.653 113.59L51.876 111.386L51.6554 105.665C51.6491 105.492 51.7846 105.343 51.958 105.337C52.1187 105.331 52.2795 105.466 52.2858 105.64L52.5096 111.449C52.5096 111.506 52.497 111.563 52.4718 111.613L51.2046 113.895C50.0005 116.061 50.2243 118.712 51.772 120.65C51.8792 120.786 51.8571 120.984 51.7216 121.095C51.6648 121.142 51.5924 121.164 51.5262 121.164Z" fill="#153C4A"/>
<path d="M62.9124 103.257C62.6287 103.257 62.3418 103.238 62.0518 103.2C59.5049 102.866 57.4812 101.126 56.772 98.6577L55.467 94.1218C55.4197 93.9547 55.5143 93.7813 55.6813 93.7309C55.8515 93.6836 56.0249 93.7782 56.0722 93.9453L57.3772 98.4812C58.0171 100.704 59.839 102.273 62.1338 102.573C64.4286 102.872 66.5909 101.829 67.7825 99.843L70.6951 94.9855C70.7834 94.8373 70.9788 94.7869 71.1269 94.8783C71.2751 94.9666 71.3255 95.162 71.2341 95.3101L68.3215 100.168C67.1489 102.119 65.1283 103.254 62.9124 103.254V103.257Z" fill="#153C4A"/>
<path d="M77.0865 117.555C76.9604 117.555 76.8438 117.479 76.7933 117.356L72.4591 106.44C72.3961 106.28 72.4749 106.097 72.6356 106.031C72.7964 105.967 72.9792 106.046 73.0454 106.207L77.3797 117.123C77.4427 117.284 77.3639 117.467 77.2031 117.533C77.1653 117.549 77.1243 117.555 77.0865 117.555Z" fill="#153C4A"/>
<path d="M151.428 125.332C148.67 125.711 119.549 111.668 114.639 118.14C114.72 126.079 111.881 132.374 106.975 133.694C103.091 134.736 98.7664 132.43 95.1929 127.997C93.5697 128.788 91.9829 129.604 90.4606 130.452C94.7448 137.146 136.851 143.538 145.815 144.455C173.184 147.261 157.569 124.633 151.428 125.332Z" fill="#153C4A"/>
<path d="M83.457 100.344C79.4268 93.0521 82.0708 83.8738 89.3625 79.8436C96.6542 75.8134 105.833 78.4573 109.863 85.749C113.893 93.0407 111.249 102.219 103.957 106.249C96.6656 110.28 87.4873 107.636 83.457 100.344Z" fill="#153C4A"/>
<path d="M104.005 94.4833C99.0447 93.9759 95.4347 89.5433 95.9421 84.5829C96.4495 79.6224 100.882 76.0125 105.843 76.5198C110.803 77.0272 114.413 81.4597 113.906 86.4202C113.398 91.3807 108.966 94.9906 104.005 94.4833Z" fill="#153C4A"/>
<path d="M115.475 113.767C121.944 109.302 122.545 98.9608 116.824 90.6711C111.098 82.3814 101.213 79.2844 94.7489 83.7503C89.3503 87.4812 88.0421 95.3025 91.0866 102.607C89.3867 101.291 87.0407 100.911 84.9289 101.832C81.9894 103.112 80.5277 106.584 81.6785 109.576C82.9221 112.819 86.5966 114.349 89.7582 112.992C90.4365 112.702 91.026 112.298 91.5348 111.821L95.6534 127.767C93.8686 128.627 121.613 132.875 115.297 119.893L112.491 115.229C113.545 114.894 114.55 114.41 115.483 113.767H115.475Z" fill="white"/>
<path d="M104.585 129.531C108.821 129.531 113.371 128.833 115.467 126.475C116.957 124.799 117.018 122.526 115.653 119.715L113.089 115.451C114.026 115.108 114.906 114.656 115.709 114.099C118.944 111.866 120.866 108.163 121.128 103.673C121.386 99.2193 119.977 94.5192 117.159 90.437C114.34 86.3547 110.444 83.3708 106.188 82.0383C101.896 80.6937 97.7531 81.1823 94.5188 83.4152C89.3625 86.9766 87.6908 94.3335 90.271 101.618C88.567 100.758 86.548 100.685 84.7633 101.46C81.63 102.825 80.0714 106.532 81.2949 109.722C81.9329 111.389 83.1886 112.685 84.828 113.38C86.4673 114.074 88.2722 114.066 89.9075 113.368C90.4001 113.158 90.8645 112.883 91.2926 112.552L95.1971 127.666C95.1527 127.763 95.1526 127.848 95.1567 127.888C95.1769 128.231 95.5242 128.401 95.8997 128.53C97.1353 128.958 100.729 129.535 104.581 129.535L104.585 129.531ZM101.524 82.107C102.954 82.107 104.436 82.3411 105.946 82.8136C110.028 84.0936 113.775 86.9685 116.493 90.9014C119.21 94.8382 120.571 99.3566 120.32 103.629C120.074 107.864 118.273 111.345 115.249 113.436C114.377 114.038 113.404 114.515 112.362 114.846C112.245 114.882 112.152 114.971 112.107 115.088C112.063 115.205 112.075 115.334 112.14 115.439L114.946 120.103C116.311 122.917 116.109 125.009 114.308 126.467C109.992 129.967 97.846 128.498 96.0491 127.726C96.0491 127.706 96.0451 127.686 96.037 127.666L91.9183 111.72C91.882 111.583 91.777 111.474 91.6397 111.434C91.5025 111.393 91.3531 111.434 91.2521 111.527C90.7595 111.995 90.2023 112.362 89.5966 112.621C88.1632 113.235 86.5845 113.239 85.147 112.633C83.7095 112.027 82.6112 110.889 82.0539 109.431C80.9839 106.641 82.3447 103.394 85.0904 102.199C86.9922 101.371 89.1969 101.65 90.8403 102.926C90.9856 103.039 91.1875 103.039 91.3329 102.926C91.4782 102.813 91.5308 102.619 91.4621 102.45C88.4257 95.1613 89.8712 87.6065 94.9831 84.0774C96.8809 82.7651 99.1218 82.1029 101.528 82.1029L101.524 82.107Z" fill="#153C4A"/>
<path d="M90.4581 108.514C90.4985 108.514 90.5429 108.506 90.5833 108.494C90.7933 108.425 90.9103 108.195 90.8417 107.985C90.2925 106.301 89.3921 105.143 88.1646 104.549C86.3961 103.693 84.6194 104.331 84.5427 104.355C84.3327 104.432 84.2277 104.666 84.3044 104.872C84.3812 105.082 84.6113 105.187 84.8213 105.11C84.8536 105.098 86.3758 104.569 87.8214 105.276C88.8389 105.772 89.5981 106.77 90.0745 108.232C90.131 108.401 90.2885 108.51 90.4581 108.51V108.514Z" fill="#153C4A"/>
<path d="M108.683 116.218C109.911 116.218 111.11 116.057 112.257 115.73C112.471 115.669 112.596 115.443 112.536 115.229C112.475 115.015 112.249 114.89 112.035 114.95C108.041 116.093 103.374 115.084 99.2268 112.184C99.0451 112.055 98.7908 112.1 98.6656 112.285C98.5364 112.467 98.5808 112.721 98.7666 112.847C101.932 115.059 105.401 116.218 108.683 116.218Z" fill="#153C4A"/>
<path d="M112.313 89.6129C112.253 90.1176 113.335 90.6587 114.732 90.8283C116.129 90.9938 117.308 90.7193 117.369 90.2145C117.429 89.7098 116.347 89.1687 114.95 88.9991C113.553 88.8336 112.374 89.1082 112.313 89.6129Z" fill="#153C4A"/>
<path d="M101.694 96.3716C102.057 96.8844 103.507 96.4846 104.928 95.4792C106.354 94.4698 107.21 93.2382 106.846 92.7254C106.483 92.2126 105.033 92.6124 103.612 93.6178C102.187 94.6272 101.33 95.8588 101.694 96.3716Z" fill="#153C4A"/>
<path d="M113.376 98.7466C113.529 98.7466 113.675 98.6578 113.743 98.5124C114.107 97.721 114.022 96.7883 113.525 96.0776L111.167 92.6939C111.038 92.5122 110.788 92.4678 110.606 92.593C110.424 92.7222 110.38 92.9725 110.505 93.1542L112.863 96.5379C113.202 97.0225 113.255 97.6362 113.009 98.1733C112.916 98.3751 113.009 98.6174 113.206 98.7103C113.263 98.7345 113.319 98.7466 113.376 98.7466Z" fill="#153C4A"/>
<path d="M111.156 105.938C111.987 105.938 112.908 105.805 113.897 105.446C114.107 105.369 114.216 105.139 114.139 104.929C114.063 104.719 113.833 104.61 113.623 104.687C110.186 105.926 107.55 104.117 107.526 104.097C107.344 103.968 107.093 104.012 106.964 104.194C106.835 104.376 106.879 104.626 107.061 104.755C107.15 104.82 108.761 105.938 111.16 105.938H111.156Z" fill="#153C4A"/>
<path d="M91.2703 84.9347C89.9852 81.8657 91.4314 78.336 94.5005 77.051C97.5695 75.7659 101.099 77.2121 102.384 80.2811C103.669 83.3501 102.223 86.8799 99.1541 88.1649C96.0851 89.45 92.5554 88.0038 91.2703 84.9347Z" fill="#153C4A"/>
<path d="M90.2001 95.3909C86.8729 95.3909 84.1757 92.6937 84.1757 89.3665C84.1757 86.0393 86.8729 83.342 90.2001 83.342C93.5273 83.342 96.2246 86.0393 96.2246 89.3665C96.2246 92.6937 93.5273 95.3909 90.2001 95.3909Z" fill="#153C4A"/>
<path d="M96.1094 101.682C96.1094 103.245 94.8415 104.512 93.2789 104.512C91.7162 104.512 90.4483 103.245 90.4483 101.682C90.4483 100.119 85.8169 90.8323 90.2586 90.8323C95.5199 90.8323 96.1053 100.119 96.1053 101.682H96.1094Z" fill="#153C4A"/>
<path d="M80.4389 88.5429C80.4873 88.5429 80.5399 88.5348 80.5883 88.5146C80.871 88.4015 81.727 88.1633 82.268 88.3935C82.474 88.4823 82.7122 88.3854 82.797 88.1795C82.8858 87.9735 82.7889 87.7353 82.587 87.6505C81.626 87.2386 80.342 87.7434 80.2895 87.7636C80.0836 87.8443 79.9826 88.0826 80.0634 88.2885C80.128 88.446 80.2774 88.5429 80.4389 88.5429Z" fill="#153C4A"/>
<path d="M82.7882 87.667C82.9578 87.667 83.1193 87.5579 83.1717 87.3843C83.2404 87.1743 83.1233 86.9442 82.9134 86.8755C82.873 86.8594 82.0371 86.5687 81.8675 85.6925C81.8272 85.4744 81.6132 85.3291 81.3951 85.3735C81.1771 85.4139 81.0317 85.6279 81.0761 85.8459C81.3386 87.2066 82.6105 87.6266 82.667 87.6468C82.7074 87.6589 82.7478 87.667 82.7882 87.667Z" fill="#153C4A"/>
<path d="M147.335 89.3103L144.415 94.0345C143.119 96.1342 142.497 98.5852 142.639 101.048L144.573 134.905C144.92 141.003 150.529 145.42 156.537 144.326C162.731 143.199 166.421 136.771 164.273 130.856L152.83 99.3685L160.667 93.7559L159.262 84.8687L147.335 89.3143V89.3103Z" fill="white"/>
<path d="M154.724 144.895C155.354 144.895 155.984 144.838 156.613 144.725C159.682 144.168 162.335 142.294 163.89 139.589C165.444 136.884 165.723 133.649 164.657 130.718L153.318 99.5177L160.906 94.0827C161.031 93.9939 161.091 93.8405 161.071 93.6911L159.666 84.8038C159.646 84.6827 159.577 84.5777 159.472 84.5171C159.367 84.4565 159.242 84.4444 159.129 84.4888L147.201 88.9345C147.116 88.9668 147.048 89.0233 146.999 89.1L144.08 93.8243C142.731 96.0047 142.097 98.5122 142.243 101.072L144.177 134.929C144.35 137.95 145.812 140.756 148.19 142.63C150.068 144.107 152.378 144.895 154.728 144.895H154.724ZM160.231 93.5699L152.6 99.0371C152.454 99.1421 152.394 99.3319 152.454 99.5015L163.898 130.989C164.883 133.698 164.624 136.682 163.187 139.181C161.753 141.681 159.303 143.409 156.468 143.926C153.718 144.426 150.88 143.72 148.683 141.992C146.486 140.263 145.134 137.671 144.976 134.881L143.042 101.024C142.905 98.6293 143.498 96.2833 144.758 94.2442L147.605 89.6371L158.943 85.4135L160.231 93.5699Z" fill="#153C4A"/>
<path d="M123.204 90.4775L128.933 88.725L129.204 87.9094C129.624 86.6496 130.585 85.6401 131.824 85.1637L140.744 81.7113L144.253 78.6709L159.835 72.6787L165.383 90.5825L145.068 95.1614L143.546 93.9904L134.15 96.0093C133.209 96.2112 132.224 96.0093 131.445 95.44L130.569 94.806L124.488 95.977C123.385 94.9473 122.84 93.4534 123.022 91.9594L123.2 90.4815L123.204 90.4775Z" fill="url(#paint5_linear_1_1293)"/>
<path d="M171.16 81.7066C171.16 86.6166 167.179 90.5939 162.273 90.5939C157.367 90.5939 153.386 86.6126 153.386 81.7066C153.386 77.8343 155.865 74.5354 159.321 73.32C160.246 72.993 161.239 72.8193 162.273 72.8193C167.183 72.8193 171.16 76.8006 171.16 81.7066Z" fill="#153C4A"/>
<path d="M162.273 90.9981C167.398 90.9981 171.564 86.8311 171.564 81.7071C171.564 76.583 167.398 72.416 162.273 72.416C161.216 72.416 160.178 72.5937 159.189 72.9409C155.478 74.2492 152.982 77.7702 152.982 81.7071C152.982 86.8311 157.149 90.9981 162.273 90.9981ZM162.273 73.2195C166.953 73.2195 170.757 77.0272 170.757 81.703C170.757 86.3788 166.949 90.1865 162.273 90.1865C157.598 90.1865 153.79 86.3788 153.79 81.703C153.79 78.1094 156.067 74.8912 159.455 73.696C160.359 73.377 161.308 73.2155 162.273 73.2155V73.2195Z" fill="url(#paint6_linear_1_1293)"/>
<path d="M160.163 91.0145C155.604 91.0145 151.909 87.3193 151.909 82.7611C151.909 78.203 155.604 74.5078 160.163 74.5078C164.721 74.5078 168.416 78.203 168.416 82.7611C168.416 87.3193 164.721 91.0145 160.163 91.0145Z" fill="white"/>
<path d="M160.163 91.4177C164.936 91.4177 168.82 87.5333 168.82 82.7606C168.82 77.9879 164.936 74.1035 160.163 74.1035C155.39 74.1035 151.506 77.9879 151.506 82.7606C151.506 87.5333 155.39 91.4177 160.163 91.4177ZM160.163 74.9111C164.492 74.9111 168.013 78.4321 168.013 82.7606C168.013 87.0892 164.492 90.6102 160.163 90.6102C155.835 90.6102 152.314 87.0892 152.314 82.7606C152.314 78.4321 155.835 74.9111 160.163 74.9111Z" fill="#153C4A"/>
<path d="M105.934 95.2741L111.664 93.5217L111.934 92.706C112.354 91.4462 113.315 90.4368 114.555 89.9603L123.474 86.508L126.983 83.4675L141.754 77.6934L146.139 95.7748L127.799 99.958L126.277 98.787L116.881 100.806C115.94 101.008 114.955 100.806 114.175 100.237L113.299 99.6026L107.218 100.774C106.116 99.744 105.571 98.25 105.752 96.756L105.93 95.2781L105.934 95.2741Z" fill="url(#paint7_linear_1_1293)"/>
<path d="M153.887 86.5005C153.887 91.4105 149.905 95.3878 144.999 95.3878C140.093 95.3878 136.112 91.4065 136.112 86.5005C136.112 82.6283 138.591 79.3334 142.048 78.114C142.972 77.7869 143.966 77.6133 144.999 77.6133C149.909 77.6133 153.887 81.5946 153.887 86.5005Z" fill="#153C4A"/>
<path d="M145 95.7911C150.124 95.7911 154.291 91.624 154.291 86.5C154.291 81.376 150.124 77.209 145 77.209C143.942 77.209 142.904 77.3866 141.915 77.7339C138.204 79.0422 135.709 82.5631 135.709 86.5C135.709 91.624 139.876 95.7911 145 95.7911ZM145 78.0166C149.68 78.0166 153.483 81.8242 153.483 86.5C153.483 91.1758 149.676 94.9835 145 94.9835C140.324 94.9835 136.516 91.1758 136.516 86.5C136.516 82.9064 138.794 79.6882 142.182 78.493C143.086 78.174 144.031 78.0125 145 78.0125V78.0166Z" fill="#153C4A"/>
<path d="M140.446 95.0577C136.26 93.6973 133.969 89.2006 135.329 85.014C136.689 80.8274 141.186 78.5362 145.373 79.8965C149.559 81.2569 151.85 85.7536 150.49 89.9402C149.13 94.1268 144.633 96.418 140.446 95.0577Z" fill="white"/>
<path d="M142.891 95.9281C147.506 95.9281 151.266 92.1729 151.266 87.5537C151.266 82.9344 147.51 79.1792 142.891 79.1792C138.272 79.1792 134.517 82.9344 134.517 87.5537C134.517 92.1729 138.272 95.9281 142.891 95.9281ZM142.891 79.9908C147.062 79.9908 150.458 83.3866 150.458 87.5577C150.458 91.7288 147.062 95.1246 142.891 95.1246C138.72 95.1246 135.324 91.7288 135.324 87.5577C135.324 83.3866 138.72 79.9908 142.891 79.9908Z" fill="#153C4A"/>
<path d="M98.2744 164.628L84.2389 134.631L141.079 142.174L149.85 165.504C125.81 180.963 98.2744 164.628 98.2744 164.628Z" fill="#153C4A"/>
<path d="M139.735 103.358C139.658 101.234 138.519 99.2917 136.702 98.1894L134.578 96.5743L131.316 92.2982L131.57 87.3963C131.623 86.3989 130.904 85.5268 129.915 85.3895L129.228 85.2926L129.24 85.0342C129.305 83.7582 128.388 82.6438 127.125 82.4661L125.703 82.2642L125.687 82.3732C125.308 81.8402 124.726 81.4526 124.032 81.3557L122.61 81.1538L121.98 84.7192C121.625 84.0247 120.955 83.5119 120.135 83.3948L118.714 83.1929L117.426 91.8258L118.956 97.931L128.736 108.482L122.186 134.445L100.2 121.286C94.9874 118.165 88.2321 119.909 85.1836 125.162C82.0381 130.581 84.0974 137.53 89.6858 140.356L118.346 154.852C121.266 156.585 124.516 157.687 127.888 158.083C135.164 158.935 141.487 153.108 141.229 145.787L139.735 103.346V103.358Z" fill="white"/>
<path d="M129.284 158.579C132.369 158.579 135.361 157.424 137.654 155.308C140.307 152.861 141.757 149.389 141.631 145.783L140.137 103.341C140.057 101.08 138.857 99.0288 136.927 97.8538L134.864 96.283L131.727 92.1685L131.973 87.416C132.038 86.2006 131.173 85.1588 129.97 84.9892L129.647 84.9448C129.667 83.4993 128.626 82.2718 127.18 82.0658L125.795 81.872C125.347 81.3754 124.749 81.0564 124.087 80.9595L122.666 80.7576C122.448 80.7253 122.25 80.8747 122.213 81.0887L121.741 83.7456C121.317 83.3458 120.776 83.0834 120.191 82.9986L118.769 82.7967C118.551 82.7644 118.345 82.9178 118.313 83.1359L117.025 91.7687C117.017 91.8212 117.021 91.8737 117.033 91.9262L118.563 98.0314C118.579 98.096 118.612 98.1566 118.66 98.2091L128.294 108.598L121.931 133.823L100.409 120.942C97.7967 119.379 94.732 118.935 91.7804 119.698C88.8287 120.462 86.3616 122.331 84.8313 124.964C83.2525 127.681 82.8769 130.839 83.7693 133.851C84.6616 136.863 86.6967 139.306 89.503 140.723L118.164 155.219C121.127 156.98 124.39 158.082 127.838 158.49C128.319 158.546 128.803 158.575 129.284 158.575V158.579ZM139.33 103.369L140.824 145.811C140.941 149.183 139.588 152.429 137.109 154.714C134.63 157 131.282 158.086 127.935 157.694C124.6 157.303 121.442 156.237 118.555 154.521L89.8705 140.009C87.2661 138.692 85.3764 136.427 84.5446 133.629C83.7169 130.831 84.0641 127.899 85.5298 125.376C86.9511 122.929 89.2406 121.192 91.9823 120.486C94.7199 119.779 97.5665 120.191 99.9933 121.641L121.979 134.8C122.088 134.865 122.222 134.877 122.343 134.828C122.46 134.78 122.549 134.679 122.581 134.554L129.13 108.59C129.163 108.457 129.13 108.316 129.033 108.219L119.322 97.7447L117.837 91.8172L119.052 83.6608L120.078 83.8061C120.736 83.899 121.313 84.3149 121.62 84.9125C121.701 85.0659 121.87 85.1548 122.04 85.1265C122.209 85.1023 122.347 84.969 122.379 84.7994L122.944 81.6176L123.978 81.763C124.535 81.8397 125.028 82.1425 125.359 82.615C125.456 82.7482 125.621 82.8128 125.783 82.7725C125.835 82.7603 125.884 82.7361 125.924 82.7078L127.071 82.8694C128.137 83.0188 128.896 83.9434 128.84 85.0175L128.827 85.2759C128.815 85.4859 128.969 85.6676 129.175 85.6958L129.861 85.7927C130.649 85.9058 131.21 86.5842 131.169 87.3796L130.915 92.2815C130.911 92.3784 130.939 92.4713 130.996 92.548L134.258 96.8241C134.279 96.8524 134.307 96.8806 134.335 96.9008L136.459 98.516C136.459 98.516 136.483 98.5321 136.495 98.5402C138.203 99.5739 139.265 101.383 139.334 103.378L139.33 103.369Z" fill="#153C4A"/>
<path d="M122.251 85.9672C122.315 84.6913 121.399 83.5768 120.135 83.3992L118.714 83.1973L117.426 91.8302L118.956 97.9354L122.251 85.9632V85.9672Z" fill="white"/>
<path d="M118.956 98.3433C118.988 98.3433 119.02 98.3433 119.053 98.3312C119.271 98.2787 119.4 98.0566 119.347 97.8426L117.837 91.8141L119.053 83.6577L120.078 83.803C121.144 83.9524 121.903 84.8771 121.847 85.9512C121.835 86.1732 122.004 86.363 122.23 86.3751C122.456 86.3832 122.642 86.2136 122.654 85.9915C122.731 84.4975 121.673 83.2135 120.191 83.0036L118.77 82.8017C118.548 82.7694 118.346 82.9228 118.314 83.1408L117.026 91.7737C117.017 91.8262 117.022 91.8787 117.034 91.9312L118.564 98.0364C118.608 98.2181 118.774 98.3433 118.956 98.3433Z" fill="#153C4A"/>
<path d="M126.146 83.9277C126.211 82.6517 125.294 81.5373 124.031 81.3596L122.609 81.1577L120.982 90.3519L122.771 97.4261L126.151 83.9236L126.146 83.9277Z" fill="white"/>
<path d="M122.773 97.8336C122.806 97.8336 122.838 97.8295 122.874 97.8214C123.092 97.7649 123.222 97.5469 123.165 97.3329L121.396 90.3393L122.943 81.6136L123.977 81.759C125.043 81.9084 125.802 82.833 125.745 83.9071C125.733 84.1292 125.903 84.3189 126.129 84.3311C126.351 84.3432 126.541 84.1695 126.553 83.9475C126.629 82.4535 125.572 81.1694 124.09 80.9595L122.668 80.7576C122.45 80.7253 122.252 80.8747 122.216 81.0887L120.589 90.2828C120.581 90.3394 120.581 90.3959 120.597 90.4524L122.386 97.5267C122.43 97.7084 122.596 97.8336 122.777 97.8336H122.773Z" fill="#153C4A"/>
<path d="M129.245 85.0344C129.309 83.7584 128.393 82.644 127.129 82.4663L125.708 82.2644L124.42 90.8973L125.95 97.0025L129.245 85.0303V85.0344Z" fill="white"/>
<path d="M125.95 97.4098C125.982 97.4098 126.014 97.4098 126.047 97.3977C126.265 97.3452 126.394 97.1231 126.341 96.9091L124.831 90.8806L126.047 82.7242L127.072 82.8696C128.138 83.019 128.898 83.9436 128.841 85.0177C128.829 85.2398 128.998 85.4295 129.225 85.4417C129.451 85.4497 129.636 85.2802 129.649 85.0581C129.725 83.5641 128.667 82.28 127.185 82.0701L125.764 81.8682C125.546 81.8399 125.34 81.9893 125.308 82.2074L124.02 90.8402C124.012 90.8927 124.016 90.9452 124.028 90.9977L125.558 97.1029C125.603 97.2846 125.768 97.4098 125.95 97.4098Z" fill="#153C4A"/>
<path d="M134.578 96.5742L131.316 92.2981L131.57 87.3962C131.622 86.3989 130.904 85.5267 129.914 85.3894L128.804 85.2319L127.799 91.9832L128.998 96.7559L134.578 96.5702V96.5742Z" fill="white"/>
<path d="M128.995 97.1599C129.028 97.1599 129.06 97.1599 129.092 97.1478C129.31 97.0953 129.439 96.8732 129.387 96.6592L128.208 91.9632L129.145 85.6884L129.859 85.7894C130.647 85.9024 131.208 86.5808 131.168 87.3762L130.913 92.2782C130.909 92.3751 130.938 92.4679 130.994 92.5447L134.257 96.8207C134.394 96.9984 134.644 97.0307 134.822 96.8974C135 96.7602 135.032 96.5098 134.899 96.3321L131.729 92.1772L131.975 87.4247C132.04 86.2093 131.18 85.1675 129.973 84.9979L128.862 84.8405C128.644 84.8082 128.438 84.9616 128.406 85.1797L127.4 91.9309C127.392 91.9834 127.396 92.0359 127.408 92.0884L128.608 96.8611C128.652 97.0428 128.818 97.168 128.999 97.168L128.995 97.1599Z" fill="#153C4A"/>
<path d="M119.301 132.592C119.256 131.518 101.558 119.029 101.558 119.029C99.4547 117.769 97.0563 117.107 94.6174 117.107C89.8084 117.107 85.3183 119.687 82.9037 123.846C81.014 127.1 80.5617 130.88 81.6317 134.49C82.7017 138.099 85.1406 141.023 88.5001 142.723L107.583 152.373C107.583 152.276 107.575 152.179 107.575 152.082C107.575 143.805 112.279 136.561 119.305 132.592H119.301Z" fill="#153C4A"/>
<path d="M107.579 152.777C107.656 152.777 107.729 152.757 107.793 152.716C107.914 152.639 107.983 152.506 107.983 152.365V152.244C107.979 152.191 107.975 152.139 107.975 152.082C107.975 144.176 112.283 137.021 119.499 132.943C119.632 132.87 119.709 132.725 119.705 132.575C119.689 132.232 119.669 131.707 110.652 125.081C106.271 121.859 101.834 118.73 101.793 118.697C99.6047 117.385 97.1295 116.699 94.6179 116.699C93.8265 116.699 93.027 116.767 92.2477 116.905C92.0296 116.941 91.8802 117.151 91.9206 117.373C91.9569 117.591 92.167 117.74 92.389 117.7C95.4578 117.167 98.6719 117.769 101.353 119.372C107.499 123.708 117.238 130.799 118.736 132.446C111.702 136.585 107.305 143.902 107.171 151.707L94.3756 145.234C94.1778 145.133 93.9356 145.214 93.8346 145.412C93.7337 145.61 93.8144 145.852 94.0122 145.953L107.402 152.724C107.458 152.753 107.523 152.769 107.583 152.769L107.579 152.777Z" fill="#153C4A"/>
<path d="M120.898 142.274C121.092 142.274 121.262 142.137 121.294 141.939L122.586 134.522C122.623 134.304 122.477 134.094 122.259 134.053C122.037 134.013 121.831 134.162 121.791 134.381L120.499 141.798C120.462 142.016 120.608 142.226 120.826 142.266C120.85 142.27 120.874 142.274 120.894 142.274H120.898Z" fill="#153C4A"/>
<defs>
<linearGradient id="paint0_linear_1_1293" x1="113.539" y1="26.0847" x2="92.7667" y2="44.892" gradientUnits="userSpaceOnUse">
<stop stop-color="#FFBC74"/>
<stop offset="1" stop-color="#53D1FF"/>
</linearGradient>
<linearGradient id="paint1_linear_1_1293" x1="95.3807" y1="10.2168" x2="83.5559" y2="21.1725" gradientUnits="userSpaceOnUse">
<stop stop-color="#FFBC74"/>
<stop offset="1" stop-color="#53D1FF"/>
</linearGradient>
<linearGradient id="paint2_linear_1_1293" x1="91.5936" y1="13.3558" x2="89.6445" y2="18.1165" gradientUnits="userSpaceOnUse">
<stop stop-color="#FFBC74"/>
<stop offset="1" stop-color="#53D1FF"/>
</linearGradient>
<linearGradient id="paint3_linear_1_1293" x1="3.57813" y1="93.3854" x2="25.144" y2="113.37" gradientUnits="userSpaceOnUse">
<stop stop-color="#FFBC74"/>
<stop offset="1" stop-color="#53D1FF"/>
</linearGradient>
<linearGradient id="paint4_linear_1_1293" x1="19.2207" y1="89.4165" x2="30.1331" y2="99.5287" gradientUnits="userSpaceOnUse">
<stop stop-color="#FFBC74"/>
<stop offset="1" stop-color="#53D1FF"/>
</linearGradient>
<linearGradient id="paint5_linear_1_1293" x1="165.383" y1="78.5304" x2="151.25" y2="102.251" gradientUnits="userSpaceOnUse">
<stop stop-color="#FFBC74"/>
<stop offset="1" stop-color="#53D1FF"/>
</linearGradient>
<linearGradient id="paint6_linear_1_1293" x1="171.564" y1="77.0615" x2="158.844" y2="88.8494" gradientUnits="userSpaceOnUse">
<stop stop-color="#FFBC74"/>
<stop offset="1" stop-color="#53D1FF"/>
</linearGradient>
<linearGradient id="paint7_linear_1_1293" x1="146.139" y1="83.4906" x2="131.888" y2="106.509" gradientUnits="userSpaceOnUse">
<stop stop-color="#FFBC74"/>
<stop offset="1" stop-color="#53D1FF"/>
</linearGradient>
</defs>
</svg>
