<svg width="123" height="112" viewBox="0 0 123 112" fill="none" xmlns="http://www.w3.org/2000/svg">
<g clip-path="url(#clip0_1_1054)">
<path d="M56.2656 34.5054H113.546C118.577 34.5054 122.657 38.6015 122.657 43.6513V72.0714C122.657 77.1212 118.577 81.2173 113.546 81.2173H74.3698L59.8832 95.7595V81.2173H56.2616C51.2311 81.2173 47.1506 77.1212 47.1506 72.0714V43.6513C47.1506 38.6015 51.2311 34.5054 56.2616 34.5054H56.2656Z" fill="url(#paint0_linear_1_1054)"/>
<path d="M66.7978 6.08496H9.51744C4.48287 6.08496 0.406494 10.1811 0.406494 15.2309V43.6509C0.406494 48.7008 4.48693 52.7969 9.51744 52.7969H48.6937L63.1803 67.3391V52.7969H66.8019C71.8324 52.7969 75.9128 48.7008 75.9128 43.6509V15.2309C75.9128 10.1811 71.8324 6.08496 66.8019 6.08496H66.7978Z" fill="white"/>
<path d="M63.1757 67.7429C63.0702 67.7429 62.9646 67.7022 62.8875 67.6247L48.5227 53.2048H9.51696C4.27126 53.2048 0 48.9212 0 43.6513V15.2312C0 9.96132 4.2672 5.67773 9.51696 5.67773H66.7974C72.0431 5.67773 76.3143 9.96132 76.3143 15.2312V43.6513C76.3143 48.9171 72.0471 53.2048 66.7974 53.2048H63.5817V67.3394C63.5817 67.5025 63.4843 67.6532 63.33 67.7144C63.2813 67.7348 63.2285 67.747 63.1757 67.747V67.7429ZM9.51696 6.49288C4.71788 6.49288 0.812027 10.4137 0.812027 15.2312V43.6513C0.812027 48.4688 4.71788 52.3896 9.51696 52.3896H48.6932C48.8028 52.3896 48.9043 52.4345 48.9815 52.5078L62.7738 66.3531V52.7972C62.7738 52.5731 62.9565 52.3896 63.1798 52.3896H66.8014C71.6005 52.3896 75.5064 48.4688 75.5064 43.6513V15.2312C75.5064 10.4137 71.6005 6.49288 66.8014 6.49288H9.51696Z" fill="#080717"/>
<path d="M58.0767 37.721C19.5784 45.4934 8.18164 34.2648 8.18164 34.2648C8.18164 34.2648 8.8272 26.9244 12.6965 26.0604C16.5658 25.1963 16.781 24.9803 15.0636 20.8801C13.3421 16.7799 10.9141 14.3671 17.0003 13.7557C21.2999 13.3237 21.5151 12.0276 21.7303 7.06339C21.9455 2.09915 29.6882 1.45111 32.4816 2.7472C35.279 4.04328 32.4816 0.803074 35.0638 0.155033C37.646 -0.493007 38.2916 1.01909 38.7179 2.09916C39.1442 3.17922 44.5239 3.61125 45.5999 7.49542C46.6758 11.3796 50.9755 10.9516 49.4692 17.428C47.9629 23.9043 50.1147 21.3121 51.8362 21.9602C53.5577 22.6082 55.4903 26.2764 52.4818 28.2205C49.4692 30.1646 49.5138 32.3533 52.0514 31.8886C56.7815 31.0246 58.0726 37.7169 58.0726 37.7169L58.0767 37.721Z" fill="#080717"/>
<path d="M122.653 63.1578C122.433 62.9621 122.206 62.8113 121.971 62.7135L112.515 58.9475L110.732 55.6584C110.704 55.6054 110.655 55.5688 110.602 55.5525C110.545 55.5361 110.484 55.5443 110.436 55.5728L110.306 55.6462L111.093 48.9987C111.106 48.8927 111.041 48.7949 110.943 48.7623C110.846 48.7297 110.736 48.7745 110.683 48.8683C106.891 55.8785 96.6475 52.4508 96.542 52.4182C96.4811 52.3978 96.412 52.406 96.3552 52.4386C96.2983 52.4753 96.2618 52.5323 96.2537 52.6016L95.8152 56.5143L93.4116 59.2084L85.6161 59.9909C82.6685 60.2884 79.9847 61.6986 78.0643 63.9648L73.8499 81.7472L74.3696 81.2255H113.546C118.576 81.2255 122.657 77.1294 122.657 72.0795V63.1659L122.653 63.1578Z" fill="white"/>
<path d="M98.9421 62.6238L96.6644 66.8585L97.3424 67.1478L90.4727 81.2132H99.1695L99.1857 78.1523L98.869 67.6614L99.815 67.3679L98.9421 62.6238Z" fill="#66CCFF"/>
<path d="M101.317 24.2876C99.6116 24.2876 98.1174 25.1598 97.2567 26.4885H95.588C93.5092 26.4885 91.8242 28.1799 91.8242 30.2667V39.596H94.4714V35.8015C94.4714 34.3343 95.657 33.1442 97.1186 33.1442H98.6615H96.2132H97.8332C100.513 33.1442 102.689 30.9636 102.689 28.2696V24.2917H101.317V24.2876Z" fill="#080717"/>
<path d="M95.7875 43.0643C95.7875 44.344 94.7522 45.3752 93.4773 45.3752H93.2865C92.0197 45.3752 90.9844 44.344 90.9844 43.0643V40.2561C90.9844 38.9845 92.0197 37.9492 93.2865 37.9492H93.4773C94.4233 37.9492 95.2313 38.5157 95.5926 39.3268L95.7875 43.0643Z" fill="white"/>
<path d="M93.4771 45.7787H93.2862C91.7921 45.7787 90.5781 44.5601 90.5781 43.0602V40.252C90.5781 38.7562 91.7921 37.5376 93.2862 37.5376H93.4771C94.5489 37.5376 95.5274 38.1734 95.9619 39.1557C96.0512 39.3594 95.9619 39.604 95.7548 39.6937C95.5477 39.7833 95.3082 39.6937 95.2189 39.4858C94.9144 38.797 94.2282 38.3527 93.4771 38.3527H93.2862C92.2387 38.3527 91.3902 39.2046 91.3902 40.252V43.0602C91.3902 44.1077 92.2387 44.9636 93.2862 44.9636H93.4771C94.5286 44.9636 95.3813 44.1117 95.3813 43.0602C95.3813 42.836 95.564 42.6526 95.7873 42.6526C96.0106 42.6526 96.1933 42.836 96.1933 43.0602C96.1933 44.5601 94.9753 45.7787 93.4771 45.7787Z" fill="#080717"/>
<path d="M99.254 27.9884V24.2876H107.224C109.908 24.2876 112.08 26.4681 112.08 29.154V32.8629H104.106C101.426 32.8629 99.254 30.6824 99.254 27.9924V27.9884Z" fill="#080717"/>
<path d="M108.791 40.2561C108.791 38.9804 109.818 37.9492 111.093 37.9492H111.288C112.555 37.9492 113.594 38.9804 113.594 40.2561V43.0643C113.594 44.3359 112.555 45.3752 111.288 45.3752H111.093C110.155 45.3752 109.343 44.8127 108.986 44.0017L108.795 40.2561H108.791Z" fill="white"/>
<path d="M111.288 45.7787H111.093C110.021 45.7787 109.047 45.147 108.612 44.1647C108.523 43.9609 108.612 43.7164 108.819 43.6267C109.026 43.5371 109.266 43.6267 109.355 43.8346C109.66 44.5193 110.342 44.9636 111.093 44.9636H111.288C112.335 44.9636 113.188 44.1117 113.188 43.0602V40.252C113.188 39.2046 112.335 38.3527 111.288 38.3527H111.093C110.049 38.3527 109.197 39.2046 109.197 40.252C109.197 40.4762 109.014 40.6596 108.791 40.6596C108.567 40.6596 108.385 40.4762 108.385 40.252C108.385 38.7562 109.599 37.5376 111.093 37.5376H111.288C112.782 37.5376 114 38.7562 114 40.252V43.0602C114 44.5601 112.782 45.7787 111.288 45.7787Z" fill="#080717"/>
<path d="M111.394 46.6102C111.386 48.5421 109.912 51.8312 107.468 52.8623C104.142 54.244 100.212 54.244 96.891 52.8623C94.4428 51.8312 92.9811 48.5461 92.9649 46.6102V30.1116C92.9567 28.1593 94.8934 26.5209 97.2808 26.4761H107.078C109.469 26.5209 111.41 28.1593 111.394 30.1116V46.6102Z" fill="white"/>
<path d="M102.177 54.3009C100.31 54.3009 98.4378 53.9463 96.7366 53.2372C94.0732 52.1123 92.575 48.6071 92.5588 46.6141V30.1115C92.5466 27.935 94.6619 26.1173 97.2726 26.0684H107.078C109.705 26.1173 111.82 27.931 111.8 30.1156V46.61C111.792 48.599 110.306 52.1041 107.626 53.2372C105.921 53.9463 104.049 54.3009 102.177 54.3009ZM107.07 26.8835H97.2807C95.1207 26.9243 93.3627 28.3711 93.3708 30.1074V46.61C93.387 48.4196 94.7918 51.5335 97.0493 52.4872C100.261 53.82 104.098 53.82 107.313 52.4872C109.579 51.5294 110.98 48.4196 110.988 46.61V30.1115C111.004 28.3711 109.246 26.9243 107.074 26.8835H107.07Z" fill="#080717"/>
<path d="M104.061 24.2876C105.766 24.2876 107.26 25.1598 108.129 26.4885H109.798C111.873 26.4885 113.558 28.1799 113.558 30.2667V39.596H110.91V35.8015C110.91 34.3343 109.725 33.1442 108.263 33.1442H108.235H109.169H104.881C102.197 33.1442 100.033 30.9636 100.033 28.2696V24.2917H104.065L104.061 24.2876Z" fill="#080717"/>
<path d="M100.03 28.946C100.086 28.6362 100.119 28.3183 100.119 27.9923V24.2915H96.6881C94.0003 24.2915 91.8281 26.472 91.8281 29.1579V32.8668H95.2671C95.6081 32.8668 95.9451 32.8302 96.2618 32.7609C96.6434 30.8534 98.1335 29.3495 100.034 28.9501L100.03 28.946Z" fill="#080717"/>
<path d="M101.718 50.3965C100.245 50.3965 98.7342 48.5216 98.5556 48.2934C98.4581 48.1711 98.4419 48.004 98.5109 47.8654C98.58 47.7269 98.7221 47.6372 98.8763 47.6372H103.326C103.452 47.6372 103.566 47.6943 103.643 47.7921C103.72 47.8899 103.749 48.0163 103.72 48.1385C103.416 49.4387 102.859 50.1886 102.068 50.3639C101.95 50.3883 101.832 50.4006 101.714 50.4006L101.718 50.3965ZM99.7939 48.4483C100.399 49.0393 101.26 49.7036 101.897 49.561C102.332 49.4631 102.612 48.97 102.79 48.4483H99.7939Z" fill="#080717"/>
<path d="M106.578 35.2509C106.526 35.2509 106.469 35.2386 106.416 35.2142C105.429 34.7781 104.276 34.7373 103.261 35.1082C103.05 35.1856 102.819 35.0756 102.742 34.8637C102.664 34.6517 102.774 34.4194 102.985 34.342C104.195 33.9018 105.563 33.9507 106.745 34.4683C106.952 34.558 107.041 34.7985 106.952 35.0063C106.887 35.1571 106.737 35.2509 106.578 35.2509Z" fill="#080717"/>
<path d="M94.5801 35.7076C94.4583 35.7076 94.3405 35.6546 94.2593 35.5486C94.1213 35.3693 94.1538 35.1166 94.3324 34.978C95.3799 34.1588 96.5777 33.9958 97.8932 34.4889C98.1043 34.5664 98.2098 34.8027 98.1327 35.0147C98.0556 35.2266 97.8201 35.3326 97.6089 35.2552C96.5655 34.8598 95.656 34.9821 94.8318 35.626C94.7587 35.6831 94.6694 35.7116 94.5841 35.7116L94.5801 35.7076Z" fill="#080717"/>
<path d="M104.119 39.7387C104.119 40.1952 104.387 40.5701 104.716 40.5701C105.045 40.5701 105.313 40.1992 105.313 39.7387C105.313 39.2781 105.045 38.9072 104.716 38.9072C104.387 38.9072 104.119 39.2781 104.119 39.7387Z" fill="#080717"/>
<path d="M96.5996 39.7426C96.5996 40.1991 96.8676 40.574 97.1964 40.574C97.5253 40.574 97.7933 40.2031 97.7933 39.7426C97.7933 39.282 97.5253 38.9111 97.1964 38.9111C96.8676 38.9111 96.5996 39.282 96.5996 39.7426Z" fill="#080717"/>
<path d="M96.704 43.097C96.6268 43.097 96.5456 43.097 96.4685 43.0889C95.5143 43.0277 94.6455 42.5957 94.0161 41.8743C93.3868 41.1529 93.0742 40.2318 93.1392 39.274C93.2691 37.3013 94.9784 35.7974 96.9394 35.9278C98.9046 36.0582 100.399 37.77 100.273 39.7427C100.147 41.6379 98.5716 43.097 96.708 43.097H96.704ZM96.6999 36.7348C95.2586 36.7348 94.0405 37.8597 93.9471 39.327C93.8984 40.0647 94.138 40.7779 94.6252 41.3363C95.1124 41.8947 95.7864 42.2248 96.5213 42.2737C98.0438 42.3756 99.3593 41.214 99.4567 39.6897C99.5582 38.1654 98.4011 36.8408 96.8826 36.7429C96.8217 36.7429 96.7608 36.7389 96.6999 36.7389V36.7348Z" fill="#66CCFF"/>
<path d="M101.288 45.693C101.288 45.693 101.268 45.693 101.255 45.693C99.944 45.587 98.9574 44.5151 98.9168 44.4703C98.8153 44.3602 98.7828 44.2013 98.8356 44.0586L100.549 39.2859C100.626 39.074 100.858 38.964 101.069 39.0414C101.28 39.1188 101.389 39.3512 101.312 39.5631L99.6882 44.0872C99.9765 44.3439 100.602 44.8249 101.32 44.8819C101.544 44.8982 101.71 45.0979 101.694 45.3221C101.678 45.534 101.499 45.6971 101.288 45.6971V45.693Z" fill="#080717"/>
<path d="M104.914 42.8728C102.989 42.8728 101.394 41.3281 101.341 39.3839C101.317 38.4261 101.662 37.5173 102.32 36.8203C102.977 36.1234 103.862 35.728 104.817 35.6995C106.79 35.6383 108.434 37.2116 108.487 39.1883C108.54 41.165 106.981 42.8198 105.011 42.8728C104.979 42.8728 104.946 42.8728 104.914 42.8728ZM104.918 36.5105C104.894 36.5105 104.869 36.5105 104.841 36.5105C104.102 36.5309 103.42 36.8366 102.912 37.3746C102.405 37.9126 102.137 38.6177 102.157 39.3554C102.198 40.8838 103.469 42.0943 104.991 42.0495C106.514 42.0087 107.72 40.7289 107.675 39.2046C107.634 37.7007 106.404 36.5065 104.914 36.5065L104.918 36.5105Z" fill="#66CCFF"/>
<path d="M101.576 39.8118C101.576 39.8118 101.568 39.8118 101.564 39.8118L100.066 39.7751C99.8427 39.7711 99.664 39.5836 99.6721 39.3553C99.6762 39.1312 99.8589 38.9518 100.086 38.96L101.584 38.9967C101.808 39.0007 101.986 39.1882 101.978 39.4165C101.974 39.6366 101.792 39.8118 101.572 39.8118H101.576Z" fill="#66CCFF"/>
<path d="M110.028 56.4814C110.028 56.4814 109.996 56.4814 109.98 56.4814C109.756 56.4528 109.598 56.2531 109.626 56.029L110.471 48.9209C110.499 48.6967 110.702 48.5378 110.922 48.5663C111.145 48.5948 111.303 48.7945 111.275 49.0187L110.43 56.1268C110.406 56.3346 110.231 56.4854 110.028 56.4854V56.4814Z" fill="#080717"/>
<path d="M95.965 57.5045C95.965 57.5045 95.9325 57.5045 95.9203 57.5045C95.697 57.48 95.5387 57.2762 95.563 57.0521L96.0665 52.5728C96.0908 52.3487 96.2938 52.1857 96.5172 52.2142C96.7405 52.2386 96.8988 52.4424 96.8744 52.6666L96.371 57.1458C96.3466 57.3537 96.172 57.5086 95.969 57.5086L95.965 57.5045Z" fill="#080717"/>
<path d="M100.209 68.7984C100.16 68.7984 100.107 68.7902 100.059 68.7698C99.9245 68.7168 99.8311 68.5986 99.8068 68.4601L98.7146 62.1794C98.6862 62.0082 98.7674 61.837 98.9176 61.7514L110.339 55.3974C110.432 55.3444 110.546 55.3322 110.647 55.3607C110.753 55.3892 110.838 55.4626 110.891 55.5563L112.71 58.9147C112.807 59.09 112.759 59.3101 112.6 59.4323L100.452 68.7046C100.379 68.7576 100.294 68.7861 100.205 68.7861L100.209 68.7984ZM99.5672 62.3261L100.493 67.6612L111.833 59.0044L110.375 56.3144L99.5672 62.3261Z" fill="#080717"/>
<path d="M95.6978 68.289C95.6978 68.289 95.6612 68.289 95.6409 68.2849C95.4785 68.2604 95.3445 68.1422 95.3039 67.9833L93.1236 59.5139C93.0912 59.3835 93.1236 59.2409 93.213 59.139L95.6856 56.3634C95.7708 56.2656 95.9008 56.2167 96.0307 56.2289C96.1606 56.2411 96.2743 56.3186 96.3393 56.4327L99.4656 61.9105C99.5387 62.0368 99.5387 62.1958 99.4656 62.3221L96.0469 68.0893C95.9739 68.2156 95.8399 68.289 95.6978 68.289ZM93.9641 59.518L95.848 66.8299L98.6454 62.1061L95.917 57.3253L93.9641 59.518Z" fill="#080717"/>
<path d="M74.0599 81.3068C74.0274 81.3068 73.9949 81.3068 73.9624 81.2946C73.7432 81.2416 73.6132 81.0174 73.666 80.8014L77.8358 64.0012C77.852 63.9401 77.8805 63.883 77.9211 63.8341C79.874 61.5314 82.5983 60.0967 85.5988 59.7951L93.4795 59.0044C93.7028 58.984 93.9017 59.1471 93.922 59.3712C93.9423 59.5954 93.7799 59.7951 93.5566 59.8155L85.6759 60.6062C82.9191 60.8833 80.4099 62.1916 78.5991 64.2906L74.4537 80.997C74.409 81.1804 74.2426 81.3068 74.0599 81.3068Z" fill="#080717"/>
<path d="M121.886 63.3205C121.837 63.3205 121.784 63.3124 121.736 63.292L112.207 59.4934C111.999 59.4119 111.898 59.1714 111.979 58.9636C112.06 58.7557 112.296 58.6497 112.507 58.7353L122.036 62.5339C122.243 62.6154 122.345 62.8559 122.263 63.0638C122.199 63.2227 122.048 63.3205 121.886 63.3205Z" fill="#080717"/>
<path d="M41.6899 37.012L24.0121 37.3503C20.2362 37.4236 16.8541 39.6979 15.3478 43.1745L11.377 52.353L15.498 52.7932H48.6855L52.6401 56.763L53.513 56.8567L50.1106 43.4557C49.1322 39.6041 45.6445 36.9386 41.6859 37.012H41.6899Z" fill="white"/>
<path d="M53.521 57.2641C53.521 57.2641 53.4926 57.2641 53.4763 57.2641L52.6034 57.1703C52.51 57.1622 52.4248 57.1173 52.3598 57.0521L48.523 53.2006H15.5019C15.5019 53.2006 15.4735 53.2006 15.4572 53.2006L11.3362 52.7604C11.2062 52.7482 11.0926 52.6707 11.0276 52.5607C10.9626 52.4506 10.9545 52.3121 11.0073 52.1939L14.9781 43.0153C16.5413 39.4042 20.0817 37.0199 24.0038 36.9466L41.6816 36.6083C45.8595 36.5308 49.4771 39.3023 50.5084 43.3577L53.9108 56.7587C53.9432 56.8891 53.9108 57.0236 53.8255 57.1255C53.7484 57.2152 53.6347 57.2681 53.5169 57.2681L53.521 57.2641ZM52.8308 56.3715L52.981 56.3878L49.7207 43.5533C48.7869 39.8689 45.49 37.3501 41.6979 37.4153L24.02 37.7536C20.4146 37.8228 17.1584 40.0115 15.7211 43.3332L11.9696 52.0023L15.5222 52.3813H48.6894C48.799 52.3813 48.9006 52.4262 48.9777 52.4995L52.8308 56.3674V56.3715Z" fill="#080717"/>
<path d="M38.2948 37.8309V42.8971C38.2948 46.6223 35.0345 49.4957 31.356 49.0188C27.8724 48.5664 25.4729 45.2854 26.0859 41.817L29.0458 25.0902L39.1555 19.0459L38.2948 37.8269V37.8309Z" fill="white"/>
<path d="M32.1433 49.4796C31.8631 49.4796 31.583 49.4633 31.3028 49.4266C29.5083 49.1943 27.9289 48.2609 26.857 46.7937C25.7851 45.3305 25.371 43.5372 25.6877 41.7479L28.6475 25.0211C28.6678 24.9029 28.7368 24.801 28.8383 24.744L38.9481 18.6997C39.078 18.6222 39.2363 18.6222 39.3663 18.6997C39.4962 18.7771 39.5693 18.9198 39.5652 19.0665L38.7045 37.8393V42.8973C38.7045 44.7884 37.8924 46.5899 36.4754 47.8411C35.2736 48.9049 33.7308 49.4796 32.1473 49.4796H32.1433ZM29.4149 25.3472L26.4875 41.8906C26.2114 43.4597 26.5728 45.0289 27.5147 46.3127C28.4526 47.5966 29.8371 48.4158 31.4084 48.6196C33.0446 48.8315 34.6971 48.3261 35.9354 47.2298C37.1738 46.1334 37.8884 44.5561 37.8884 42.8973V37.8311C37.8884 37.8311 37.8884 37.8189 37.8884 37.8108L38.7126 19.7838L29.4108 25.3472H29.4149Z" fill="#080717"/>
<path d="M25.6041 20.3783C26.2497 19.3716 29.2582 19.9748 32.486 13.9427C35.7139 7.90659 35.929 7.10367 38.0769 7.90659C38.0769 7.90659 42.8069 12.936 42.8069 18.9722C42.8069 25.0083 40.655 34.2602 35.2794 36.0699C31.9542 37.1907 28.7913 31.3013 27.017 26.4145C26.8709 26.5164 26.7125 26.602 26.542 26.659C25.2712 27.1033 23.8664 26.2066 23.2777 24.6945C20.8172 18.3975 25.5432 20.4721 25.6001 20.3783H25.6041Z" fill="white"/>
<path d="M34.4462 36.6163C30.8123 36.6163 27.8687 29.8302 26.8009 26.9935C26.7603 27.0098 26.7157 27.0261 26.6751 27.0424C25.2134 27.556 23.5894 26.6104 22.8991 24.8415C22.01 22.5714 21.9247 21.0797 22.6352 20.2849C23.4229 19.4045 24.8561 19.7632 25.4489 19.9262C25.7088 19.6817 26.0742 19.5268 26.5167 19.3434C27.7754 18.8176 29.8826 17.9413 32.1238 13.7474L32.8099 12.4595C35.4247 7.54416 35.8956 6.65565 38.214 7.52378C38.2708 7.54416 38.3236 7.58084 38.3683 7.62567C38.5672 7.83761 43.212 12.8426 43.212 18.9684C43.212 22.3798 42.5502 26.2191 41.4377 29.2433C40.0167 33.1112 37.9338 35.6015 35.4044 36.4533C35.0795 36.5633 34.7588 36.6122 34.4421 36.6122L34.4462 36.6163ZM27.0161 26.0072C27.0567 26.0072 27.1014 26.0154 27.142 26.0276C27.2597 26.0643 27.3572 26.158 27.3978 26.2762C29.2776 31.4565 32.2943 36.6449 35.1486 35.6871C40.4308 33.91 42.4 24.491 42.4 18.9766C42.4 13.4621 38.3926 8.87692 37.8404 8.26149C36.3301 7.70719 36.123 7.96804 33.5286 12.8508L32.8424 14.1428C30.4632 18.5935 28.1895 19.539 26.8294 20.1056C26.399 20.2849 26.0579 20.4275 25.9442 20.6069C25.7737 20.8677 25.5057 20.7944 25.2865 20.7373C24.8561 20.6191 23.7193 20.3093 23.2402 20.8392C22.9722 21.1408 22.6677 22.0252 23.6543 24.5522C24.174 25.8809 25.3839 26.6389 26.4071 26.2803C26.533 26.2354 26.6588 26.1702 26.7888 26.0806C26.8578 26.0357 26.9349 26.0113 27.0161 26.0113V26.0072Z" fill="#080717"/>
<path d="M37.4514 27.654C37.423 27.654 37.3946 27.654 37.3702 27.654C37.1469 27.6336 36.9804 27.438 37.0007 27.2138C37.021 26.9897 37.2159 26.8226 37.4392 26.8429C37.5001 26.8429 37.557 26.8226 37.6179 26.7614C37.7275 26.6555 37.7924 26.4721 37.7843 26.3172C37.76 25.983 37.5448 25.6569 37.3174 25.3145L37.2768 25.2493C36.4161 23.9533 35.7461 22.5471 35.2792 21.0636C35.0072 20.1914 34.6743 18.8871 34.9382 17.5992C35.1777 16.4335 36.3186 13.4053 38.6776 13.4053C38.9009 13.4053 39.0836 13.5887 39.0836 13.8128C39.0836 14.037 38.9009 14.2204 38.6776 14.2204C37.0048 14.2204 35.9735 16.6088 35.734 17.7663C35.5066 18.8667 35.807 20.0365 36.0547 20.819C36.4973 22.2292 37.1347 23.5701 37.9508 24.801L37.9914 24.8621C38.2553 25.2575 38.5558 25.7099 38.5964 26.2601C38.6248 26.6514 38.4705 27.0671 38.1903 27.3402C37.9833 27.544 37.7275 27.654 37.4595 27.654H37.4514Z" fill="#080717"/>
<path d="M34.6864 30.5921C33.0095 30.5921 31.9986 28.807 31.6737 27.7432C31.6088 27.5272 31.7306 27.2989 31.9417 27.2337C32.1569 27.1685 32.3843 27.2867 32.4492 27.5027C32.4817 27.6128 33.31 30.2212 35.1614 29.7077C35.3766 29.6466 35.5999 29.777 35.6608 29.993C35.7217 30.209 35.5918 30.4332 35.3766 30.4943C35.133 30.5595 34.9016 30.5921 34.6823 30.5921H34.6864Z" fill="#080717"/>
<path d="M25.8175 24.0674C25.8175 24.0674 25.8013 24.0674 25.7931 24.0674C25.5698 24.0552 25.3993 23.8596 25.4115 23.6354C25.448 23.0159 24.9689 22.3801 24.364 22.2496C24.1447 22.2007 24.0067 21.9847 24.0514 21.7646C24.1001 21.5445 24.3153 21.406 24.5345 21.4508C25.5252 21.6668 26.2804 22.6654 26.2195 23.6802C26.2073 23.8962 26.0286 24.0633 25.8135 24.0633L25.8175 24.0674Z" fill="#080717"/>
<path d="M38.657 19.572C38.6936 18.8425 39.0914 18.2678 39.5421 18.2923C39.9928 18.3167 40.3298 18.924 40.2932 19.6576C40.2567 20.3872 39.8588 20.9619 39.4081 20.9374C38.9575 20.9129 38.6205 20.3057 38.657 19.572Z" fill="#080717"/>
<path d="M29.9441 20.4358C29.9807 19.7062 30.3786 19.1316 30.8292 19.156C31.2799 19.1805 31.6169 19.7878 31.5804 20.5214C31.5438 21.2509 31.1459 21.8256 30.6952 21.8012C30.2446 21.7767 29.9076 21.1694 29.9441 20.4358Z" fill="#080717"/>
</g>
<path d="M38.5847 54.0725V101.542H2.2793V48.9063C2.2793 46.2612 4.42306 44.1145 7.07106 44.1145H38.5847V54.0755V54.0725Z" fill="white"/>
<path d="M38.5846 101.837H2.27925C2.11707 101.837 1.98438 101.704 1.98438 101.542V48.9065C1.98438 46.1022 4.26673 43.8198 7.07101 43.8198H38.5846C38.7468 43.8198 38.8795 43.9525 38.8795 44.1147C38.8795 44.2769 38.7468 44.4096 38.5846 44.4096H7.07101C4.59109 44.4096 2.57413 46.4265 2.57413 48.9065V101.247H38.2897V54.0727C38.2897 53.9105 38.4224 53.7778 38.5846 53.7778C38.7468 53.7778 38.8795 53.9105 38.8795 54.0727V101.542C38.8795 101.704 38.7468 101.837 38.5846 101.837Z" fill="#153C4A"/>
<path d="M38.4753 44.1145H6.72584C6.66096 44.1145 6.59903 44.1204 6.53711 44.1233C9.0819 44.2236 11.1166 46.3113 11.1166 48.8797C11.1166 51.4481 9.0819 53.5358 6.53711 53.6361C6.59903 53.6361 6.66096 53.6449 6.72584 53.6449H38.4753C41.1085 53.6449 43.2405 51.51 43.2405 48.8797C43.2405 46.2465 41.1056 44.1145 38.4753 44.1145Z" fill="white"/>
<path d="M38.4772 53.94H6.72774C6.68351 53.94 6.63634 53.94 6.59211 53.9341H6.52721C6.36798 53.9253 6.24414 53.7926 6.24414 53.6363C6.24414 53.48 6.36798 53.3473 6.52721 53.3414C8.93636 53.2471 10.8206 51.2861 10.8206 48.8799C10.8206 46.4737 8.93341 44.5128 6.52721 44.4184C6.36798 44.4125 6.24414 44.2828 6.24414 44.1235C6.24414 43.9643 6.36798 43.8346 6.52721 43.8287H6.59211C6.63634 43.8228 6.68056 43.8198 6.72774 43.8198H38.4772C41.2667 43.8198 43.5402 46.0904 43.5402 48.8799C43.5402 51.6695 41.2697 53.94 38.4772 53.94ZM8.72407 53.3503H38.4801C40.9453 53.3503 42.9534 51.3451 42.9534 48.8799C42.9534 46.4147 40.9483 44.4096 38.4801 44.4096H8.72407C10.3312 45.2559 11.4134 46.9396 11.4134 48.8799C11.4134 50.8202 10.3312 52.504 8.72407 53.3503Z" fill="#153C4A"/>
<path d="M19.6066 58.6843H7.79675V59.2741H19.6066V58.6843Z" fill="url(#paint1_linear_1_1054)"/>
<path d="M35.625 62.7952H7.58215V63.3849H35.625V62.7952Z" fill="url(#paint2_linear_1_1054)"/>
<path d="M35.625 66.9058H7.58215V67.4955H35.625V66.9058Z" fill="url(#paint3_linear_1_1054)"/>
<path d="M28.9991 71.0161H7.58215V71.6059H28.9991V71.0161Z" fill="url(#paint4_linear_1_1054)"/>
<path d="M13.3435 85.2795C13.2049 85.2795 13.0663 85.2677 12.9277 85.2412C11.6715 85.0023 10.8665 84.3772 10.5657 83.4365C9.99958 83.578 9.29186 83.6813 8.40722 83.7137L8.3866 83.1239C9.227 83.0915 9.90816 82.9971 10.4478 82.8556C10.4242 82.6197 10.4272 82.372 10.4537 82.1096C10.5245 81.449 10.8459 80.7767 11.2322 80.4789C11.4651 80.302 11.6745 80.2902 11.8101 80.3108C12.3999 80.4052 12.8304 80.9625 12.795 81.5847C12.7744 81.9061 12.5768 82.7377 11.1319 83.2625C11.3737 83.9968 12.0107 84.4627 13.0398 84.6603C14.0394 84.849 15.2012 84.0676 16.021 83.1298C15.8264 82.7966 15.6878 82.4752 15.5816 82.2334L15.5669 82.198C14.9211 80.7059 15.3457 79.3643 16.1094 78.9809C16.5193 78.7745 17.1563 78.8128 17.6104 79.5943C18.0763 80.3993 17.805 81.6908 16.8997 82.9677C16.8496 83.0384 16.7994 83.1062 16.7464 83.177C17.3155 83.9584 18.2679 84.5423 20.0903 83.8788C20.7803 83.6282 21.3199 83.1859 21.7091 82.6757C21.1076 81.9149 20.683 80.936 20.7272 80.2371C20.7567 79.7387 21.0103 79.5117 21.2138 79.4085C21.8713 79.0812 22.296 79.2168 22.5378 79.3878C22.9476 79.6827 23.1246 80.2902 23.0184 81.0568C22.9506 81.5611 22.7589 82.1125 22.4493 82.6285C22.5938 82.776 22.7471 82.9057 22.9034 83.0089C23.6848 83.5309 24.1154 83.4365 24.2333 83.3156L24.6845 83.693C24.6579 83.7255 24.0357 84.4715 22.5761 83.4984C22.4169 83.3923 22.2576 83.2625 22.1073 83.1151C21.662 83.6724 21.0545 84.1531 20.2908 84.4302C18.2178 85.1851 17.0501 84.4922 16.363 83.6311C15.5285 84.5482 14.4139 85.2765 13.3464 85.2765L13.3435 85.2795ZM11.7099 80.8947C11.6804 80.8947 11.6391 80.9153 11.5919 80.9507C11.3354 81.1483 11.0906 81.6849 11.0405 82.1744C11.0228 82.3514 11.0169 82.5165 11.0257 82.6757C11.8367 82.3602 12.1846 81.9326 12.2052 81.5522C12.2259 81.1984 11.9693 80.9359 11.7187 80.8947C11.7187 80.8947 11.7128 80.8947 11.7099 80.8947ZM16.5576 79.4616C16.4987 79.4616 16.4367 79.4763 16.3719 79.5087C15.9148 79.7387 15.5668 80.7207 16.1035 81.9651L16.1183 82.0005C16.2008 82.1951 16.2952 82.4133 16.4102 82.6344C16.4102 82.6344 16.4102 82.6315 16.4132 82.6285C17.171 81.5581 17.4393 80.4848 17.0943 79.8921C16.9941 79.7181 16.8024 79.4645 16.5547 79.4645L16.5576 79.4616ZM21.951 79.7977C21.7917 79.7977 21.6148 79.8655 21.4762 79.9334C21.4408 79.9511 21.3288 80.0071 21.314 80.2695C21.2845 80.7443 21.5824 81.5051 22.0453 82.1449C22.2517 81.7557 22.3815 81.3488 22.4316 80.9743C22.5024 80.4553 22.408 80.0189 22.1927 79.8655C22.122 79.8154 22.0394 79.7948 21.9539 79.7948L21.951 79.7977Z" fill="url(#paint5_linear_1_1054)"/>
<path d="M35.3894 81.9353L35.6283 82.3157C36.1974 83.2298 37.1322 83.8549 38.1908 84.0378L44.6397 85.1495L50.1717 111.629H69.2296L62.5477 104.6L64.0073 98.8347C64.8772 95.3994 64.6088 91.7783 63.2465 88.5081L64.3258 81.9176C64.5233 80.7115 64.0781 79.4878 63.1463 78.6946L57.1042 73.5313C56.5617 73.0654 55.7213 73.3013 55.4942 73.9795L55.2288 74.7786C54.9103 75.737 55.1492 76.7956 55.851 77.521L59.6756 80.8855L58.9059 85.1524L56.5676 82.1122C55.4087 80.6054 53.5657 79.7915 51.6726 79.9508L51.3512 79.9773L51.2833 79.9331C49.9888 79.0691 48.3906 78.786 46.8779 79.1487L42.2571 80.2574L36.2416 80.3636C35.4425 80.3783 34.9619 81.26 35.3865 81.9382L35.3894 81.9353Z" fill="white"/>
<path d="M51.7414 87.7887C51.6353 87.7887 51.5321 87.7297 51.479 87.6294L48.6718 82.2361C48.2294 81.3839 47.3566 80.8207 46.3983 80.7706L42.2464 80.5494C42.0842 80.5406 41.9603 80.402 41.9692 80.2398C41.978 80.0776 42.1137 79.9538 42.2788 79.9597L46.4307 80.1808C47.5984 80.2428 48.657 80.9269 49.1966 81.9619L52.0039 87.3552C52.0776 87.4997 52.0216 87.6766 51.8771 87.7533C51.8328 87.7769 51.7857 87.7857 51.7414 87.7857V87.7887Z" fill="#153C4A"/>
<path d="M55.2044 87.055C55.0983 87.055 54.9951 86.996 54.942 86.8957L51.4152 80.0841C51.3415 79.9396 51.3976 79.7627 51.5421 79.686C51.6865 79.6123 51.8635 79.6683 51.9401 79.8128L55.4669 86.6245C55.5406 86.7689 55.4846 86.9459 55.3401 87.0226C55.2958 87.0461 55.2516 87.055 55.2044 87.055Z" fill="#153C4A"/>
<path d="M59.3998 86.7422C59.2819 86.7422 59.1698 86.6685 59.1226 86.5505L58.6332 85.256C58.5742 85.1027 58.6508 84.9346 58.8042 84.8756C58.9575 84.8196 59.1256 84.8933 59.1846 85.0467L59.6741 86.3411C59.733 86.4945 59.6564 86.6626 59.503 86.7216C59.4677 86.7333 59.4323 86.7392 59.3998 86.7392V86.7422Z" fill="#153C4A"/>
<path d="M69.323 102.238L35.1555 82.5105L28.7773 81.1836L33.115 86.0432L67.2824 105.77C68.6861 105.193 69.5235 103.742 69.323 102.238Z" fill="white"/>
<path d="M28.7793 81.1865L30.3245 82.9145L31.0498 81.6583L28.7793 81.1865Z" fill="#153C4A"/>
<path d="M69.3213 102.238L35.1538 82.5107L33.1133 86.0434L67.2807 105.771C68.6844 105.193 69.5218 103.742 69.3213 102.238Z" fill="#153C4A"/>
<path d="M67.2842 106.065C67.2341 106.065 67.181 106.051 67.1368 106.027L32.9693 86.2999C32.9428 86.2851 32.9162 86.2645 32.8956 86.2409L28.558 81.3813C28.4725 81.2869 28.4577 81.1483 28.5226 81.0363C28.5874 80.9272 28.7142 80.8682 28.8381 80.8947L35.2163 82.2217C35.2458 82.2276 35.2752 82.2394 35.3047 82.2541L69.4722 101.981C69.5518 102.026 69.6049 102.108 69.6167 102.197C69.8379 103.833 68.9237 105.414 67.3963 106.042C67.3609 106.057 67.3226 106.063 67.2842 106.063V106.065ZM33.3055 85.8133L67.3019 105.44C68.4578 104.901 69.1567 103.692 69.0476 102.418L35.0511 82.7908L29.5959 81.6555L33.3055 85.8133Z" fill="#153C4A"/>
<path d="M52.2837 102.052L45.8702 102.203C43.7175 102.253 41.6947 101.179 40.5329 99.3689L35.9918 92.3066C35.5465 91.6136 35.8354 90.6877 36.5962 90.3693L37.2185 90.1098C38.5454 89.5554 40.0817 89.9328 41.0017 91.0357L43.5082 94.0375C44.2926 94.9782 45.5163 95.4323 46.7224 95.2318L47.1912 95.1551L52.2837 102.052Z" fill="white"/>
<defs>
<linearGradient id="paint0_linear_1_1054" x1="47.1506" y1="49.8189" x2="88.8357" y2="97.4349" gradientUnits="userSpaceOnUse">
<stop stop-color="#FFBC74"/>
<stop offset="1" stop-color="#53D1FF"/>
</linearGradient>
<linearGradient id="paint1_linear_1_1054" x1="7.79676" y1="58.8318" x2="7.84027" y2="59.6392" gradientUnits="userSpaceOnUse">
<stop stop-color="#FFBC74"/>
<stop offset="1" stop-color="#53D1FF"/>
</linearGradient>
<linearGradient id="paint2_linear_1_1054" x1="7.58216" y1="62.9426" x2="7.60053" y2="63.752" gradientUnits="userSpaceOnUse">
<stop stop-color="#FFBC74"/>
<stop offset="1" stop-color="#53D1FF"/>
</linearGradient>
<linearGradient id="paint3_linear_1_1054" x1="7.58216" y1="67.0532" x2="7.60053" y2="67.8626" gradientUnits="userSpaceOnUse">
<stop stop-color="#FFBC74"/>
<stop offset="1" stop-color="#53D1FF"/>
</linearGradient>
<linearGradient id="paint4_linear_1_1054" x1="7.58216" y1="71.1636" x2="7.6062" y2="71.9726" gradientUnits="userSpaceOnUse">
<stop stop-color="#FFBC74"/>
<stop offset="1" stop-color="#53D1FF"/>
</linearGradient>
<linearGradient id="paint5_linear_1_1054" x1="8.3866" y1="80.4756" x2="11.548" y2="87.9299" gradientUnits="userSpaceOnUse">
<stop stop-color="#FFBC74"/>
<stop offset="1" stop-color="#53D1FF"/>
</linearGradient>
<clipPath id="clip0_1_1054">
<rect width="122.653" height="95.7551" fill="white"/>
</clipPath>
</defs>
</svg>
