<svg width="14" height="14" viewBox="0 0 14 14" fill="none" xmlns="http://www.w3.org/2000/svg">
<path d="M9.625 9C9.10417 9 8.66146 8.81771 8.29688 8.45312C7.93229 8.08854 7.75 7.64583 7.75 7.125C7.75 6.60417 7.93229 6.16146 8.29688 5.79688C8.66146 5.43229 9.10417 5.25 9.625 5.25C10.1458 5.25 10.5885 5.43229 10.9531 5.79688C11.3177 6.16146 11.5 6.60417 11.5 7.125C11.5 7.64583 11.3177 8.08854 10.9531 8.45312C10.5885 8.81771 10.1458 9 9.625 9ZM9.625 7.75C9.80208 7.75 9.95052 7.6901 10.0703 7.57031C10.1901 7.45052 10.25 7.30208 10.25 7.125C10.25 6.94792 10.1901 6.79948 10.0703 6.67969C9.95052 6.5599 9.80208 6.5 9.625 6.5C9.44792 6.5 9.29948 6.5599 9.17969 6.67969C9.0599 6.79948 9 6.94792 9 7.125C9 7.30208 9.0599 7.45052 9.17969 7.57031C9.29948 7.6901 9.44792 7.75 9.625 7.75ZM5.875 13.375V11.5625C5.875 11.3438 5.92708 11.138 6.03125 10.9453C6.13542 10.7526 6.28125 10.599 6.46875 10.4844C6.80208 10.2865 7.15365 10.1224 7.52344 9.99219C7.89323 9.86198 8.27083 9.76562 8.65625 9.70312L9.625 10.875L10.5938 9.70312C10.9792 9.76562 11.3542 9.86198 11.7188 9.99219C12.0833 10.1224 12.4323 10.2865 12.7656 10.4844C12.9531 10.599 13.1016 10.7526 13.2109 10.9453C13.3203 11.138 13.375 11.3438 13.375 11.5625V13.375H5.875ZM7.10938 12.125H9.03125L8.1875 11.0938C8 11.1458 7.81771 11.2135 7.64062 11.2969C7.46354 11.3802 7.28646 11.4688 7.10938 11.5625V12.125ZM10.2188 12.125H12.125V11.5625C11.9583 11.4583 11.7865 11.3672 11.6094 11.2891C11.4323 11.2109 11.25 11.1458 11.0625 11.0938L10.2188 12.125ZM2.125 12.125C1.78125 12.125 1.48698 12.0026 1.24219 11.7578C0.997396 11.513 0.875 11.2188 0.875 10.875V2.125C0.875 1.78125 0.997396 1.48698 1.24219 1.24219C1.48698 0.997396 1.78125 0.875 2.125 0.875H10.875C11.2188 0.875 11.513 0.997396 11.7578 1.24219C12.0026 1.48698 12.125 1.78125 12.125 2.125V5.25C11.9583 5.04167 11.776 4.84375 11.5781 4.65625C11.3802 4.46875 11.1458 4.34375 10.875 4.28125V2.125H2.125V10.875H4.71875C4.6875 10.9896 4.66406 11.1042 4.64844 11.2188C4.63281 11.3333 4.625 11.4479 4.625 11.5625V12.125H2.125ZM3.375 4.625H7.75C8.02083 4.41667 8.31771 4.26042 8.64062 4.15625C8.96354 4.05208 9.29167 4 9.625 4V3.375H3.375V4.625ZM3.375 7.125H6.5C6.5 6.90625 6.52344 6.69271 6.57031 6.48438C6.61719 6.27604 6.68229 6.07292 6.76562 5.875H3.375V7.125ZM3.375 9.625H5.53125C5.64583 9.53125 5.76823 9.44792 5.89844 9.375C6.02865 9.30208 6.16146 9.23438 6.29688 9.17188V8.375H3.375V9.625ZM2.125 10.875V2.125V4.26562V4V10.875Z" fill="#7599A6"/>
</svg>
