<svg width="17" height="17" viewBox="0 0 17 17" fill="none" xmlns="http://www.w3.org/2000/svg">
<path d="M17.0001 8.50004C17.0001 13.1931 13.1967 16.998 8.50393 17.0001H8.4122C8.00017 16.9958 7.58898 16.9618 7.18182 16.8984C6.84842 16.8469 6.51844 16.7752 6.19369 16.6838C4.41073 16.1807 2.84086 15.109 1.72286 13.6318C0.604855 12.1546 -9.98156e-05 10.3526 1.2353e-08 8.50004C1.2353e-08 3.80625 3.80448 3.39105e-06 8.50004 3.39105e-06H8.50393C9.66033 -0.0010311 10.8047 0.234633 11.8666 0.692488C12.9285 1.15034 13.8854 1.8207 14.6785 2.66229C16.1701 4.23991 17.0009 6.32891 17.0001 8.50004Z" fill="white"/>
<path d="M6.35486 5.97192V6.35442H5.11916L1.64832 3.46831C1.86285 3.17647 2.0959 2.8987 2.34603 2.63672L6.35486 5.97192Z" fill="#C8102E"/>
<path d="M15.3621 3.48402L11.9114 6.35278H10.6445V5.9979L14.6672 2.65137L14.6778 2.66235C14.9097 2.90677 15.1266 3.16496 15.3273 3.4355L15.3621 3.48402Z" fill="#C8102E"/>
<path d="M6.35462 10.645V11.0275L2.34579 14.3634C2.31038 14.328 2.27496 14.2898 2.24167 14.2526C2.03079 14.0235 1.83274 13.7828 1.64844 13.5318L5.11929 10.645H6.35462Z" fill="#C8102E"/>
<path d="M15.3624 13.5159C15.1487 13.808 14.9166 14.0861 14.6675 14.3486L10.6445 11.0017V10.645H11.9114L15.3624 13.5159Z" fill="#C8102E"/>
<path d="M3.39508 6.3547H0.273438C0.450779 5.67461 0.712537 5.01938 1.05261 4.4043L3.39508 6.3547Z" fill="#012169"/>
<path d="M3.3246 10.6455L1.02746 12.5559C0.699191 11.9522 0.445971 11.3107 0.273438 10.6455H3.3246Z" fill="#012169"/>
<path d="M6.35471 12.4414V16.7268C6.30088 16.713 6.24846 16.6985 6.19357 16.6833C5.07979 16.3696 4.0421 15.8311 3.14453 15.1009L6.35471 12.4414Z" fill="#012169"/>
<path d="M6.35573 0.273438V4.49158L3.19336 1.86082C4.12397 1.11496 5.20161 0.574032 6.35573 0.273438Z" fill="#012169"/>
<path d="M13.8574 1.90013L10.6465 4.56171V0.273438L10.695 0.285833C11.8514 0.594315 12.9292 1.14452 13.8574 1.90013Z" fill="#012169"/>
<path d="M16.7275 6.35508H13.6816L15.9735 4.44824C16.3014 5.05083 16.5546 5.69117 16.7275 6.35508Z" fill="#012169"/>
<path d="M13.8848 15.0801C12.9377 15.8566 11.8336 16.4186 10.6484 16.7273V12.3877L13.8848 15.0801Z" fill="#012169"/>
<path d="M16.727 10.6455C16.5581 11.2946 16.3126 11.9213 15.9956 12.5123L13.752 10.6455H16.727Z" fill="#012169"/>
<path d="M17.0001 8.41114V8.58079C16.9964 8.97713 16.9653 9.37274 16.9069 9.76477H9.76477V16.9066C9.3752 16.9647 8.98209 16.9959 8.58823 17.0001H8.41114C8.01715 16.996 7.6239 16.9647 7.23424 16.9062V9.76477H0.0935004C0.0353823 9.37472 0.00414185 8.98114 0 8.58681C0 8.53121 0 8.47525 0 8.41929C0.00366398 8.02283 0.0347872 7.6271 0.0931463 7.23495H7.2353V0.0935004C7.60617 0.0380533 7.98026 0.00682034 8.35518 0L8.62931 0C8.98711 0.00511561 9.34423 0.0327957 9.69854 0.0828754L9.76477 0.0927921V7.23495H16.9066C16.9647 7.6244 16.9959 8.0174 17.0001 8.41114Z" fill="#C8102E"/>
</svg>
