<svg width="69" height="65" viewBox="0 0 69 65" fill="none" xmlns="http://www.w3.org/2000/svg">
<path d="M68.4019 64.0463L59.324 48.5999C57.139 44.8803 52.8814 42.8956 48.6266 43.6149L39.9495 45.078L22.5129 48.7316L15.8589 49.632L18.324 38.4404L6.18536 41.0949L3.68188 50.181C2.3121 55.1523 5.74067 60.162 10.8684 60.6863L22.6255 61.8886L23.0674 64.0435H68.4019V64.0463Z" fill="white"/>
<path d="M23.0674 64.3206C22.9411 64.3206 22.8259 64.23 22.7984 64.101L22.3976 62.1437L10.841 60.9606C8.31553 60.7026 6.04537 59.352 4.61246 57.2576C3.17954 55.1631 2.74308 52.5553 3.41836 50.1095L5.92184 41.0233C5.94929 40.9245 6.0289 40.8504 6.12772 40.8284L18.2663 38.174C18.3569 38.1548 18.453 38.1822 18.5189 38.2481C18.5848 38.314 18.6122 38.41 18.593 38.5006L16.213 49.3079L22.4772 48.4624L39.8946 44.8115L48.5827 43.3456C52.9226 42.6155 57.3339 44.6715 59.5629 48.4624L68.6407 63.9088C68.7176 64.0406 68.6737 64.208 68.5419 64.2849C68.4101 64.3617 68.2427 64.3178 68.1658 64.1861L59.088 48.7397C56.9743 45.1409 52.7881 43.1892 48.6732 43.8864L39.9961 45.3495L22.5706 49.0004L15.8974 49.9036C15.8095 49.9146 15.7189 49.8844 15.6585 49.8185C15.5981 49.7526 15.5734 49.662 15.5927 49.5742L17.9671 38.8026L6.40772 41.3308L3.94815 50.2577C3.31679 52.5498 3.7258 54.9874 5.06539 56.9501C6.40772 58.9128 8.53239 60.1755 10.8986 60.4171L22.6557 61.6194C22.7737 61.6332 22.8725 61.721 22.8972 61.8363L23.3392 63.9912C23.3694 64.1394 23.2733 64.2849 23.1251 64.3151C23.1059 64.3178 23.0866 64.3206 23.0702 64.3206H23.0674Z" fill="#153C4A"/>
<path d="M39.5653 14.7285H3.13299C1.55478 14.7285 0.275391 16.0079 0.275391 17.5861V44.0237C0.275391 45.6019 1.55478 46.8813 3.13299 46.8813H39.5653C41.1435 46.8813 42.4229 45.6019 42.4229 44.0237V17.5861C42.4229 16.0079 41.1435 14.7285 39.5653 14.7285Z" fill="white"/>
<path d="M39.5644 47.1531H3.1321C1.40547 47.1531 0 45.7477 0 44.021V17.5862C0 15.8596 1.40547 14.4541 3.1321 14.4541H39.5644C41.291 14.4541 42.6965 15.8596 42.6965 17.5862V44.021C42.6965 45.7477 41.291 47.1531 39.5644 47.1531ZM3.1321 15.0031C1.70742 15.0031 0.54901 16.1615 0.54901 17.5862V44.021C0.54901 45.4457 1.70742 46.6041 3.1321 46.6041H39.5644C40.9891 46.6041 42.1475 45.4457 42.1475 44.021V17.5862C42.1475 16.1615 40.9891 15.0031 39.5644 15.0031H3.1321Z" fill="#153C4A"/>
<path d="M3.83663 19.0356C3.1284 19.0356 2.55469 18.4591 2.55469 17.7536C2.55469 17.0481 3.13115 16.4717 3.83663 16.4717C4.5421 16.4717 5.11856 17.0481 5.11856 17.7536C5.11856 18.4591 4.5421 19.0356 3.83663 19.0356ZM3.83663 17.0179C3.4331 17.0179 3.1037 17.3474 3.1037 17.7509C3.1037 18.1544 3.4331 18.4838 3.83663 18.4838C4.24015 18.4838 4.56955 18.1544 4.56955 17.7509C4.56955 17.3474 4.24015 17.0179 3.83663 17.0179Z" fill="#153C4A"/>
<path d="M7.23116 19.0356C6.52293 19.0356 5.94922 18.4591 5.94922 17.7536C5.94922 17.0481 6.52568 16.4717 7.23116 16.4717C7.93663 16.4717 8.51309 17.0481 8.51309 17.7536C8.51309 18.4591 7.93663 19.0356 7.23116 19.0356ZM7.23116 17.0179C6.82763 17.0179 6.49823 17.3474 6.49823 17.7509C6.49823 18.1544 6.82763 18.4838 7.23116 18.4838C7.63468 18.4838 7.96408 18.1544 7.96408 17.7509C7.96408 17.3474 7.63468 17.0179 7.23116 17.0179Z" fill="#153C4A"/>
<path d="M10.6237 19.0356C9.91551 19.0356 9.3418 18.4591 9.3418 17.7536C9.3418 17.0481 9.91826 16.4717 10.6237 16.4717C11.3292 16.4717 11.9057 17.0481 11.9057 17.7536C11.9057 18.4591 11.3292 19.0356 10.6237 19.0356ZM10.6237 17.0179C10.2202 17.0179 9.89081 17.3474 9.89081 17.7509C9.89081 18.1544 10.2202 18.4838 10.6237 18.4838C11.0273 18.4838 11.3567 18.1544 11.3567 17.7509C11.3567 17.3474 11.0273 17.0179 10.6237 17.0179Z" fill="#153C4A"/>
<path d="M19.9969 10.9238H23.538L27.4552 14.9645C27.7846 15.3049 27.7462 15.8539 27.3756 16.1477C26.6234 16.7406 25.5584 16.7324 24.8144 16.1284L20.8451 12.9085L19.9941 10.9238H19.9969Z" fill="white"/>
<path d="M26.1104 16.8615C25.5915 16.8615 25.0755 16.6885 24.6445 16.3399L20.6752 13.12C20.6395 13.0925 20.612 13.0568 20.5956 13.0156L19.7446 11.031C19.7089 10.9459 19.7171 10.8498 19.7666 10.7729C19.8187 10.6961 19.9038 10.6494 19.9971 10.6494H23.5382C23.6124 10.6494 23.6837 10.6796 23.7359 10.7318L27.6531 14.7725C27.8644 14.9893 27.9742 15.2885 27.9523 15.5905C27.9331 15.8925 27.7821 16.1725 27.546 16.3619C27.1205 16.6968 26.6154 16.8615 26.1076 16.8615H26.1104ZM21.0732 12.7357L24.9904 15.9117C25.6382 16.4387 26.5523 16.4442 27.2084 15.9281C27.3264 15.8348 27.3978 15.7031 27.406 15.5521C27.417 15.4038 27.3648 15.2611 27.2605 15.154L23.423 11.1957H20.4144L21.0732 12.7357Z" fill="#153C4A"/>
<path d="M20.3301 10.9241H23.1136V18.5911C23.1136 18.9699 22.8061 19.2746 22.43 19.2746H22.3257C21.225 19.2746 20.3301 18.3797 20.3301 17.2789V10.9214V10.9241Z" fill="white"/>
<path d="M22.4292 19.5516H22.3248C21.0731 19.5516 20.0547 18.5332 20.0547 17.2815V10.9239C20.0547 10.7729 20.1782 10.6494 20.3292 10.6494H23.1127C23.2636 10.6494 23.3872 10.7729 23.3872 10.9239V18.5908C23.3872 19.1206 22.9562 19.5489 22.4292 19.5489V19.5516ZM20.6037 11.1984V17.2815C20.6037 18.2312 21.3751 19.0026 22.3248 19.0026H22.4292C22.6542 19.0026 22.8382 18.8187 22.8382 18.5936V11.2012H20.6037V11.1984Z" fill="#153C4A"/>
<path d="M17.6152 10.9241H20.3987V18.5911C20.3987 18.9699 20.0913 19.2746 19.7152 19.2746H19.6109C18.5101 19.2746 17.6152 18.3797 17.6152 17.2789V10.9214V10.9241Z" fill="white"/>
<path d="M19.7143 19.5516H19.61C18.3583 19.5516 17.3398 18.5332 17.3398 17.2815V10.9239C17.3398 10.7729 17.4634 10.6494 17.6143 10.6494H20.3978C20.5488 10.6494 20.6723 10.7729 20.6723 10.9239V18.5908C20.6723 19.1206 20.2414 19.5489 19.7143 19.5489V19.5516ZM17.8889 11.1984V17.2815C17.8889 18.2312 18.6602 19.0026 19.61 19.0026H19.7143C19.9394 19.0026 20.1233 18.8187 20.1233 18.5936V11.2012H17.8889V11.1984Z" fill="#153C4A"/>
<path d="M16.9005 17.5723H16.9994C17.3782 17.5723 17.6856 17.2649 17.6856 16.8861V10.9238H16.3707C15.4511 10.9238 14.5892 11.374 14.0649 12.1317L12.3438 14.6132L14.8994 14.6818V15.5739C14.8994 16.6775 15.7943 17.5751 16.9005 17.5751V17.5723Z" fill="white"/>
<path d="M16.9992 17.847H16.9004C15.6459 17.847 14.6248 16.8258 14.6248 15.5713V14.9455L12.3354 14.8851C12.2338 14.8851 12.1433 14.8247 12.0966 14.7341C12.0499 14.6435 12.0582 14.5365 12.1158 14.4541L13.837 11.9726C14.4107 11.1436 15.3577 10.6467 16.3679 10.6467H17.6828C17.8337 10.6467 17.9573 10.7703 17.9573 10.9212V16.8835C17.9573 17.4133 17.5263 17.8442 16.9965 17.8442L16.9992 17.847ZM12.857 14.3498L14.9048 14.4047C15.053 14.4074 15.171 14.531 15.171 14.6792V15.5713C15.171 16.5239 15.9452 17.298 16.8977 17.298H16.9965C17.2243 17.298 17.4083 17.1141 17.4083 16.8862V11.1985H16.3679C15.5389 11.1985 14.762 11.6047 14.2899 12.2855L12.8597 14.3498H12.857Z" fill="#153C4A"/>
<path d="M11.6445 27.5315C11.6445 28.086 11.1971 28.5334 10.6426 28.5334C10.0881 28.5334 9.64062 28.086 9.64062 27.5315C9.64062 26.977 10.0881 26.5295 10.6426 26.5295C11.1971 26.5295 11.6445 26.977 11.6445 27.5315Z" fill="url(#paint0_linear_353_5646)"/>
<path d="M31.6032 27.2568H13.3926V27.8058H31.6032V27.2568Z" fill="url(#paint1_linear_353_5646)"/>
<path d="M11.6445 32.0225C11.6445 32.577 11.1971 33.0244 10.6426 33.0244C10.0881 33.0244 9.64062 32.577 9.64062 32.0225C9.64062 31.468 10.0881 31.0205 10.6426 31.0205C11.1971 31.0205 11.6445 31.468 11.6445 32.0225Z" fill="url(#paint2_linear_353_5646)"/>
<path d="M31.6032 31.748H13.3926V32.2971H31.6032V31.748Z" fill="url(#paint3_linear_353_5646)"/>
<path d="M11.6445 36.5105C11.6445 37.065 11.1971 37.5124 10.6426 37.5124C10.0881 37.5124 9.64062 37.065 9.64062 36.5105C9.64062 35.956 10.0881 35.5085 10.6426 35.5085C11.1971 35.5085 11.6445 35.956 11.6445 36.5105Z" fill="url(#paint4_linear_353_5646)"/>
<path d="M31.6032 36.2361H13.3926V36.7851H31.6032V36.2361Z" fill="url(#paint5_linear_353_5646)"/>
<path d="M47.7116 43.1562L43.6571 44.0511L47.2339 35.9477L38.9713 32.2996L32.762 45.9452C32.6797 46.1264 32.6303 46.3075 32.5973 46.486L28.8613 47.3095C29.2896 51.7263 33.5169 55.196 38.6721 55.196C44.1101 55.196 48.5214 51.3365 48.5214 46.5738C48.5214 45.3605 48.2331 44.2048 47.7171 43.1562H47.7116Z" fill="white"/>
<path d="M38.6659 55.4734C33.4531 55.4734 29.0253 51.9021 28.5834 47.3399C28.5696 47.2026 28.663 47.0763 28.7975 47.0461L32.3606 46.2611C32.399 46.1101 32.4457 45.9701 32.506 45.8356L38.7153 32.1899C38.7785 32.0527 38.9377 31.9923 39.0749 32.0527L47.3375 35.7009C47.4775 35.7612 47.5379 35.9232 47.4775 36.0632L44.1203 43.6697L47.6477 42.8929C47.7713 42.8654 47.8975 42.9258 47.9524 43.0384C48.5042 44.1583 48.7869 45.3497 48.7869 46.5767C48.7869 51.4821 44.2466 55.4734 38.6632 55.4734H38.6659ZM29.1571 47.5265C29.7034 51.6935 33.8264 54.9217 38.6659 54.9217C43.9447 54.9217 48.2407 51.1774 48.2407 46.574C48.2407 45.5007 48.0101 44.4603 47.5572 43.4721L43.7141 44.3176C43.6125 44.3395 43.5082 44.3038 43.4423 44.2242C43.3764 44.1446 43.3627 44.0348 43.4039 43.9387L46.8681 36.0879L39.1051 32.6621L33.0084 46.0607C32.9425 46.2034 32.8958 46.3599 32.8629 46.5383C32.8437 46.6481 32.7586 46.7332 32.6515 46.7579L29.1571 47.5265Z" fill="#153C4A"/>
<path d="M43.9621 42.138L46.8444 35.6075L39.0759 32.179L35.9905 39.1706C37.9971 41.2486 40.8904 42.4207 43.9621 42.138Z" fill="#153C4A"/>
<path d="M54.958 24.4488L53.1517 23.2108C48.9436 20.323 43.459 20.5426 39.852 23.7378L35.4956 27.6001C33.8678 29.044 33.7854 31.5859 35.3117 33.3126L41.1696 39.9336L54.9607 24.4515L54.958 24.4488Z" fill="#153C4A"/>
<path d="M51.7739 21.9041L53.7887 23.444C58.4828 27.0318 60.3631 32.8239 58.351 37.4932L55.9216 43.1315C55.013 45.2397 52.3393 46.0385 49.9155 44.9295L40.6152 40.6692L51.7766 21.9068L51.7739 21.9041Z" fill="#153C4A"/>
<path d="M50.9886 24.3912C50.9557 24.3912 50.9228 24.3857 50.8926 24.3747C50.7498 24.3226 50.6785 24.1633 50.7334 24.0206L52.7372 18.6897C53.0694 17.8031 53.827 17.1799 54.8125 16.9741C54.9607 16.9439 55.1062 17.0399 55.1364 17.1882C55.1666 17.3364 55.0705 17.4819 54.9223 17.5121C54.1125 17.6795 53.5196 18.1654 53.2506 18.8819L51.2467 24.2128C51.2055 24.3226 51.1012 24.3912 50.9886 24.3912Z" fill="#153C4A"/>
<path d="M51.0137 24.2374L53.5858 19.2304C54.3901 17.663 56.4406 17.2265 57.9614 18.3026L59.6441 19.4939C61.3213 20.6798 61.4888 23.0625 59.9817 24.284L55.0352 28.2918L51.0137 24.2401V24.2374Z" fill="#153C4A"/>
<path d="M56.8866 38.8356C57.507 37.496 56.925 35.9039 55.5854 35.2835L55.5415 35.2643C57.356 31.4322 56.9827 27.2295 54.287 24.8523C51.3059 22.2226 46.4636 22.692 42.6864 25.706C41.7229 24.9292 40.3175 24.9017 39.3183 25.7143C38.1736 26.6476 38.0007 28.3331 38.9312 29.4777L39.2249 29.8373C37.0756 33.8204 37.3391 38.3443 40.1747 40.8477C43.2739 43.5818 48.3879 42.9669 52.22 39.6234L53.3317 40.1395C54.6713 40.7599 56.2635 40.1779 56.8838 38.8356H56.8866Z" fill="white"/>
<path d="M44.9813 42.8489C43.1119 42.8489 41.3633 42.2587 39.9963 41.0508C37.1881 38.5721 36.7461 33.9961 38.901 29.8675L38.7226 29.6479C37.6959 28.3852 37.8881 26.524 39.1481 25.4974C40.1637 24.6684 41.6186 24.6217 42.6837 25.3574C46.6448 22.2939 51.4651 21.9947 54.4709 24.6437C57.1199 26.9797 57.6826 31.1687 55.9038 35.1353C57.2352 35.8819 57.7897 37.5427 57.1391 38.9481C56.807 39.6619 56.2195 40.2054 55.4784 40.4771C54.7372 40.7489 53.9384 40.716 53.2219 40.3838L52.2694 39.9418C50.0157 41.8579 47.3969 42.8461 44.9813 42.8461V42.8489ZM41.0092 25.3903C40.4712 25.3903 39.9331 25.5688 39.4939 25.9256C38.4673 26.7601 38.3108 28.2754 39.1481 29.302L39.4418 29.6616C39.5104 29.7467 39.5241 29.8675 39.4692 29.9663C37.3418 33.911 37.7069 38.3003 40.3586 40.6391C43.3205 43.2524 48.2342 42.7363 52.0416 39.4148C52.1239 39.3434 52.2392 39.327 52.338 39.3736L53.4525 39.8897C54.0345 40.1587 54.685 40.1862 55.2889 39.9666C55.8901 39.747 56.3705 39.3023 56.6395 38.723C57.1968 37.5207 56.6725 36.0933 55.4701 35.536L55.4289 35.5168C55.3631 35.4866 55.3109 35.429 55.2862 35.3604C55.2615 35.2917 55.2642 35.2149 55.2972 35.149C57.1034 31.3361 56.6258 27.2817 54.1086 25.0609C51.3086 22.5904 46.5789 22.9527 42.8621 25.9229C42.7605 26.0025 42.6178 26.0025 42.519 25.9229C42.0825 25.5715 41.5472 25.3931 41.0147 25.3931L41.0092 25.3903Z" fill="#153C4A"/>
<path d="M56.6298 27.7402C56.273 26.4199 55.5949 25.2532 54.5793 24.3556C51.5103 21.649 46.3908 22.2803 42.3226 25.5881C42.1112 25.4179 41.8779 25.2889 41.6309 25.1928C45.0786 28.5583 50.8076 29.4833 56.6298 27.7402Z" fill="#153C4A"/>
<path d="M49.369 29.8565C47.1126 29.8565 45.0318 29.2608 43.382 28.0722C43.2585 27.9844 43.231 27.8115 43.3189 27.6879C43.4067 27.5644 43.5797 27.537 43.7032 27.6248C46.7063 29.7906 51.2603 29.873 55.5893 27.8389C55.7265 27.773 55.8912 27.8334 55.9544 27.9707C56.0175 28.1079 55.9598 28.2699 55.8226 28.3358C53.6622 29.3514 51.4442 29.8565 49.369 29.8565Z" fill="#153C4A"/>
<path d="M52.2076 30.5291C52.0841 30.5291 51.9716 30.444 51.9414 30.3205C51.9057 30.1723 51.9963 30.024 52.1445 29.9884C53.6625 29.6205 55.068 28.8245 56.3252 27.6221C56.435 27.5178 56.6079 27.5206 56.7123 27.6304C56.8166 27.7402 56.8138 27.9131 56.704 28.0174C55.3782 29.2884 53.8876 30.1284 52.2735 30.5209C52.2516 30.5264 52.2296 30.5291 52.2076 30.5291Z" fill="#153C4A"/>
<path d="M53.5228 38.2535C53.4733 38.2535 53.4239 38.2398 53.3773 38.2124C53.2483 38.1328 53.2098 37.9626 53.2894 37.8336C53.9702 36.741 55.1643 36.9469 55.2137 36.9551C55.3619 36.9826 55.4608 37.1253 55.4333 37.2736C55.4059 37.4218 55.2659 37.5206 55.1149 37.4932C55.0765 37.4877 54.2337 37.3504 53.7533 38.1218C53.7012 38.2041 53.6106 38.2508 53.52 38.2508L53.5228 38.2535Z" fill="#153C4A"/>
<path d="M40.3241 28.2013C40.2473 28.2013 40.1704 28.1683 40.1183 28.1079C40.0194 27.9926 40.0304 27.8224 40.143 27.7209C40.1732 27.6934 40.8018 27.1197 40.4971 26.2633C40.4449 26.1205 40.5218 25.964 40.6645 25.9119C40.8073 25.8597 40.9637 25.9366 41.0159 26.0793C41.4469 27.2926 40.5437 28.0997 40.5053 28.1326C40.4532 28.1793 40.39 28.2013 40.3241 28.2013Z" fill="#153C4A"/>
<path d="M45.2887 34.0427C44.5036 34.0427 43.7542 33.76 43.1613 33.2357C42.5162 32.6647 42.1291 31.8796 42.077 31.0204C42.0221 30.1612 42.3076 29.3322 42.8758 28.6871C44.0507 27.353 46.093 27.2267 47.4271 28.4016C48.7612 29.5765 48.8875 31.6188 47.7126 32.9529C47.1416 33.598 46.3565 33.985 45.4973 34.0372C45.4287 34.0427 45.3601 34.0427 45.2914 34.0427H45.2887ZM45.2942 28.1463C44.553 28.1463 43.8146 28.451 43.2876 29.0495C42.8154 29.5847 42.5793 30.2737 42.6233 30.9875C42.6672 31.7012 42.9883 32.3545 43.5236 32.8266C44.0589 33.2988 44.7479 33.5321 45.4589 33.4909C46.1726 33.447 46.8259 33.1259 47.2981 32.5906C48.2726 31.4843 48.1683 29.7906 47.062 28.8161C46.5542 28.3687 45.9228 28.1491 45.2942 28.1491V28.1463Z" fill="url(#paint6_linear_353_5646)"/>
<path d="M50.4779 38.6189C49.7203 38.6189 48.9599 38.3526 48.3478 37.8146C47.0137 36.6397 46.8874 34.5974 48.0623 33.2633C49.2371 31.9292 51.2795 31.8029 52.6136 32.9778C53.9476 34.1527 54.0739 36.195 52.899 37.5291C52.2622 38.251 51.3728 38.6189 50.4807 38.6189H50.4779ZM50.4807 32.7225C49.7395 32.7225 49.0011 33.0272 48.474 33.6256C47.4995 34.7319 47.6038 36.4256 48.7101 37.4001C49.8163 38.3746 51.51 38.2702 52.4845 37.164C53.459 36.0577 53.3547 34.364 52.2485 33.3895C51.7406 32.9421 51.1093 32.7225 50.4807 32.7225Z" fill="url(#paint7_linear_353_5646)"/>
<path d="M47.906 33.7873C47.8428 33.7873 47.777 33.7653 47.7248 33.7187L47.2719 33.3206C47.1593 33.2191 47.1483 33.0461 47.2472 32.9336C47.3487 32.8183 47.5217 32.8073 47.6342 32.9089L48.0871 33.3069C48.1997 33.4085 48.2107 33.5814 48.1119 33.694C48.057 33.7543 47.9828 33.7873 47.906 33.7873Z" fill="url(#paint8_linear_353_5646)"/>
<path d="M45.0717 30.8996C44.7423 31.3305 44.6956 31.8494 44.9701 32.0607C45.2446 32.2721 45.7332 32.0909 46.0654 31.66C46.3948 31.229 46.4414 30.7102 46.1669 30.4988C45.8924 30.2902 45.4038 30.4686 45.0717 30.8996Z" fill="#153C4A"/>
<path d="M49.2661 34.5094C48.9064 34.9156 48.8268 35.4317 49.0849 35.6595C49.3429 35.8874 49.8453 35.7446 50.2049 35.3356C50.5645 34.9294 50.6441 34.4133 50.386 34.1855C50.128 33.9576 49.6257 34.1004 49.2661 34.5094Z" fill="#153C4A"/>
<path d="M42.4299 38.3417C42.3448 38.3417 42.2625 38.3032 42.2103 38.2319C41.1178 36.766 41.3374 35.2288 41.3456 35.1656C41.3676 35.0174 41.5103 34.9131 41.6586 34.935C41.8095 34.957 41.9111 35.097 41.8891 35.248C41.8864 35.2727 41.7025 36.6342 42.6495 37.9052C42.7401 38.026 42.7154 38.1989 42.5946 38.2895C42.5452 38.3252 42.4876 38.3444 42.4299 38.3444V38.3417Z" fill="#153C4A"/>
<path d="M45.7598 36.7548C45.5402 36.7548 45.3233 36.6999 45.1284 36.5956C44.9939 36.5242 44.9445 36.3567 45.0186 36.2222C45.09 36.0877 45.2574 36.0383 45.3919 36.1124C45.5868 36.2167 45.8092 36.236 46.0178 36.1618C46.2264 36.0877 46.3884 35.934 46.4735 35.7309L47.2833 33.7929C47.3409 33.6529 47.5029 33.587 47.6429 33.6446C47.7829 33.7023 47.8487 33.8642 47.7911 34.0042L46.9813 35.9422C46.8386 36.2854 46.5531 36.5544 46.2017 36.6779C46.059 36.7273 45.9107 36.752 45.7625 36.752L45.7598 36.7548Z" fill="#153C4A"/>
<path d="M57.2098 27.0154C57.1055 27.0154 57.0066 26.955 56.96 26.8534C56.9463 26.826 55.6176 23.9876 51.5769 22.368C51.4369 22.3131 51.3683 22.1512 51.4232 22.0112C51.4809 21.8712 51.6401 21.7998 51.7801 21.8575C56.0376 23.5649 57.4019 26.5021 57.4596 26.6256C57.5227 26.7629 57.4596 26.9248 57.3223 26.988C57.2866 27.0044 57.2482 27.0127 57.2098 27.0127V27.0154Z" fill="url(#paint9_linear_353_5646)"/>
<path d="M48.8875 2.94407C44.962 -0.981355 38.5963 -0.981355 34.6709 2.94407C31.4591 6.15577 30.8772 11.0008 32.9195 14.8082L31.418 20.4136L37.0234 18.912C40.8307 20.9571 45.673 20.3751 48.8875 17.1607C52.8129 13.2353 52.8129 6.86949 48.8875 2.94407Z" fill="url(#paint10_linear_353_5646)"/>
<path d="M39.9634 13.2902C39.7877 13.2902 39.612 13.2243 39.4775 13.0898L37.5807 11.193C37.3117 10.924 37.3117 10.4902 37.5807 10.2212C37.8497 9.95221 38.2834 9.95221 38.5524 10.2212L39.9634 11.6322L44.8852 6.71031C45.1543 6.44129 45.588 6.44129 45.857 6.71031C46.126 6.97932 46.126 7.41304 45.857 7.68205L40.452 13.0871C40.3175 13.2216 40.1418 13.2874 39.9661 13.2874L39.9634 13.2902Z" fill="white"/>
<path d="M56.4485 64.3206C56.325 64.3206 56.2124 64.2382 56.1822 64.112L54.8536 58.8003C54.818 58.6521 54.9058 58.5038 55.054 58.4681C55.2023 58.4325 55.3505 58.5203 55.3862 58.6685L56.7148 63.9802C56.7505 64.1284 56.6626 64.2767 56.5144 64.3123C56.4924 64.3178 56.4705 64.3206 56.4485 64.3206Z" fill="#153C4A"/>
<path d="M22.6217 62.1657C22.4927 62.1657 22.3802 62.0751 22.3527 61.9461L21.5759 58.0783C21.5457 57.9301 21.6417 57.7846 21.79 57.7544C21.9382 57.7215 22.0837 57.8203 22.1139 57.9685L22.8907 61.8363C22.9209 61.9845 22.8249 62.13 22.6766 62.1602C22.6574 62.1629 22.6409 62.1657 22.6217 62.1657Z" fill="#153C4A"/>
<defs>
<linearGradient id="paint0_linear_353_5646" x1="9.64063" y1="27.0305" x2="11.0124" y2="28.3017" gradientUnits="userSpaceOnUse">
<stop stop-color="#F39025"/>
<stop offset="1" stop-color="#53D1FF"/>
</linearGradient>
<linearGradient id="paint1_linear_353_5646" x1="13.3926" y1="27.3941" x2="13.4171" y2="28.1471" gradientUnits="userSpaceOnUse">
<stop stop-color="#F39025"/>
<stop offset="1" stop-color="#53D1FF"/>
</linearGradient>
<linearGradient id="paint2_linear_353_5646" x1="9.64063" y1="31.5215" x2="11.0124" y2="32.7927" gradientUnits="userSpaceOnUse">
<stop stop-color="#F39025"/>
<stop offset="1" stop-color="#53D1FF"/>
</linearGradient>
<linearGradient id="paint3_linear_353_5646" x1="13.3926" y1="31.8853" x2="13.4171" y2="32.6384" gradientUnits="userSpaceOnUse">
<stop stop-color="#F39025"/>
<stop offset="1" stop-color="#53D1FF"/>
</linearGradient>
<linearGradient id="paint4_linear_353_5646" x1="9.64063" y1="36.0095" x2="11.0124" y2="37.2807" gradientUnits="userSpaceOnUse">
<stop stop-color="#F39025"/>
<stop offset="1" stop-color="#53D1FF"/>
</linearGradient>
<linearGradient id="paint5_linear_353_5646" x1="13.3926" y1="36.3733" x2="13.4171" y2="37.1264" gradientUnits="userSpaceOnUse">
<stop stop-color="#F39025"/>
<stop offset="1" stop-color="#53D1FF"/>
</linearGradient>
<linearGradient id="paint6_linear_353_5646" x1="42.0703" y1="29.2085" x2="46.4828" y2="33.2982" gradientUnits="userSpaceOnUse">
<stop stop-color="#F39025"/>
<stop offset="1" stop-color="#53D1FF"/>
</linearGradient>
<linearGradient id="paint7_linear_353_5646" x1="47.2578" y1="33.7847" x2="51.6702" y2="37.8737" gradientUnits="userSpaceOnUse">
<stop stop-color="#F39025"/>
<stop offset="1" stop-color="#53D1FF"/>
</linearGradient>
<linearGradient id="paint8_linear_353_5646" x1="47.1797" y1="33.0763" x2="47.8303" y2="33.7122" gradientUnits="userSpaceOnUse">
<stop stop-color="#F39025"/>
<stop offset="1" stop-color="#53D1FF"/>
</linearGradient>
<linearGradient id="paint9_linear_353_5646" x1="51.4043" y1="23.1319" x2="54.9467" y2="26.9862" gradientUnits="userSpaceOnUse">
<stop stop-color="#F39025"/>
<stop offset="1" stop-color="#53D1FF"/>
</linearGradient>
<linearGradient id="paint10_linear_353_5646" x1="31.418" y1="5.10339" x2="45.3925" y2="18.0531" gradientUnits="userSpaceOnUse">
<stop stop-color="#F39025"/>
<stop offset="1" stop-color="#53D1FF"/>
</linearGradient>
</defs>
</svg>
