<svg width="66" height="49" viewBox="0 0 66 49" fill="none" xmlns="http://www.w3.org/2000/svg">
<path d="M32.8498 4.34839H63.139C64.1915 4.34839 65.0452 5.20206 65.0452 6.25457V30.3195C65.0452 31.372 64.1915 32.2257 63.139 32.2257H32.8498C31.7973 32.2257 30.9436 31.372 30.9436 30.3195V6.25457C30.9436 5.20206 31.7973 4.34839 32.8498 4.34839Z" fill="white"/>
<path d="M63.14 32.4419H32.8508C31.6816 32.4419 30.7285 31.4909 30.7285 30.3196V6.25462C30.7285 5.08541 31.6794 4.13232 32.8508 4.13232H63.14C64.3092 4.13232 65.2623 5.08325 65.2623 6.25462V30.3196C65.2623 31.4888 64.3114 32.4419 63.14 32.4419ZM32.8508 4.56456C31.9193 4.56456 31.1608 5.32315 31.1608 6.25462V30.3196C31.1608 31.2511 31.9193 32.0096 32.8508 32.0096H63.14C64.0715 32.0096 64.8301 31.2511 64.8301 30.3196V6.25462C64.8301 5.32315 64.0715 4.56456 63.14 4.56456H32.8508Z" fill="#153C4A"/>
<path d="M33.2315 7.15359C32.756 7.15359 32.3691 6.76674 32.3691 6.29127C32.3691 5.81581 32.756 5.42896 33.2315 5.42896C33.7069 5.42896 34.0938 5.81581 34.0938 6.29127C34.0938 6.76674 33.7069 7.15359 33.2315 7.15359ZM33.2315 5.85903C32.9937 5.85903 32.8014 6.05138 32.8014 6.28911C32.8014 6.52684 32.9937 6.71919 33.2315 6.71919C33.4692 6.71919 33.6615 6.52684 33.6615 6.28911C33.6615 6.05138 33.4692 5.85903 33.2315 5.85903Z" fill="#153C4A"/>
<path d="M35.4111 7.15359C34.9357 7.15359 34.5488 6.76674 34.5488 6.29127C34.5488 5.81581 34.9357 5.42896 35.4111 5.42896C35.8866 5.42896 36.2735 5.81581 36.2735 6.29127C36.2735 6.76674 35.8866 7.15359 35.4111 7.15359ZM35.4111 5.85903C35.1734 5.85903 34.9811 6.05138 34.9811 6.28911C34.9811 6.52684 35.1734 6.71919 35.4111 6.71919C35.6489 6.71919 35.8412 6.52684 35.8412 6.28911C35.8412 6.05138 35.6489 5.85903 35.4111 5.85903Z" fill="#153C4A"/>
<path d="M37.5889 7.15359C37.1134 7.15359 36.7266 6.76674 36.7266 6.29127C36.7266 5.81581 37.1134 5.42896 37.5889 5.42896C38.0643 5.42896 38.4512 5.81581 38.4512 6.29127C38.4512 6.76674 38.0643 7.15359 37.5889 7.15359ZM37.5889 5.85903C37.3512 5.85903 37.1588 6.05138 37.1588 6.28911C37.1588 6.52684 37.3512 6.71919 37.5889 6.71919C37.8266 6.71919 38.019 6.52684 38.019 6.28911C38.019 6.05138 37.8266 5.85903 37.5889 5.85903Z" fill="#153C4A"/>
<path d="M62.6015 32.0528L61.7068 29.4464C61.1017 27.6807 59.5975 26.371 57.7648 26.0144L50.421 24.5793L42.189 25.7918C40.0861 26.1008 38.3788 27.6547 37.8752 29.7208L37.3047 32.0549H62.6015V32.0528Z" fill="#153C4A"/>
<path d="M47.2689 32.2451H51.6756L52.2505 28.1734L49.616 26.7275L46.6465 28.316L47.2689 32.2451Z" fill="white"/>
<path d="M51.8633 32.4613H47.0827L46.4062 28.1994L49.6156 26.4834L52.4835 28.0568L51.8611 32.4634L51.8633 32.4613ZM47.4523 32.029H51.4872L52.0146 28.2902L49.6135 26.974L46.8817 28.435L47.4523 32.029Z" fill="#153C4A"/>
<path d="M26.6671 18.7223C29.5415 14.2659 24.7263 11.4996 21.8649 12.4657C21.6055 12.5543 21.3203 12.4959 21.0566 12.5283C20.9096 12.8936 20.8362 13.2761 20.8491 13.6716C20.9161 15.8652 24.0866 21.0629 26.6671 18.7223Z" fill="#153C4A"/>
<path d="M14.293 33.4812L22.0625 31.6744L23.3441 24.3285L16.5233 23.1377L14.293 33.4812Z" fill="white"/>
<path d="M14.2944 33.6974C14.2382 33.6974 14.1842 33.6758 14.1431 33.6348C14.0913 33.5829 14.0675 33.5072 14.0826 33.4359L16.3151 23.0946C16.3389 22.9822 16.4491 22.9087 16.5637 22.9282L23.3844 24.1168C23.4406 24.1276 23.4903 24.1579 23.5249 24.2054C23.5573 24.253 23.5703 24.3113 23.5616 24.3675L22.28 31.7134C22.2649 31.7999 22.2001 31.8669 22.1158 31.8863L14.3441 33.6931C14.3268 33.6974 14.3117 33.6996 14.2944 33.6996V33.6974ZM16.6933 23.3885L14.5775 33.1939L21.8781 31.4973L23.097 24.5037L16.6933 23.3863V23.3885Z" fill="#153C4A"/>
<path d="M16.1609 24.9468C15.4153 24.2423 14.8145 23.354 14.4341 22.3167C13.1634 18.8436 14.888 15.1069 18.2227 13.7994C23.6927 11.6533 26.3424 16.2826 26.5477 17.3545C26.5952 17.6052 26.6428 17.8495 26.6903 18.0829C26.8157 18.4676 26.9064 18.8544 26.9626 19.2434C27.196 20.0604 27.4986 20.6677 28.0022 20.9292C28.7759 21.3311 27.3797 27.5878 22.7223 26.41L16.1609 24.9468Z" fill="white"/>
<path d="M23.8077 26.7601C23.3193 26.7601 22.9151 26.6823 22.6709 26.6217C22.5542 26.5915 22.485 26.4748 22.5153 26.3602C22.5456 26.2435 22.6623 26.1744 22.7768 26.2046C25.4199 26.8724 26.7858 25.0311 27.3672 23.8727C28.0501 22.5111 28.0761 21.262 27.9032 21.1237C27.3953 20.86 27.0408 20.3002 26.7577 19.3061C26.7556 19.2974 26.7534 19.2866 26.7512 19.278C26.6972 18.8998 26.6064 18.5216 26.4854 18.1542C26.4833 18.1455 26.4811 18.139 26.4789 18.1304C26.4314 17.8948 26.3838 17.6506 26.3363 17.3999C26.239 16.8964 25.3724 15.1134 23.5743 14.1235C22.0355 13.2763 20.2612 13.2353 18.3031 14.0047C15.0267 15.2906 13.4188 18.9106 14.6399 22.2475C14.9986 23.2287 15.5627 24.0867 16.3127 24.7955C16.3991 24.8777 16.4034 25.0138 16.3213 25.1003C16.2392 25.1867 16.103 25.191 16.0166 25.1089C15.2299 24.3655 14.614 23.4275 14.2357 22.3966C12.9325 18.8371 14.6507 14.975 18.1475 13.6027C20.2309 12.7857 22.1284 12.8333 23.7861 13.7453C25.5972 14.7438 26.6194 16.5657 26.7642 17.3199C26.8118 17.5663 26.8571 17.8041 26.9047 18.0353C27.03 18.4178 27.123 18.8112 27.1813 19.2045C27.4277 20.0647 27.7151 20.5401 28.1085 20.7433C28.625 21.0113 28.4564 22.3296 28.035 23.434C26.9739 26.2262 25.0979 26.7644 23.8099 26.7644L23.8077 26.7601Z" fill="#153C4A"/>
<path d="M26.5462 23.9937C26.5267 23.9937 26.5094 23.9915 26.49 23.9872C25.8178 23.8078 25.565 23.1378 25.5542 23.1097C25.5131 22.9974 25.5715 22.8742 25.6838 22.8331C25.7962 22.7942 25.9194 22.8504 25.9605 22.9606C25.9648 22.9714 26.1528 23.4512 26.6002 23.5701C26.7147 23.6003 26.7839 23.7192 26.7536 23.8337C26.7277 23.931 26.6412 23.9937 26.544 23.9937H26.5462Z" fill="#153C4A"/>
<path d="M24.4701 18.5279H24.4657C24.3469 18.5279 24.2518 18.4285 24.2539 18.3074C24.2583 17.9768 24.5327 17.5748 24.9174 17.3284C25.3324 17.0626 25.797 17.0215 26.2228 17.2095C26.3309 17.2571 26.3806 17.3868 26.333 17.4948C26.2855 17.6029 26.158 17.6526 26.0477 17.605C25.6587 17.4322 25.3173 17.5856 25.1508 17.6915C24.8677 17.873 24.6905 18.154 24.6883 18.3139C24.6883 18.4328 24.5889 18.5257 24.4722 18.5257L24.4701 18.5279Z" fill="#153C4A"/>
<path d="M25.7183 19.5763C25.809 19.7557 25.9863 19.8486 26.1159 19.7838C26.2456 19.7189 26.2759 19.5201 26.1851 19.3429C26.0943 19.1635 25.9171 19.0706 25.7874 19.1354C25.6578 19.2002 25.6275 19.3991 25.7183 19.5763Z" fill="#153C4A"/>
<path d="M23.0466 26.2413L22.636 28.5926C21.7045 28.0134 20.9524 27.1338 20.5461 26.023C20.384 25.5799 20.2889 25.1282 20.2522 24.6787C20.9935 25.4892 21.979 26.0338 23.0466 26.2413Z" fill="#153C4A"/>
<path d="M0.0016454 48.5685L8.50164 32.2731C9.73569 29.9066 12.3399 28.5883 14.9766 28.9946L25.9144 30.6803C28.3479 30.8856 30.3665 32.6513 30.8895 35.0373L32.545 42.5669H37.3926V48.7998H26.3121L24.9268 45.3376L23.5414 48.7998C23.5414 48.7998 -0.227442 48.3373 0.0016454 48.5685Z" fill="#153C4A"/>
<path d="M31.8887 42.7636L33.6976 30.2179L36.0706 27.1663L36.3299 28.0286C36.3818 28.1993 36.3602 28.383 36.2694 28.5365L35.1651 30.4426L35.0527 31.6853L38.275 27.7584L38.5884 28.0956C38.7375 28.2555 38.7937 28.4803 38.7418 28.6899L39.3254 28.1172L39.9499 28.906C40.0169 29.0897 39.9975 29.295 39.8959 29.4636L38.3182 31.2315L38.275 33.1809L39.8851 31.8236L41.5795 31.0607C41.5795 31.7329 41.2877 32.3748 40.7798 32.8156L40.6048 32.9691L38.5711 35.301L38.4436 40.2177L37.1728 41.4885L37.216 44.1598L31.8887 42.7615V42.7636Z" fill="white"/>
<path d="M37.4361 44.4451L31.6484 42.9258L33.4919 30.1315L36.1589 26.7039L36.5392 27.9682C36.6062 28.1951 36.5781 28.4415 36.4593 28.6468L35.3787 30.5119L35.3333 31.0068L38.266 27.4322L38.748 27.9509C38.8215 28.0308 38.8777 28.1216 38.9166 28.2189L39.3445 27.7974L40.1506 28.8348C40.2414 29.0812 40.2154 29.3535 40.0793 29.5783L40.0555 29.6107L38.5319 31.3202L38.5016 32.712L39.7983 31.6314L41.7974 30.7302V31.0652C41.7974 31.8021 41.4797 32.5002 40.9243 32.9843L40.7601 33.1269L38.7869 35.3876L38.6594 40.3129L37.3907 41.5816L37.4361 44.4451ZM32.1304 42.6038L36.9952 43.8811L36.9563 41.4043L38.2315 40.1292L38.359 35.2211L40.4661 32.8114L40.6412 32.658C41.0129 32.3338 41.2571 31.8929 41.3371 31.4131L40.0036 32.0139L38.0499 33.6586L38.1039 31.1516L39.7184 29.3405C39.7745 29.2411 39.7854 29.1244 39.7551 29.0142L39.3034 28.4436L38.346 29.3837L38.5319 28.6403C38.5664 28.4998 38.5297 28.3507 38.4303 28.2448L38.2855 28.0892L34.7757 32.3705L34.9572 30.3801L36.0854 28.4328C36.1437 28.3312 36.1589 28.2081 36.1243 28.0957L35.986 27.6332L33.9047 30.3087L32.1325 42.6081L32.1304 42.6038Z" fill="#153C4A"/>
<path d="M36.2402 32.6342L37.0874 30.6848L38.7407 28.6921L36.2402 32.6342Z" fill="white"/>
<path d="M36.4387 32.7205L36.041 32.5476L36.9206 30.5463L38.5739 28.5537L38.9068 28.8303L37.2729 30.7992L36.4387 32.7205Z" fill="#153C4A"/>
<path d="M13.1528 19.1245C16.0127 19.1245 18.3311 16.8062 18.3311 13.9463C18.3311 11.0864 16.0127 8.76807 13.1528 8.76807C10.293 8.76807 7.97461 11.0864 7.97461 13.9463C7.97461 16.8062 10.293 19.1245 13.1528 19.1245Z" fill="#153C4A"/>
<path d="M12.7205 19.8419C9.74671 19.8419 7.32617 17.4214 7.32617 14.4476C7.32617 11.4738 9.74671 9.05322 12.7205 9.05322C15.6943 9.05322 18.1149 11.4738 18.1149 14.4476C18.1149 17.4214 15.6943 19.8419 12.7205 19.8419ZM12.7205 9.48762C9.98445 9.48762 7.75841 11.7137 7.75841 14.4497C7.75841 17.1858 9.98445 19.4119 12.7205 19.4119C15.4566 19.4119 17.6826 17.1858 17.6826 14.4497C17.6826 11.7137 15.4566 9.48762 12.7205 9.48762Z" fill="#153C4A"/>
<path d="M20.9223 18.4652C19.9843 16.7125 18.0695 15.5606 15.904 15.7443C13.3754 15.9583 11.3438 18.0395 11.1861 20.5724C11.0002 23.5808 13.384 26.0813 16.3535 26.0813C16.3622 26.0813 16.3708 26.0813 16.3794 26.0813C17.6546 26.0748 18.7697 25.2103 19.1566 23.9958L20.9223 18.4674V18.4652Z" fill="#153C4A"/>
<path d="M24.2888 16.4258C24.8329 14.1419 23.4226 11.8494 21.1387 11.3053C18.8548 10.7612 16.5622 12.1716 16.0181 14.4555C15.474 16.7394 16.8844 19.0319 19.1683 19.576C21.4522 20.1201 23.7447 18.7097 24.2888 16.4258Z" fill="#153C4A"/>
<path d="M22.3114 21.4076C22.5441 20.321 21.852 19.2515 20.7654 19.0188C19.6788 18.786 18.6093 19.4782 18.3765 20.5648C18.1438 21.6514 18.8359 22.7209 19.9225 22.9537C21.0091 23.1864 22.0787 22.4942 22.3114 21.4076Z" fill="white"/>
<path d="M17.6737 19.2217C17.6737 19.4659 17.691 19.7036 17.7234 19.9392C18.1924 20.0797 18.6895 20.1553 19.2017 20.1553C22.0609 20.1553 24.3799 17.8364 24.3799 14.9771C24.3799 14.7329 24.3626 14.4951 24.3302 14.2596C23.8612 14.1191 23.3641 14.0435 22.8519 14.0435C19.9927 14.0435 17.6737 16.3624 17.6737 19.2217Z" fill="#153C4A"/>
<path d="M33.9017 47.9852C33.8088 47.9852 33.7224 47.9246 33.6943 47.8295L31.8745 41.6961C31.84 41.5815 31.9048 41.4605 32.0193 41.4281C32.1339 41.3935 32.2549 41.4605 32.2873 41.5729L34.1071 47.7064C34.1416 47.8209 34.0768 47.9419 33.9623 47.9743C33.9406 47.9808 33.9212 47.983 33.8996 47.983L33.9017 47.9852Z" fill="white"/>
<path d="M44.0504 15.7919C44.0504 15.7919 42.4532 9.90477 43.6246 8.16068C44.8219 6.37769 46.2872 6.63488 48.416 7.72412C50.5448 8.81336 50.3157 7.06495 53.2074 8.05046C54.8045 8.59508 55.8699 9.79455 55.764 10.994C55.6581 12.1935 55.6582 15.3553 54.5927 16.5548C53.5272 17.7542 45.7534 18.8435 44.0504 15.7919Z" fill="#153C4A"/>
<path d="M49.4436 26.7274H49.4544C48.1469 26.7274 47.0879 25.6684 47.0879 24.3609V15.7593C47.0879 14.4518 48.1469 13.3928 49.4544 13.3928H49.4436C50.7511 13.3928 51.8101 14.4518 51.8101 15.7593V24.3609C51.8101 25.6684 50.7511 26.7274 49.4436 26.7274Z" fill="white"/>
<path d="M49.4557 26.9436C49.4557 26.9436 49.4492 26.9436 49.4449 26.9436H49.4405C48.0228 26.935 46.873 25.7787 46.873 24.361V15.7594C46.873 14.3395 48.0228 13.1854 49.4405 13.1768H49.46C50.8777 13.1854 52.0275 14.3416 52.0275 15.7594V24.361C52.0275 25.7809 50.8777 26.935 49.46 26.9436H49.4557ZM49.4492 13.6068C48.2649 13.609 47.3031 14.5729 47.3031 15.7572V24.3588C47.3031 25.5431 48.2649 26.507 49.4492 26.5092C50.6335 26.507 51.5953 25.5431 51.5953 24.3588V15.7572C51.5953 14.5729 50.6335 13.609 49.4492 13.6068Z" fill="#153C4A"/>
<path d="M45.7459 16.4295C46.0399 17.5144 45.8173 18.5172 45.2489 18.6728C44.6805 18.8284 43.9802 18.0742 43.6863 16.9893C43.3924 15.9043 43.615 14.9015 44.1834 14.7459C44.7518 14.5925 45.452 15.3446 45.7459 16.4295Z" fill="white"/>
<path d="M45.1001 18.9084C44.4583 18.9084 43.7775 18.1455 43.4792 17.0454C43.1486 15.8287 43.4339 14.7264 44.1276 14.5384C44.8235 14.3504 45.6253 15.1565 45.956 16.3733C46.2866 17.59 46.0014 18.6922 45.3076 18.8803C45.2406 18.8997 45.1715 18.9084 45.1023 18.9084H45.1001ZM44.3329 14.9426C44.3005 14.9426 44.2702 14.9469 44.2421 14.9534C43.8531 15.0593 43.6176 15.8978 43.8964 16.9309C44.1773 17.9639 44.8062 18.5626 45.1931 18.4632C45.5821 18.3573 45.8177 17.5187 45.5389 16.4857C45.2795 15.5304 44.7219 14.9426 44.3329 14.9426Z" fill="#153C4A"/>
<path d="M52.9207 16.4295C52.6268 17.5144 52.8494 18.5172 53.4178 18.6728C53.9862 18.8263 54.6864 18.0742 54.9803 16.9893C55.2742 15.9043 55.0516 14.9015 54.4832 14.7459C53.9148 14.5925 53.2146 15.3446 52.9207 16.4295Z" fill="white"/>
<path d="M53.5673 18.9084C53.4981 18.9084 53.429 18.8997 53.362 18.8803C52.6682 18.6922 52.383 17.59 52.7136 16.3733C53.0443 15.1565 53.8461 14.3504 54.542 14.5384C55.2357 14.7264 55.521 15.8287 55.1904 17.0454C54.8921 18.1433 54.2092 18.9084 53.5673 18.9084ZM53.1307 16.4857C52.8498 17.5187 53.0875 18.3573 53.4765 18.4632C53.8677 18.5691 54.4944 17.9661 54.7732 16.9309C55.0542 15.8978 54.8165 15.0593 54.4275 14.9534C54.0384 14.8496 53.4117 15.4504 53.1307 16.4857Z" fill="#153C4A"/>
<path d="M50.5671 9.41626H48.1271C46.345 9.41626 44.9004 10.8609 44.9004 12.6429V20.3606C44.9004 22.1426 46.345 23.5872 48.1271 23.5872H50.5671C52.3491 23.5872 53.7937 22.1426 53.7937 20.3606V12.6429C53.7937 10.8609 52.3491 9.41626 50.5671 9.41626Z" fill="white"/>
<path d="M50.5642 23.8035H48.1264C46.2267 23.8035 44.6836 22.2582 44.6836 20.3607V12.6452C44.6836 10.7455 46.2288 9.20239 48.1264 9.20239H50.5642C52.4639 9.20239 54.007 10.7476 54.007 12.6452V20.3607C54.007 22.2604 52.4618 23.8035 50.5642 23.8035ZM48.1264 9.63247C46.4666 9.63247 45.1158 10.9832 45.1158 12.643V20.3585C45.1158 22.0183 46.4666 23.3691 48.1264 23.3691H50.5642C52.224 23.3691 53.5748 22.0183 53.5748 20.3585V12.643C53.5748 10.9832 52.224 9.63247 50.5642 9.63247H48.1264Z" fill="#153C4A"/>
<path d="M46.4695 16.6089C46.5862 16.9072 46.8542 17.0801 47.0681 16.9958C47.2821 16.9115 47.3621 16.6024 47.2453 16.3042C47.1286 16.0059 46.8607 15.833 46.6467 15.9173C46.4327 16.0016 46.3528 16.3107 46.4695 16.6089Z" fill="#153C4A"/>
<path d="M47.937 15.6837C47.8916 15.6837 47.844 15.6686 47.8051 15.6383C47.6063 15.4849 47.3318 15.3898 47.0314 15.3682C46.6662 15.3444 46.3204 15.433 46.1043 15.6102C46.0113 15.6859 45.8752 15.6729 45.7995 15.5821C45.7239 15.4914 45.7369 15.353 45.8276 15.2774C46.1259 15.031 46.5862 14.9014 47.0595 14.9359C47.4442 14.9619 47.803 15.0915 48.0666 15.2947C48.1617 15.3682 48.179 15.5043 48.1055 15.5973C48.0623 15.6513 47.9996 15.6815 47.9348 15.6815L47.937 15.6837Z" fill="#153C4A"/>
<path d="M50.9365 16.6089C51.0532 16.9072 51.3212 17.0801 51.5352 16.9958C51.7491 16.9115 51.8291 16.6024 51.7124 16.3042C51.5957 16.0059 51.3277 15.833 51.1137 15.9173C50.8998 16.0016 50.8198 16.3107 50.9365 16.6089Z" fill="#153C4A"/>
<path d="M52.4035 15.6838C52.3581 15.6838 52.3106 15.6687 52.2717 15.6385C52.0772 15.4872 51.7941 15.3899 51.498 15.3683C51.1327 15.3445 50.787 15.4331 50.5708 15.6104C50.4779 15.686 50.3417 15.673 50.2661 15.5823C50.1905 15.4893 50.2034 15.3532 50.2942 15.2775C50.5968 15.0268 51.0463 14.9015 51.5261 14.9361C51.9108 14.962 52.2695 15.0917 52.5332 15.2948C52.6283 15.3683 52.6456 15.5045 52.5721 15.5974C52.5289 15.6514 52.4662 15.6817 52.4014 15.6817L52.4035 15.6838Z" fill="#153C4A"/>
<path d="M49.1129 18.6641C48.9811 18.6641 48.8514 18.6101 48.7693 18.5128C48.6094 18.3248 48.6245 18.0763 48.6353 17.9271C48.6893 17.0972 48.765 16.2609 48.8579 15.4353C48.8709 15.3164 48.9789 15.2343 49.0978 15.2451C49.2167 15.2581 49.301 15.3661 49.288 15.485C49.1951 16.3019 49.1216 17.134 49.0676 17.9552C49.0611 18.059 49.0568 18.1735 49.0957 18.2275C49.1367 18.1454 49.2253 18.0936 49.3204 18.1087C49.4393 18.126 49.5192 18.2362 49.502 18.3529C49.4803 18.4955 49.3831 18.6036 49.2361 18.6468C49.1951 18.6576 49.154 18.6641 49.1108 18.6641H49.1129Z" fill="#153C4A"/>
<path d="M50.0067 20.0754C49.8554 20.0754 49.7063 20.0495 49.5658 19.9954C49.4534 19.9522 49.3994 19.8269 49.4426 19.7167C49.4858 19.6043 49.6112 19.5502 49.7214 19.5935C49.9418 19.6778 50.2055 19.6583 50.4454 19.5351C50.6853 19.4119 50.856 19.2109 50.9165 18.9818C50.9468 18.8673 51.0657 18.7981 51.1802 18.8284C51.2947 18.8587 51.3639 18.9775 51.3337 19.0921C51.2407 19.44 50.99 19.7426 50.6399 19.9198C50.4368 20.0235 50.2185 20.0776 50.0045 20.0776L50.0067 20.0754Z" fill="#153C4A"/>
<path d="M45.0473 14.0478C45.0473 14.0478 45.3996 11.1604 46.3051 11.5559C47.2107 11.9514 47.2452 12.777 48.6543 12.8764C50.0634 12.9759 50.969 12.4809 51.4726 12.9759C51.9761 13.4708 52.8817 14.56 54.0898 13.769C55.2979 12.9759 55.4146 11.0783 53.5019 10.0885C51.5893 9.09866 48.7213 8.94954 47.1091 8.85013C45.499 8.75071 43.837 11.6727 45.0451 14.0478H45.0473Z" fill="#153C4A"/>
<path d="M49.5219 29.4485L48.7287 28.074L47.9355 26.6995H49.5219H51.1082L50.315 28.074L49.5219 29.4485Z" fill="#153C4A"/>
<path d="M49.5221 27.4536L48.7289 29.7899L47.9336 32.1261H49.5221H51.1084L50.3152 29.7899L49.5221 27.4536Z" fill="#153C4A"/>
<path d="M49.4443 26.7276L46.7904 29.8981L46.168 25.5368L47.0886 24.3611L49.4443 26.7276Z" fill="white"/>
<path d="M46.644 30.408L45.9395 25.4762L47.0698 24.0347L49.7367 26.7146L46.644 30.4059V30.408ZM46.3933 25.5972L46.9336 29.3858L49.151 26.7383L47.1065 24.6852L46.3933 25.5972Z" fill="#153C4A"/>
<path d="M49.6172 26.7276L52.2711 29.8981L52.8957 25.5368L51.9729 24.3611L49.6172 26.7276Z" fill="white"/>
<path d="M52.4171 30.4081L49.3245 26.7168L51.9914 24.0369L53.1217 25.4784L52.4171 30.4102V30.4081ZM49.908 26.7405L52.1254 29.388L52.6657 25.5994L51.9525 24.6874L49.908 26.7405Z" fill="#153C4A"/>
<path fill-rule="evenodd" clip-rule="evenodd" d="M5.84706 0H25.3476C26.7894 0 27.9583 1.16886 27.9583 2.61073V7.16438C27.9583 8.60624 26.7894 9.7751 25.3476 9.7751H11.4287V13.0796L8.12424 9.7751H5.84706C4.40519 9.7751 3.23633 8.60624 3.23633 7.16438V2.61073C3.23633 1.16886 4.40519 0 5.84706 0Z" fill="url(#paint0_linear_353_5762)"/>
<path fill-rule="evenodd" clip-rule="evenodd" d="M60.7312 33.6327H63.0104C64.4523 33.6327 65.6211 34.8015 65.6211 36.2434V40.797C65.6211 42.2389 64.4523 43.4078 63.0104 43.4078H43.5099C42.068 43.4078 40.8992 42.2389 40.8992 40.797V36.2434C40.8992 34.8015 42.068 33.6327 43.5099 33.6327H57.4267V30.3281L60.7312 33.6327Z" fill="url(#paint1_linear_353_5762)"/>
<path d="M11.0884 6.34087C10.9631 6.34087 10.8399 6.33439 10.7189 6.31926C9.76144 6.20472 9.12821 5.93889 8.83861 5.53042C8.81484 5.49584 8.79107 5.4591 8.77162 5.42236C8.2486 5.49584 7.61753 5.53475 6.88921 5.54123L6.88489 5.10899C7.63266 5.10251 8.2097 5.06144 8.65707 5.00309C8.65275 4.90368 8.66355 4.79994 8.68733 4.69188C8.7889 4.23803 9.29895 3.74743 9.80683 3.7993C10.2888 3.84901 10.6259 4.12997 10.6108 4.46927C10.5913 4.86694 10.1202 5.16302 9.24276 5.3424C9.4243 5.54123 9.83709 5.77896 10.7707 5.88918C11.5639 5.98428 12.4716 5.70548 13.1869 5.30998C12.8844 5.11763 12.6488 4.92097 12.4932 4.75455C12.2965 4.54708 12.0782 4.24019 12.1474 3.96572C12.2403 3.59831 12.625 3.27413 13.1243 3.13798C13.7164 2.97805 14.3 3.11636 14.6825 3.50754C14.9224 3.75176 14.957 4.08242 14.7819 4.43686C14.6436 4.71781 14.3799 5.00741 14.0385 5.27324C14.7625 5.58878 15.7242 5.79193 16.8156 5.58229C17.3516 5.48072 17.7838 5.3035 18.1123 5.09602C17.6758 4.73726 17.384 4.3007 17.4034 3.95707C17.4164 3.71069 17.5807 3.52699 17.8508 3.45351C18.6094 3.25036 18.9638 3.47296 19.1086 3.62425C19.2967 3.82091 19.3464 4.11052 19.2491 4.41957C19.1843 4.6184 19.0524 4.84316 18.8406 5.06144C18.9271 5.10683 19.0179 5.15005 19.1108 5.18679C19.9947 5.53475 20.3556 5.34888 20.3578 5.34672L20.5999 5.70548C20.5502 5.74006 20.0704 6.0275 18.953 5.58878C18.7931 5.5261 18.6397 5.4483 18.4927 5.35969C18.1123 5.63416 17.5893 5.87189 16.8999 6.00373C15.5816 6.25659 14.4448 5.96266 13.63 5.5542C12.8973 6.00589 11.9529 6.33439 11.0906 6.33439L11.0884 6.34087ZM13.6041 3.50754C13.4852 3.50754 13.362 3.52483 13.2367 3.55725C12.8952 3.64802 12.6207 3.86198 12.5667 4.07378C12.5624 4.10187 12.6056 4.27044 12.893 4.54708C13.0594 4.70485 13.2972 4.88639 13.5976 5.05712C13.9801 4.79345 14.2675 4.50385 14.3929 4.24883C14.529 3.9722 14.4145 3.85549 14.3734 3.81227C14.1768 3.61344 13.9045 3.50754 13.6019 3.50754H13.6041ZM9.72903 4.22938C9.46968 4.22938 9.16495 4.53195 9.10876 4.78697C9.09796 4.83884 9.09147 4.88855 9.08931 4.93609C10.1008 4.74159 10.1764 4.45415 10.1786 4.44982C10.1807 4.38931 10.0381 4.25748 9.7636 4.23154C9.7528 4.23154 9.74199 4.23154 9.73119 4.23154L9.72903 4.22938ZM18.4106 3.81011C18.2809 3.81011 18.1296 3.83172 17.9632 3.87711C17.84 3.90952 17.8378 3.95707 17.8357 3.98733C17.8249 4.17319 18.0734 4.52979 18.4689 4.83019C18.6591 4.65298 18.7823 4.46711 18.8385 4.29422C18.8666 4.20345 18.9012 4.03703 18.7974 3.92897C18.7218 3.84901 18.5878 3.81011 18.4127 3.81011H18.4106Z" fill="#153C4A"/>
<path d="M48.75 40.5548C47.8726 40.5548 47.0232 40.2587 46.189 39.6687C46.1868 39.6687 46.1847 39.6665 46.1825 39.6644C45.5601 39.9237 44.8944 39.9734 44.3952 39.7552C43.8355 39.5109 43.5307 38.9555 43.5372 38.1948C43.5372 38.0759 43.6345 37.9808 43.7533 37.9808C43.8722 37.9808 43.9694 38.0802 43.9673 38.1991C43.963 38.7934 44.164 39.1824 44.5659 39.3597C44.9117 39.5109 45.3786 39.4893 45.8389 39.3316C45.5385 38.9253 45.4628 38.3828 45.6401 37.7993C45.8389 37.1444 46.3857 36.4593 46.9562 36.4442C47.1551 36.4377 47.5181 36.5155 47.7256 37.0861C47.9677 37.7539 47.7494 38.4714 47.1291 39.0528C46.9714 39.1997 46.8006 39.3294 46.6191 39.4396C48.1449 40.4338 49.6815 40.3495 51.4321 39.1803C51.5769 39.083 51.7087 38.9879 51.8319 38.8907C51.8211 38.8323 51.8103 38.7697 51.806 38.707C51.7152 37.795 52.2296 36.6517 52.7893 36.5198C53.0746 36.4528 53.321 36.5696 53.4333 36.8224C53.6495 37.3195 53.3188 38.1883 52.329 39.0441C52.4867 39.4223 52.8325 39.6212 53.362 39.6385C54.7819 39.686 55.48 39.2105 55.7718 38.9209C55.7372 38.8777 55.7048 38.8366 55.6767 38.7956C55.3179 38.2704 55.3222 37.715 55.4886 37.3995C55.5859 37.2157 55.7372 37.1077 55.9036 37.1077H55.9101C56.191 37.1077 56.3445 37.2438 56.4223 37.3562C56.7292 37.8036 56.4136 38.6897 56.3402 38.882C56.9366 39.3921 58.2269 39.8956 61.0148 39.5801C61.1315 39.5671 61.2396 39.6514 61.2547 39.7703C61.2677 39.8892 61.1834 39.9951 61.0645 40.0102C58.162 40.3387 56.7551 39.7854 56.0787 39.2257C55.7156 39.5866 54.9073 40.1247 53.3512 40.0707C52.7029 40.0491 52.2296 39.7833 51.9875 39.3208C51.8902 39.3942 51.7865 39.4656 51.6784 39.539C50.6648 40.2177 49.6945 40.5548 48.7565 40.5548H48.75ZM46.9778 36.8764H46.9714C46.6882 36.8829 46.243 37.3173 46.0572 37.9246C45.9837 38.1688 45.8735 38.7307 46.2538 39.1522C46.4635 39.0398 46.6623 38.9015 46.8374 38.7372C47.1248 38.4671 47.57 37.916 47.3236 37.233C47.2372 36.9975 47.1226 36.8764 46.98 36.8764H46.9778ZM52.9449 36.9326C52.9298 36.9326 52.9103 36.9348 52.8866 36.9413C52.6488 36.9975 52.2036 37.7885 52.2274 38.5492C52.9579 37.849 53.1351 37.2287 53.0335 36.9953C53.0227 36.9694 53.0054 36.9326 52.9428 36.9326H52.9449ZM55.9079 37.5378H55.9058C55.8669 37.5615 55.7458 37.8166 55.856 38.1861C55.8798 38.2683 55.9252 38.3806 56.0073 38.5081C56.1067 38.1732 56.1716 37.756 56.0635 37.5983C56.0506 37.5788 56.0203 37.5356 55.9079 37.5356V37.5378Z" fill="#153C4A"/>
<defs>
<linearGradient id="paint0_linear_353_5762" x1="3.23633" y1="3.26989" x2="10.9695" y2="16.8145" gradientUnits="userSpaceOnUse">
<stop stop-color="#F39025"/>
<stop offset="1" stop-color="#53D1FF"/>
</linearGradient>
<linearGradient id="paint1_linear_353_5762" x1="40.8992" y1="33.598" x2="48.6323" y2="47.1427" gradientUnits="userSpaceOnUse">
<stop stop-color="#F39025"/>
<stop offset="1" stop-color="#53D1FF"/>
</linearGradient>
</defs>
</svg>
